<?xml version="1.0" encoding="utf-8" standalone="no"?>
<!DOCTYPE svg PUBLIC "-//W3C//DTD SVG 1.1//EN"
  "http://www.w3.org/Graphics/SVG/1.1/DTD/svg11.dtd">
<svg xmlns:xlink="http://www.w3.org/1999/xlink" width="864pt" height="576pt" viewBox="0 0 864 576" xmlns="http://www.w3.org/2000/svg" version="1.1">
 <metadata>
  <rdf:RDF xmlns:dc="http://purl.org/dc/elements/1.1/" xmlns:cc="http://creativecommons.org/ns#" xmlns:rdf="http://www.w3.org/1999/02/22-rdf-syntax-ns#">
   <cc:Work>
    <dc:type rdf:resource="http://purl.org/dc/dcmitype/StillImage"/>
    <dc:date>2022-01-29T11:22:56.849608</dc:date>
    <dc:format>image/svg+xml</dc:format>
    <dc:creator>
     <cc:Agent>
      <dc:title>Matplotlib v3.5.0, https://matplotlib.org/</dc:title>
     </cc:Agent>
    </dc:creator>
   </cc:Work>
  </rdf:RDF>
 </metadata>
 <defs>
  <style type="text/css">*{stroke-linejoin: round; stroke-linecap: butt}</style>
 </defs>
 <g id="figure_1">
  <g id="patch_1">
   <path d="M 0 576 
L 864 576 
L 864 0 
L 0 0 
z
" style="fill: #ffffff"/>
  </g>
  <g id="axes_1">
   <g id="patch_2">
    <path d="M 108 512.64 
L 777.6 512.64 
L 777.6 69.12 
L 108 69.12 
z
" style="fill: #ffffff"/>
   </g>
   <g id="matplotlib.axis_1">
    <g id="xtick_1">
     <g id="line2d_1">
      <defs>
       <path id="ma4e22865d3" d="M 0 0 
L 0 3.5 
" style="stroke: #000000; stroke-width: 0.8"/>
      </defs>
      <g>
       <use xlink:href="#ma4e22865d3" x="138.436364" y="512.64" style="stroke: #000000; stroke-width: 0.8"/>
      </g>
     </g>
     <g id="text_1">
      <!-- 0 -->
      <g transform="translate(133.346364 531.7975)scale(0.16 -0.16)">
       <defs>
        <path id="DejaVuSans-30" d="M 2034 4250 
Q 1547 4250 1301 3770 
Q 1056 3291 1056 2328 
Q 1056 1369 1301 889 
Q 1547 409 2034 409 
Q 2525 409 2770 889 
Q 3016 1369 3016 2328 
Q 3016 3291 2770 3770 
Q 2525 4250 2034 4250 
z
M 2034 4750 
Q 2819 4750 3233 4129 
Q 3647 3509 3647 2328 
Q 3647 1150 3233 529 
Q 2819 -91 2034 -91 
Q 1250 -91 836 529 
Q 422 1150 422 2328 
Q 422 3509 836 4129 
Q 1250 4750 2034 4750 
z
" transform="scale(0.015625)"/>
       </defs>
       <use xlink:href="#DejaVuSans-30"/>
      </g>
     </g>
    </g>
    <g id="xtick_2">
     <g id="line2d_2">
      <g>
       <use xlink:href="#ma4e22865d3" x="265.386785" y="512.64" style="stroke: #000000; stroke-width: 0.8"/>
      </g>
     </g>
     <g id="text_2">
      <!-- 200 -->
      <g transform="translate(250.116785 531.7975)scale(0.16 -0.16)">
       <defs>
        <path id="DejaVuSans-32" d="M 1228 531 
L 3431 531 
L 3431 0 
L 469 0 
L 469 531 
Q 828 903 1448 1529 
Q 2069 2156 2228 2338 
Q 2531 2678 2651 2914 
Q 2772 3150 2772 3378 
Q 2772 3750 2511 3984 
Q 2250 4219 1831 4219 
Q 1534 4219 1204 4116 
Q 875 4013 500 3803 
L 500 4441 
Q 881 4594 1212 4672 
Q 1544 4750 1819 4750 
Q 2544 4750 2975 4387 
Q 3406 4025 3406 3419 
Q 3406 3131 3298 2873 
Q 3191 2616 2906 2266 
Q 2828 2175 2409 1742 
Q 1991 1309 1228 531 
z
" transform="scale(0.015625)"/>
       </defs>
       <use xlink:href="#DejaVuSans-32"/>
       <use xlink:href="#DejaVuSans-30" x="63.623047"/>
       <use xlink:href="#DejaVuSans-30" x="127.246094"/>
      </g>
     </g>
    </g>
    <g id="xtick_3">
     <g id="line2d_3">
      <g>
       <use xlink:href="#ma4e22865d3" x="392.337207" y="512.64" style="stroke: #000000; stroke-width: 0.8"/>
      </g>
     </g>
     <g id="text_3">
      <!-- 400 -->
      <g transform="translate(377.067207 531.7975)scale(0.16 -0.16)">
       <defs>
        <path id="DejaVuSans-34" d="M 2419 4116 
L 825 1625 
L 2419 1625 
L 2419 4116 
z
M 2253 4666 
L 3047 4666 
L 3047 1625 
L 3713 1625 
L 3713 1100 
L 3047 1100 
L 3047 0 
L 2419 0 
L 2419 1100 
L 313 1100 
L 313 1709 
L 2253 4666 
z
" transform="scale(0.015625)"/>
       </defs>
       <use xlink:href="#DejaVuSans-34"/>
       <use xlink:href="#DejaVuSans-30" x="63.623047"/>
       <use xlink:href="#DejaVuSans-30" x="127.246094"/>
      </g>
     </g>
    </g>
    <g id="xtick_4">
     <g id="line2d_4">
      <g>
       <use xlink:href="#ma4e22865d3" x="519.287629" y="512.64" style="stroke: #000000; stroke-width: 0.8"/>
      </g>
     </g>
     <g id="text_4">
      <!-- 600 -->
      <g transform="translate(504.017629 531.7975)scale(0.16 -0.16)">
       <defs>
        <path id="DejaVuSans-36" d="M 2113 2584 
Q 1688 2584 1439 2293 
Q 1191 2003 1191 1497 
Q 1191 994 1439 701 
Q 1688 409 2113 409 
Q 2538 409 2786 701 
Q 3034 994 3034 1497 
Q 3034 2003 2786 2293 
Q 2538 2584 2113 2584 
z
M 3366 4563 
L 3366 3988 
Q 3128 4100 2886 4159 
Q 2644 4219 2406 4219 
Q 1781 4219 1451 3797 
Q 1122 3375 1075 2522 
Q 1259 2794 1537 2939 
Q 1816 3084 2150 3084 
Q 2853 3084 3261 2657 
Q 3669 2231 3669 1497 
Q 3669 778 3244 343 
Q 2819 -91 2113 -91 
Q 1303 -91 875 529 
Q 447 1150 447 2328 
Q 447 3434 972 4092 
Q 1497 4750 2381 4750 
Q 2619 4750 2861 4703 
Q 3103 4656 3366 4563 
z
" transform="scale(0.015625)"/>
       </defs>
       <use xlink:href="#DejaVuSans-36"/>
       <use xlink:href="#DejaVuSans-30" x="63.623047"/>
       <use xlink:href="#DejaVuSans-30" x="127.246094"/>
      </g>
     </g>
    </g>
    <g id="xtick_5">
     <g id="line2d_5">
      <g>
       <use xlink:href="#ma4e22865d3" x="646.238051" y="512.64" style="stroke: #000000; stroke-width: 0.8"/>
      </g>
     </g>
     <g id="text_5">
      <!-- 800 -->
      <g transform="translate(630.968051 531.7975)scale(0.16 -0.16)">
       <defs>
        <path id="DejaVuSans-38" d="M 2034 2216 
Q 1584 2216 1326 1975 
Q 1069 1734 1069 1313 
Q 1069 891 1326 650 
Q 1584 409 2034 409 
Q 2484 409 2743 651 
Q 3003 894 3003 1313 
Q 3003 1734 2745 1975 
Q 2488 2216 2034 2216 
z
M 1403 2484 
Q 997 2584 770 2862 
Q 544 3141 544 3541 
Q 544 4100 942 4425 
Q 1341 4750 2034 4750 
Q 2731 4750 3128 4425 
Q 3525 4100 3525 3541 
Q 3525 3141 3298 2862 
Q 3072 2584 2669 2484 
Q 3125 2378 3379 2068 
Q 3634 1759 3634 1313 
Q 3634 634 3220 271 
Q 2806 -91 2034 -91 
Q 1263 -91 848 271 
Q 434 634 434 1313 
Q 434 1759 690 2068 
Q 947 2378 1403 2484 
z
M 1172 3481 
Q 1172 3119 1398 2916 
Q 1625 2713 2034 2713 
Q 2441 2713 2670 2916 
Q 2900 3119 2900 3481 
Q 2900 3844 2670 4047 
Q 2441 4250 2034 4250 
Q 1625 4250 1398 4047 
Q 1172 3844 1172 3481 
z
" transform="scale(0.015625)"/>
       </defs>
       <use xlink:href="#DejaVuSans-38"/>
       <use xlink:href="#DejaVuSans-30" x="63.623047"/>
       <use xlink:href="#DejaVuSans-30" x="127.246094"/>
      </g>
     </g>
    </g>
    <g id="xtick_6">
     <g id="line2d_6">
      <g>
       <use xlink:href="#ma4e22865d3" x="773.188473" y="512.64" style="stroke: #000000; stroke-width: 0.8"/>
      </g>
     </g>
     <g id="text_6">
      <!-- 1000 -->
      <g transform="translate(752.828473 531.7975)scale(0.16 -0.16)">
       <defs>
        <path id="DejaVuSans-31" d="M 794 531 
L 1825 531 
L 1825 4091 
L 703 3866 
L 703 4441 
L 1819 4666 
L 2450 4666 
L 2450 531 
L 3481 531 
L 3481 0 
L 794 0 
L 794 531 
z
" transform="scale(0.015625)"/>
       </defs>
       <use xlink:href="#DejaVuSans-31"/>
       <use xlink:href="#DejaVuSans-30" x="63.623047"/>
       <use xlink:href="#DejaVuSans-30" x="127.246094"/>
       <use xlink:href="#DejaVuSans-30" x="190.869141"/>
      </g>
     </g>
    </g>
    <g id="text_7">
     <!-- Training steps -->
     <g transform="translate(387.22375 551.2825)scale(0.16 -0.16)">
      <defs>
       <path id="DejaVuSans-54" d="M -19 4666 
L 3928 4666 
L 3928 4134 
L 2272 4134 
L 2272 0 
L 1638 0 
L 1638 4134 
L -19 4134 
L -19 4666 
z
" transform="scale(0.015625)"/>
       <path id="DejaVuSans-72" d="M 2631 2963 
Q 2534 3019 2420 3045 
Q 2306 3072 2169 3072 
Q 1681 3072 1420 2755 
Q 1159 2438 1159 1844 
L 1159 0 
L 581 0 
L 581 3500 
L 1159 3500 
L 1159 2956 
Q 1341 3275 1631 3429 
Q 1922 3584 2338 3584 
Q 2397 3584 2469 3576 
Q 2541 3569 2628 3553 
L 2631 2963 
z
" transform="scale(0.015625)"/>
       <path id="DejaVuSans-61" d="M 2194 1759 
Q 1497 1759 1228 1600 
Q 959 1441 959 1056 
Q 959 750 1161 570 
Q 1363 391 1709 391 
Q 2188 391 2477 730 
Q 2766 1069 2766 1631 
L 2766 1759 
L 2194 1759 
z
M 3341 1997 
L 3341 0 
L 2766 0 
L 2766 531 
Q 2569 213 2275 61 
Q 1981 -91 1556 -91 
Q 1019 -91 701 211 
Q 384 513 384 1019 
Q 384 1609 779 1909 
Q 1175 2209 1959 2209 
L 2766 2209 
L 2766 2266 
Q 2766 2663 2505 2880 
Q 2244 3097 1772 3097 
Q 1472 3097 1187 3025 
Q 903 2953 641 2809 
L 641 3341 
Q 956 3463 1253 3523 
Q 1550 3584 1831 3584 
Q 2591 3584 2966 3190 
Q 3341 2797 3341 1997 
z
" transform="scale(0.015625)"/>
       <path id="DejaVuSans-69" d="M 603 3500 
L 1178 3500 
L 1178 0 
L 603 0 
L 603 3500 
z
M 603 4863 
L 1178 4863 
L 1178 4134 
L 603 4134 
L 603 4863 
z
" transform="scale(0.015625)"/>
       <path id="DejaVuSans-6e" d="M 3513 2113 
L 3513 0 
L 2938 0 
L 2938 2094 
Q 2938 2591 2744 2837 
Q 2550 3084 2163 3084 
Q 1697 3084 1428 2787 
Q 1159 2491 1159 1978 
L 1159 0 
L 581 0 
L 581 3500 
L 1159 3500 
L 1159 2956 
Q 1366 3272 1645 3428 
Q 1925 3584 2291 3584 
Q 2894 3584 3203 3211 
Q 3513 2838 3513 2113 
z
" transform="scale(0.015625)"/>
       <path id="DejaVuSans-67" d="M 2906 1791 
Q 2906 2416 2648 2759 
Q 2391 3103 1925 3103 
Q 1463 3103 1205 2759 
Q 947 2416 947 1791 
Q 947 1169 1205 825 
Q 1463 481 1925 481 
Q 2391 481 2648 825 
Q 2906 1169 2906 1791 
z
M 3481 434 
Q 3481 -459 3084 -895 
Q 2688 -1331 1869 -1331 
Q 1566 -1331 1297 -1286 
Q 1028 -1241 775 -1147 
L 775 -588 
Q 1028 -725 1275 -790 
Q 1522 -856 1778 -856 
Q 2344 -856 2625 -561 
Q 2906 -266 2906 331 
L 2906 616 
Q 2728 306 2450 153 
Q 2172 0 1784 0 
Q 1141 0 747 490 
Q 353 981 353 1791 
Q 353 2603 747 3093 
Q 1141 3584 1784 3584 
Q 2172 3584 2450 3431 
Q 2728 3278 2906 2969 
L 2906 3500 
L 3481 3500 
L 3481 434 
z
" transform="scale(0.015625)"/>
       <path id="DejaVuSans-20" transform="scale(0.015625)"/>
       <path id="DejaVuSans-73" d="M 2834 3397 
L 2834 2853 
Q 2591 2978 2328 3040 
Q 2066 3103 1784 3103 
Q 1356 3103 1142 2972 
Q 928 2841 928 2578 
Q 928 2378 1081 2264 
Q 1234 2150 1697 2047 
L 1894 2003 
Q 2506 1872 2764 1633 
Q 3022 1394 3022 966 
Q 3022 478 2636 193 
Q 2250 -91 1575 -91 
Q 1294 -91 989 -36 
Q 684 19 347 128 
L 347 722 
Q 666 556 975 473 
Q 1284 391 1588 391 
Q 1994 391 2212 530 
Q 2431 669 2431 922 
Q 2431 1156 2273 1281 
Q 2116 1406 1581 1522 
L 1381 1569 
Q 847 1681 609 1914 
Q 372 2147 372 2553 
Q 372 3047 722 3315 
Q 1072 3584 1716 3584 
Q 2034 3584 2315 3537 
Q 2597 3491 2834 3397 
z
" transform="scale(0.015625)"/>
       <path id="DejaVuSans-74" d="M 1172 4494 
L 1172 3500 
L 2356 3500 
L 2356 3053 
L 1172 3053 
L 1172 1153 
Q 1172 725 1289 603 
Q 1406 481 1766 481 
L 2356 481 
L 2356 0 
L 1766 0 
Q 1100 0 847 248 
Q 594 497 594 1153 
L 594 3053 
L 172 3053 
L 172 3500 
L 594 3500 
L 594 4494 
L 1172 4494 
z
" transform="scale(0.015625)"/>
       <path id="DejaVuSans-65" d="M 3597 1894 
L 3597 1613 
L 953 1613 
Q 991 1019 1311 708 
Q 1631 397 2203 397 
Q 2534 397 2845 478 
Q 3156 559 3463 722 
L 3463 178 
Q 3153 47 2828 -22 
Q 2503 -91 2169 -91 
Q 1331 -91 842 396 
Q 353 884 353 1716 
Q 353 2575 817 3079 
Q 1281 3584 2069 3584 
Q 2775 3584 3186 3129 
Q 3597 2675 3597 1894 
z
M 3022 2063 
Q 3016 2534 2758 2815 
Q 2500 3097 2075 3097 
Q 1594 3097 1305 2825 
Q 1016 2553 972 2059 
L 3022 2063 
z
" transform="scale(0.015625)"/>
       <path id="DejaVuSans-70" d="M 1159 525 
L 1159 -1331 
L 581 -1331 
L 581 3500 
L 1159 3500 
L 1159 2969 
Q 1341 3281 1617 3432 
Q 1894 3584 2278 3584 
Q 2916 3584 3314 3078 
Q 3713 2572 3713 1747 
Q 3713 922 3314 415 
Q 2916 -91 2278 -91 
Q 1894 -91 1617 61 
Q 1341 213 1159 525 
z
M 3116 1747 
Q 3116 2381 2855 2742 
Q 2594 3103 2138 3103 
Q 1681 3103 1420 2742 
Q 1159 2381 1159 1747 
Q 1159 1113 1420 752 
Q 1681 391 2138 391 
Q 2594 391 2855 752 
Q 3116 1113 3116 1747 
z
" transform="scale(0.015625)"/>
      </defs>
      <use xlink:href="#DejaVuSans-54"/>
      <use xlink:href="#DejaVuSans-72" x="46.333984"/>
      <use xlink:href="#DejaVuSans-61" x="87.447266"/>
      <use xlink:href="#DejaVuSans-69" x="148.726562"/>
      <use xlink:href="#DejaVuSans-6e" x="176.509766"/>
      <use xlink:href="#DejaVuSans-69" x="239.888672"/>
      <use xlink:href="#DejaVuSans-6e" x="267.671875"/>
      <use xlink:href="#DejaVuSans-67" x="331.050781"/>
      <use xlink:href="#DejaVuSans-20" x="394.527344"/>
      <use xlink:href="#DejaVuSans-73" x="426.314453"/>
      <use xlink:href="#DejaVuSans-74" x="478.414062"/>
      <use xlink:href="#DejaVuSans-65" x="517.623047"/>
      <use xlink:href="#DejaVuSans-70" x="579.146484"/>
      <use xlink:href="#DejaVuSans-73" x="642.623047"/>
     </g>
    </g>
   </g>
   <g id="matplotlib.axis_2">
    <g id="ytick_1">
     <g id="line2d_7">
      <defs>
       <path id="ma4fe19b597" d="M 0 0 
L -3.5 0 
" style="stroke: #000000; stroke-width: 0.8"/>
      </defs>
      <g>
       <use xlink:href="#ma4fe19b597" x="108" y="462.416532" style="stroke: #000000; stroke-width: 0.8"/>
      </g>
     </g>
     <g id="text_8">
      <!-- 0.8 -->
      <g transform="translate(75.555 468.495282)scale(0.16 -0.16)">
       <defs>
        <path id="DejaVuSans-2e" d="M 684 794 
L 1344 794 
L 1344 0 
L 684 0 
L 684 794 
z
" transform="scale(0.015625)"/>
       </defs>
       <use xlink:href="#DejaVuSans-30"/>
       <use xlink:href="#DejaVuSans-2e" x="63.623047"/>
       <use xlink:href="#DejaVuSans-38" x="95.410156"/>
      </g>
     </g>
    </g>
    <g id="ytick_2">
     <g id="line2d_8">
      <g>
       <use xlink:href="#ma4fe19b597" x="108" y="391.250307" style="stroke: #000000; stroke-width: 0.8"/>
      </g>
     </g>
     <g id="text_9">
      <!-- 1.0 -->
      <g transform="translate(75.555 397.329057)scale(0.16 -0.16)">
       <use xlink:href="#DejaVuSans-31"/>
       <use xlink:href="#DejaVuSans-2e" x="63.623047"/>
       <use xlink:href="#DejaVuSans-30" x="95.410156"/>
      </g>
     </g>
    </g>
    <g id="ytick_3">
     <g id="line2d_9">
      <g>
       <use xlink:href="#ma4fe19b597" x="108" y="320.084082" style="stroke: #000000; stroke-width: 0.8"/>
      </g>
     </g>
     <g id="text_10">
      <!-- 1.2 -->
      <g transform="translate(75.555 326.162832)scale(0.16 -0.16)">
       <use xlink:href="#DejaVuSans-31"/>
       <use xlink:href="#DejaVuSans-2e" x="63.623047"/>
       <use xlink:href="#DejaVuSans-32" x="95.410156"/>
      </g>
     </g>
    </g>
    <g id="ytick_4">
     <g id="line2d_10">
      <g>
       <use xlink:href="#ma4fe19b597" x="108" y="248.917857" style="stroke: #000000; stroke-width: 0.8"/>
      </g>
     </g>
     <g id="text_11">
      <!-- 1.4 -->
      <g transform="translate(75.555 254.996607)scale(0.16 -0.16)">
       <use xlink:href="#DejaVuSans-31"/>
       <use xlink:href="#DejaVuSans-2e" x="63.623047"/>
       <use xlink:href="#DejaVuSans-34" x="95.410156"/>
      </g>
     </g>
    </g>
    <g id="ytick_5">
     <g id="line2d_11">
      <g>
       <use xlink:href="#ma4fe19b597" x="108" y="177.751633" style="stroke: #000000; stroke-width: 0.8"/>
      </g>
     </g>
     <g id="text_12">
      <!-- 1.6 -->
      <g transform="translate(75.555 183.830383)scale(0.16 -0.16)">
       <use xlink:href="#DejaVuSans-31"/>
       <use xlink:href="#DejaVuSans-2e" x="63.623047"/>
       <use xlink:href="#DejaVuSans-36" x="95.410156"/>
      </g>
     </g>
    </g>
    <g id="ytick_6">
     <g id="line2d_12">
      <g>
       <use xlink:href="#ma4fe19b597" x="108" y="106.585408" style="stroke: #000000; stroke-width: 0.8"/>
      </g>
     </g>
     <g id="text_13">
      <!-- 1.8 -->
      <g transform="translate(75.555 112.664158)scale(0.16 -0.16)">
       <use xlink:href="#DejaVuSans-31"/>
       <use xlink:href="#DejaVuSans-2e" x="63.623047"/>
       <use xlink:href="#DejaVuSans-38" x="95.410156"/>
      </g>
     </g>
    </g>
    <g id="text_14">
     <!-- Loss -->
     <g transform="translate(68.2275 308.4275)rotate(-90)scale(0.16 -0.16)">
      <defs>
       <path id="DejaVuSans-4c" d="M 628 4666 
L 1259 4666 
L 1259 531 
L 3531 531 
L 3531 0 
L 628 0 
L 628 4666 
z
" transform="scale(0.015625)"/>
       <path id="DejaVuSans-6f" d="M 1959 3097 
Q 1497 3097 1228 2736 
Q 959 2375 959 1747 
Q 959 1119 1226 758 
Q 1494 397 1959 397 
Q 2419 397 2687 759 
Q 2956 1122 2956 1747 
Q 2956 2369 2687 2733 
Q 2419 3097 1959 3097 
z
M 1959 3584 
Q 2709 3584 3137 3096 
Q 3566 2609 3566 1747 
Q 3566 888 3137 398 
Q 2709 -91 1959 -91 
Q 1206 -91 779 398 
Q 353 888 353 1747 
Q 353 2609 779 3096 
Q 1206 3584 1959 3584 
z
" transform="scale(0.015625)"/>
      </defs>
      <use xlink:href="#DejaVuSans-4c"/>
      <use xlink:href="#DejaVuSans-6f" x="53.962891"/>
      <use xlink:href="#DejaVuSans-73" x="115.144531"/>
      <use xlink:href="#DejaVuSans-73" x="167.244141"/>
     </g>
    </g>
   </g>
   <g id="line2d_13">
    <path d="M 138.436364 240.549951 
L 139.071116 244.866148 
L 139.705868 233.367374 
L 140.34062 246.727254 
L 140.975372 238.228478 
L 141.610124 238.923163 
L 142.244876 238.58089 
L 142.879628 245.992695 
L 143.514381 257.544533 
L 144.149133 262.167118 
L 144.783885 258.635788 
L 145.418637 232.020294 
L 146.053389 224.083307 
L 146.688141 236.722668 
L 147.322893 234.555046 
L 148.592397 249.826849 
L 149.227149 240.09442 
L 149.861902 255.826419 
L 150.496654 258.042398 
L 151.131406 264.374486 
L 151.766158 233.997414 
L 152.40091 226.074892 
L 153.035662 247.613967 
L 153.670414 249.603092 
L 154.305166 239.731106 
L 154.939918 256.715042 
L 155.574671 281.127623 
L 156.209423 271.646989 
L 156.844175 268.305397 
L 157.478927 282.788472 
L 158.113679 271.794393 
L 159.383183 293.061779 
L 160.017935 289.404212 
L 160.652687 283.754763 
L 161.28744 268.122319 
L 161.922192 279.55704 
L 162.556944 278.616625 
L 163.191696 281.173605 
L 163.826448 280.08078 
L 164.4612 280.01694 
L 165.095952 278.402073 
L 165.730704 277.206299 
L 166.365456 278.200416 
L 167.000209 266.480728 
L 167.634961 251.926898 
L 168.269713 258.08541 
L 168.904465 262.315328 
L 169.539217 252.483427 
L 170.173969 254.53215 
L 170.808721 266.655576 
L 171.443473 246.598175 
L 172.078225 280.668317 
L 172.712978 261.96631 
L 173.34773 291.267227 
L 173.982482 275.877458 
L 174.617234 271.341365 
L 175.251986 257.344149 
L 176.52149 294.355284 
L 177.156242 252.131991 
L 177.790994 272.525261 
L 178.425747 276.841246 
L 179.060499 283.119929 
L 179.695251 295.337015 
L 180.964755 313.307815 
L 181.599507 275.431514 
L 182.234259 314.428932 
L 182.869011 292.941226 
L 183.503763 301.225322 
L 184.138515 286.20663 
L 184.773268 304.727638 
L 185.40802 316.505524 
L 186.042772 301.480384 
L 186.677524 298.535446 
L 187.312276 319.258264 
L 187.947028 289.664279 
L 188.58178 288.163305 
L 189.216532 330.674407 
L 189.851284 298.131623 
L 190.486037 307.969165 
L 191.120789 278.874486 
L 191.755541 307.906853 
L 192.390293 236.785574 
L 193.025045 233.702013 
L 193.659797 238.37024 
L 194.294549 249.923139 
L 194.929301 239.164948 
L 195.564053 213.065685 
L 196.198806 224.052257 
L 196.833558 274.680794 
L 197.46831 273.607693 
L 198.103062 262.146079 
L 198.737814 292.261301 
L 199.372566 278.116809 
L 200.007318 306.755363 
L 201.276822 280.7059 
L 201.911575 272.335142 
L 202.546327 232.12617 
L 203.181079 225.900637 
L 203.815831 230.558175 
L 204.450583 257.751196 
L 205.085335 240.355802 
L 205.720087 266.100574 
L 206.354839 282.491374 
L 206.989591 274.722067 
L 207.624344 271.207322 
L 208.893848 238.798156 
L 210.163352 252.92882 
L 210.798104 273.517597 
L 211.432856 233.64356 
L 212.067608 255.741074 
L 212.70236 259.808148 
L 213.337113 262.391893 
L 213.971865 269.945376 
L 214.606617 284.136698 
L 215.241369 259.454633 
L 215.876121 263.665717 
L 216.510873 278.674144 
L 217.145625 284.67223 
L 217.780377 279.605652 
L 218.415129 267.091976 
L 219.049882 288.069263 
L 219.684634 251.958797 
L 220.319386 275.229857 
L 220.954138 253.350374 
L 221.58889 306.86353 
L 222.223642 271.900227 
L 222.858394 294.974423 
L 223.493146 285.995132 
L 224.127898 304.53544 
L 224.76265 328.764392 
L 225.397403 288.102392 
L 226.032155 301.054758 
L 226.666907 330.175906 
L 227.301659 331.85737 
L 227.936411 322.403163 
L 228.571163 332.6293 
L 229.205915 318.527905 
L 229.840667 272.859942 
L 230.475419 248.361634 
L 231.110172 317.260783 
L 231.744924 282.610315 
L 232.379676 288.188077 
L 233.014428 313.886062 
L 233.64918 299.030935 
L 234.918684 342.868799 
L 235.553436 325.381866 
L 236.188188 338.873454 
L 236.822941 336.429647 
L 237.457693 301.68764 
L 238.092445 238.315096 
L 238.727197 209.531386 
L 239.361949 206.506277 
L 239.996701 199.175958 
L 240.631453 198.306933 
L 241.266205 219.797227 
L 241.900957 170.232543 
L 242.53571 134.2828 
L 243.170462 152.285667 
L 243.805214 146.758511 
L 244.439966 160.163226 
L 245.074718 205.47479 
L 245.70947 198.277282 
L 246.344222 218.080767 
L 246.978974 261.967667 
L 247.613726 199.092521 
L 248.248479 203.388612 
L 248.883231 235.351833 
L 249.517983 174.040398 
L 250.152735 227.539386 
L 250.787487 189.322127 
L 251.422239 228.682392 
L 252.056991 231.186815 
L 252.691743 208.729891 
L 253.326495 227.777311 
L 253.961248 175.896796 
L 254.596 227.456077 
L 255.230752 212.760146 
L 255.865504 261.710697 
L 256.500256 231.936221 
L 257.135008 224.601829 
L 257.76976 253.012088 
L 258.404512 268.698954 
L 259.039264 250.058199 
L 259.674016 275.207036 
L 260.308769 244.361411 
L 260.943521 249.996226 
L 261.578273 234.623382 
L 262.213025 204.80967 
L 262.847777 193.505512 
L 263.482529 194.501326 
L 264.117281 207.816199 
L 264.752033 214.662567 
L 265.386785 211.361697 
L 266.021538 189.006407 
L 266.65629 232.710356 
L 267.925794 210.811955 
L 268.560546 207.458867 
L 269.195298 255.582132 
L 269.83005 216.215928 
L 270.464802 235.805455 
L 271.099554 237.394108 
L 271.734307 234.079536 
L 272.369059 236.678341 
L 273.003811 284.551804 
L 274.273315 255.488727 
L 274.908067 269.546219 
L 275.542819 262.834359 
L 276.177571 285.603228 
L 276.812323 288.771584 
L 277.447076 300.031033 
L 278.71658 285.909786 
L 279.351332 284.904089 
L 279.986084 312.306911 
L 280.620836 301.534849 
L 281.255588 317.418919 
L 281.89034 259.780576 
L 282.525092 235.336732 
L 283.159845 238.461948 
L 283.794597 300.920376 
L 284.429349 267.354037 
L 285.064101 275.784392 
L 285.698853 300.324229 
L 286.333605 274.705481 
L 286.968357 303.891953 
L 287.603109 280.108479 
L 288.237861 308.467624 
L 288.872614 310.691025 
L 289.507366 303.15574 
L 290.142118 287.295297 
L 290.77687 215.456342 
L 291.411622 218.337441 
L 292.046374 220.052967 
L 292.681126 212.242472 
L 293.315878 217.271255 
L 293.95063 205.381809 
L 294.585383 223.093262 
L 295.220135 218.49265 
L 295.854887 261.498096 
L 296.489639 255.094703 
L 297.124391 279.948816 
L 297.759143 237.899226 
L 298.393895 259.314016 
L 299.028647 230.966621 
L 299.663399 213.411607 
L 300.298151 211.467615 
L 300.932904 205.197543 
L 301.567656 231.346266 
L 302.83716 243.295607 
L 303.471912 251.699324 
L 304.106664 267.699153 
L 304.741416 292.496299 
L 305.376168 283.956505 
L 306.01092 278.015981 
L 306.645673 222.099145 
L 307.280425 202.457104 
L 307.915177 218.590382 
L 308.549929 238.644814 
L 309.184681 238.562607 
L 309.819433 222.794382 
L 310.454185 221.618757 
L 311.088937 219.399215 
L 311.723689 192.386091 
L 312.358442 232.751332 
L 312.993194 207.01182 
L 313.627946 198.115202 
L 314.262698 215.706781 
L 314.89745 267.393317 
L 315.532202 249.130043 
L 316.166954 239.590617 
L 316.801706 259.701847 
L 317.436458 259.038084 
L 318.071211 252.846486 
L 318.705963 276.590045 
L 319.340715 278.442625 
L 319.975467 293.422335 
L 320.610219 313.469683 
L 321.244971 279.238903 
L 321.879723 264.080272 
L 322.514475 220.260139 
L 323.149227 232.6094 
L 323.78398 232.748363 
L 324.418732 243.88518 
L 325.053484 245.683295 
L 325.688236 233.094836 
L 326.322988 254.304745 
L 326.95774 233.60988 
L 327.592492 233.801696 
L 328.227244 235.320189 
L 328.861996 273.10563 
L 329.496749 247.367941 
L 330.131501 262.623625 
L 330.766253 252.943582 
L 331.401005 257.721927 
L 332.035757 266.524249 
L 332.670509 252.511932 
L 333.305261 243.056368 
L 333.940013 284.26811 
L 334.574765 240.094886 
L 335.209517 269.8325 
L 335.84427 309.136646 
L 336.479022 276.548814 
L 337.113774 283.217492 
L 337.748526 291.952114 
L 339.01803 299.312805 
L 339.652782 256.973752 
L 340.287534 264.28108 
L 340.922286 270.035048 
L 341.557039 279.497867 
L 342.191791 282.225835 
L 342.826543 302.244254 
L 343.461295 241.670262 
L 344.096047 225.540463 
L 344.730799 284.420943 
L 345.365551 240.962342 
L 346.000303 252.636303 
L 346.635055 245.358158 
L 347.269808 257.218463 
L 347.90456 244.572146 
L 348.539312 266.706139 
L 349.174064 266.484079 
L 349.808816 294.343535 
L 350.443568 280.912095 
L 351.07832 296.810587 
L 351.713072 288.90902 
L 352.347824 268.099074 
L 352.982577 266.193258 
L 353.617329 322.904887 
L 354.252081 290.57025 
L 354.886833 313.917324 
L 355.521585 303.147765 
L 356.156337 302.856394 
L 356.791089 321.623513 
L 357.425841 312.78908 
L 358.060593 320.337982 
L 358.695346 320.272912 
L 359.330098 306.104411 
L 359.96485 323.808102 
L 361.234354 299.439381 
L 361.869106 313.612167 
L 362.503858 275.408481 
L 363.13861 276.126836 
L 363.773362 251.479215 
L 364.408115 259.742866 
L 365.042867 259.944183 
L 365.677619 296.404601 
L 366.312371 287.012833 
L 366.947123 306.616316 
L 367.581875 313.018097 
L 368.216627 278.421246 
L 368.851379 294.752151 
L 369.486131 293.874175 
L 370.120883 257.472634 
L 370.755636 290.590654 
L 371.390388 277.706836 
L 372.02514 297.266542 
L 372.659892 330.798396 
L 373.294644 319.783955 
L 373.929396 334.132141 
L 374.564148 327.869958 
L 375.1989 353.861521 
L 375.833652 352.450601 
L 376.468405 339.201264 
L 377.103157 349.333656 
L 377.737909 334.854568 
L 378.372661 344.159887 
L 379.007413 268.974419 
L 379.642165 306.01635 
L 380.276917 328.258553 
L 380.911669 281.673972 
L 381.546421 324.116314 
L 382.181174 294.965346 
L 382.815926 305.985682 
L 383.450678 284.912191 
L 384.08543 185.626468 
L 384.720182 213.341193 
L 385.354934 221.165135 
L 385.989686 245.239896 
L 386.624438 232.710568 
L 387.25919 212.177063 
L 387.893943 250.669448 
L 388.528695 244.66763 
L 389.163447 262.117913 
L 389.798199 189.440813 
L 390.432951 242.066662 
L 391.067703 254.637729 
L 392.337207 236.463279 
L 392.971959 228.434075 
L 393.606712 239.057121 
L 394.241464 268.962288 
L 394.876216 270.939153 
L 395.510968 282.141931 
L 396.14572 324.829664 
L 396.780472 336.310324 
L 397.415224 344.601547 
L 398.049976 300.142593 
L 398.684728 291.296241 
L 399.319481 316.945021 
L 399.954233 281.119394 
L 400.588985 320.087247 
L 401.223737 324.497528 
L 401.858489 306.502465 
L 402.493241 317.084577 
L 403.127993 331.415031 
L 403.762745 341.580595 
L 404.397497 374.119052 
L 405.03225 361.521601 
L 405.667002 343.381849 
L 406.936506 325.93865 
L 407.571258 306.997615 
L 408.20601 314.073636 
L 408.840762 351.293682 
L 409.475514 329.52296 
L 410.110266 323.799491 
L 410.745018 307.554059 
L 411.379771 321.534562 
L 412.014523 332.559819 
L 412.649275 329.915118 
L 413.284027 335.849194 
L 413.918779 315.982463 
L 414.553531 323.015217 
L 415.188283 350.684597 
L 415.823035 350.474923 
L 416.457787 342.884875 
L 417.09254 381.639067 
L 418.362044 349.705496 
L 418.996796 356.902494 
L 419.631548 371.487416 
L 420.2663 369.486117 
L 420.901052 340.561112 
L 421.535804 322.93581 
L 422.170556 314.687557 
L 422.805309 230.424557 
L 423.440061 119.545087 
L 424.074813 131.54813 
L 424.709565 169.600297 
L 425.344317 137.95708 
L 425.979069 152.691484 
L 426.613821 212.897708 
L 427.248573 156.515755 
L 427.883325 153.946941 
L 428.518078 192.552625 
L 429.15283 153.156474 
L 429.787582 160.568789 
L 430.422334 218.282594 
L 431.057086 230.35656 
L 431.691838 205.830383 
L 432.32659 235.148183 
L 432.961342 189.65176 
L 433.596094 258.72474 
L 434.865599 297.944812 
L 435.500351 236.824345 
L 436.135103 290.361425 
L 436.769855 273.554798 
L 437.404607 313.594393 
L 438.039359 306.278835 
L 438.674111 303.053172 
L 439.308863 274.483124 
L 439.943616 327.379856 
L 440.578368 313.238079 
L 441.21312 308.509321 
L 442.482624 360.299739 
L 443.117376 298.95174 
L 443.752128 287.043629 
L 444.38688 302.476282 
L 445.021632 298.63585 
L 445.656384 273.856774 
L 446.291137 298.148505 
L 446.925889 335.696488 
L 447.560641 329.372035 
L 448.195393 302.101474 
L 448.830145 329.793631 
L 449.464897 332.132072 
L 450.099649 324.608367 
L 450.734401 343.612351 
L 451.369153 343.095864 
L 452.003906 303.216822 
L 452.638658 342.98914 
L 453.27341 331.082556 
L 453.908162 340.069483 
L 454.542914 357.417835 
L 455.177666 379.070889 
L 455.812418 377.450379 
L 456.44717 302.549963 
L 457.081922 166.260698 
L 457.716675 187.651861 
L 458.351427 103.870012 
L 458.986179 189.218414 
L 459.620931 146.649496 
L 460.255683 195.622019 
L 460.890435 137.190707 
L 461.525187 240.78779 
L 462.159939 255.36864 
L 462.794691 260.315047 
L 463.429444 273.916669 
L 464.064196 236.985619 
L 464.698948 256.303414 
L 465.3337 303.048167 
L 465.968452 314.645181 
L 466.603204 372.03631 
L 467.237956 353.659609 
L 467.872708 378.458792 
L 468.50746 309.544202 
L 469.142213 255.970939 
L 470.411717 248.847324 
L 471.046469 263.061298 
L 471.681221 254.863438 
L 472.315973 270.157977 
L 472.950725 272.901767 
L 473.585477 256.794195 
L 474.220229 293.92372 
L 474.854982 296.965117 
L 475.489734 271.189125 
L 476.124486 280.393912 
L 476.759238 319.827477 
L 477.39399 303.896407 
L 478.028742 307.774847 
L 478.663494 366.466184 
L 479.298246 331.448796 
L 479.932998 287.505226 
L 480.56775 175.799827 
L 481.202503 202.425078 
L 481.837255 187.939203 
L 482.472007 206.528632 
L 483.106759 177.321799 
L 483.741511 220.601607 
L 484.376263 233.286991 
L 485.645767 250.430632 
L 486.280519 283.394207 
L 486.915272 190.887959 
L 487.550024 239.899465 
L 488.184776 201.947787 
L 488.819528 217.031167 
L 489.45428 257.755522 
L 490.089032 219.642357 
L 490.723784 283.898094 
L 491.358536 258.05822 
L 492.628041 272.510585 
L 493.262793 235.307973 
L 493.897545 270.907 
L 494.532297 279.342743 
L 495.167049 297.822817 
L 495.801801 290.790656 
L 496.436553 266.607007 
L 497.071305 274.759946 
L 497.706057 248.45559 
L 498.34081 261.588404 
L 498.975562 236.532421 
L 499.610314 242.205837 
L 500.245066 266.817784 
L 500.879818 270.763541 
L 501.51457 282.678736 
L 502.149322 271.573266 
L 502.784074 276.725571 
L 503.418826 274.323207 
L 504.053579 268.152097 
L 504.688331 311.421342 
L 505.323083 311.558905 
L 505.957835 308.658252 
L 506.592587 327.083988 
L 507.862091 290.931188 
L 508.496843 295.761326 
L 509.131595 323.591132 
L 509.766348 311.619139 
L 510.4011 328.06152 
L 511.035852 306.6192 
L 511.670604 334.667842 
L 512.305356 268.893061 
L 512.940108 289.571001 
L 513.57486 225.343217 
L 514.209612 247.081278 
L 514.844364 264.089477 
L 515.479117 260.593906 
L 516.113869 214.154607 
L 516.748621 245.267425 
L 517.383373 301.838565 
L 518.018125 292.79993 
L 518.652877 289.733209 
L 519.287629 321.00658 
L 519.922381 296.74836 
L 520.557133 321.209722 
L 521.191885 319.343059 
L 521.826638 325.931523 
L 522.46139 372.075377 
L 523.096142 353.528494 
L 523.730894 328.829886 
L 524.365646 330.847558 
L 525.000398 331.112207 
L 525.63515 321.788733 
L 526.269902 318.467756 
L 526.904654 299.700721 
L 527.539407 311.855367 
L 528.174159 315.447482 
L 528.808911 310.760761 
L 529.443663 287.240875 
L 530.078415 289.327901 
L 530.713167 279.352117 
L 531.347919 280.362905 
L 531.982671 293.911588 
L 532.617423 262.41815 
L 533.252176 309.996806 
L 533.886928 302.656603 
L 534.52168 307.621674 
L 535.156432 347.489772 
L 535.791184 298.239874 
L 536.425936 338.759434 
L 537.060688 330.075459 
L 537.69544 349.208692 
L 538.330192 340.287004 
L 538.964945 312.936315 
L 539.599697 352.438724 
L 540.234449 320.203558 
L 540.869201 373.623139 
L 542.138705 333.095054 
L 542.773457 378.883993 
L 543.408209 337.926252 
L 544.042961 373.057575 
L 544.677714 344.955231 
L 545.312466 393.556446 
L 545.947218 346.03427 
L 546.58197 334.069573 
L 547.216722 155.842745 
L 547.851474 89.28 
L 548.486226 144.074191 
L 549.120978 108.979391 
L 549.75573 142.253849 
L 550.390483 166.281186 
L 551.659987 136.802833 
L 552.294739 168.848516 
L 552.929491 92.434061 
L 553.564243 227.972139 
L 554.198995 150.855235 
L 554.833747 177.970121 
L 555.468499 156.007498 
L 556.103251 220.887591 
L 556.738004 226.89293 
L 557.372756 260.022615 
L 558.007508 268.603343 
L 558.64226 248.812371 
L 559.277012 257.628437 
L 559.911764 273.524935 
L 560.546516 274.802958 
L 561.181268 282.236015 
L 561.81602 309.557436 
L 562.450773 281.367711 
L 563.085525 273.396959 
L 563.720277 282.797295 
L 564.355029 299.250365 
L 564.989781 285.371751 
L 565.624533 294.807804 
L 566.259285 264.212575 
L 566.894037 318.715309 
L 567.528789 262.401183 
L 568.163542 278.042704 
L 568.798294 279.464568 
L 569.433046 245.041038 
L 570.067798 267.224237 
L 570.70255 271.28393 
L 571.337302 266.198009 
L 571.972054 270.529604 
L 572.606806 305.423681 
L 573.241558 248.811947 
L 573.876311 257.736264 
L 574.511063 236.208515 
L 575.145815 265.561818 
L 575.780567 252.175809 
L 576.415319 276.845106 
L 577.050071 278.178613 
L 577.684823 279.004244 
L 578.319575 300.422809 
L 578.954327 317.458198 
L 579.58908 320.215817 
L 580.223832 302.280564 
L 580.858584 300.517656 
L 581.493336 279.078646 
L 582.128088 301.797928 
L 582.76284 276.402555 
L 583.397592 273.622667 
L 584.032344 301.065617 
L 584.667096 256.059805 
L 585.301849 306.841218 
L 585.936601 272.547913 
L 586.571353 319.064964 
L 587.206105 311.476274 
L 587.840857 291.698494 
L 588.475609 300.342384 
L 590.379865 353.471314 
L 591.014617 342.650599 
L 591.64937 363.507375 
L 592.918874 307.642459 
L 593.553626 326.638765 
L 594.188378 339.887508 
L 594.82313 336.955083 
L 595.457882 323.67775 
L 597.362139 320.56212 
L 597.996891 319.417503 
L 599.266395 309.30878 
L 599.901147 308.754372 
L 600.535899 330.185662 
L 601.170651 308.195976 
L 601.805403 315.397556 
L 602.440155 308.387622 
L 603.074908 322.782129 
L 603.70966 292.783599 
L 604.344412 304.681105 
L 604.979164 275.288988 
L 605.613916 291.16432 
L 606.248668 298.819394 
L 606.88342 280.950229 
L 607.518172 247.628856 
L 608.152924 286.952005 
L 608.787677 270.906873 
L 609.422429 276.833484 
L 610.057181 297.091185 
L 610.691933 253.087974 
L 611.326685 294.126522 
L 611.961437 284.296361 
L 612.596189 338.581022 
L 613.230941 319.033108 
L 614.500446 347.067115 
L 615.135198 331.403663 
L 615.76995 311.479328 
L 616.404702 316.576914 
L 617.039454 268.458697 
L 617.674206 272.809592 
L 618.308958 273.722266 
L 618.94371 276.933252 
L 619.578462 217.849757 
L 620.213215 218.811381 
L 620.847967 242.949261 
L 621.482719 231.369935 
L 622.117471 250.690912 
L 622.752223 309.777248 
L 623.386975 258.722364 
L 624.656479 339.36661 
L 625.291231 298.341085 
L 625.925984 333.836272 
L 626.560736 354.05796 
L 627.195488 323.460907 
L 627.83024 310.838896 
L 628.464992 333.378833 
L 629.099744 303.192432 
L 629.734496 315.783351 
L 630.369248 283.646087 
L 631.004 324.690955 
L 631.638752 286.954847 
L 632.273505 339.843478 
L 632.908257 358.1946 
L 633.543009 312.700384 
L 634.177761 333.968787 
L 634.812513 386.833706 
L 635.447265 414.447347 
L 636.082017 432.223658 
L 636.716769 413.81735 
L 637.351521 304.674657 
L 637.986274 232.899372 
L 638.621026 288.919115 
L 639.255778 275.482501 
L 639.89053 327.175018 
L 640.525282 325.043113 
L 641.160034 368.570856 
L 641.794786 382.456511 
L 642.429538 374.296276 
L 643.06429 361.032856 
L 643.699043 327.580835 
L 644.333795 329.477996 
L 644.968547 332.156505 
L 646.238051 336.575948 
L 646.872803 362.784608 
L 647.507555 363.293586 
L 648.142307 336.239188 
L 648.777059 320.546383 
L 649.411812 310.296492 
L 650.046564 313.652676 
L 650.681316 323.994276 
L 651.316068 311.440473 
L 651.95082 339.204191 
L 652.585572 314.10019 
L 653.220324 361.248808 
L 653.855076 356.640561 
L 654.489828 329.991895 
L 655.124581 366.453713 
L 655.759333 343.79458 
L 656.394085 354.489525 
L 657.028837 385.546987 
L 657.663589 343.337225 
L 658.298341 330.147613 
L 658.933093 271.343994 
L 659.567845 271.424674 
L 660.202597 270.159504 
L 660.83735 261.903149 
L 661.472102 328.556627 
L 662.106854 291.917331 
L 662.741606 276.405101 
L 663.376358 327.430419 
L 664.01111 295.179389 
L 664.645862 302.599169 
L 665.280614 337.979572 
L 665.915366 315.882737 
L 666.550118 353.292903 
L 667.184871 352.57442 
L 667.819623 360.344533 
L 668.454375 377.734413 
L 669.089127 313.46489 
L 669.723879 373.596076 
L 670.358631 384.029979 
L 670.993383 380.640878 
L 671.628135 410.015263 
L 672.262887 382.292522 
L 672.89764 415.036687 
L 673.532392 431.981259 
L 674.167144 430.63123 
L 674.801896 419.08024 
L 675.436648 444.626494 
L 676.0714 397.853703 
L 676.706152 425.528066 
L 677.340904 463.468567 
L 677.975656 393.489191 
L 678.610409 428.233553 
L 679.245161 417.721579 
L 679.879913 378.976084 
L 680.514665 392.107413 
L 681.149417 345.311206 
L 681.784169 279.469277 
L 682.418921 252.234983 
L 683.053673 277.312854 
L 683.688425 275.187354 
L 684.323178 303.270863 
L 684.95793 279.016418 
L 685.592682 287.390484 
L 686.227434 366.826655 
L 686.862186 305.881375 
L 687.496938 378.849889 
L 688.13169 338.973307 
L 688.766442 390.517318 
L 689.401194 422.693098 
L 690.035947 425.053299 
L 690.670699 422.09169 
L 691.305451 387.222004 
L 691.940203 408.116447 
L 693.209707 426.804838 
L 693.844459 450.217194 
L 694.479211 414.758359 
L 695.113963 428.770442 
L 695.748716 467.314662 
L 696.383468 386.409437 
L 697.01822 403.785573 
L 697.652972 436.720473 
L 698.287724 387.950794 
L 698.922476 407.830759 
L 699.557228 390.543872 
L 700.19198 439.627107 
L 700.826732 426.413189 
L 701.461485 418.862337 
L 702.096237 416.810942 
L 702.730989 421.410557 
L 703.365741 443.448621 
L 704.000493 456.625677 
L 704.635245 387.642115 
L 705.269997 419.20372 
L 706.539501 437.752151 
L 707.174253 418.247631 
L 707.809006 431.823611 
L 708.443758 398.211438 
L 709.07851 404.587069 
L 709.713262 484.220867 
L 710.348014 472.791384 
L 710.982766 422.568366 
L 711.617518 444.553111 
L 712.25227 492.48 
L 712.887022 428.568552 
L 713.521775 467.780395 
L 714.156527 476.108479 
L 714.791279 467.970154 
L 715.426031 492.158617 
L 716.060783 395.979553 
L 716.695535 472.252204 
L 717.330287 451.636598 
L 717.965039 418.523923 
L 718.599791 432.503429 
L 719.234544 371.213436 
L 719.869296 361.35689 
L 720.504048 397.754359 
L 721.1388 388.319791 
L 721.773552 438.329444 
L 722.408304 439.32144 
L 723.043056 476.89078 
L 724.31256 379.870136 
L 724.947313 334.02847 
L 725.582065 309.644564 
L 726.216817 238.670647 
L 726.851569 320.697774 
L 727.486321 310.81705 
L 728.121073 379.669836 
L 728.755825 420.260977 
L 729.390577 434.447654 
L 730.025329 416.276555 
L 730.660082 356.620412 
L 731.294834 397.65667 
L 731.929586 423.361569 
L 732.564338 453.809521 
L 733.19909 380.990702 
L 733.833842 345.403085 
L 734.468594 301.505368 
L 735.103346 361.639778 
L 735.738098 349.343752 
L 736.372851 390.941247 
L 737.007603 380.960458 
L 737.642355 355.642923 
L 738.277107 279.847564 
L 738.911859 348.883852 
L 739.546611 304.958606 
L 740.181363 386.207526 
L 740.816115 344.894743 
L 741.450867 375.531075 
L 742.085619 371.289068 
L 742.720372 417.565352 
L 743.355124 365.318512 
L 743.989876 421.117022 
L 745.25938 375.066255 
L 745.894132 380.076671 
L 746.528884 420.43241 
L 747.163636 349.62418 
L 747.163636 349.62418 
" clip-path="url(#p45206e2ac2)" style="fill: none; stroke: #1f77b4; stroke-width: 1.5; stroke-linecap: square"/>
   </g>
   <g id="patch_3">
    <path d="M 108 512.64 
L 108 69.12 
" style="fill: none; stroke: #000000; stroke-width: 0.8; stroke-linejoin: miter; stroke-linecap: square"/>
   </g>
   <g id="patch_4">
    <path d="M 777.6 512.64 
L 777.6 69.12 
" style="fill: none; stroke: #000000; stroke-width: 0.8; stroke-linejoin: miter; stroke-linecap: square"/>
   </g>
   <g id="patch_5">
    <path d="M 108 512.64 
L 777.6 512.64 
" style="fill: none; stroke: #000000; stroke-width: 0.8; stroke-linejoin: miter; stroke-linecap: square"/>
   </g>
   <g id="patch_6">
    <path d="M 108 69.12 
L 777.6 69.12 
" style="fill: none; stroke: #000000; stroke-width: 0.8; stroke-linejoin: miter; stroke-linecap: square"/>
   </g>
   <g id="text_15">
    <!-- Discriminator loss across training steps -->
    <g transform="translate(253.8075 63.12)scale(0.192 -0.192)">
     <defs>
      <path id="DejaVuSans-44" d="M 1259 4147 
L 1259 519 
L 2022 519 
Q 2988 519 3436 956 
Q 3884 1394 3884 2338 
Q 3884 3275 3436 3711 
Q 2988 4147 2022 4147 
L 1259 4147 
z
M 628 4666 
L 1925 4666 
Q 3281 4666 3915 4102 
Q 4550 3538 4550 2338 
Q 4550 1131 3912 565 
Q 3275 0 1925 0 
L 628 0 
L 628 4666 
z
" transform="scale(0.015625)"/>
      <path id="DejaVuSans-63" d="M 3122 3366 
L 3122 2828 
Q 2878 2963 2633 3030 
Q 2388 3097 2138 3097 
Q 1578 3097 1268 2742 
Q 959 2388 959 1747 
Q 959 1106 1268 751 
Q 1578 397 2138 397 
Q 2388 397 2633 464 
Q 2878 531 3122 666 
L 3122 134 
Q 2881 22 2623 -34 
Q 2366 -91 2075 -91 
Q 1284 -91 818 406 
Q 353 903 353 1747 
Q 353 2603 823 3093 
Q 1294 3584 2113 3584 
Q 2378 3584 2631 3529 
Q 2884 3475 3122 3366 
z
" transform="scale(0.015625)"/>
      <path id="DejaVuSans-6d" d="M 3328 2828 
Q 3544 3216 3844 3400 
Q 4144 3584 4550 3584 
Q 5097 3584 5394 3201 
Q 5691 2819 5691 2113 
L 5691 0 
L 5113 0 
L 5113 2094 
Q 5113 2597 4934 2840 
Q 4756 3084 4391 3084 
Q 3944 3084 3684 2787 
Q 3425 2491 3425 1978 
L 3425 0 
L 2847 0 
L 2847 2094 
Q 2847 2600 2669 2842 
Q 2491 3084 2119 3084 
Q 1678 3084 1418 2786 
Q 1159 2488 1159 1978 
L 1159 0 
L 581 0 
L 581 3500 
L 1159 3500 
L 1159 2956 
Q 1356 3278 1631 3431 
Q 1906 3584 2284 3584 
Q 2666 3584 2933 3390 
Q 3200 3197 3328 2828 
z
" transform="scale(0.015625)"/>
      <path id="DejaVuSans-6c" d="M 603 4863 
L 1178 4863 
L 1178 0 
L 603 0 
L 603 4863 
z
" transform="scale(0.015625)"/>
     </defs>
     <use xlink:href="#DejaVuSans-44"/>
     <use xlink:href="#DejaVuSans-69" x="77.001953"/>
     <use xlink:href="#DejaVuSans-73" x="104.785156"/>
     <use xlink:href="#DejaVuSans-63" x="156.884766"/>
     <use xlink:href="#DejaVuSans-72" x="211.865234"/>
     <use xlink:href="#DejaVuSans-69" x="252.978516"/>
     <use xlink:href="#DejaVuSans-6d" x="280.761719"/>
     <use xlink:href="#DejaVuSans-69" x="378.173828"/>
     <use xlink:href="#DejaVuSans-6e" x="405.957031"/>
     <use xlink:href="#DejaVuSans-61" x="469.335938"/>
     <use xlink:href="#DejaVuSans-74" x="530.615234"/>
     <use xlink:href="#DejaVuSans-6f" x="569.824219"/>
     <use xlink:href="#DejaVuSans-72" x="631.005859"/>
     <use xlink:href="#DejaVuSans-20" x="672.119141"/>
     <use xlink:href="#DejaVuSans-6c" x="703.90625"/>
     <use xlink:href="#DejaVuSans-6f" x="731.689453"/>
     <use xlink:href="#DejaVuSans-73" x="792.871094"/>
     <use xlink:href="#DejaVuSans-73" x="844.970703"/>
     <use xlink:href="#DejaVuSans-20" x="897.070312"/>
     <use xlink:href="#DejaVuSans-61" x="928.857422"/>
     <use xlink:href="#DejaVuSans-63" x="990.136719"/>
     <use xlink:href="#DejaVuSans-72" x="1045.117188"/>
     <use xlink:href="#DejaVuSans-6f" x="1083.980469"/>
     <use xlink:href="#DejaVuSans-73" x="1145.162109"/>
     <use xlink:href="#DejaVuSans-73" x="1197.261719"/>
     <use xlink:href="#DejaVuSans-20" x="1249.361328"/>
     <use xlink:href="#DejaVuSans-74" x="1281.148438"/>
     <use xlink:href="#DejaVuSans-72" x="1320.357422"/>
     <use xlink:href="#DejaVuSans-61" x="1361.470703"/>
     <use xlink:href="#DejaVuSans-69" x="1422.75"/>
     <use xlink:href="#DejaVuSans-6e" x="1450.533203"/>
     <use xlink:href="#DejaVuSans-69" x="1513.912109"/>
     <use xlink:href="#DejaVuSans-6e" x="1541.695312"/>
     <use xlink:href="#DejaVuSans-67" x="1605.074219"/>
     <use xlink:href="#DejaVuSans-20" x="1668.550781"/>
     <use xlink:href="#DejaVuSans-73" x="1700.337891"/>
     <use xlink:href="#DejaVuSans-74" x="1752.4375"/>
     <use xlink:href="#DejaVuSans-65" x="1791.646484"/>
     <use xlink:href="#DejaVuSans-70" x="1853.169922"/>
     <use xlink:href="#DejaVuSans-73" x="1916.646484"/>
    </g>
   </g>
   <g id="legend_1">
    <g id="patch_7">
     <path d="M 119.2 105.405 
L 218.71 105.405 
Q 221.91 105.405 221.91 102.205 
L 221.91 80.32 
Q 221.91 77.12 218.71 77.12 
L 119.2 77.12 
Q 116 77.12 116 80.32 
L 116 102.205 
Q 116 105.405 119.2 105.405 
z
" style="fill: #ffffff; opacity: 0.8; stroke: #cccccc; stroke-linejoin: miter"/>
    </g>
    <g id="line2d_14">
     <path d="M 122.4 90.0775 
L 138.4 90.0775 
L 154.4 90.0775 
" style="fill: none; stroke: #1f77b4; stroke-width: 1.5; stroke-linecap: square"/>
    </g>
    <g id="text_16">
     <!-- D loss -->
     <g transform="translate(167.2 95.6775)scale(0.16 -0.16)">
      <use xlink:href="#DejaVuSans-44"/>
      <use xlink:href="#DejaVuSans-20" x="77.001953"/>
      <use xlink:href="#DejaVuSans-6c" x="108.789062"/>
      <use xlink:href="#DejaVuSans-6f" x="136.572266"/>
      <use xlink:href="#DejaVuSans-73" x="197.753906"/>
      <use xlink:href="#DejaVuSans-73" x="249.853516"/>
     </g>
    </g>
   </g>
  </g>
 </g>
 <defs>
  <clipPath id="p45206e2ac2">
   <rect x="108" y="69.12" width="669.6" height="443.52"/>
  </clipPath>
 </defs>
</svg>
