<?xml version="1.0" encoding="utf-8" standalone="no"?>
<!DOCTYPE svg PUBLIC "-//W3C//DTD SVG 1.1//EN"
  "http://www.w3.org/Graphics/SVG/1.1/DTD/svg11.dtd">
<svg xmlns:xlink="http://www.w3.org/1999/xlink" width="864pt" height="576pt" viewBox="0 0 864 576" xmlns="http://www.w3.org/2000/svg" version="1.1">
 <metadata>
  <rdf:RDF xmlns:dc="http://purl.org/dc/elements/1.1/" xmlns:cc="http://creativecommons.org/ns#" xmlns:rdf="http://www.w3.org/1999/02/22-rdf-syntax-ns#">
   <cc:Work>
    <dc:type rdf:resource="http://purl.org/dc/dcmitype/StillImage"/>
    <dc:date>2022-01-29T11:55:07.833266</dc:date>
    <dc:format>image/svg+xml</dc:format>
    <dc:creator>
     <cc:Agent>
      <dc:title>Matplotlib v3.5.0, https://matplotlib.org/</dc:title>
     </cc:Agent>
    </dc:creator>
   </cc:Work>
  </rdf:RDF>
 </metadata>
 <defs>
  <style type="text/css">*{stroke-linejoin: round; stroke-linecap: butt}</style>
 </defs>
 <g id="figure_1">
  <g id="patch_1">
   <path d="M 0 576 
L 864 576 
L 864 0 
L 0 0 
z
" style="fill: #ffffff"/>
  </g>
  <g id="axes_1">
   <g id="patch_2">
    <path d="M 108 512.64 
L 777.6 512.64 
L 777.6 69.12 
L 108 69.12 
z
" style="fill: #ffffff"/>
   </g>
   <g id="matplotlib.axis_1">
    <g id="xtick_1">
     <g id="line2d_1">
      <defs>
       <path id="ma1d8517482" d="M 0 0 
L 0 3.5 
" style="stroke: #000000; stroke-width: 0.8"/>
      </defs>
      <g>
       <use xlink:href="#ma1d8517482" x="138.436364" y="512.64" style="stroke: #000000; stroke-width: 0.8"/>
      </g>
     </g>
     <g id="text_1">
      <!-- 0 -->
      <g transform="translate(133.346364 531.7975)scale(0.16 -0.16)">
       <defs>
        <path id="DejaVuSans-30" d="M 2034 4250 
Q 1547 4250 1301 3770 
Q 1056 3291 1056 2328 
Q 1056 1369 1301 889 
Q 1547 409 2034 409 
Q 2525 409 2770 889 
Q 3016 1369 3016 2328 
Q 3016 3291 2770 3770 
Q 2525 4250 2034 4250 
z
M 2034 4750 
Q 2819 4750 3233 4129 
Q 3647 3509 3647 2328 
Q 3647 1150 3233 529 
Q 2819 -91 2034 -91 
Q 1250 -91 836 529 
Q 422 1150 422 2328 
Q 422 3509 836 4129 
Q 1250 4750 2034 4750 
z
" transform="scale(0.015625)"/>
       </defs>
       <use xlink:href="#DejaVuSans-30"/>
      </g>
     </g>
    </g>
    <g id="xtick_2">
     <g id="line2d_2">
      <g>
       <use xlink:href="#ma1d8517482" x="268.784816" y="512.64" style="stroke: #000000; stroke-width: 0.8"/>
      </g>
     </g>
     <g id="text_2">
      <!-- 200 -->
      <g transform="translate(253.514816 531.7975)scale(0.16 -0.16)">
       <defs>
        <path id="DejaVuSans-32" d="M 1228 531 
L 3431 531 
L 3431 0 
L 469 0 
L 469 531 
Q 828 903 1448 1529 
Q 2069 2156 2228 2338 
Q 2531 2678 2651 2914 
Q 2772 3150 2772 3378 
Q 2772 3750 2511 3984 
Q 2250 4219 1831 4219 
Q 1534 4219 1204 4116 
Q 875 4013 500 3803 
L 500 4441 
Q 881 4594 1212 4672 
Q 1544 4750 1819 4750 
Q 2544 4750 2975 4387 
Q 3406 4025 3406 3419 
Q 3406 3131 3298 2873 
Q 3191 2616 2906 2266 
Q 2828 2175 2409 1742 
Q 1991 1309 1228 531 
z
" transform="scale(0.015625)"/>
       </defs>
       <use xlink:href="#DejaVuSans-32"/>
       <use xlink:href="#DejaVuSans-30" x="63.623047"/>
       <use xlink:href="#DejaVuSans-30" x="127.246094"/>
      </g>
     </g>
    </g>
    <g id="xtick_3">
     <g id="line2d_3">
      <g>
       <use xlink:href="#ma1d8517482" x="399.133268" y="512.64" style="stroke: #000000; stroke-width: 0.8"/>
      </g>
     </g>
     <g id="text_3">
      <!-- 400 -->
      <g transform="translate(383.863268 531.7975)scale(0.16 -0.16)">
       <defs>
        <path id="DejaVuSans-34" d="M 2419 4116 
L 825 1625 
L 2419 1625 
L 2419 4116 
z
M 2253 4666 
L 3047 4666 
L 3047 1625 
L 3713 1625 
L 3713 1100 
L 3047 1100 
L 3047 0 
L 2419 0 
L 2419 1100 
L 313 1100 
L 313 1709 
L 2253 4666 
z
" transform="scale(0.015625)"/>
       </defs>
       <use xlink:href="#DejaVuSans-34"/>
       <use xlink:href="#DejaVuSans-30" x="63.623047"/>
       <use xlink:href="#DejaVuSans-30" x="127.246094"/>
      </g>
     </g>
    </g>
    <g id="xtick_4">
     <g id="line2d_4">
      <g>
       <use xlink:href="#ma1d8517482" x="529.481721" y="512.64" style="stroke: #000000; stroke-width: 0.8"/>
      </g>
     </g>
     <g id="text_4">
      <!-- 600 -->
      <g transform="translate(514.211721 531.7975)scale(0.16 -0.16)">
       <defs>
        <path id="DejaVuSans-36" d="M 2113 2584 
Q 1688 2584 1439 2293 
Q 1191 2003 1191 1497 
Q 1191 994 1439 701 
Q 1688 409 2113 409 
Q 2538 409 2786 701 
Q 3034 994 3034 1497 
Q 3034 2003 2786 2293 
Q 2538 2584 2113 2584 
z
M 3366 4563 
L 3366 3988 
Q 3128 4100 2886 4159 
Q 2644 4219 2406 4219 
Q 1781 4219 1451 3797 
Q 1122 3375 1075 2522 
Q 1259 2794 1537 2939 
Q 1816 3084 2150 3084 
Q 2853 3084 3261 2657 
Q 3669 2231 3669 1497 
Q 3669 778 3244 343 
Q 2819 -91 2113 -91 
Q 1303 -91 875 529 
Q 447 1150 447 2328 
Q 447 3434 972 4092 
Q 1497 4750 2381 4750 
Q 2619 4750 2861 4703 
Q 3103 4656 3366 4563 
z
" transform="scale(0.015625)"/>
       </defs>
       <use xlink:href="#DejaVuSans-36"/>
       <use xlink:href="#DejaVuSans-30" x="63.623047"/>
       <use xlink:href="#DejaVuSans-30" x="127.246094"/>
      </g>
     </g>
    </g>
    <g id="xtick_5">
     <g id="line2d_5">
      <g>
       <use xlink:href="#ma1d8517482" x="659.830173" y="512.64" style="stroke: #000000; stroke-width: 0.8"/>
      </g>
     </g>
     <g id="text_5">
      <!-- 800 -->
      <g transform="translate(644.560173 531.7975)scale(0.16 -0.16)">
       <defs>
        <path id="DejaVuSans-38" d="M 2034 2216 
Q 1584 2216 1326 1975 
Q 1069 1734 1069 1313 
Q 1069 891 1326 650 
Q 1584 409 2034 409 
Q 2484 409 2743 651 
Q 3003 894 3003 1313 
Q 3003 1734 2745 1975 
Q 2488 2216 2034 2216 
z
M 1403 2484 
Q 997 2584 770 2862 
Q 544 3141 544 3541 
Q 544 4100 942 4425 
Q 1341 4750 2034 4750 
Q 2731 4750 3128 4425 
Q 3525 4100 3525 3541 
Q 3525 3141 3298 2862 
Q 3072 2584 2669 2484 
Q 3125 2378 3379 2068 
Q 3634 1759 3634 1313 
Q 3634 634 3220 271 
Q 2806 -91 2034 -91 
Q 1263 -91 848 271 
Q 434 634 434 1313 
Q 434 1759 690 2068 
Q 947 2378 1403 2484 
z
M 1172 3481 
Q 1172 3119 1398 2916 
Q 1625 2713 2034 2713 
Q 2441 2713 2670 2916 
Q 2900 3119 2900 3481 
Q 2900 3844 2670 4047 
Q 2441 4250 2034 4250 
Q 1625 4250 1398 4047 
Q 1172 3844 1172 3481 
z
" transform="scale(0.015625)"/>
       </defs>
       <use xlink:href="#DejaVuSans-38"/>
       <use xlink:href="#DejaVuSans-30" x="63.623047"/>
       <use xlink:href="#DejaVuSans-30" x="127.246094"/>
      </g>
     </g>
    </g>
    <g id="text_6">
     <!-- Training steps -->
     <g transform="translate(387.22375 551.2825)scale(0.16 -0.16)">
      <defs>
       <path id="DejaVuSans-54" d="M -19 4666 
L 3928 4666 
L 3928 4134 
L 2272 4134 
L 2272 0 
L 1638 0 
L 1638 4134 
L -19 4134 
L -19 4666 
z
" transform="scale(0.015625)"/>
       <path id="DejaVuSans-72" d="M 2631 2963 
Q 2534 3019 2420 3045 
Q 2306 3072 2169 3072 
Q 1681 3072 1420 2755 
Q 1159 2438 1159 1844 
L 1159 0 
L 581 0 
L 581 3500 
L 1159 3500 
L 1159 2956 
Q 1341 3275 1631 3429 
Q 1922 3584 2338 3584 
Q 2397 3584 2469 3576 
Q 2541 3569 2628 3553 
L 2631 2963 
z
" transform="scale(0.015625)"/>
       <path id="DejaVuSans-61" d="M 2194 1759 
Q 1497 1759 1228 1600 
Q 959 1441 959 1056 
Q 959 750 1161 570 
Q 1363 391 1709 391 
Q 2188 391 2477 730 
Q 2766 1069 2766 1631 
L 2766 1759 
L 2194 1759 
z
M 3341 1997 
L 3341 0 
L 2766 0 
L 2766 531 
Q 2569 213 2275 61 
Q 1981 -91 1556 -91 
Q 1019 -91 701 211 
Q 384 513 384 1019 
Q 384 1609 779 1909 
Q 1175 2209 1959 2209 
L 2766 2209 
L 2766 2266 
Q 2766 2663 2505 2880 
Q 2244 3097 1772 3097 
Q 1472 3097 1187 3025 
Q 903 2953 641 2809 
L 641 3341 
Q 956 3463 1253 3523 
Q 1550 3584 1831 3584 
Q 2591 3584 2966 3190 
Q 3341 2797 3341 1997 
z
" transform="scale(0.015625)"/>
       <path id="DejaVuSans-69" d="M 603 3500 
L 1178 3500 
L 1178 0 
L 603 0 
L 603 3500 
z
M 603 4863 
L 1178 4863 
L 1178 4134 
L 603 4134 
L 603 4863 
z
" transform="scale(0.015625)"/>
       <path id="DejaVuSans-6e" d="M 3513 2113 
L 3513 0 
L 2938 0 
L 2938 2094 
Q 2938 2591 2744 2837 
Q 2550 3084 2163 3084 
Q 1697 3084 1428 2787 
Q 1159 2491 1159 1978 
L 1159 0 
L 581 0 
L 581 3500 
L 1159 3500 
L 1159 2956 
Q 1366 3272 1645 3428 
Q 1925 3584 2291 3584 
Q 2894 3584 3203 3211 
Q 3513 2838 3513 2113 
z
" transform="scale(0.015625)"/>
       <path id="DejaVuSans-67" d="M 2906 1791 
Q 2906 2416 2648 2759 
Q 2391 3103 1925 3103 
Q 1463 3103 1205 2759 
Q 947 2416 947 1791 
Q 947 1169 1205 825 
Q 1463 481 1925 481 
Q 2391 481 2648 825 
Q 2906 1169 2906 1791 
z
M 3481 434 
Q 3481 -459 3084 -895 
Q 2688 -1331 1869 -1331 
Q 1566 -1331 1297 -1286 
Q 1028 -1241 775 -1147 
L 775 -588 
Q 1028 -725 1275 -790 
Q 1522 -856 1778 -856 
Q 2344 -856 2625 -561 
Q 2906 -266 2906 331 
L 2906 616 
Q 2728 306 2450 153 
Q 2172 0 1784 0 
Q 1141 0 747 490 
Q 353 981 353 1791 
Q 353 2603 747 3093 
Q 1141 3584 1784 3584 
Q 2172 3584 2450 3431 
Q 2728 3278 2906 2969 
L 2906 3500 
L 3481 3500 
L 3481 434 
z
" transform="scale(0.015625)"/>
       <path id="DejaVuSans-20" transform="scale(0.015625)"/>
       <path id="DejaVuSans-73" d="M 2834 3397 
L 2834 2853 
Q 2591 2978 2328 3040 
Q 2066 3103 1784 3103 
Q 1356 3103 1142 2972 
Q 928 2841 928 2578 
Q 928 2378 1081 2264 
Q 1234 2150 1697 2047 
L 1894 2003 
Q 2506 1872 2764 1633 
Q 3022 1394 3022 966 
Q 3022 478 2636 193 
Q 2250 -91 1575 -91 
Q 1294 -91 989 -36 
Q 684 19 347 128 
L 347 722 
Q 666 556 975 473 
Q 1284 391 1588 391 
Q 1994 391 2212 530 
Q 2431 669 2431 922 
Q 2431 1156 2273 1281 
Q 2116 1406 1581 1522 
L 1381 1569 
Q 847 1681 609 1914 
Q 372 2147 372 2553 
Q 372 3047 722 3315 
Q 1072 3584 1716 3584 
Q 2034 3584 2315 3537 
Q 2597 3491 2834 3397 
z
" transform="scale(0.015625)"/>
       <path id="DejaVuSans-74" d="M 1172 4494 
L 1172 3500 
L 2356 3500 
L 2356 3053 
L 1172 3053 
L 1172 1153 
Q 1172 725 1289 603 
Q 1406 481 1766 481 
L 2356 481 
L 2356 0 
L 1766 0 
Q 1100 0 847 248 
Q 594 497 594 1153 
L 594 3053 
L 172 3053 
L 172 3500 
L 594 3500 
L 594 4494 
L 1172 4494 
z
" transform="scale(0.015625)"/>
       <path id="DejaVuSans-65" d="M 3597 1894 
L 3597 1613 
L 953 1613 
Q 991 1019 1311 708 
Q 1631 397 2203 397 
Q 2534 397 2845 478 
Q 3156 559 3463 722 
L 3463 178 
Q 3153 47 2828 -22 
Q 2503 -91 2169 -91 
Q 1331 -91 842 396 
Q 353 884 353 1716 
Q 353 2575 817 3079 
Q 1281 3584 2069 3584 
Q 2775 3584 3186 3129 
Q 3597 2675 3597 1894 
z
M 3022 2063 
Q 3016 2534 2758 2815 
Q 2500 3097 2075 3097 
Q 1594 3097 1305 2825 
Q 1016 2553 972 2059 
L 3022 2063 
z
" transform="scale(0.015625)"/>
       <path id="DejaVuSans-70" d="M 1159 525 
L 1159 -1331 
L 581 -1331 
L 581 3500 
L 1159 3500 
L 1159 2969 
Q 1341 3281 1617 3432 
Q 1894 3584 2278 3584 
Q 2916 3584 3314 3078 
Q 3713 2572 3713 1747 
Q 3713 922 3314 415 
Q 2916 -91 2278 -91 
Q 1894 -91 1617 61 
Q 1341 213 1159 525 
z
M 3116 1747 
Q 3116 2381 2855 2742 
Q 2594 3103 2138 3103 
Q 1681 3103 1420 2742 
Q 1159 2381 1159 1747 
Q 1159 1113 1420 752 
Q 1681 391 2138 391 
Q 2594 391 2855 752 
Q 3116 1113 3116 1747 
z
" transform="scale(0.015625)"/>
      </defs>
      <use xlink:href="#DejaVuSans-54"/>
      <use xlink:href="#DejaVuSans-72" x="46.333984"/>
      <use xlink:href="#DejaVuSans-61" x="87.447266"/>
      <use xlink:href="#DejaVuSans-69" x="148.726562"/>
      <use xlink:href="#DejaVuSans-6e" x="176.509766"/>
      <use xlink:href="#DejaVuSans-69" x="239.888672"/>
      <use xlink:href="#DejaVuSans-6e" x="267.671875"/>
      <use xlink:href="#DejaVuSans-67" x="331.050781"/>
      <use xlink:href="#DejaVuSans-20" x="394.527344"/>
      <use xlink:href="#DejaVuSans-73" x="426.314453"/>
      <use xlink:href="#DejaVuSans-74" x="478.414062"/>
      <use xlink:href="#DejaVuSans-65" x="517.623047"/>
      <use xlink:href="#DejaVuSans-70" x="579.146484"/>
      <use xlink:href="#DejaVuSans-73" x="642.623047"/>
     </g>
    </g>
   </g>
   <g id="matplotlib.axis_2">
    <g id="ytick_1">
     <g id="line2d_6">
      <defs>
       <path id="me0d63c7487" d="M 0 0 
L -3.5 0 
" style="stroke: #000000; stroke-width: 0.8"/>
      </defs>
      <g>
       <use xlink:href="#me0d63c7487" x="108" y="442.237909" style="stroke: #000000; stroke-width: 0.8"/>
      </g>
     </g>
     <g id="text_7">
      <!-- 1.30 -->
      <g transform="translate(65.375 448.316659)scale(0.16 -0.16)">
       <defs>
        <path id="DejaVuSans-31" d="M 794 531 
L 1825 531 
L 1825 4091 
L 703 3866 
L 703 4441 
L 1819 4666 
L 2450 4666 
L 2450 531 
L 3481 531 
L 3481 0 
L 794 0 
L 794 531 
z
" transform="scale(0.015625)"/>
        <path id="DejaVuSans-2e" d="M 684 794 
L 1344 794 
L 1344 0 
L 684 0 
L 684 794 
z
" transform="scale(0.015625)"/>
        <path id="DejaVuSans-33" d="M 2597 2516 
Q 3050 2419 3304 2112 
Q 3559 1806 3559 1356 
Q 3559 666 3084 287 
Q 2609 -91 1734 -91 
Q 1441 -91 1130 -33 
Q 819 25 488 141 
L 488 750 
Q 750 597 1062 519 
Q 1375 441 1716 441 
Q 2309 441 2620 675 
Q 2931 909 2931 1356 
Q 2931 1769 2642 2001 
Q 2353 2234 1838 2234 
L 1294 2234 
L 1294 2753 
L 1863 2753 
Q 2328 2753 2575 2939 
Q 2822 3125 2822 3475 
Q 2822 3834 2567 4026 
Q 2313 4219 1838 4219 
Q 1578 4219 1281 4162 
Q 984 4106 628 3988 
L 628 4550 
Q 988 4650 1302 4700 
Q 1616 4750 1894 4750 
Q 2613 4750 3031 4423 
Q 3450 4097 3450 3541 
Q 3450 3153 3228 2886 
Q 3006 2619 2597 2516 
z
" transform="scale(0.015625)"/>
       </defs>
       <use xlink:href="#DejaVuSans-31"/>
       <use xlink:href="#DejaVuSans-2e" x="63.623047"/>
       <use xlink:href="#DejaVuSans-33" x="95.410156"/>
       <use xlink:href="#DejaVuSans-30" x="159.033203"/>
      </g>
     </g>
    </g>
    <g id="ytick_2">
     <g id="line2d_7">
      <g>
       <use xlink:href="#me0d63c7487" x="108" y="362.856637" style="stroke: #000000; stroke-width: 0.8"/>
      </g>
     </g>
     <g id="text_8">
      <!-- 1.35 -->
      <g transform="translate(65.375 368.935387)scale(0.16 -0.16)">
       <defs>
        <path id="DejaVuSans-35" d="M 691 4666 
L 3169 4666 
L 3169 4134 
L 1269 4134 
L 1269 2991 
Q 1406 3038 1543 3061 
Q 1681 3084 1819 3084 
Q 2600 3084 3056 2656 
Q 3513 2228 3513 1497 
Q 3513 744 3044 326 
Q 2575 -91 1722 -91 
Q 1428 -91 1123 -41 
Q 819 9 494 109 
L 494 744 
Q 775 591 1075 516 
Q 1375 441 1709 441 
Q 2250 441 2565 725 
Q 2881 1009 2881 1497 
Q 2881 1984 2565 2268 
Q 2250 2553 1709 2553 
Q 1456 2553 1204 2497 
Q 953 2441 691 2322 
L 691 4666 
z
" transform="scale(0.015625)"/>
       </defs>
       <use xlink:href="#DejaVuSans-31"/>
       <use xlink:href="#DejaVuSans-2e" x="63.623047"/>
       <use xlink:href="#DejaVuSans-33" x="95.410156"/>
       <use xlink:href="#DejaVuSans-35" x="159.033203"/>
      </g>
     </g>
    </g>
    <g id="ytick_3">
     <g id="line2d_8">
      <g>
       <use xlink:href="#me0d63c7487" x="108" y="283.475366" style="stroke: #000000; stroke-width: 0.8"/>
      </g>
     </g>
     <g id="text_9">
      <!-- 1.40 -->
      <g transform="translate(65.375 289.554116)scale(0.16 -0.16)">
       <use xlink:href="#DejaVuSans-31"/>
       <use xlink:href="#DejaVuSans-2e" x="63.623047"/>
       <use xlink:href="#DejaVuSans-34" x="95.410156"/>
       <use xlink:href="#DejaVuSans-30" x="159.033203"/>
      </g>
     </g>
    </g>
    <g id="ytick_4">
     <g id="line2d_9">
      <g>
       <use xlink:href="#me0d63c7487" x="108" y="204.094094" style="stroke: #000000; stroke-width: 0.8"/>
      </g>
     </g>
     <g id="text_10">
      <!-- 1.45 -->
      <g transform="translate(65.375 210.172844)scale(0.16 -0.16)">
       <use xlink:href="#DejaVuSans-31"/>
       <use xlink:href="#DejaVuSans-2e" x="63.623047"/>
       <use xlink:href="#DejaVuSans-34" x="95.410156"/>
       <use xlink:href="#DejaVuSans-35" x="159.033203"/>
      </g>
     </g>
    </g>
    <g id="ytick_5">
     <g id="line2d_10">
      <g>
       <use xlink:href="#me0d63c7487" x="108" y="124.712822" style="stroke: #000000; stroke-width: 0.8"/>
      </g>
     </g>
     <g id="text_11">
      <!-- 1.50 -->
      <g transform="translate(65.375 130.791572)scale(0.16 -0.16)">
       <use xlink:href="#DejaVuSans-31"/>
       <use xlink:href="#DejaVuSans-2e" x="63.623047"/>
       <use xlink:href="#DejaVuSans-35" x="95.410156"/>
       <use xlink:href="#DejaVuSans-30" x="159.033203"/>
      </g>
     </g>
    </g>
    <g id="text_12">
     <!-- Loss -->
     <g transform="translate(58.0475 308.4275)rotate(-90)scale(0.16 -0.16)">
      <defs>
       <path id="DejaVuSans-4c" d="M 628 4666 
L 1259 4666 
L 1259 531 
L 3531 531 
L 3531 0 
L 628 0 
L 628 4666 
z
" transform="scale(0.015625)"/>
       <path id="DejaVuSans-6f" d="M 1959 3097 
Q 1497 3097 1228 2736 
Q 959 2375 959 1747 
Q 959 1119 1226 758 
Q 1494 397 1959 397 
Q 2419 397 2687 759 
Q 2956 1122 2956 1747 
Q 2956 2369 2687 2733 
Q 2419 3097 1959 3097 
z
M 1959 3584 
Q 2709 3584 3137 3096 
Q 3566 2609 3566 1747 
Q 3566 888 3137 398 
Q 2709 -91 1959 -91 
Q 1206 -91 779 398 
Q 353 888 353 1747 
Q 353 2609 779 3096 
Q 1206 3584 1959 3584 
z
" transform="scale(0.015625)"/>
      </defs>
      <use xlink:href="#DejaVuSans-4c"/>
      <use xlink:href="#DejaVuSans-6f" x="53.962891"/>
      <use xlink:href="#DejaVuSans-73" x="115.144531"/>
      <use xlink:href="#DejaVuSans-73" x="167.244141"/>
     </g>
    </g>
   </g>
   <g id="line2d_11">
    <path d="M 138.436364 219.418376 
L 139.088106 283.943064 
L 139.739848 202.035251 
L 140.39159 229.603955 
L 141.043333 275.331369 
L 142.346817 174.03901 
L 142.998559 232.830454 
L 143.650302 215.492184 
L 144.302044 208.496388 
L 144.953786 205.568351 
L 145.605529 229.808734 
L 146.257271 220.650835 
L 146.909013 237.061165 
L 147.560755 243.295948 
L 148.212498 259.912949 
L 148.86424 289.024876 
L 149.515982 286.141505 
L 150.819467 368.15606 
L 151.471209 289.020523 
L 152.122951 177.271755 
L 152.774693 157.041597 
L 154.078178 247.400044 
L 154.72992 211.149998 
L 155.381662 280.382332 
L 156.033405 321.288356 
L 156.685147 155.740815 
L 157.336889 137.294429 
L 157.988631 211.09852 
L 158.640374 188.273989 
L 159.292116 250.002365 
L 159.943858 280.860402 
L 160.595601 281.156215 
L 161.247343 238.396771 
L 161.899085 181.012662 
L 162.550827 191.948466 
L 163.20257 234.389197 
L 163.854312 193.22332 
L 164.506054 203.951317 
L 165.157796 241.986649 
L 165.809539 183.843798 
L 166.461281 300.138395 
L 167.113023 296.89051 
L 167.764765 270.079413 
L 168.416508 301.17762 
L 169.06825 359.17001 
L 169.719992 312.079925 
L 170.371734 377.210623 
L 171.023477 389.102756 
L 171.675219 281.729104 
L 172.326961 264.28693 
L 172.978704 254.826973 
L 173.630446 241.829374 
L 174.282188 266.319769 
L 174.93393 299.363945 
L 175.585673 304.484934 
L 176.237415 311.862655 
L 176.889157 354.70613 
L 177.540899 359.145784 
L 178.192642 313.542903 
L 178.844384 279.146656 
L 179.496126 292.367771 
L 180.147868 176.536671 
L 180.799611 211.502022 
L 181.451353 182.637646 
L 182.103095 159.641836 
L 182.754837 120.095075 
L 183.40658 133.838168 
L 184.710064 237.168097 
L 185.361807 137.100816 
L 186.013549 176.172535 
L 186.665291 101.854604 
L 187.317033 140.65341 
L 187.968776 135.754801 
L 188.620518 122.953654 
L 189.27226 89.28 
L 189.924002 158.167124 
L 190.575745 149.907831 
L 191.227487 156.008428 
L 192.530971 204.894398 
L 193.182714 299.294108 
L 193.834456 322.222731 
L 194.486198 265.364575 
L 195.13794 268.117925 
L 195.789683 230.003293 
L 196.441425 244.818164 
L 197.093167 229.566292 
L 197.744909 235.686383 
L 198.396652 269.084285 
L 199.048394 243.903661 
L 199.700136 257.910393 
L 200.351879 321.361599 
L 201.003621 316.10529 
L 201.655363 288.805714 
L 202.958848 220.297866 
L 203.61059 239.643236 
L 204.262332 200.543885 
L 204.914074 223.986348 
L 205.565817 207.782311 
L 206.217559 253.913606 
L 206.869301 254.119331 
L 207.521043 231.180488 
L 208.172786 229.94273 
L 208.824528 247.612204 
L 209.47627 223.112158 
L 210.128012 267.653103 
L 210.779755 280.443842 
L 211.431497 239.963084 
L 212.083239 275.335722 
L 212.734982 255.936792 
L 213.386724 289.276781 
L 214.038466 213.479028 
L 214.690208 196.665954 
L 215.341951 209.20403 
L 215.993693 252.257584 
L 216.645435 237.825964 
L 217.297177 206.617229 
L 217.94892 198.645232 
L 218.600662 216.383218 
L 219.252404 191.243663 
L 219.904146 172.446011 
L 221.207631 96.72964 
L 221.859373 108.843586 
L 222.511115 161.641175 
L 223.162858 165.737323 
L 223.8146 210.629913 
L 224.466342 246.527746 
L 225.118084 248.881948 
L 225.769827 297.22285 
L 226.421569 249.99082 
L 227.073311 178.939512 
L 227.725054 202.697282 
L 228.376796 114.319058 
L 229.028538 177.855811 
L 229.68028 114.143047 
L 230.332023 157.620542 
L 230.983765 150.078732 
L 231.635507 124.713958 
L 232.287249 133.988062 
L 232.938992 181.623971 
L 233.590734 140.064245 
L 234.242476 131.582003 
L 234.894218 146.188499 
L 235.545961 219.343051 
L 236.197703 172.194674 
L 236.849445 177.516657 
L 237.501187 221.990037 
L 238.15293 177.064705 
L 238.804672 235.892298 
L 239.456414 196.110287 
L 240.108157 164.189178 
L 240.759899 203.990872 
L 241.411641 208.460807 
L 242.063383 243.462686 
L 242.715126 230.622361 
L 243.366868 209.099937 
L 244.01861 236.665991 
L 244.670352 225.526165 
L 245.322095 172.380528 
L 245.973837 217.598833 
L 246.625579 159.73533 
L 247.277321 181.861114 
L 248.580806 248.752305 
L 249.232548 224.018523 
L 249.88429 236.294664 
L 250.536033 259.058063 
L 251.187775 252.704237 
L 251.839517 236.679807 
L 252.491259 258.492177 
L 253.143002 230.359858 
L 253.794744 243.953057 
L 254.446486 228.798276 
L 255.098229 232.694566 
L 255.749971 239.89268 
L 256.401713 193.468222 
L 257.053455 188.008079 
L 257.705198 260.419976 
L 258.35694 209.68475 
L 259.008682 235.020946 
L 259.660424 297.645845 
L 260.312167 265.35057 
L 260.963909 250.946771 
L 261.615651 278.640197 
L 262.267393 267.748112 
L 262.919136 246.077308 
L 263.570878 260.686832 
L 264.22262 304.882757 
L 264.874362 264.976214 
L 265.526105 295.358074 
L 266.177847 309.813351 
L 266.829589 297.823371 
L 267.481332 290.591379 
L 268.133074 258.93883 
L 268.784816 221.620602 
L 269.436558 277.768656 
L 270.088301 226.730614 
L 270.740043 270.82396 
L 271.391785 223.799738 
L 272.043527 227.902889 
L 272.69527 201.353159 
L 273.347012 244.57099 
L 273.998754 231.077152 
L 275.302239 291.070774 
L 275.953981 309.845904 
L 276.605723 265.374227 
L 277.257465 251.984293 
L 277.909208 225.15673 
L 278.56095 233.706159 
L 279.212692 254.777009 
L 279.864434 252.719377 
L 280.516177 181.68056 
L 281.167919 241.628191 
L 281.819661 227.861251 
L 282.471404 207.637717 
L 283.123146 199.974592 
L 284.42663 287.613378 
L 285.078373 234.249523 
L 285.730115 259.111056 
L 286.381857 246.021855 
L 287.033599 255.819451 
L 287.685342 223.820178 
L 288.337084 266.095875 
L 288.988826 247.355947 
L 289.640568 326.289733 
L 290.292311 212.8522 
L 290.944053 239.254685 
L 291.595795 252.434163 
L 292.247537 268.989277 
L 292.89928 220.87719 
L 293.551022 281.848338 
L 294.202764 301.498605 
L 294.854507 297.136358 
L 295.506249 312.024094 
L 296.157991 282.889645 
L 296.809733 311.82045 
L 297.461476 335.729439 
L 298.113218 282.729342 
L 298.76496 312.480967 
L 299.416702 239.919176 
L 300.068445 240.565309 
L 300.720187 245.770518 
L 301.371929 289.272617 
L 302.023671 241.614186 
L 302.675414 272.682491 
L 303.327156 284.733413 
L 303.978898 319.063419 
L 304.63064 267.601246 
L 305.282383 241.016693 
L 305.934125 234.180254 
L 306.585867 244.067938 
L 307.237609 244.899167 
L 307.889352 254.525104 
L 308.541094 245.762002 
L 309.192836 253.022572 
L 309.844579 278.412896 
L 310.496321 284.267455 
L 311.148063 303.444005 
L 311.799805 295.895571 
L 312.451548 286.497313 
L 313.10329 254.137311 
L 313.755032 186.495137 
L 314.406774 221.491338 
L 315.058517 209.659578 
L 315.710259 230.284154 
L 316.362001 193.848823 
L 317.013743 238.951113 
L 317.665486 237.432493 
L 318.317228 245.124196 
L 318.96897 265.585441 
L 319.620712 306.129979 
L 320.272455 277.086564 
L 320.924197 302.378473 
L 321.575939 298.963282 
L 322.227682 287.323242 
L 322.879424 284.818958 
L 323.531166 292.091073 
L 324.182908 281.394115 
L 324.834651 275.223491 
L 325.486393 238.884872 
L 326.138135 236.920735 
L 326.789877 289.064432 
L 327.44162 311.947443 
L 328.093362 277.476439 
L 328.745104 254.874478 
L 329.396846 256.21103 
L 330.048589 252.402178 
L 330.700331 300.930258 
L 331.352073 291.067178 
L 332.003815 267.655753 
L 332.655558 300.737781 
L 333.3073 301.369151 
L 333.959042 265.791545 
L 334.610785 282.492389 
L 335.262527 249.789637 
L 335.914269 288.114348 
L 336.566011 224.467068 
L 337.217754 213.421683 
L 337.869496 229.451411 
L 338.521238 219.219464 
L 339.17298 214.074061 
L 339.824723 205.650869 
L 340.476465 227.802202 
L 341.128207 257.398824 
L 341.779949 229.345048 
L 342.431692 252.731679 
L 343.083434 267.652346 
L 343.735176 305.204877 
L 344.386918 282.326029 
L 345.038661 323.71864 
L 345.690403 337.175004 
L 346.342145 305.387324 
L 348.297372 406.554014 
L 348.949114 399.888856 
L 349.600857 344.745014 
L 350.252599 323.550577 
L 350.904341 321.343809 
L 351.556083 270.442034 
L 352.207826 263.513804 
L 352.859568 273.635413 
L 353.51131 266.350618 
L 354.163052 250.888101 
L 354.814795 255.241074 
L 355.466537 266.520384 
L 356.118279 286.531758 
L 356.770021 287.499254 
L 357.421764 275.642134 
L 358.073506 313.846097 
L 359.37699 371.318211 
L 360.028733 329.933171 
L 360.680475 319.19344 
L 361.332217 327.049232 
L 361.98396 304.684792 
L 362.635702 294.177093 
L 363.287444 266.014114 
L 363.939186 222.263707 
L 364.590929 199.802744 
L 365.242671 241.072525 
L 365.894413 201.01287 
L 367.197898 216.614305 
L 367.84964 271.445868 
L 368.501382 250.197113 
L 369.153124 292.865713 
L 369.804867 266.718539 
L 370.456609 302.857111 
L 371.108351 275.094038 
L 371.760093 323.499477 
L 372.411836 323.843551 
L 373.71532 271.699097 
L 374.367062 296.432123 
L 375.018805 305.854038 
L 375.670547 320.655661 
L 376.322289 299.018924 
L 376.974032 294.458333 
L 378.277516 335.278433 
L 378.929258 335.881982 
L 379.581001 384.673511 
L 380.232743 347.548896 
L 380.884485 288.253454 
L 382.18797 261.379523 
L 382.839712 255.26492 
L 383.491454 243.470824 
L 384.143196 260.491895 
L 384.794939 243.035905 
L 385.446681 274.417624 
L 386.098423 268.583693 
L 386.750165 269.059303 
L 387.401908 339.034292 
L 388.05365 274.977832 
L 388.705392 299.269693 
L 389.357135 298.783296 
L 390.660619 331.561372 
L 391.312361 256.001519 
L 391.964104 232.517419 
L 392.615846 253.187606 
L 393.267588 239.17671 
L 393.91933 273.06877 
L 394.571073 253.656213 
L 395.222815 282.953993 
L 395.874557 276.903739 
L 396.526299 279.133975 
L 397.178042 268.669049 
L 397.829784 318.430534 
L 398.481526 338.700438 
L 399.133268 341.858803 
L 399.785011 354.663736 
L 400.436753 371.300799 
L 401.088495 383.651509 
L 401.740237 438.076732 
L 402.39198 406.398064 
L 403.043722 421.19117 
L 403.695464 479.059595 
L 404.347207 406.881244 
L 404.998949 356.020728 
L 405.650691 345.45417 
L 406.302433 311.759887 
L 406.954176 252.694774 
L 407.605918 238.152626 
L 408.25766 173.028742 
L 408.909402 169.042554 
L 409.561145 232.992082 
L 410.212887 198.025406 
L 410.864629 209.028776 
L 411.516371 267.649697 
L 412.168114 276.290348 
L 412.819856 253.882568 
L 413.471598 299.370379 
L 414.12334 301.777006 
L 414.775083 284.126835 
L 415.426825 246.909672 
L 416.078567 239.921637 
L 416.73031 251.751882 
L 417.382052 236.916571 
L 418.033794 214.900558 
L 418.685536 204.122218 
L 419.337279 252.789971 
L 419.989021 279.84862 
L 420.640763 226.556874 
L 421.292505 250.104376 
L 421.944248 240.35788 
L 422.59599 303.179799 
L 423.247732 309.335281 
L 423.899474 321.242177 
L 424.551217 326.979963 
L 425.202959 398.374778 
L 426.506443 252.70859 
L 427.158186 301.883748 
L 427.809928 310.202469 
L 428.46167 286.33966 
L 429.113412 309.718343 
L 429.765155 318.847663 
L 430.416897 349.308444 
L 431.068639 323.11528 
L 431.720382 352.815047 
L 432.372124 355.284508 
L 433.675608 435.736914 
L 434.327351 430.51997 
L 434.979093 431.519829 
L 435.630835 381.367901 
L 436.282577 382.740413 
L 436.93432 333.019997 
L 437.586062 302.851622 
L 438.237804 301.105512 
L 438.889546 233.90772 
L 439.541289 255.540672 
L 440.193031 253.046797 
L 440.844773 273.219231 
L 441.496515 300.753489 
L 442.148258 204.777246 
L 442.8 283.265325 
L 443.451742 258.904006 
L 444.103485 262.276992 
L 444.755227 302.529124 
L 445.406969 267.602192 
L 446.058711 275.520061 
L 446.710454 241.094857 
L 447.362196 252.064539 
L 448.013938 265.904344 
L 448.66568 244.559446 
L 449.317423 285.490452 
L 449.969165 275.841424 
L 450.620907 268.352796 
L 451.272649 359.84737 
L 451.924392 235.591185 
L 452.576134 213.838243 
L 453.227876 206.936321 
L 453.879618 219.252395 
L 454.531361 242.635621 
L 455.183103 295.733186 
L 455.834845 234.149594 
L 456.486588 224.316985 
L 457.13833 244.315301 
L 457.790072 255.952501 
L 458.441814 256.117346 
L 459.093557 267.425613 
L 459.745299 266.581704 
L 460.397041 266.720432 
L 461.048783 247.551831 
L 461.700526 289.524333 
L 462.352268 252.562481 
L 463.00401 253.99953 
L 463.655752 258.246707 
L 464.307495 203.807479 
L 464.959237 237.124189 
L 465.610979 210.984396 
L 466.262721 208.66464 
L 466.914464 195.802551 
L 467.566206 249.710905 
L 468.217948 254.079776 
L 468.86969 270.540449 
L 469.521433 300.004399 
L 470.173175 323.474495 
L 470.824917 353.955526 
L 471.47666 337.609166 
L 472.128402 232.40462 
L 472.780144 195.036428 
L 473.431886 268.265926 
L 474.083629 217.218611 
L 474.735371 209.312665 
L 476.038855 224.795623 
L 476.690598 237.249668 
L 477.34234 227.675588 
L 477.994082 228.862057 
L 478.645824 278.054438 
L 479.297567 254.904002 
L 479.949309 240.750216 
L 480.601051 216.664458 
L 481.252793 281.269582 
L 481.904536 299.176388 
L 483.20802 241.630273 
L 483.859763 272.421312 
L 484.511505 173.776129 
L 485.163247 165.255657 
L 485.814989 201.895199 
L 486.466732 214.655656 
L 487.118474 212.77044 
L 487.770216 235.752624 
L 488.421958 216.765145 
L 489.073701 257.378005 
L 489.725443 273.668155 
L 490.377185 299.392334 
L 491.028927 301.130495 
L 491.68067 263.325113 
L 492.332412 266.390552 
L 492.984154 246.033211 
L 494.287639 321.760937 
L 494.939381 324.838679 
L 495.591123 396.948895 
L 496.242865 347.977002 
L 496.894608 327.692715 
L 497.54635 373.060915 
L 498.198092 291.996821 
L 498.849835 340.529822 
L 499.501577 301.321458 
L 500.153319 224.17504 
L 500.805061 238.994264 
L 501.456804 180.141689 
L 502.108546 178.623826 
L 502.760288 229.220136 
L 503.41203 102.066764 
L 504.063773 217.064553 
L 504.715515 202.941805 
L 505.367257 144.596447 
L 506.670742 220.905957 
L 507.322484 165.976736 
L 508.625968 228.406319 
L 509.277711 215.269614 
L 509.929453 323.632716 
L 510.581195 269.948445 
L 511.232938 273.933497 
L 511.88468 244.843524 
L 512.536422 279.303173 
L 513.188164 288.871008 
L 513.839907 240.281798 
L 514.491649 245.060037 
L 515.143391 285.481367 
L 515.795133 267.98639 
L 516.446876 267.528949 
L 517.098618 291.68795 
L 517.75036 249.706931 
L 518.402102 240.993225 
L 519.053845 274.379204 
L 519.705587 265.834128 
L 520.357329 278.170643 
L 521.009071 211.196178 
L 521.660814 233.564971 
L 522.312556 236.533509 
L 522.964298 256.912994 
L 523.61604 224.877762 
L 524.267783 248.047313 
L 524.919525 286.983332 
L 525.571267 270.828503 
L 526.22301 246.16645 
L 526.874752 287.248296 
L 527.526494 272.136666 
L 528.178236 249.974166 
L 528.829979 237.149739 
L 529.481721 237.438171 
L 530.133463 234.747276 
L 530.785205 270.739551 
L 531.436948 254.743699 
L 532.08869 296.225072 
L 532.740432 276.474498 
L 533.392174 226.156779 
L 534.043917 202.763712 
L 534.695659 238.054211 
L 535.347401 220.215349 
L 535.999143 141.291783 
L 536.650886 138.208932 
L 537.302628 189.335736 
L 537.95437 183.087138 
L 538.606113 162.514798 
L 539.257855 187.622747 
L 539.909597 200.298226 
L 540.561339 235.975572 
L 541.213082 226.296074 
L 541.864824 221.093135 
L 542.516566 259.043301 
L 543.168308 287.064714 
L 544.471793 249.430612 
L 545.123535 276.441188 
L 545.775277 288.094097 
L 546.42702 284.691208 
L 547.078762 283.903698 
L 547.730504 266.083383 
L 548.382246 333.269441 
L 549.033989 307.385338 
L 549.685731 328.743863 
L 550.337473 376.112917 
L 550.989215 333.363314 
L 551.640958 348.66269 
L 552.2927 337.976141 
L 552.944442 367.681775 
L 553.596185 331.829553 
L 554.247927 343.538673 
L 554.899669 241.104888 
L 555.551411 209.015149 
L 556.203154 182.725652 
L 556.854896 228.680746 
L 557.506638 232.717277 
L 558.15838 218.609102 
L 558.810123 178.184365 
L 559.461865 224.259639 
L 560.113607 217.740589 
L 560.765349 234.221513 
L 561.417092 281.174952 
L 562.068834 289.143732 
L 562.720576 261.539637 
L 563.372318 239.0412 
L 564.024061 268.090293 
L 564.675803 302.593661 
L 565.327545 297.003687 
L 565.979288 352.025645 
L 566.63103 356.524159 
L 567.282772 301.708494 
L 567.934514 293.849485 
L 569.237999 205.12643 
L 569.889741 197.184904 
L 570.541483 208.67486 
L 571.193226 203.619544 
L 571.844968 187.210539 
L 572.49671 161.627738 
L 573.148452 257.63502 
L 573.800195 235.903275 
L 574.451937 270.436735 
L 575.103679 225.444973 
L 575.755421 244.150077 
L 576.407164 269.075958 
L 577.710648 342.34028 
L 578.362391 298.069408 
L 579.014133 267.652536 
L 579.665875 193.215749 
L 580.317617 246.959448 
L 580.96936 257.477177 
L 581.621102 232.616401 
L 582.272844 180.366341 
L 582.924586 181.099343 
L 583.576329 178.608307 
L 584.228071 190.423033 
L 584.879813 214.614019 
L 585.531555 214.865923 
L 586.183298 177.126404 
L 586.83504 209.307934 
L 587.486782 235.743918 
L 588.138524 234.791563 
L 588.790267 238.495565 
L 589.442009 225.423965 
L 590.093751 252.899742 
L 590.745493 263.349716 
L 592.048978 227.015639 
L 592.70072 282.419334 
L 593.352463 258.340201 
L 594.004205 245.306075 
L 594.655947 256.974503 
L 595.307689 256.282948 
L 595.959432 277.744431 
L 596.611174 249.040547 
L 597.262916 263.919388 
L 597.914658 260.330835 
L 598.566401 288.14463 
L 599.218143 308.955815 
L 599.869885 293.603258 
L 600.521627 289.428189 
L 601.17337 270.742768 
L 601.825112 283.883258 
L 602.476854 239.908767 
L 603.128596 247.676364 
L 603.780339 211.083379 
L 604.432081 213.451018 
L 605.735566 282.101 
L 606.387308 225.051502 
L 607.03905 232.183943 
L 608.342535 300.507452 
L 608.994277 333.02681 
L 609.646019 319.460297 
L 610.297761 325.955689 
L 610.949504 336.609118 
L 611.601246 300.278069 
L 612.252988 313.515649 
L 612.90473 273.567658 
L 613.556473 244.740567 
L 614.208215 273.955451 
L 614.859957 211.491044 
L 615.511699 240.067745 
L 616.163442 227.805798 
L 616.815184 221.139125 
L 617.466926 207.000669 
L 618.118668 303.584814 
L 618.770411 275.694937 
L 619.422153 202.904332 
L 620.073895 258.042496 
L 620.725638 289.873517 
L 621.37738 282.818483 
L 622.029122 293.213383 
L 622.680864 296.484926 
L 623.332607 321.391124 
L 623.984349 317.988613 
L 624.636091 277.563688 
L 625.287833 308.233411 
L 625.939576 275.296546 
L 626.591318 287.656718 
L 627.24306 270.89058 
L 627.894802 269.071983 
L 628.546545 299.249253 
L 629.198287 304.78245 
L 629.850029 294.107824 
L 630.501771 325.347787 
L 631.805256 307.150467 
L 632.456998 325.784409 
L 633.108741 338.721824 
L 633.760483 322.150812 
L 634.412225 352.117626 
L 635.063967 335.066084 
L 635.71571 304.181739 
L 636.367452 377.024391 
L 637.019194 319.703684 
L 637.670936 355.34015 
L 638.322679 329.204143 
L 638.974421 333.582477 
L 639.626163 371.427036 
L 640.277905 367.924217 
L 640.929648 370.284096 
L 641.58139 379.319733 
L 642.233132 377.251881 
L 642.884874 388.200555 
L 643.536617 461.665493 
L 644.188359 426.796664 
L 644.840101 416.088729 
L 645.491843 334.905024 
L 646.143586 339.230743 
L 646.795328 323.413175 
L 647.44707 293.940897 
L 648.098813 362.770108 
L 648.750555 356.849686 
L 649.402297 346.987363 
L 650.054039 253.528652 
L 650.705782 266.498619 
L 651.357524 256.56381 
L 652.009266 272.8233 
L 652.661008 251.188645 
L 653.312751 266.427836 
L 653.964493 264.639332 
L 654.616235 332.939183 
L 655.267977 315.838623 
L 655.91972 332.933884 
L 656.571462 381.946279 
L 657.223204 414.2707 
L 657.874946 381.24034 
L 658.526689 437.640299 
L 659.178431 379.029598 
L 659.830173 341.771555 
L 660.481916 346.934749 
L 661.133658 294.831553 
L 661.7854 371.474161 
L 662.437142 319.99363 
L 663.088885 295.701202 
L 663.740627 387.454872 
L 664.392369 322.488262 
L 665.044111 328.266361 
L 665.695854 378.456141 
L 666.347596 384.028136 
L 666.999338 379.794018 
L 667.65108 377.50019 
L 668.302823 449.667942 
L 668.954565 393.951968 
L 669.606307 492.48 
L 670.258049 404.808283 
L 670.909792 380.765298 
L 671.561534 385.072471 
L 672.213276 349.616369 
L 672.865018 387.877299 
L 673.516761 320.517123 
L 674.168503 321.486132 
L 674.820245 305.855174 
L 675.471988 342.395733 
L 676.12373 419.778157 
L 677.427214 288.529205 
L 678.078957 405.132106 
L 678.730699 386.897502 
L 679.382441 406.833551 
L 680.034183 325.551809 
L 680.685926 283.014178 
L 681.337668 338.84806 
L 681.98941 329.250133 
L 682.641152 285.191232 
L 683.292895 281.854205 
L 683.944637 293.415891 
L 684.596379 349.446982 
L 685.248121 332.96549 
L 685.899864 358.259292 
L 686.551606 367.188943 
L 687.203348 341.750736 
L 687.855091 351.878401 
L 688.506833 445.36588 
L 689.158575 389.695328 
L 689.810317 321.477237 
L 690.46206 368.139784 
L 691.113802 370.35469 
L 691.765544 313.880353 
L 692.417286 311.029345 
L 693.069029 256.234876 
L 693.720771 289.035664 
L 694.372513 267.992825 
L 695.024255 254.96854 
L 695.675998 275.393447 
L 696.32774 253.64429 
L 696.979482 324.349253 
L 697.631224 242.996728 
L 698.282967 271.511919 
L 698.934709 288.436657 
L 699.586451 329.904593 
L 700.238193 381.390613 
L 701.541678 240.966729 
L 702.19342 317.127481 
L 702.845163 325.830021 
L 703.496905 237.188348 
L 704.148647 271.505295 
L 704.800389 217.179434 
L 705.452132 301.006151 
L 706.103874 266.553126 
L 706.755616 258.797074 
L 707.407358 337.793505 
L 708.059101 290.614469 
L 708.710843 377.555832 
L 709.362585 338.754187 
L 710.014327 394.322917 
L 710.66607 405.196455 
L 711.317812 380.97954 
L 711.969554 363.71035 
L 712.621296 402.736646 
L 713.273039 308.410369 
L 713.924781 335.200836 
L 714.576523 417.326298 
L 715.228266 424.34348 
L 715.880008 320.365715 
L 716.53175 361.605782 
L 717.183492 361.384727 
L 717.835235 421.052254 
L 719.138719 296.222044 
L 719.790461 311.425087 
L 720.442204 330.001683 
L 721.093946 344.465667 
L 721.745688 333.496553 
L 722.39743 334.126788 
L 723.049173 277.422689 
L 723.700915 253.739109 
L 724.352657 246.251049 
L 725.004399 340.304981 
L 725.656142 316.685371 
L 726.307884 281.487041 
L 726.959626 328.501989 
L 727.611369 347.225073 
L 728.914853 307.296197 
L 729.566595 344.808227 
L 730.218338 315.531644 
L 730.87008 368.67009 
L 731.521822 327.578213 
L 732.173564 390.381584 
L 732.825307 364.281346 
L 733.477049 382.90204 
L 734.128791 392.03912 
L 734.780533 395.753153 
L 735.432276 383.660215 
L 736.084018 480.854534 
L 736.73576 430.88297 
L 737.387502 485.48023 
L 738.039245 356.558604 
L 738.690987 331.593547 
L 739.342729 283.562652 
L 739.994471 352.45394 
L 740.646214 225.526544 
L 741.949698 244.60676 
L 742.601441 201.100308 
L 743.253183 241.486814 
L 743.904925 243.387739 
L 744.556667 205.988129 
L 745.20841 151.455975 
L 745.860152 211.407959 
L 746.511894 226.590562 
L 747.163636 230.360994 
L 747.163636 230.360994 
" clip-path="url(#p45a75c9cc7)" style="fill: none; stroke: #1f77b4; stroke-width: 1.5; stroke-linecap: square"/>
   </g>
   <g id="patch_3">
    <path d="M 108 512.64 
L 108 69.12 
" style="fill: none; stroke: #000000; stroke-width: 0.8; stroke-linejoin: miter; stroke-linecap: square"/>
   </g>
   <g id="patch_4">
    <path d="M 777.6 512.64 
L 777.6 69.12 
" style="fill: none; stroke: #000000; stroke-width: 0.8; stroke-linejoin: miter; stroke-linecap: square"/>
   </g>
   <g id="patch_5">
    <path d="M 108 512.64 
L 777.6 512.64 
" style="fill: none; stroke: #000000; stroke-width: 0.8; stroke-linejoin: miter; stroke-linecap: square"/>
   </g>
   <g id="patch_6">
    <path d="M 108 69.12 
L 777.6 69.12 
" style="fill: none; stroke: #000000; stroke-width: 0.8; stroke-linejoin: miter; stroke-linecap: square"/>
   </g>
   <g id="text_13">
    <!-- Discriminator loss across training steps -->
    <g transform="translate(253.8075 63.12)scale(0.192 -0.192)">
     <defs>
      <path id="DejaVuSans-44" d="M 1259 4147 
L 1259 519 
L 2022 519 
Q 2988 519 3436 956 
Q 3884 1394 3884 2338 
Q 3884 3275 3436 3711 
Q 2988 4147 2022 4147 
L 1259 4147 
z
M 628 4666 
L 1925 4666 
Q 3281 4666 3915 4102 
Q 4550 3538 4550 2338 
Q 4550 1131 3912 565 
Q 3275 0 1925 0 
L 628 0 
L 628 4666 
z
" transform="scale(0.015625)"/>
      <path id="DejaVuSans-63" d="M 3122 3366 
L 3122 2828 
Q 2878 2963 2633 3030 
Q 2388 3097 2138 3097 
Q 1578 3097 1268 2742 
Q 959 2388 959 1747 
Q 959 1106 1268 751 
Q 1578 397 2138 397 
Q 2388 397 2633 464 
Q 2878 531 3122 666 
L 3122 134 
Q 2881 22 2623 -34 
Q 2366 -91 2075 -91 
Q 1284 -91 818 406 
Q 353 903 353 1747 
Q 353 2603 823 3093 
Q 1294 3584 2113 3584 
Q 2378 3584 2631 3529 
Q 2884 3475 3122 3366 
z
" transform="scale(0.015625)"/>
      <path id="DejaVuSans-6d" d="M 3328 2828 
Q 3544 3216 3844 3400 
Q 4144 3584 4550 3584 
Q 5097 3584 5394 3201 
Q 5691 2819 5691 2113 
L 5691 0 
L 5113 0 
L 5113 2094 
Q 5113 2597 4934 2840 
Q 4756 3084 4391 3084 
Q 3944 3084 3684 2787 
Q 3425 2491 3425 1978 
L 3425 0 
L 2847 0 
L 2847 2094 
Q 2847 2600 2669 2842 
Q 2491 3084 2119 3084 
Q 1678 3084 1418 2786 
Q 1159 2488 1159 1978 
L 1159 0 
L 581 0 
L 581 3500 
L 1159 3500 
L 1159 2956 
Q 1356 3278 1631 3431 
Q 1906 3584 2284 3584 
Q 2666 3584 2933 3390 
Q 3200 3197 3328 2828 
z
" transform="scale(0.015625)"/>
      <path id="DejaVuSans-6c" d="M 603 4863 
L 1178 4863 
L 1178 0 
L 603 0 
L 603 4863 
z
" transform="scale(0.015625)"/>
     </defs>
     <use xlink:href="#DejaVuSans-44"/>
     <use xlink:href="#DejaVuSans-69" x="77.001953"/>
     <use xlink:href="#DejaVuSans-73" x="104.785156"/>
     <use xlink:href="#DejaVuSans-63" x="156.884766"/>
     <use xlink:href="#DejaVuSans-72" x="211.865234"/>
     <use xlink:href="#DejaVuSans-69" x="252.978516"/>
     <use xlink:href="#DejaVuSans-6d" x="280.761719"/>
     <use xlink:href="#DejaVuSans-69" x="378.173828"/>
     <use xlink:href="#DejaVuSans-6e" x="405.957031"/>
     <use xlink:href="#DejaVuSans-61" x="469.335938"/>
     <use xlink:href="#DejaVuSans-74" x="530.615234"/>
     <use xlink:href="#DejaVuSans-6f" x="569.824219"/>
     <use xlink:href="#DejaVuSans-72" x="631.005859"/>
     <use xlink:href="#DejaVuSans-20" x="672.119141"/>
     <use xlink:href="#DejaVuSans-6c" x="703.90625"/>
     <use xlink:href="#DejaVuSans-6f" x="731.689453"/>
     <use xlink:href="#DejaVuSans-73" x="792.871094"/>
     <use xlink:href="#DejaVuSans-73" x="844.970703"/>
     <use xlink:href="#DejaVuSans-20" x="897.070312"/>
     <use xlink:href="#DejaVuSans-61" x="928.857422"/>
     <use xlink:href="#DejaVuSans-63" x="990.136719"/>
     <use xlink:href="#DejaVuSans-72" x="1045.117188"/>
     <use xlink:href="#DejaVuSans-6f" x="1083.980469"/>
     <use xlink:href="#DejaVuSans-73" x="1145.162109"/>
     <use xlink:href="#DejaVuSans-73" x="1197.261719"/>
     <use xlink:href="#DejaVuSans-20" x="1249.361328"/>
     <use xlink:href="#DejaVuSans-74" x="1281.148438"/>
     <use xlink:href="#DejaVuSans-72" x="1320.357422"/>
     <use xlink:href="#DejaVuSans-61" x="1361.470703"/>
     <use xlink:href="#DejaVuSans-69" x="1422.75"/>
     <use xlink:href="#DejaVuSans-6e" x="1450.533203"/>
     <use xlink:href="#DejaVuSans-69" x="1513.912109"/>
     <use xlink:href="#DejaVuSans-6e" x="1541.695312"/>
     <use xlink:href="#DejaVuSans-67" x="1605.074219"/>
     <use xlink:href="#DejaVuSans-20" x="1668.550781"/>
     <use xlink:href="#DejaVuSans-73" x="1700.337891"/>
     <use xlink:href="#DejaVuSans-74" x="1752.4375"/>
     <use xlink:href="#DejaVuSans-65" x="1791.646484"/>
     <use xlink:href="#DejaVuSans-70" x="1853.169922"/>
     <use xlink:href="#DejaVuSans-73" x="1916.646484"/>
    </g>
   </g>
   <g id="legend_1">
    <g id="patch_7">
     <path d="M 119.2 105.405 
L 218.71 105.405 
Q 221.91 105.405 221.91 102.205 
L 221.91 80.32 
Q 221.91 77.12 218.71 77.12 
L 119.2 77.12 
Q 116 77.12 116 80.32 
L 116 102.205 
Q 116 105.405 119.2 105.405 
z
" style="fill: #ffffff; opacity: 0.8; stroke: #cccccc; stroke-linejoin: miter"/>
    </g>
    <g id="line2d_12">
     <path d="M 122.4 90.0775 
L 138.4 90.0775 
L 154.4 90.0775 
" style="fill: none; stroke: #1f77b4; stroke-width: 1.5; stroke-linecap: square"/>
    </g>
    <g id="text_14">
     <!-- D loss -->
     <g transform="translate(167.2 95.6775)scale(0.16 -0.16)">
      <use xlink:href="#DejaVuSans-44"/>
      <use xlink:href="#DejaVuSans-20" x="77.001953"/>
      <use xlink:href="#DejaVuSans-6c" x="108.789062"/>
      <use xlink:href="#DejaVuSans-6f" x="136.572266"/>
      <use xlink:href="#DejaVuSans-73" x="197.753906"/>
      <use xlink:href="#DejaVuSans-73" x="249.853516"/>
     </g>
    </g>
   </g>
  </g>
 </g>
 <defs>
  <clipPath id="p45a75c9cc7">
   <rect x="108" y="69.12" width="669.6" height="443.52"/>
  </clipPath>
 </defs>
</svg>
