<?xml version="1.0" encoding="utf-8" standalone="no"?>
<!DOCTYPE svg PUBLIC "-//W3C//DTD SVG 1.1//EN"
  "http://www.w3.org/Graphics/SVG/1.1/DTD/svg11.dtd">
<svg xmlns:xlink="http://www.w3.org/1999/xlink" width="864pt" height="576pt" viewBox="0 0 864 576" xmlns="http://www.w3.org/2000/svg" version="1.1">
 <metadata>
  <rdf:RDF xmlns:dc="http://purl.org/dc/elements/1.1/" xmlns:cc="http://creativecommons.org/ns#" xmlns:rdf="http://www.w3.org/1999/02/22-rdf-syntax-ns#">
   <cc:Work>
    <dc:type rdf:resource="http://purl.org/dc/dcmitype/StillImage"/>
    <dc:date>2022-01-30T21:28:18.377362</dc:date>
    <dc:format>image/svg+xml</dc:format>
    <dc:creator>
     <cc:Agent>
      <dc:title>Matplotlib v3.5.0, https://matplotlib.org/</dc:title>
     </cc:Agent>
    </dc:creator>
   </cc:Work>
  </rdf:RDF>
 </metadata>
 <defs>
  <style type="text/css">*{stroke-linejoin: round; stroke-linecap: butt}</style>
 </defs>
 <g id="figure_1">
  <g id="patch_1">
   <path d="M 0 576 
L 864 576 
L 864 0 
L 0 0 
z
" style="fill: #ffffff"/>
  </g>
  <g id="axes_1">
   <g id="patch_2">
    <path d="M 108 512.64 
L 777.6 512.64 
L 777.6 69.12 
L 108 69.12 
z
" style="fill: #ffffff"/>
   </g>
   <g id="matplotlib.axis_1">
    <g id="xtick_1">
     <g id="line2d_1">
      <defs>
       <path id="md0288d3bd9" d="M 0 0 
L 0 3.5 
" style="stroke: #000000; stroke-width: 0.8"/>
      </defs>
      <g>
       <use xlink:href="#md0288d3bd9" x="138.436364" y="512.64" style="stroke: #000000; stroke-width: 0.8"/>
      </g>
     </g>
     <g id="text_1">
      <!-- 0 -->
      <g transform="translate(133.346364 531.7975)scale(0.16 -0.16)">
       <defs>
        <path id="DejaVuSans-30" d="M 2034 4250 
Q 1547 4250 1301 3770 
Q 1056 3291 1056 2328 
Q 1056 1369 1301 889 
Q 1547 409 2034 409 
Q 2525 409 2770 889 
Q 3016 1369 3016 2328 
Q 3016 3291 2770 3770 
Q 2525 4250 2034 4250 
z
M 2034 4750 
Q 2819 4750 3233 4129 
Q 3647 3509 3647 2328 
Q 3647 1150 3233 529 
Q 2819 -91 2034 -91 
Q 1250 -91 836 529 
Q 422 1150 422 2328 
Q 422 3509 836 4129 
Q 1250 4750 2034 4750 
z
" transform="scale(0.015625)"/>
       </defs>
       <use xlink:href="#DejaVuSans-30"/>
      </g>
     </g>
    </g>
    <g id="xtick_2">
     <g id="line2d_2">
      <g>
       <use xlink:href="#md0288d3bd9" x="253.944385" y="512.64" style="stroke: #000000; stroke-width: 0.8"/>
      </g>
     </g>
     <g id="text_2">
      <!-- 200 -->
      <g transform="translate(238.674385 531.7975)scale(0.16 -0.16)">
       <defs>
        <path id="DejaVuSans-32" d="M 1228 531 
L 3431 531 
L 3431 0 
L 469 0 
L 469 531 
Q 828 903 1448 1529 
Q 2069 2156 2228 2338 
Q 2531 2678 2651 2914 
Q 2772 3150 2772 3378 
Q 2772 3750 2511 3984 
Q 2250 4219 1831 4219 
Q 1534 4219 1204 4116 
Q 875 4013 500 3803 
L 500 4441 
Q 881 4594 1212 4672 
Q 1544 4750 1819 4750 
Q 2544 4750 2975 4387 
Q 3406 4025 3406 3419 
Q 3406 3131 3298 2873 
Q 3191 2616 2906 2266 
Q 2828 2175 2409 1742 
Q 1991 1309 1228 531 
z
" transform="scale(0.015625)"/>
       </defs>
       <use xlink:href="#DejaVuSans-32"/>
       <use xlink:href="#DejaVuSans-30" x="63.623047"/>
       <use xlink:href="#DejaVuSans-30" x="127.246094"/>
      </g>
     </g>
    </g>
    <g id="xtick_3">
     <g id="line2d_3">
      <g>
       <use xlink:href="#md0288d3bd9" x="369.452406" y="512.64" style="stroke: #000000; stroke-width: 0.8"/>
      </g>
     </g>
     <g id="text_3">
      <!-- 400 -->
      <g transform="translate(354.182406 531.7975)scale(0.16 -0.16)">
       <defs>
        <path id="DejaVuSans-34" d="M 2419 4116 
L 825 1625 
L 2419 1625 
L 2419 4116 
z
M 2253 4666 
L 3047 4666 
L 3047 1625 
L 3713 1625 
L 3713 1100 
L 3047 1100 
L 3047 0 
L 2419 0 
L 2419 1100 
L 313 1100 
L 313 1709 
L 2253 4666 
z
" transform="scale(0.015625)"/>
       </defs>
       <use xlink:href="#DejaVuSans-34"/>
       <use xlink:href="#DejaVuSans-30" x="63.623047"/>
       <use xlink:href="#DejaVuSans-30" x="127.246094"/>
      </g>
     </g>
    </g>
    <g id="xtick_4">
     <g id="line2d_4">
      <g>
       <use xlink:href="#md0288d3bd9" x="484.960428" y="512.64" style="stroke: #000000; stroke-width: 0.8"/>
      </g>
     </g>
     <g id="text_4">
      <!-- 600 -->
      <g transform="translate(469.690428 531.7975)scale(0.16 -0.16)">
       <defs>
        <path id="DejaVuSans-36" d="M 2113 2584 
Q 1688 2584 1439 2293 
Q 1191 2003 1191 1497 
Q 1191 994 1439 701 
Q 1688 409 2113 409 
Q 2538 409 2786 701 
Q 3034 994 3034 1497 
Q 3034 2003 2786 2293 
Q 2538 2584 2113 2584 
z
M 3366 4563 
L 3366 3988 
Q 3128 4100 2886 4159 
Q 2644 4219 2406 4219 
Q 1781 4219 1451 3797 
Q 1122 3375 1075 2522 
Q 1259 2794 1537 2939 
Q 1816 3084 2150 3084 
Q 2853 3084 3261 2657 
Q 3669 2231 3669 1497 
Q 3669 778 3244 343 
Q 2819 -91 2113 -91 
Q 1303 -91 875 529 
Q 447 1150 447 2328 
Q 447 3434 972 4092 
Q 1497 4750 2381 4750 
Q 2619 4750 2861 4703 
Q 3103 4656 3366 4563 
z
" transform="scale(0.015625)"/>
       </defs>
       <use xlink:href="#DejaVuSans-36"/>
       <use xlink:href="#DejaVuSans-30" x="63.623047"/>
       <use xlink:href="#DejaVuSans-30" x="127.246094"/>
      </g>
     </g>
    </g>
    <g id="xtick_5">
     <g id="line2d_5">
      <g>
       <use xlink:href="#md0288d3bd9" x="600.468449" y="512.64" style="stroke: #000000; stroke-width: 0.8"/>
      </g>
     </g>
     <g id="text_5">
      <!-- 800 -->
      <g transform="translate(585.198449 531.7975)scale(0.16 -0.16)">
       <defs>
        <path id="DejaVuSans-38" d="M 2034 2216 
Q 1584 2216 1326 1975 
Q 1069 1734 1069 1313 
Q 1069 891 1326 650 
Q 1584 409 2034 409 
Q 2484 409 2743 651 
Q 3003 894 3003 1313 
Q 3003 1734 2745 1975 
Q 2488 2216 2034 2216 
z
M 1403 2484 
Q 997 2584 770 2862 
Q 544 3141 544 3541 
Q 544 4100 942 4425 
Q 1341 4750 2034 4750 
Q 2731 4750 3128 4425 
Q 3525 4100 3525 3541 
Q 3525 3141 3298 2862 
Q 3072 2584 2669 2484 
Q 3125 2378 3379 2068 
Q 3634 1759 3634 1313 
Q 3634 634 3220 271 
Q 2806 -91 2034 -91 
Q 1263 -91 848 271 
Q 434 634 434 1313 
Q 434 1759 690 2068 
Q 947 2378 1403 2484 
z
M 1172 3481 
Q 1172 3119 1398 2916 
Q 1625 2713 2034 2713 
Q 2441 2713 2670 2916 
Q 2900 3119 2900 3481 
Q 2900 3844 2670 4047 
Q 2441 4250 2034 4250 
Q 1625 4250 1398 4047 
Q 1172 3844 1172 3481 
z
" transform="scale(0.015625)"/>
       </defs>
       <use xlink:href="#DejaVuSans-38"/>
       <use xlink:href="#DejaVuSans-30" x="63.623047"/>
       <use xlink:href="#DejaVuSans-30" x="127.246094"/>
      </g>
     </g>
    </g>
    <g id="xtick_6">
     <g id="line2d_6">
      <g>
       <use xlink:href="#md0288d3bd9" x="715.976471" y="512.64" style="stroke: #000000; stroke-width: 0.8"/>
      </g>
     </g>
     <g id="text_6">
      <!-- 1000 -->
      <g transform="translate(695.616471 531.7975)scale(0.16 -0.16)">
       <defs>
        <path id="DejaVuSans-31" d="M 794 531 
L 1825 531 
L 1825 4091 
L 703 3866 
L 703 4441 
L 1819 4666 
L 2450 4666 
L 2450 531 
L 3481 531 
L 3481 0 
L 794 0 
L 794 531 
z
" transform="scale(0.015625)"/>
       </defs>
       <use xlink:href="#DejaVuSans-31"/>
       <use xlink:href="#DejaVuSans-30" x="63.623047"/>
       <use xlink:href="#DejaVuSans-30" x="127.246094"/>
       <use xlink:href="#DejaVuSans-30" x="190.869141"/>
      </g>
     </g>
    </g>
    <g id="text_7">
     <!-- Training steps -->
     <g transform="translate(387.22375 551.2825)scale(0.16 -0.16)">
      <defs>
       <path id="DejaVuSans-54" d="M -19 4666 
L 3928 4666 
L 3928 4134 
L 2272 4134 
L 2272 0 
L 1638 0 
L 1638 4134 
L -19 4134 
L -19 4666 
z
" transform="scale(0.015625)"/>
       <path id="DejaVuSans-72" d="M 2631 2963 
Q 2534 3019 2420 3045 
Q 2306 3072 2169 3072 
Q 1681 3072 1420 2755 
Q 1159 2438 1159 1844 
L 1159 0 
L 581 0 
L 581 3500 
L 1159 3500 
L 1159 2956 
Q 1341 3275 1631 3429 
Q 1922 3584 2338 3584 
Q 2397 3584 2469 3576 
Q 2541 3569 2628 3553 
L 2631 2963 
z
" transform="scale(0.015625)"/>
       <path id="DejaVuSans-61" d="M 2194 1759 
Q 1497 1759 1228 1600 
Q 959 1441 959 1056 
Q 959 750 1161 570 
Q 1363 391 1709 391 
Q 2188 391 2477 730 
Q 2766 1069 2766 1631 
L 2766 1759 
L 2194 1759 
z
M 3341 1997 
L 3341 0 
L 2766 0 
L 2766 531 
Q 2569 213 2275 61 
Q 1981 -91 1556 -91 
Q 1019 -91 701 211 
Q 384 513 384 1019 
Q 384 1609 779 1909 
Q 1175 2209 1959 2209 
L 2766 2209 
L 2766 2266 
Q 2766 2663 2505 2880 
Q 2244 3097 1772 3097 
Q 1472 3097 1187 3025 
Q 903 2953 641 2809 
L 641 3341 
Q 956 3463 1253 3523 
Q 1550 3584 1831 3584 
Q 2591 3584 2966 3190 
Q 3341 2797 3341 1997 
z
" transform="scale(0.015625)"/>
       <path id="DejaVuSans-69" d="M 603 3500 
L 1178 3500 
L 1178 0 
L 603 0 
L 603 3500 
z
M 603 4863 
L 1178 4863 
L 1178 4134 
L 603 4134 
L 603 4863 
z
" transform="scale(0.015625)"/>
       <path id="DejaVuSans-6e" d="M 3513 2113 
L 3513 0 
L 2938 0 
L 2938 2094 
Q 2938 2591 2744 2837 
Q 2550 3084 2163 3084 
Q 1697 3084 1428 2787 
Q 1159 2491 1159 1978 
L 1159 0 
L 581 0 
L 581 3500 
L 1159 3500 
L 1159 2956 
Q 1366 3272 1645 3428 
Q 1925 3584 2291 3584 
Q 2894 3584 3203 3211 
Q 3513 2838 3513 2113 
z
" transform="scale(0.015625)"/>
       <path id="DejaVuSans-67" d="M 2906 1791 
Q 2906 2416 2648 2759 
Q 2391 3103 1925 3103 
Q 1463 3103 1205 2759 
Q 947 2416 947 1791 
Q 947 1169 1205 825 
Q 1463 481 1925 481 
Q 2391 481 2648 825 
Q 2906 1169 2906 1791 
z
M 3481 434 
Q 3481 -459 3084 -895 
Q 2688 -1331 1869 -1331 
Q 1566 -1331 1297 -1286 
Q 1028 -1241 775 -1147 
L 775 -588 
Q 1028 -725 1275 -790 
Q 1522 -856 1778 -856 
Q 2344 -856 2625 -561 
Q 2906 -266 2906 331 
L 2906 616 
Q 2728 306 2450 153 
Q 2172 0 1784 0 
Q 1141 0 747 490 
Q 353 981 353 1791 
Q 353 2603 747 3093 
Q 1141 3584 1784 3584 
Q 2172 3584 2450 3431 
Q 2728 3278 2906 2969 
L 2906 3500 
L 3481 3500 
L 3481 434 
z
" transform="scale(0.015625)"/>
       <path id="DejaVuSans-20" transform="scale(0.015625)"/>
       <path id="DejaVuSans-73" d="M 2834 3397 
L 2834 2853 
Q 2591 2978 2328 3040 
Q 2066 3103 1784 3103 
Q 1356 3103 1142 2972 
Q 928 2841 928 2578 
Q 928 2378 1081 2264 
Q 1234 2150 1697 2047 
L 1894 2003 
Q 2506 1872 2764 1633 
Q 3022 1394 3022 966 
Q 3022 478 2636 193 
Q 2250 -91 1575 -91 
Q 1294 -91 989 -36 
Q 684 19 347 128 
L 347 722 
Q 666 556 975 473 
Q 1284 391 1588 391 
Q 1994 391 2212 530 
Q 2431 669 2431 922 
Q 2431 1156 2273 1281 
Q 2116 1406 1581 1522 
L 1381 1569 
Q 847 1681 609 1914 
Q 372 2147 372 2553 
Q 372 3047 722 3315 
Q 1072 3584 1716 3584 
Q 2034 3584 2315 3537 
Q 2597 3491 2834 3397 
z
" transform="scale(0.015625)"/>
       <path id="DejaVuSans-74" d="M 1172 4494 
L 1172 3500 
L 2356 3500 
L 2356 3053 
L 1172 3053 
L 1172 1153 
Q 1172 725 1289 603 
Q 1406 481 1766 481 
L 2356 481 
L 2356 0 
L 1766 0 
Q 1100 0 847 248 
Q 594 497 594 1153 
L 594 3053 
L 172 3053 
L 172 3500 
L 594 3500 
L 594 4494 
L 1172 4494 
z
" transform="scale(0.015625)"/>
       <path id="DejaVuSans-65" d="M 3597 1894 
L 3597 1613 
L 953 1613 
Q 991 1019 1311 708 
Q 1631 397 2203 397 
Q 2534 397 2845 478 
Q 3156 559 3463 722 
L 3463 178 
Q 3153 47 2828 -22 
Q 2503 -91 2169 -91 
Q 1331 -91 842 396 
Q 353 884 353 1716 
Q 353 2575 817 3079 
Q 1281 3584 2069 3584 
Q 2775 3584 3186 3129 
Q 3597 2675 3597 1894 
z
M 3022 2063 
Q 3016 2534 2758 2815 
Q 2500 3097 2075 3097 
Q 1594 3097 1305 2825 
Q 1016 2553 972 2059 
L 3022 2063 
z
" transform="scale(0.015625)"/>
       <path id="DejaVuSans-70" d="M 1159 525 
L 1159 -1331 
L 581 -1331 
L 581 3500 
L 1159 3500 
L 1159 2969 
Q 1341 3281 1617 3432 
Q 1894 3584 2278 3584 
Q 2916 3584 3314 3078 
Q 3713 2572 3713 1747 
Q 3713 922 3314 415 
Q 2916 -91 2278 -91 
Q 1894 -91 1617 61 
Q 1341 213 1159 525 
z
M 3116 1747 
Q 3116 2381 2855 2742 
Q 2594 3103 2138 3103 
Q 1681 3103 1420 2742 
Q 1159 2381 1159 1747 
Q 1159 1113 1420 752 
Q 1681 391 2138 391 
Q 2594 391 2855 752 
Q 3116 1113 3116 1747 
z
" transform="scale(0.015625)"/>
      </defs>
      <use xlink:href="#DejaVuSans-54"/>
      <use xlink:href="#DejaVuSans-72" x="46.333984"/>
      <use xlink:href="#DejaVuSans-61" x="87.447266"/>
      <use xlink:href="#DejaVuSans-69" x="148.726562"/>
      <use xlink:href="#DejaVuSans-6e" x="176.509766"/>
      <use xlink:href="#DejaVuSans-69" x="239.888672"/>
      <use xlink:href="#DejaVuSans-6e" x="267.671875"/>
      <use xlink:href="#DejaVuSans-67" x="331.050781"/>
      <use xlink:href="#DejaVuSans-20" x="394.527344"/>
      <use xlink:href="#DejaVuSans-73" x="426.314453"/>
      <use xlink:href="#DejaVuSans-74" x="478.414062"/>
      <use xlink:href="#DejaVuSans-65" x="517.623047"/>
      <use xlink:href="#DejaVuSans-70" x="579.146484"/>
      <use xlink:href="#DejaVuSans-73" x="642.623047"/>
     </g>
    </g>
   </g>
   <g id="matplotlib.axis_2">
    <g id="ytick_1">
     <g id="line2d_7">
      <defs>
       <path id="mff8fc94745" d="M 0 0 
L -3.5 0 
" style="stroke: #000000; stroke-width: 0.8"/>
      </defs>
      <g>
       <use xlink:href="#mff8fc94745" x="108" y="445.283359" style="stroke: #000000; stroke-width: 0.8"/>
      </g>
     </g>
     <g id="text_8">
      <!-- 1.30 -->
      <g transform="translate(65.375 451.362109)scale(0.16 -0.16)">
       <defs>
        <path id="DejaVuSans-2e" d="M 684 794 
L 1344 794 
L 1344 0 
L 684 0 
L 684 794 
z
" transform="scale(0.015625)"/>
        <path id="DejaVuSans-33" d="M 2597 2516 
Q 3050 2419 3304 2112 
Q 3559 1806 3559 1356 
Q 3559 666 3084 287 
Q 2609 -91 1734 -91 
Q 1441 -91 1130 -33 
Q 819 25 488 141 
L 488 750 
Q 750 597 1062 519 
Q 1375 441 1716 441 
Q 2309 441 2620 675 
Q 2931 909 2931 1356 
Q 2931 1769 2642 2001 
Q 2353 2234 1838 2234 
L 1294 2234 
L 1294 2753 
L 1863 2753 
Q 2328 2753 2575 2939 
Q 2822 3125 2822 3475 
Q 2822 3834 2567 4026 
Q 2313 4219 1838 4219 
Q 1578 4219 1281 4162 
Q 984 4106 628 3988 
L 628 4550 
Q 988 4650 1302 4700 
Q 1616 4750 1894 4750 
Q 2613 4750 3031 4423 
Q 3450 4097 3450 3541 
Q 3450 3153 3228 2886 
Q 3006 2619 2597 2516 
z
" transform="scale(0.015625)"/>
       </defs>
       <use xlink:href="#DejaVuSans-31"/>
       <use xlink:href="#DejaVuSans-2e" x="63.623047"/>
       <use xlink:href="#DejaVuSans-33" x="95.410156"/>
       <use xlink:href="#DejaVuSans-30" x="159.033203"/>
      </g>
     </g>
    </g>
    <g id="ytick_2">
     <g id="line2d_8">
      <g>
       <use xlink:href="#mff8fc94745" x="108" y="360.008647" style="stroke: #000000; stroke-width: 0.8"/>
      </g>
     </g>
     <g id="text_9">
      <!-- 1.35 -->
      <g transform="translate(65.375 366.087397)scale(0.16 -0.16)">
       <defs>
        <path id="DejaVuSans-35" d="M 691 4666 
L 3169 4666 
L 3169 4134 
L 1269 4134 
L 1269 2991 
Q 1406 3038 1543 3061 
Q 1681 3084 1819 3084 
Q 2600 3084 3056 2656 
Q 3513 2228 3513 1497 
Q 3513 744 3044 326 
Q 2575 -91 1722 -91 
Q 1428 -91 1123 -41 
Q 819 9 494 109 
L 494 744 
Q 775 591 1075 516 
Q 1375 441 1709 441 
Q 2250 441 2565 725 
Q 2881 1009 2881 1497 
Q 2881 1984 2565 2268 
Q 2250 2553 1709 2553 
Q 1456 2553 1204 2497 
Q 953 2441 691 2322 
L 691 4666 
z
" transform="scale(0.015625)"/>
       </defs>
       <use xlink:href="#DejaVuSans-31"/>
       <use xlink:href="#DejaVuSans-2e" x="63.623047"/>
       <use xlink:href="#DejaVuSans-33" x="95.410156"/>
       <use xlink:href="#DejaVuSans-35" x="159.033203"/>
      </g>
     </g>
    </g>
    <g id="ytick_3">
     <g id="line2d_9">
      <g>
       <use xlink:href="#mff8fc94745" x="108" y="274.733934" style="stroke: #000000; stroke-width: 0.8"/>
      </g>
     </g>
     <g id="text_10">
      <!-- 1.40 -->
      <g transform="translate(65.375 280.812684)scale(0.16 -0.16)">
       <use xlink:href="#DejaVuSans-31"/>
       <use xlink:href="#DejaVuSans-2e" x="63.623047"/>
       <use xlink:href="#DejaVuSans-34" x="95.410156"/>
       <use xlink:href="#DejaVuSans-30" x="159.033203"/>
      </g>
     </g>
    </g>
    <g id="ytick_4">
     <g id="line2d_10">
      <g>
       <use xlink:href="#mff8fc94745" x="108" y="189.459221" style="stroke: #000000; stroke-width: 0.8"/>
      </g>
     </g>
     <g id="text_11">
      <!-- 1.45 -->
      <g transform="translate(65.375 195.537971)scale(0.16 -0.16)">
       <use xlink:href="#DejaVuSans-31"/>
       <use xlink:href="#DejaVuSans-2e" x="63.623047"/>
       <use xlink:href="#DejaVuSans-34" x="95.410156"/>
       <use xlink:href="#DejaVuSans-35" x="159.033203"/>
      </g>
     </g>
    </g>
    <g id="ytick_5">
     <g id="line2d_11">
      <g>
       <use xlink:href="#mff8fc94745" x="108" y="104.184508" style="stroke: #000000; stroke-width: 0.8"/>
      </g>
     </g>
     <g id="text_12">
      <!-- 1.50 -->
      <g transform="translate(65.375 110.263258)scale(0.16 -0.16)">
       <use xlink:href="#DejaVuSans-31"/>
       <use xlink:href="#DejaVuSans-2e" x="63.623047"/>
       <use xlink:href="#DejaVuSans-35" x="95.410156"/>
       <use xlink:href="#DejaVuSans-30" x="159.033203"/>
      </g>
     </g>
    </g>
    <g id="text_13">
     <!-- Loss -->
     <g transform="translate(58.0475 308.4275)rotate(-90)scale(0.16 -0.16)">
      <defs>
       <path id="DejaVuSans-4c" d="M 628 4666 
L 1259 4666 
L 1259 531 
L 3531 531 
L 3531 0 
L 628 0 
L 628 4666 
z
" transform="scale(0.015625)"/>
       <path id="DejaVuSans-6f" d="M 1959 3097 
Q 1497 3097 1228 2736 
Q 959 2375 959 1747 
Q 959 1119 1226 758 
Q 1494 397 1959 397 
Q 2419 397 2687 759 
Q 2956 1122 2956 1747 
Q 2956 2369 2687 2733 
Q 2419 3097 1959 3097 
z
M 1959 3584 
Q 2709 3584 3137 3096 
Q 3566 2609 3566 1747 
Q 3566 888 3137 398 
Q 2709 -91 1959 -91 
Q 1206 -91 779 398 
Q 353 888 353 1747 
Q 353 2609 779 3096 
Q 1206 3584 1959 3584 
z
" transform="scale(0.015625)"/>
      </defs>
      <use xlink:href="#DejaVuSans-4c"/>
      <use xlink:href="#DejaVuSans-6f" x="53.962891"/>
      <use xlink:href="#DejaVuSans-73" x="115.144531"/>
      <use xlink:href="#DejaVuSans-73" x="167.244141"/>
     </g>
    </g>
   </g>
   <g id="line2d_12">
    <path d="M 138.436364 229.165324 
L 139.013904 238.2094 
L 139.591444 284.248308 
L 140.168984 212.337699 
L 140.746524 234.63723 
L 141.324064 213.44737 
L 142.479144 309.621084 
L 143.056684 245.702011 
L 143.634225 308.810281 
L 144.789305 388.3117 
L 145.366845 281.457258 
L 145.944385 263.536228 
L 146.521925 192.57874 
L 147.099465 186.028881 
L 147.677005 251.418907 
L 148.254545 238.516399 
L 148.832086 252.945364 
L 149.409626 211.974383 
L 149.987166 222.264551 
L 150.564706 212.181557 
L 151.142246 210.997475 
L 151.719786 185.453511 
L 152.297326 192.279467 
L 152.874866 226.516185 
L 153.452406 216.039175 
L 154.029947 262.751652 
L 154.607487 255.934642 
L 155.185027 203.229377 
L 155.762567 203.847849 
L 156.917647 231.768515 
L 157.495187 261.005822 
L 158.072727 176.453351 
L 158.650267 218.571817 
L 159.227807 210.89216 
L 159.805348 189.279006 
L 160.382888 205.261265 
L 160.960428 268.577318 
L 161.537968 233.098574 
L 162.115508 252.065841 
L 163.270588 299.836957 
L 163.848128 272.157214 
L 164.425668 253.271881 
L 165.003209 209.676362 
L 165.580749 224.777878 
L 166.158289 253.408912 
L 166.735829 259.047736 
L 167.313369 228.327074 
L 167.890909 248.166138 
L 168.468449 238.054884 
L 169.045989 117.176879 
L 169.623529 89.28 
L 170.20107 157.651172 
L 170.77861 126.267513 
L 171.93369 250.678449 
L 172.51123 217.171209 
L 173.08877 241.799665 
L 173.66631 231.112838 
L 174.24385 239.555317 
L 174.82139 274.104118 
L 175.976471 216.889217 
L 176.554011 212.073192 
L 177.131551 177.816549 
L 177.709091 206.608809 
L 178.286631 204.486041 
L 178.864171 239.625053 
L 179.441711 210.478423 
L 180.019251 196.473361 
L 180.596791 189.135062 
L 181.174332 277.041348 
L 181.751872 299.890631 
L 182.329412 258.632372 
L 182.906952 262.011397 
L 183.484492 275.266039 
L 184.062032 281.691472 
L 184.639572 246.985106 
L 185.217112 204.285577 
L 185.794652 235.611698 
L 186.372193 218.675709 
L 186.949733 234.768162 
L 187.527273 232.642142 
L 188.104813 195.562529 
L 188.682353 186.66748 
L 189.259893 237.539898 
L 189.837433 307.130934 
L 190.414973 263.127573 
L 190.992513 208.357891 
L 191.570053 175.208479 
L 192.147594 156.579317 
L 192.725134 151.27555 
L 193.302674 186.957604 
L 193.880214 193.092303 
L 194.457754 184.576022 
L 195.035294 171.135148 
L 195.612834 147.722287 
L 196.190374 173.448011 
L 196.767914 210.175489 
L 197.345455 180.021048 
L 197.922995 224.803699 
L 198.500535 256.582187 
L 199.078075 275.466706 
L 199.655615 272.295669 
L 200.233155 276.309836 
L 200.810695 325.41711 
L 201.388235 308.85135 
L 201.965775 300.417613 
L 202.543316 251.916205 
L 203.120856 222.017325 
L 203.698396 243.188684 
L 204.275936 256.295112 
L 204.853476 233.82907 
L 206.008556 216.585674 
L 206.586096 238.33281 
L 207.163636 218.787123 
L 207.741176 222.408088 
L 208.318717 179.664034 
L 208.896257 205.043113 
L 209.473797 222.009192 
L 210.051337 215.589858 
L 210.628877 230.211561 
L 211.206417 185.580987 
L 211.783957 223.056649 
L 212.361497 242.382353 
L 212.939037 243.788044 
L 213.516578 244.333527 
L 214.094118 287.577318 
L 214.671658 307.07726 
L 215.249198 308.510194 
L 215.826738 341.935296 
L 216.404278 325.616761 
L 216.981818 350.097003 
L 217.559358 265.579094 
L 218.136898 216.761335 
L 218.714439 251.016758 
L 219.291979 230.177405 
L 219.869519 197.677774 
L 220.447059 205.498122 
L 221.024599 192.596021 
L 221.602139 217.788461 
L 222.179679 225.373985 
L 222.757219 221.253689 
L 223.334759 218.157876 
L 223.912299 238.99418 
L 224.48984 243.638611 
L 225.06738 209.660503 
L 225.64492 262.797803 
L 226.22246 261.506373 
L 226.8 218.803388 
L 227.37754 284.280025 
L 227.95508 285.113599 
L 228.53262 249.986786 
L 229.11016 261.902219 
L 229.687701 248.348914 
L 230.265241 263.614706 
L 230.842781 282.046859 
L 231.420321 221.976662 
L 231.997861 269.901684 
L 232.575401 284.705351 
L 233.152941 259.439719 
L 233.730481 265.126931 
L 234.308021 250.696747 
L 234.885561 281.117729 
L 235.463102 321.095537 
L 236.040642 301.323972 
L 236.618182 303.216389 
L 237.195722 295.536731 
L 237.773262 259.130484 
L 238.350802 285.800789 
L 238.928342 234.72811 
L 239.505882 280.72168 
L 240.083422 243.918976 
L 240.660963 274.92773 
L 241.238503 271.797151 
L 241.816043 238.463945 
L 242.393583 254.936996 
L 242.971123 251.475427 
L 243.548663 274.036009 
L 244.126203 278.254707 
L 244.703743 299.524468 
L 245.281283 309.650767 
L 245.858824 290.581438 
L 247.013904 324.903547 
L 247.591444 271.518005 
L 248.168984 233.059539 
L 248.746524 271.359423 
L 249.324064 269.214291 
L 249.901604 277.309109 
L 250.479144 266.744878 
L 251.056684 212.8106 
L 251.634225 269.964101 
L 252.211765 272.52663 
L 252.789305 293.429009 
L 253.366845 260.648808 
L 253.944385 246.706163 
L 254.521925 297.217501 
L 255.099465 247.982955 
L 255.677005 283.807937 
L 256.254545 265.987139 
L 257.409626 309.718673 
L 257.987166 299.905473 
L 258.564706 303.454669 
L 259.142246 255.951517 
L 259.719786 307.954342 
L 260.297326 263.954845 
L 260.874866 314.054072 
L 261.452406 280.460222 
L 262.029947 282.310147 
L 262.607487 282.106429 
L 263.185027 289.937146 
L 263.762567 278.750785 
L 264.340107 284.905815 
L 264.917647 285.168899 
L 265.495187 250.470259 
L 266.072727 300.114273 
L 266.650267 245.426729 
L 267.227807 264.110784 
L 268.382888 312.870803 
L 268.960428 306.86419 
L 269.537968 274.914921 
L 270.115508 288.082749 
L 270.693048 320.896292 
L 271.270588 309.651987 
L 271.848128 348.908448 
L 272.425668 326.344004 
L 273.003209 256.979862 
L 273.580749 234.564038 
L 274.158289 227.257863 
L 274.735829 225.249559 
L 275.313369 227.339187 
L 275.890909 242.894696 
L 277.045989 203.400565 
L 277.623529 207.666431 
L 278.20107 238.018288 
L 278.77861 238.701412 
L 279.35615 275.766386 
L 279.93369 294.519568 
L 280.51123 301.559812 
L 281.08877 261.32441 
L 281.66631 272.774059 
L 282.24385 310.276558 
L 282.82139 308.90848 
L 283.39893 288.16204 
L 283.976471 286.144791 
L 284.554011 340.868728 
L 285.131551 292.81989 
L 285.709091 290.102438 
L 286.286631 302.824405 
L 286.864171 319.332832 
L 287.441711 290.692446 
L 288.019251 296.068389 
L 288.596791 312.506064 
L 289.174332 254.189219 
L 290.329412 364.74229 
L 290.906952 334.274547 
L 291.484492 290.830087 
L 292.062032 302.557662 
L 292.639572 349.025555 
L 293.217112 289.080192 
L 294.372193 386.36073 
L 294.949733 229.209646 
L 295.527273 232.733835 
L 296.104813 183.042856 
L 296.682353 185.777589 
L 297.259893 182.185494 
L 297.837433 211.831659 
L 298.414973 185.623479 
L 298.992513 220.068794 
L 299.570053 199.541117 
L 300.147594 209.074358 
L 300.725134 262.452581 
L 301.302674 249.866832 
L 301.880214 278.009107 
L 302.457754 297.77254 
L 303.035294 227.544531 
L 303.612834 266.54848 
L 304.190374 192.934331 
L 304.767914 167.263298 
L 305.345455 223.8335 
L 306.500535 172.936074 
L 307.655615 222.180786 
L 308.233155 233.280537 
L 308.810695 250.295615 
L 309.388235 296.228191 
L 309.965775 261.808086 
L 310.543316 285.828033 
L 311.120856 284.615487 
L 311.698396 269.002238 
L 312.275936 345.3253 
L 312.853476 232.20787 
L 313.431016 293.472924 
L 314.008556 259.021916 
L 314.586096 242.495597 
L 315.163636 259.602571 
L 315.741176 254.808504 
L 316.318717 246.195447 
L 316.896257 282.927601 
L 317.473797 217.089072 
L 318.051337 240.228073 
L 318.628877 248.018941 
L 319.206417 263.230855 
L 319.783957 221.949419 
L 320.361497 199.610446 
L 320.939037 207.582057 
L 321.516578 168.017174 
L 322.094118 170.4813 
L 322.671658 221.120318 
L 323.249198 242.106664 
L 323.826738 250.718704 
L 324.404278 238.030487 
L 324.981818 258.491885 
L 325.559358 223.493361 
L 326.136898 291.46828 
L 326.714439 268.515918 
L 327.291979 277.315005 
L 327.869519 245.905119 
L 328.447059 281.752465 
L 329.024599 261.404311 
L 329.602139 281.46905 
L 330.179679 293.626627 
L 330.757219 258.391246 
L 331.334759 247.573894 
L 331.912299 233.998428 
L 332.48984 254.559245 
L 333.06738 305.295038 
L 333.64492 271.564563 
L 334.22246 280.333356 
L 334.8 274.47394 
L 335.37754 246.591903 
L 335.95508 240.610703 
L 336.53262 227.381476 
L 337.11016 218.529732 
L 337.687701 253.591079 
L 338.265241 232.41423 
L 338.842781 288.309644 
L 339.420321 248.015891 
L 339.997861 252.970778 
L 340.575401 255.045564 
L 341.152941 295.340943 
L 341.730481 287.517748 
L 342.308021 256.951399 
L 343.463102 263.33312 
L 344.040642 248.775054 
L 344.618182 277.471554 
L 345.195722 287.815192 
L 345.773262 306.827391 
L 346.350802 290.396629 
L 346.928342 286.668519 
L 347.505882 271.874815 
L 348.083422 303.953187 
L 348.660963 259.554997 
L 349.238503 303.573402 
L 349.816043 297.231326 
L 350.393583 317.500799 
L 350.971123 303.32028 
L 351.548663 307.611561 
L 352.126203 308.672843 
L 352.703743 315.605333 
L 353.281283 294.652533 
L 353.858824 341.516476 
L 354.436364 347.089224 
L 355.013904 321.194549 
L 355.591444 307.985652 
L 356.168984 266.092861 
L 356.746524 315.833651 
L 357.324064 313.216025 
L 357.901604 288.032531 
L 358.479144 277.373965 
L 359.056684 281.212878 
L 359.634225 307.555447 
L 360.211765 253.726077 
L 360.789305 302.810784 
L 361.366845 288.724194 
L 361.944385 236.446289 
L 362.521925 173.048912 
L 363.099465 174.912052 
L 363.677005 207.1671 
L 364.832086 278.749972 
L 365.409626 251.029973 
L 365.987166 264.974855 
L 366.564706 242.844885 
L 367.142246 238.03313 
L 367.719786 226.235413 
L 368.297326 268.213595 
L 368.874866 240.613143 
L 369.452406 279.340386 
L 370.029947 261.1764 
L 370.607487 296.015731 
L 371.185027 305.812667 
L 371.762567 335.879685 
L 372.340107 306.558004 
L 372.917647 322.113717 
L 373.495187 333.201879 
L 374.072727 307.917747 
L 374.650267 291.354832 
L 375.227807 291.007578 
L 375.805348 276.237051 
L 376.382888 307.309644 
L 376.960428 277.383724 
L 377.537968 311.833105 
L 378.115508 337.605793 
L 378.693048 319.744943 
L 379.270588 347.072146 
L 379.848128 339.408143 
L 380.425668 278.944337 
L 381.003209 346.834679 
L 381.580749 285.936194 
L 382.158289 324.991784 
L 382.735829 324.385511 
L 383.313369 352.681693 
L 383.890909 347.242723 
L 384.468449 292.985791 
L 385.045989 254.310392 
L 385.623529 268.647054 
L 386.20107 260.295658 
L 386.77861 255.755525 
L 387.35615 281.391589 
L 387.93369 277.249945 
L 388.51123 278.363275 
L 389.08877 289.69419 
L 389.66631 268.65356 
L 390.24385 219.221802 
L 390.82139 264.828471 
L 391.39893 270.523409 
L 391.976471 284.919234 
L 393.131551 211.616353 
L 393.709091 274.731331 
L 394.286631 234.75942 
L 394.864171 222.290371 
L 395.441711 233.518411 
L 396.019251 227.839738 
L 396.596791 275.337807 
L 397.174332 251.350188 
L 397.751872 258.281458 
L 398.329412 275.308937 
L 398.906952 257.578613 
L 399.484492 290.873799 
L 400.062032 230.923149 
L 400.639572 296.95523 
L 401.217112 287.215019 
L 401.794652 262.463357 
L 402.372193 281.356212 
L 402.949733 332.282508 
L 403.527273 267.717314 
L 404.104813 282.760277 
L 404.682353 265.649643 
L 405.259893 274.409287 
L 405.837433 259.600538 
L 406.414973 303.396522 
L 406.992513 295.052242 
L 407.570053 341.235907 
L 408.147594 274.449949 
L 408.725134 260.033183 
L 409.302674 323.13515 
L 409.880214 319.212879 
L 410.457754 326.88542 
L 411.035294 332.053173 
L 411.612834 292.437665 
L 412.190374 289.698256 
L 412.767914 292.476701 
L 413.345455 306.151586 
L 413.922995 284.658589 
L 414.500535 299.910962 
L 415.078075 324.528235 
L 415.655615 326.499943 
L 416.233155 329.846845 
L 416.810695 337.658654 
L 417.388235 350.75878 
L 417.965775 357.725426 
L 418.543316 327.541301 
L 419.120856 318.025138 
L 419.698396 346.002731 
L 420.275936 290.818498 
L 420.853476 309.048561 
L 421.431016 305.047405 
L 422.008556 281.127285 
L 422.586096 274.277948 
L 423.163636 305.074446 
L 423.741176 301.454498 
L 424.318717 345.609731 
L 424.896257 311.398427 
L 425.473797 299.692403 
L 426.051337 277.177566 
L 426.628877 282.433963 
L 427.206417 272.543098 
L 427.783957 278.668444 
L 428.361497 214.186607 
L 428.939037 211.123121 
L 429.516578 331.844373 
L 430.094118 268.879641 
L 430.671658 225.378051 
L 431.249198 287.306508 
L 431.826738 269.261459 
L 432.404278 259.283373 
L 432.981818 324.305407 
L 433.559358 258.056596 
L 434.136898 342.913221 
L 434.714439 329.041124 
L 435.291979 353.484567 
L 435.869519 318.227838 
L 436.447059 384.174733 
L 437.024599 348.300143 
L 438.179679 418.021908 
L 438.757219 425.589134 
L 439.334759 351.752766 
L 440.48984 261.756852 
L 441.06738 292.66212 
L 441.64492 214.375483 
L 442.22246 182.635624 
L 442.8 283.21305 
L 443.37754 188.572502 
L 443.95508 226.6829 
L 444.53262 221.688368 
L 445.11016 134.863899 
L 445.687701 191.684579 
L 446.265241 121.594415 
L 446.842781 248.531894 
L 447.420321 234.794186 
L 447.997861 230.055215 
L 448.575401 218.641146 
L 449.152941 244.625481 
L 449.730481 264.513339 
L 450.308021 245.409447 
L 450.885561 312.365779 
L 451.463102 312.26636 
L 452.040642 291.910277 
L 452.618182 223.143463 
L 453.195722 266.795299 
L 453.773262 269.600988 
L 454.350802 227.531112 
L 454.928342 262.76324 
L 455.505882 241.471724 
L 456.083422 280.499054 
L 457.238503 296.812506 
L 457.816043 279.829959 
L 458.393583 327.662677 
L 458.971123 285.684495 
L 459.548663 274.666272 
L 460.126203 243.750025 
L 460.703743 278.206319 
L 461.281283 259.822554 
L 461.858824 285.105466 
L 462.436364 296.560401 
L 463.013904 302.923824 
L 463.591444 295.1909 
L 464.168984 336.272888 
L 464.746524 309.469821 
L 465.324064 249.7359 
L 465.901604 361.613541 
L 466.479144 305.658964 
L 467.056684 298.687641 
L 467.634225 323.773953 
L 468.211765 301.208491 
L 468.789305 318.60803 
L 469.366845 316.804256 
L 469.944385 356.587902 
L 470.521925 352.051633 
L 471.099465 336.85822 
L 471.677005 337.296151 
L 472.254545 331.36639 
L 472.832086 334.414628 
L 473.409626 348.211499 
L 473.987166 388.975509 
L 474.564706 368.522041 
L 475.142246 342.486675 
L 475.719786 386.064913 
L 476.297326 400.360709 
L 476.874866 359.117088 
L 477.452406 340.581653 
L 478.607487 415.448807 
L 479.185027 329.948704 
L 479.762567 332.95384 
L 480.340107 316.166471 
L 480.917647 230.924166 
L 482.072727 308.217427 
L 482.650267 343.651239 
L 483.227807 324.598988 
L 483.805348 298.919212 
L 484.382888 292.244723 
L 484.960428 266.280923 
L 485.537968 189.00596 
L 486.115508 286.025651 
L 486.693048 240.717848 
L 487.270588 217.318406 
L 487.848128 301.137943 
L 488.425668 269.283416 
L 489.003209 223.059902 
L 489.580749 238.659123 
L 490.158289 218.723894 
L 490.735829 190.803227 
L 491.313369 188.863033 
L 491.890909 212.843943 
L 492.468449 202.915262 
L 493.045989 269.614406 
L 493.623529 268.339648 
L 494.20107 224.878924 
L 494.77861 283.621908 
L 495.35615 329.56282 
L 495.93369 328.702612 
L 497.08877 311.427703 
L 497.66631 342.792048 
L 498.24385 342.458821 
L 498.82139 344.765992 
L 499.39893 273.160959 
L 499.976471 233.589773 
L 500.554011 153.88423 
L 501.131551 205.241951 
L 501.709091 210.982633 
L 502.286631 190.092249 
L 502.864171 229.316994 
L 503.441711 157.742661 
L 504.019251 222.506084 
L 504.596791 210.993815 
L 505.174332 174.50543 
L 505.751872 254.679198 
L 506.329412 257.690637 
L 506.906952 265.62057 
L 507.484492 266.27645 
L 508.062032 303.522981 
L 508.639572 288.671944 
L 509.217112 304.842061 
L 509.794652 299.182093 
L 510.372193 329.423959 
L 510.949733 311.428313 
L 511.527273 317.959265 
L 512.104813 331.736008 
L 512.682353 327.326401 
L 513.259893 323.866866 
L 513.837433 332.881868 
L 514.414973 351.194881 
L 514.992513 343.711012 
L 515.570053 330.992501 
L 516.147594 342.768057 
L 516.725134 374.820405 
L 517.302674 307.819954 
L 517.880214 376.753483 
L 518.457754 348.149489 
L 519.035294 344.977232 
L 519.612834 349.003191 
L 520.190374 348.186695 
L 520.767914 268.869069 
L 521.345455 216.058083 
L 521.922995 201.958889 
L 522.500535 220.643147 
L 523.078075 244.755803 
L 523.655615 223.884734 
L 524.233155 177.336532 
L 524.810695 214.19352 
L 525.388235 209.219116 
L 525.965775 254.155876 
L 526.543316 187.643168 
L 527.120856 271.175833 
L 527.698396 252.402931 
L 528.275936 249.501076 
L 528.853476 248.914525 
L 529.431016 277.905622 
L 530.008556 341.71511 
L 530.586096 315.108441 
L 531.163636 308.629741 
L 531.741176 327.856433 
L 532.318717 339.800533 
L 532.896257 361.598903 
L 533.473797 395.081135 
L 534.051337 362.029718 
L 534.628877 282.859696 
L 535.206417 262.827893 
L 536.361497 316.737774 
L 536.939037 312.66241 
L 537.516578 315.557758 
L 538.094118 329.175513 
L 538.671658 291.760234 
L 539.249198 289.756403 
L 539.826738 310.052916 
L 540.404278 343.292599 
L 540.981818 350.54876 
L 541.559358 291.657969 
L 542.136898 336.565859 
L 542.714439 267.214526 
L 543.291979 224.396264 
L 543.869519 232.649664 
L 544.447059 163.293858 
L 545.024599 146.421099 
L 545.602139 180.269493 
L 546.179679 183.008903 
L 546.757219 207.362888 
L 547.334759 195.024975 
L 547.912299 179.875477 
L 548.48984 243.816914 
L 549.06738 231.42248 
L 549.64492 272.243824 
L 550.22246 224.721358 
L 550.8 237.089158 
L 551.37754 263.662687 
L 551.95508 313.300196 
L 552.53262 298.210064 
L 553.11016 247.041829 
L 553.687701 275.601908 
L 554.265241 261.68793 
L 554.842781 228.802211 
L 555.420321 267.154549 
L 555.997861 258.492901 
L 556.575401 238.052647 
L 557.152941 289.014522 
L 557.730481 265.152955 
L 558.308021 210.864103 
L 558.885561 249.027159 
L 559.463102 297.86403 
L 560.040642 291.726484 
L 560.618182 263.960944 
L 561.195722 341.71938 
L 561.773262 314.836412 
L 562.350802 337.803208 
L 562.928342 276.180531 
L 563.505882 309.580015 
L 564.083422 351.313208 
L 564.660963 307.626606 
L 565.238503 320.139773 
L 565.816043 310.121025 
L 566.393583 335.796938 
L 566.971123 294.026539 
L 567.548663 233.91751 
L 568.126203 268.057452 
L 568.703743 345.149639 
L 569.281283 225.582989 
L 569.858824 289.978012 
L 570.436364 247.510461 
L 571.013904 251.457129 
L 571.591444 285.196753 
L 572.168984 304.169916 
L 572.746524 285.564745 
L 573.324064 259.64852 
L 573.901604 294.580154 
L 574.479144 293.529444 
L 575.056684 313.26055 
L 575.634225 295.989098 
L 576.211765 387.448036 
L 576.789305 309.611122 
L 577.366845 348.65431 
L 577.944385 346.155824 
L 578.521925 318.382558 
L 579.099465 317.355025 
L 579.677005 289.641533 
L 580.832086 372.653518 
L 581.409626 264.89963 
L 581.987166 280.53748 
L 582.564706 363.430936 
L 583.142246 345.439154 
L 583.719786 345.389952 
L 584.297326 309.952074 
L 584.874866 372.706989 
L 585.452406 308.504908 
L 586.029947 332.088549 
L 586.607487 279.362751 
L 587.185027 238.247622 
L 587.762567 265.877961 
L 588.340107 287.930266 
L 589.495187 232.634009 
L 590.072727 295.061187 
L 590.650267 308.325995 
L 591.227807 298.869605 
L 591.805348 340.514967 
L 592.382888 292.090817 
L 592.960428 288.542231 
L 593.537968 323.699541 
L 594.115508 312.195405 
L 594.693048 304.644443 
L 595.270588 310.714083 
L 595.848128 390.472487 
L 596.425668 313.129008 
L 597.003209 364.511736 
L 597.580749 378.000591 
L 598.158289 369.924885 
L 598.735829 330.665374 
L 599.313369 382.298987 
L 599.890909 351.476263 
L 600.468449 355.926736 
L 601.045989 345.282198 
L 601.623529 352.728658 
L 602.20107 355.722205 
L 603.35615 350.397903 
L 603.93369 378.704453 
L 604.51123 365.301192 
L 605.08877 436.911713 
L 605.66631 345.746966 
L 606.24385 410.865979 
L 606.82139 392.231125 
L 607.39893 386.74702 
L 607.976471 458.114383 
L 608.554011 429.212335 
L 609.131551 479.382518 
L 609.709091 324.125477 
L 610.286631 335.342538 
L 610.864171 333.906554 
L 611.441711 330.111149 
L 612.019251 270.302613 
L 612.596791 354.467371 
L 613.174332 281.402771 
L 613.751872 155.633516 
L 614.329412 345.923033 
L 614.906952 322.400792 
L 615.484492 255.541642 
L 616.062032 338.414767 
L 616.639572 314.033131 
L 617.217112 319.623567 
L 617.794652 252.493404 
L 618.372193 225.980665 
L 618.949733 232.95646 
L 619.527273 350.313732 
L 620.104813 304.6172 
L 620.682353 313.081027 
L 621.259893 368.060728 
L 621.837433 364.417603 
L 622.414973 357.054094 
L 622.992513 428.26816 
L 623.570053 414.440182 
L 624.147594 296.838733 
L 624.725134 293.482276 
L 625.302674 248.809616 
L 625.880214 283.520862 
L 626.457754 261.690573 
L 627.035294 288.185218 
L 627.612834 281.31616 
L 628.190374 259.689995 
L 628.767914 323.492164 
L 629.345455 264.491788 
L 629.922995 359.890686 
L 630.500535 327.755997 
L 631.078075 312.517042 
L 631.655615 278.177449 
L 632.233155 258.584798 
L 632.810695 252.958172 
L 633.388235 241.980815 
L 633.965775 337.657231 
L 634.543316 175.021026 
L 635.698396 350.48187 
L 636.275936 253.465026 
L 636.853476 239.124705 
L 637.431016 185.499459 
L 638.008556 307.062621 
L 638.586096 319.913285 
L 639.163636 202.260805 
L 639.741176 220.104984 
L 640.318717 198.020556 
L 640.896257 267.188299 
L 641.473797 209.415717 
L 642.051337 307.444642 
L 642.628877 267.351558 
L 643.206417 273.950211 
L 643.783957 305.934857 
L 644.361497 271.196164 
L 644.939037 260.474368 
L 645.516578 327.547604 
L 646.094118 274.125465 
L 646.671658 341.141977 
L 647.249198 315.525635 
L 647.826738 355.173469 
L 648.404278 492.48 
L 648.981818 329.769587 
L 649.559358 355.724645 
L 650.136898 357.758159 
L 650.714439 313.11071 
L 651.291979 336.892783 
L 651.869519 286.561578 
L 652.447059 258.777536 
L 653.024599 286.620538 
L 653.602139 370.696652 
L 654.179679 328.229508 
L 654.757219 268.153822 
L 655.334759 331.969003 
L 655.912299 278.746719 
L 656.48984 300.641661 
L 657.06738 276.755493 
L 657.64492 372.040537 
L 658.22246 273.983554 
L 659.37754 446.695637 
L 659.95508 358.969891 
L 660.53262 345.463551 
L 661.11016 242.973988 
L 661.687701 219.065862 
L 662.265241 220.172889 
L 662.842781 158.944431 
L 663.420321 276.140682 
L 663.997861 282.512847 
L 664.575401 266.051182 
L 665.152941 275.624679 
L 665.730481 239.069608 
L 666.308021 300.102074 
L 666.885561 326.43895 
L 667.463102 322.576452 
L 668.040642 311.466739 
L 668.618182 242.995335 
L 669.195722 296.781603 
L 669.773262 297.297199 
L 670.350802 374.964349 
L 670.928342 238.523922 
L 671.505882 226.027019 
L 672.083422 251.529508 
L 672.660963 235.938825 
L 673.238503 272.410336 
L 673.816043 218.33252 
L 674.393583 321.630244 
L 674.971123 257.151863 
L 675.548663 304.938431 
L 676.126203 222.187699 
L 676.703743 270.217019 
L 677.281283 328.609292 
L 677.858824 283.393793 
L 678.436364 351.483582 
L 679.013904 344.57305 
L 679.591444 262.82342 
L 680.168984 310.900722 
L 680.746524 271.673538 
L 681.324064 321.980548 
L 681.901604 316.544425 
L 682.479144 288.900668 
L 683.056684 317.437366 
L 683.634225 297.087586 
L 684.211765 331.846203 
L 684.789305 268.446996 
L 685.366845 337.84875 
L 685.944385 326.385479 
L 686.521925 362.40564 
L 687.099465 343.152314 
L 687.677005 366.719284 
L 688.254545 315.442481 
L 688.832086 343.856176 
L 689.409626 364.08153 
L 689.987166 389.173941 
L 690.564706 328.235404 
L 691.142246 368.609058 
L 691.719786 340.487723 
L 692.297326 325.009472 
L 692.874866 421.774618 
L 693.452406 357.30193 
L 694.029947 335.187819 
L 694.607487 412.315381 
L 695.185027 362.114702 
L 695.762567 370.26543 
L 696.340107 339.88938 
L 696.917647 323.648103 
L 697.495187 343.359285 
L 698.072727 299.052178 
L 698.650267 339.093825 
L 699.227807 292.671066 
L 699.805348 302.66623 
L 700.382888 325.487252 
L 700.960428 411.580616 
L 701.537968 265.935905 
L 702.115508 395.046775 
L 702.693048 307.318793 
L 703.270588 358.196904 
L 703.848128 259.058918 
L 704.425668 279.648605 
L 705.003209 312.131972 
L 705.580749 249.303255 
L 706.158289 277.68564 
L 706.735829 251.953817 
L 707.313369 299.844276 
L 707.890909 281.717496 
L 708.468449 201.660632 
L 709.045989 224.154731 
L 709.623529 235.315271 
L 710.20107 217.603651 
L 710.77861 258.956043 
L 711.35615 322.350371 
L 711.93369 267.138081 
L 712.51123 276.150644 
L 713.08877 255.436937 
L 713.66631 301.841601 
L 714.24385 283.477354 
L 714.82139 307.427768 
L 715.39893 252.188235 
L 715.976471 300.50036 
L 716.554011 324.601834 
L 717.131551 369.687418 
L 717.709091 323.498263 
L 718.286631 338.052874 
L 718.864171 361.58833 
L 720.019251 355.590866 
L 720.596791 398.429663 
L 721.174332 323.333988 
L 721.751872 345.345224 
L 722.329412 344.166632 
L 722.906952 317.15944 
L 723.484492 295.644689 
L 724.062032 289.910106 
L 724.639572 349.110133 
L 725.217112 299.016802 
L 725.794652 289.745018 
L 726.372193 242.31831 
L 726.949733 242.616364 
L 727.527273 177.263747 
L 728.104813 134.93648 
L 728.682353 181.438124 
L 729.259893 167.122607 
L 729.837433 231.055911 
L 730.414973 117.161834 
L 730.992513 210.779932 
L 731.570053 192.813361 
L 732.147594 210.530063 
L 732.725134 257.415354 
L 733.302674 224.565012 
L 733.880214 299.795482 
L 734.457754 287.698492 
L 735.035294 232.970692 
L 735.612834 209.814003 
L 736.190374 243.830129 
L 736.767914 346.254836 
L 737.345455 242.147326 
L 737.922995 344.662913 
L 738.500535 270.243043 
L 739.078075 234.15335 
L 739.655615 279.925921 
L 740.233155 265.422952 
L 740.810695 313.254857 
L 741.388235 278.876431 
L 741.965775 329.914751 
L 742.543316 264.864457 
L 743.120856 279.434519 
L 743.698396 275.281897 
L 744.275936 305.173458 
L 744.853476 280.388657 
L 745.431016 281.617467 
L 746.008556 289.699069 
L 746.586096 311.029621 
L 747.163636 339.051943 
L 747.163636 339.051943 
" clip-path="url(#pd98803c90f)" style="fill: none; stroke: #1f77b4; stroke-width: 1.5; stroke-linecap: square"/>
   </g>
   <g id="patch_3">
    <path d="M 108 512.64 
L 108 69.12 
" style="fill: none; stroke: #000000; stroke-width: 0.8; stroke-linejoin: miter; stroke-linecap: square"/>
   </g>
   <g id="patch_4">
    <path d="M 777.6 512.64 
L 777.6 69.12 
" style="fill: none; stroke: #000000; stroke-width: 0.8; stroke-linejoin: miter; stroke-linecap: square"/>
   </g>
   <g id="patch_5">
    <path d="M 108 512.64 
L 777.6 512.64 
" style="fill: none; stroke: #000000; stroke-width: 0.8; stroke-linejoin: miter; stroke-linecap: square"/>
   </g>
   <g id="patch_6">
    <path d="M 108 69.12 
L 777.6 69.12 
" style="fill: none; stroke: #000000; stroke-width: 0.8; stroke-linejoin: miter; stroke-linecap: square"/>
   </g>
   <g id="text_14">
    <!-- Discriminator loss across training steps -->
    <g transform="translate(253.8075 63.12)scale(0.192 -0.192)">
     <defs>
      <path id="DejaVuSans-44" d="M 1259 4147 
L 1259 519 
L 2022 519 
Q 2988 519 3436 956 
Q 3884 1394 3884 2338 
Q 3884 3275 3436 3711 
Q 2988 4147 2022 4147 
L 1259 4147 
z
M 628 4666 
L 1925 4666 
Q 3281 4666 3915 4102 
Q 4550 3538 4550 2338 
Q 4550 1131 3912 565 
Q 3275 0 1925 0 
L 628 0 
L 628 4666 
z
" transform="scale(0.015625)"/>
      <path id="DejaVuSans-63" d="M 3122 3366 
L 3122 2828 
Q 2878 2963 2633 3030 
Q 2388 3097 2138 3097 
Q 1578 3097 1268 2742 
Q 959 2388 959 1747 
Q 959 1106 1268 751 
Q 1578 397 2138 397 
Q 2388 397 2633 464 
Q 2878 531 3122 666 
L 3122 134 
Q 2881 22 2623 -34 
Q 2366 -91 2075 -91 
Q 1284 -91 818 406 
Q 353 903 353 1747 
Q 353 2603 823 3093 
Q 1294 3584 2113 3584 
Q 2378 3584 2631 3529 
Q 2884 3475 3122 3366 
z
" transform="scale(0.015625)"/>
      <path id="DejaVuSans-6d" d="M 3328 2828 
Q 3544 3216 3844 3400 
Q 4144 3584 4550 3584 
Q 5097 3584 5394 3201 
Q 5691 2819 5691 2113 
L 5691 0 
L 5113 0 
L 5113 2094 
Q 5113 2597 4934 2840 
Q 4756 3084 4391 3084 
Q 3944 3084 3684 2787 
Q 3425 2491 3425 1978 
L 3425 0 
L 2847 0 
L 2847 2094 
Q 2847 2600 2669 2842 
Q 2491 3084 2119 3084 
Q 1678 3084 1418 2786 
Q 1159 2488 1159 1978 
L 1159 0 
L 581 0 
L 581 3500 
L 1159 3500 
L 1159 2956 
Q 1356 3278 1631 3431 
Q 1906 3584 2284 3584 
Q 2666 3584 2933 3390 
Q 3200 3197 3328 2828 
z
" transform="scale(0.015625)"/>
      <path id="DejaVuSans-6c" d="M 603 4863 
L 1178 4863 
L 1178 0 
L 603 0 
L 603 4863 
z
" transform="scale(0.015625)"/>
     </defs>
     <use xlink:href="#DejaVuSans-44"/>
     <use xlink:href="#DejaVuSans-69" x="77.001953"/>
     <use xlink:href="#DejaVuSans-73" x="104.785156"/>
     <use xlink:href="#DejaVuSans-63" x="156.884766"/>
     <use xlink:href="#DejaVuSans-72" x="211.865234"/>
     <use xlink:href="#DejaVuSans-69" x="252.978516"/>
     <use xlink:href="#DejaVuSans-6d" x="280.761719"/>
     <use xlink:href="#DejaVuSans-69" x="378.173828"/>
     <use xlink:href="#DejaVuSans-6e" x="405.957031"/>
     <use xlink:href="#DejaVuSans-61" x="469.335938"/>
     <use xlink:href="#DejaVuSans-74" x="530.615234"/>
     <use xlink:href="#DejaVuSans-6f" x="569.824219"/>
     <use xlink:href="#DejaVuSans-72" x="631.005859"/>
     <use xlink:href="#DejaVuSans-20" x="672.119141"/>
     <use xlink:href="#DejaVuSans-6c" x="703.90625"/>
     <use xlink:href="#DejaVuSans-6f" x="731.689453"/>
     <use xlink:href="#DejaVuSans-73" x="792.871094"/>
     <use xlink:href="#DejaVuSans-73" x="844.970703"/>
     <use xlink:href="#DejaVuSans-20" x="897.070312"/>
     <use xlink:href="#DejaVuSans-61" x="928.857422"/>
     <use xlink:href="#DejaVuSans-63" x="990.136719"/>
     <use xlink:href="#DejaVuSans-72" x="1045.117188"/>
     <use xlink:href="#DejaVuSans-6f" x="1083.980469"/>
     <use xlink:href="#DejaVuSans-73" x="1145.162109"/>
     <use xlink:href="#DejaVuSans-73" x="1197.261719"/>
     <use xlink:href="#DejaVuSans-20" x="1249.361328"/>
     <use xlink:href="#DejaVuSans-74" x="1281.148438"/>
     <use xlink:href="#DejaVuSans-72" x="1320.357422"/>
     <use xlink:href="#DejaVuSans-61" x="1361.470703"/>
     <use xlink:href="#DejaVuSans-69" x="1422.75"/>
     <use xlink:href="#DejaVuSans-6e" x="1450.533203"/>
     <use xlink:href="#DejaVuSans-69" x="1513.912109"/>
     <use xlink:href="#DejaVuSans-6e" x="1541.695312"/>
     <use xlink:href="#DejaVuSans-67" x="1605.074219"/>
     <use xlink:href="#DejaVuSans-20" x="1668.550781"/>
     <use xlink:href="#DejaVuSans-73" x="1700.337891"/>
     <use xlink:href="#DejaVuSans-74" x="1752.4375"/>
     <use xlink:href="#DejaVuSans-65" x="1791.646484"/>
     <use xlink:href="#DejaVuSans-70" x="1853.169922"/>
     <use xlink:href="#DejaVuSans-73" x="1916.646484"/>
    </g>
   </g>
   <g id="legend_1">
    <g id="patch_7">
     <path d="M 119.2 105.405 
L 218.71 105.405 
Q 221.91 105.405 221.91 102.205 
L 221.91 80.32 
Q 221.91 77.12 218.71 77.12 
L 119.2 77.12 
Q 116 77.12 116 80.32 
L 116 102.205 
Q 116 105.405 119.2 105.405 
z
" style="fill: #ffffff; opacity: 0.8; stroke: #cccccc; stroke-linejoin: miter"/>
    </g>
    <g id="line2d_13">
     <path d="M 122.4 90.0775 
L 138.4 90.0775 
L 154.4 90.0775 
" style="fill: none; stroke: #1f77b4; stroke-width: 1.5; stroke-linecap: square"/>
    </g>
    <g id="text_15">
     <!-- D loss -->
     <g transform="translate(167.2 95.6775)scale(0.16 -0.16)">
      <use xlink:href="#DejaVuSans-44"/>
      <use xlink:href="#DejaVuSans-20" x="77.001953"/>
      <use xlink:href="#DejaVuSans-6c" x="108.789062"/>
      <use xlink:href="#DejaVuSans-6f" x="136.572266"/>
      <use xlink:href="#DejaVuSans-73" x="197.753906"/>
      <use xlink:href="#DejaVuSans-73" x="249.853516"/>
     </g>
    </g>
   </g>
  </g>
 </g>
 <defs>
  <clipPath id="pd98803c90f">
   <rect x="108" y="69.12" width="669.6" height="443.52"/>
  </clipPath>
 </defs>
</svg>
