<?xml version="1.0" encoding="utf-8" standalone="no"?>
<!DOCTYPE svg PUBLIC "-//W3C//DTD SVG 1.1//EN"
  "http://www.w3.org/Graphics/SVG/1.1/DTD/svg11.dtd">
<svg xmlns:xlink="http://www.w3.org/1999/xlink" width="864pt" height="576pt" viewBox="0 0 864 576" xmlns="http://www.w3.org/2000/svg" version="1.1">
 <metadata>
  <rdf:RDF xmlns:dc="http://purl.org/dc/elements/1.1/" xmlns:cc="http://creativecommons.org/ns#" xmlns:rdf="http://www.w3.org/1999/02/22-rdf-syntax-ns#">
   <cc:Work>
    <dc:type rdf:resource="http://purl.org/dc/dcmitype/StillImage"/>
    <dc:date>2022-01-30T13:05:22.864066</dc:date>
    <dc:format>image/svg+xml</dc:format>
    <dc:creator>
     <cc:Agent>
      <dc:title>Matplotlib v3.5.0, https://matplotlib.org/</dc:title>
     </cc:Agent>
    </dc:creator>
   </cc:Work>
  </rdf:RDF>
 </metadata>
 <defs>
  <style type="text/css">*{stroke-linejoin: round; stroke-linecap: butt}</style>
 </defs>
 <g id="figure_1">
  <g id="patch_1">
   <path d="M 0 576 
L 864 576 
L 864 0 
L 0 0 
z
" style="fill: #ffffff"/>
  </g>
  <g id="axes_1">
   <g id="patch_2">
    <path d="M 108 512.64 
L 777.6 512.64 
L 777.6 69.12 
L 108 69.12 
z
" style="fill: #ffffff"/>
   </g>
   <g id="matplotlib.axis_1">
    <g id="xtick_1">
     <g id="line2d_1">
      <defs>
       <path id="md7de3d7f0c" d="M 0 0 
L 0 3.5 
" style="stroke: #000000; stroke-width: 0.8"/>
      </defs>
      <g>
       <use xlink:href="#md7de3d7f0c" x="138.436364" y="512.64" style="stroke: #000000; stroke-width: 0.8"/>
      </g>
     </g>
     <g id="text_1">
      <!-- 0 -->
      <g transform="translate(133.346364 531.7975)scale(0.16 -0.16)">
       <defs>
        <path id="DejaVuSans-30" d="M 2034 4250 
Q 1547 4250 1301 3770 
Q 1056 3291 1056 2328 
Q 1056 1369 1301 889 
Q 1547 409 2034 409 
Q 2525 409 2770 889 
Q 3016 1369 3016 2328 
Q 3016 3291 2770 3770 
Q 2525 4250 2034 4250 
z
M 2034 4750 
Q 2819 4750 3233 4129 
Q 3647 3509 3647 2328 
Q 3647 1150 3233 529 
Q 2819 -91 2034 -91 
Q 1250 -91 836 529 
Q 422 1150 422 2328 
Q 422 3509 836 4129 
Q 1250 4750 2034 4750 
z
" transform="scale(0.015625)"/>
       </defs>
       <use xlink:href="#DejaVuSans-30"/>
      </g>
     </g>
    </g>
    <g id="xtick_2">
     <g id="line2d_2">
      <g>
       <use xlink:href="#md7de3d7f0c" x="269.486369" y="512.64" style="stroke: #000000; stroke-width: 0.8"/>
      </g>
     </g>
     <g id="text_2">
      <!-- 200 -->
      <g transform="translate(254.216369 531.7975)scale(0.16 -0.16)">
       <defs>
        <path id="DejaVuSans-32" d="M 1228 531 
L 3431 531 
L 3431 0 
L 469 0 
L 469 531 
Q 828 903 1448 1529 
Q 2069 2156 2228 2338 
Q 2531 2678 2651 2914 
Q 2772 3150 2772 3378 
Q 2772 3750 2511 3984 
Q 2250 4219 1831 4219 
Q 1534 4219 1204 4116 
Q 875 4013 500 3803 
L 500 4441 
Q 881 4594 1212 4672 
Q 1544 4750 1819 4750 
Q 2544 4750 2975 4387 
Q 3406 4025 3406 3419 
Q 3406 3131 3298 2873 
Q 3191 2616 2906 2266 
Q 2828 2175 2409 1742 
Q 1991 1309 1228 531 
z
" transform="scale(0.015625)"/>
       </defs>
       <use xlink:href="#DejaVuSans-32"/>
       <use xlink:href="#DejaVuSans-30" x="63.623047"/>
       <use xlink:href="#DejaVuSans-30" x="127.246094"/>
      </g>
     </g>
    </g>
    <g id="xtick_3">
     <g id="line2d_3">
      <g>
       <use xlink:href="#md7de3d7f0c" x="400.536373" y="512.64" style="stroke: #000000; stroke-width: 0.8"/>
      </g>
     </g>
     <g id="text_3">
      <!-- 400 -->
      <g transform="translate(385.266373 531.7975)scale(0.16 -0.16)">
       <defs>
        <path id="DejaVuSans-34" d="M 2419 4116 
L 825 1625 
L 2419 1625 
L 2419 4116 
z
M 2253 4666 
L 3047 4666 
L 3047 1625 
L 3713 1625 
L 3713 1100 
L 3047 1100 
L 3047 0 
L 2419 0 
L 2419 1100 
L 313 1100 
L 313 1709 
L 2253 4666 
z
" transform="scale(0.015625)"/>
       </defs>
       <use xlink:href="#DejaVuSans-34"/>
       <use xlink:href="#DejaVuSans-30" x="63.623047"/>
       <use xlink:href="#DejaVuSans-30" x="127.246094"/>
      </g>
     </g>
    </g>
    <g id="xtick_4">
     <g id="line2d_4">
      <g>
       <use xlink:href="#md7de3d7f0c" x="531.586378" y="512.64" style="stroke: #000000; stroke-width: 0.8"/>
      </g>
     </g>
     <g id="text_4">
      <!-- 600 -->
      <g transform="translate(516.316378 531.7975)scale(0.16 -0.16)">
       <defs>
        <path id="DejaVuSans-36" d="M 2113 2584 
Q 1688 2584 1439 2293 
Q 1191 2003 1191 1497 
Q 1191 994 1439 701 
Q 1688 409 2113 409 
Q 2538 409 2786 701 
Q 3034 994 3034 1497 
Q 3034 2003 2786 2293 
Q 2538 2584 2113 2584 
z
M 3366 4563 
L 3366 3988 
Q 3128 4100 2886 4159 
Q 2644 4219 2406 4219 
Q 1781 4219 1451 3797 
Q 1122 3375 1075 2522 
Q 1259 2794 1537 2939 
Q 1816 3084 2150 3084 
Q 2853 3084 3261 2657 
Q 3669 2231 3669 1497 
Q 3669 778 3244 343 
Q 2819 -91 2113 -91 
Q 1303 -91 875 529 
Q 447 1150 447 2328 
Q 447 3434 972 4092 
Q 1497 4750 2381 4750 
Q 2619 4750 2861 4703 
Q 3103 4656 3366 4563 
z
" transform="scale(0.015625)"/>
       </defs>
       <use xlink:href="#DejaVuSans-36"/>
       <use xlink:href="#DejaVuSans-30" x="63.623047"/>
       <use xlink:href="#DejaVuSans-30" x="127.246094"/>
      </g>
     </g>
    </g>
    <g id="xtick_5">
     <g id="line2d_5">
      <g>
       <use xlink:href="#md7de3d7f0c" x="662.636383" y="512.64" style="stroke: #000000; stroke-width: 0.8"/>
      </g>
     </g>
     <g id="text_5">
      <!-- 800 -->
      <g transform="translate(647.366383 531.7975)scale(0.16 -0.16)">
       <defs>
        <path id="DejaVuSans-38" d="M 2034 2216 
Q 1584 2216 1326 1975 
Q 1069 1734 1069 1313 
Q 1069 891 1326 650 
Q 1584 409 2034 409 
Q 2484 409 2743 651 
Q 3003 894 3003 1313 
Q 3003 1734 2745 1975 
Q 2488 2216 2034 2216 
z
M 1403 2484 
Q 997 2584 770 2862 
Q 544 3141 544 3541 
Q 544 4100 942 4425 
Q 1341 4750 2034 4750 
Q 2731 4750 3128 4425 
Q 3525 4100 3525 3541 
Q 3525 3141 3298 2862 
Q 3072 2584 2669 2484 
Q 3125 2378 3379 2068 
Q 3634 1759 3634 1313 
Q 3634 634 3220 271 
Q 2806 -91 2034 -91 
Q 1263 -91 848 271 
Q 434 634 434 1313 
Q 434 1759 690 2068 
Q 947 2378 1403 2484 
z
M 1172 3481 
Q 1172 3119 1398 2916 
Q 1625 2713 2034 2713 
Q 2441 2713 2670 2916 
Q 2900 3119 2900 3481 
Q 2900 3844 2670 4047 
Q 2441 4250 2034 4250 
Q 1625 4250 1398 4047 
Q 1172 3844 1172 3481 
z
" transform="scale(0.015625)"/>
       </defs>
       <use xlink:href="#DejaVuSans-38"/>
       <use xlink:href="#DejaVuSans-30" x="63.623047"/>
       <use xlink:href="#DejaVuSans-30" x="127.246094"/>
      </g>
     </g>
    </g>
    <g id="text_6">
     <!-- Training steps -->
     <g transform="translate(387.22375 551.2825)scale(0.16 -0.16)">
      <defs>
       <path id="DejaVuSans-54" d="M -19 4666 
L 3928 4666 
L 3928 4134 
L 2272 4134 
L 2272 0 
L 1638 0 
L 1638 4134 
L -19 4134 
L -19 4666 
z
" transform="scale(0.015625)"/>
       <path id="DejaVuSans-72" d="M 2631 2963 
Q 2534 3019 2420 3045 
Q 2306 3072 2169 3072 
Q 1681 3072 1420 2755 
Q 1159 2438 1159 1844 
L 1159 0 
L 581 0 
L 581 3500 
L 1159 3500 
L 1159 2956 
Q 1341 3275 1631 3429 
Q 1922 3584 2338 3584 
Q 2397 3584 2469 3576 
Q 2541 3569 2628 3553 
L 2631 2963 
z
" transform="scale(0.015625)"/>
       <path id="DejaVuSans-61" d="M 2194 1759 
Q 1497 1759 1228 1600 
Q 959 1441 959 1056 
Q 959 750 1161 570 
Q 1363 391 1709 391 
Q 2188 391 2477 730 
Q 2766 1069 2766 1631 
L 2766 1759 
L 2194 1759 
z
M 3341 1997 
L 3341 0 
L 2766 0 
L 2766 531 
Q 2569 213 2275 61 
Q 1981 -91 1556 -91 
Q 1019 -91 701 211 
Q 384 513 384 1019 
Q 384 1609 779 1909 
Q 1175 2209 1959 2209 
L 2766 2209 
L 2766 2266 
Q 2766 2663 2505 2880 
Q 2244 3097 1772 3097 
Q 1472 3097 1187 3025 
Q 903 2953 641 2809 
L 641 3341 
Q 956 3463 1253 3523 
Q 1550 3584 1831 3584 
Q 2591 3584 2966 3190 
Q 3341 2797 3341 1997 
z
" transform="scale(0.015625)"/>
       <path id="DejaVuSans-69" d="M 603 3500 
L 1178 3500 
L 1178 0 
L 603 0 
L 603 3500 
z
M 603 4863 
L 1178 4863 
L 1178 4134 
L 603 4134 
L 603 4863 
z
" transform="scale(0.015625)"/>
       <path id="DejaVuSans-6e" d="M 3513 2113 
L 3513 0 
L 2938 0 
L 2938 2094 
Q 2938 2591 2744 2837 
Q 2550 3084 2163 3084 
Q 1697 3084 1428 2787 
Q 1159 2491 1159 1978 
L 1159 0 
L 581 0 
L 581 3500 
L 1159 3500 
L 1159 2956 
Q 1366 3272 1645 3428 
Q 1925 3584 2291 3584 
Q 2894 3584 3203 3211 
Q 3513 2838 3513 2113 
z
" transform="scale(0.015625)"/>
       <path id="DejaVuSans-67" d="M 2906 1791 
Q 2906 2416 2648 2759 
Q 2391 3103 1925 3103 
Q 1463 3103 1205 2759 
Q 947 2416 947 1791 
Q 947 1169 1205 825 
Q 1463 481 1925 481 
Q 2391 481 2648 825 
Q 2906 1169 2906 1791 
z
M 3481 434 
Q 3481 -459 3084 -895 
Q 2688 -1331 1869 -1331 
Q 1566 -1331 1297 -1286 
Q 1028 -1241 775 -1147 
L 775 -588 
Q 1028 -725 1275 -790 
Q 1522 -856 1778 -856 
Q 2344 -856 2625 -561 
Q 2906 -266 2906 331 
L 2906 616 
Q 2728 306 2450 153 
Q 2172 0 1784 0 
Q 1141 0 747 490 
Q 353 981 353 1791 
Q 353 2603 747 3093 
Q 1141 3584 1784 3584 
Q 2172 3584 2450 3431 
Q 2728 3278 2906 2969 
L 2906 3500 
L 3481 3500 
L 3481 434 
z
" transform="scale(0.015625)"/>
       <path id="DejaVuSans-20" transform="scale(0.015625)"/>
       <path id="DejaVuSans-73" d="M 2834 3397 
L 2834 2853 
Q 2591 2978 2328 3040 
Q 2066 3103 1784 3103 
Q 1356 3103 1142 2972 
Q 928 2841 928 2578 
Q 928 2378 1081 2264 
Q 1234 2150 1697 2047 
L 1894 2003 
Q 2506 1872 2764 1633 
Q 3022 1394 3022 966 
Q 3022 478 2636 193 
Q 2250 -91 1575 -91 
Q 1294 -91 989 -36 
Q 684 19 347 128 
L 347 722 
Q 666 556 975 473 
Q 1284 391 1588 391 
Q 1994 391 2212 530 
Q 2431 669 2431 922 
Q 2431 1156 2273 1281 
Q 2116 1406 1581 1522 
L 1381 1569 
Q 847 1681 609 1914 
Q 372 2147 372 2553 
Q 372 3047 722 3315 
Q 1072 3584 1716 3584 
Q 2034 3584 2315 3537 
Q 2597 3491 2834 3397 
z
" transform="scale(0.015625)"/>
       <path id="DejaVuSans-74" d="M 1172 4494 
L 1172 3500 
L 2356 3500 
L 2356 3053 
L 1172 3053 
L 1172 1153 
Q 1172 725 1289 603 
Q 1406 481 1766 481 
L 2356 481 
L 2356 0 
L 1766 0 
Q 1100 0 847 248 
Q 594 497 594 1153 
L 594 3053 
L 172 3053 
L 172 3500 
L 594 3500 
L 594 4494 
L 1172 4494 
z
" transform="scale(0.015625)"/>
       <path id="DejaVuSans-65" d="M 3597 1894 
L 3597 1613 
L 953 1613 
Q 991 1019 1311 708 
Q 1631 397 2203 397 
Q 2534 397 2845 478 
Q 3156 559 3463 722 
L 3463 178 
Q 3153 47 2828 -22 
Q 2503 -91 2169 -91 
Q 1331 -91 842 396 
Q 353 884 353 1716 
Q 353 2575 817 3079 
Q 1281 3584 2069 3584 
Q 2775 3584 3186 3129 
Q 3597 2675 3597 1894 
z
M 3022 2063 
Q 3016 2534 2758 2815 
Q 2500 3097 2075 3097 
Q 1594 3097 1305 2825 
Q 1016 2553 972 2059 
L 3022 2063 
z
" transform="scale(0.015625)"/>
       <path id="DejaVuSans-70" d="M 1159 525 
L 1159 -1331 
L 581 -1331 
L 581 3500 
L 1159 3500 
L 1159 2969 
Q 1341 3281 1617 3432 
Q 1894 3584 2278 3584 
Q 2916 3584 3314 3078 
Q 3713 2572 3713 1747 
Q 3713 922 3314 415 
Q 2916 -91 2278 -91 
Q 1894 -91 1617 61 
Q 1341 213 1159 525 
z
M 3116 1747 
Q 3116 2381 2855 2742 
Q 2594 3103 2138 3103 
Q 1681 3103 1420 2742 
Q 1159 2381 1159 1747 
Q 1159 1113 1420 752 
Q 1681 391 2138 391 
Q 2594 391 2855 752 
Q 3116 1113 3116 1747 
z
" transform="scale(0.015625)"/>
      </defs>
      <use xlink:href="#DejaVuSans-54"/>
      <use xlink:href="#DejaVuSans-72" x="46.333984"/>
      <use xlink:href="#DejaVuSans-61" x="87.447266"/>
      <use xlink:href="#DejaVuSans-69" x="148.726562"/>
      <use xlink:href="#DejaVuSans-6e" x="176.509766"/>
      <use xlink:href="#DejaVuSans-69" x="239.888672"/>
      <use xlink:href="#DejaVuSans-6e" x="267.671875"/>
      <use xlink:href="#DejaVuSans-67" x="331.050781"/>
      <use xlink:href="#DejaVuSans-20" x="394.527344"/>
      <use xlink:href="#DejaVuSans-73" x="426.314453"/>
      <use xlink:href="#DejaVuSans-74" x="478.414062"/>
      <use xlink:href="#DejaVuSans-65" x="517.623047"/>
      <use xlink:href="#DejaVuSans-70" x="579.146484"/>
      <use xlink:href="#DejaVuSans-73" x="642.623047"/>
     </g>
    </g>
   </g>
   <g id="matplotlib.axis_2">
    <g id="ytick_1">
     <g id="line2d_6">
      <defs>
       <path id="m11e5110942" d="M 0 0 
L -3.5 0 
" style="stroke: #000000; stroke-width: 0.8"/>
      </defs>
      <g>
       <use xlink:href="#m11e5110942" x="108" y="446.310328" style="stroke: #000000; stroke-width: 0.8"/>
      </g>
     </g>
     <g id="text_7">
      <!-- 1.0 -->
      <g transform="translate(75.555 452.389078)scale(0.16 -0.16)">
       <defs>
        <path id="DejaVuSans-31" d="M 794 531 
L 1825 531 
L 1825 4091 
L 703 3866 
L 703 4441 
L 1819 4666 
L 2450 4666 
L 2450 531 
L 3481 531 
L 3481 0 
L 794 0 
L 794 531 
z
" transform="scale(0.015625)"/>
        <path id="DejaVuSans-2e" d="M 684 794 
L 1344 794 
L 1344 0 
L 684 0 
L 684 794 
z
" transform="scale(0.015625)"/>
       </defs>
       <use xlink:href="#DejaVuSans-31"/>
       <use xlink:href="#DejaVuSans-2e" x="63.623047"/>
       <use xlink:href="#DejaVuSans-30" x="95.410156"/>
      </g>
     </g>
    </g>
    <g id="ytick_2">
     <g id="line2d_7">
      <g>
       <use xlink:href="#m11e5110942" x="108" y="368.618719" style="stroke: #000000; stroke-width: 0.8"/>
      </g>
     </g>
     <g id="text_8">
      <!-- 1.2 -->
      <g transform="translate(75.555 374.697469)scale(0.16 -0.16)">
       <use xlink:href="#DejaVuSans-31"/>
       <use xlink:href="#DejaVuSans-2e" x="63.623047"/>
       <use xlink:href="#DejaVuSans-32" x="95.410156"/>
      </g>
     </g>
    </g>
    <g id="ytick_3">
     <g id="line2d_8">
      <g>
       <use xlink:href="#m11e5110942" x="108" y="290.927109" style="stroke: #000000; stroke-width: 0.8"/>
      </g>
     </g>
     <g id="text_9">
      <!-- 1.4 -->
      <g transform="translate(75.555 297.005859)scale(0.16 -0.16)">
       <use xlink:href="#DejaVuSans-31"/>
       <use xlink:href="#DejaVuSans-2e" x="63.623047"/>
       <use xlink:href="#DejaVuSans-34" x="95.410156"/>
      </g>
     </g>
    </g>
    <g id="ytick_4">
     <g id="line2d_9">
      <g>
       <use xlink:href="#m11e5110942" x="108" y="213.235499" style="stroke: #000000; stroke-width: 0.8"/>
      </g>
     </g>
     <g id="text_10">
      <!-- 1.6 -->
      <g transform="translate(75.555 219.314249)scale(0.16 -0.16)">
       <use xlink:href="#DejaVuSans-31"/>
       <use xlink:href="#DejaVuSans-2e" x="63.623047"/>
       <use xlink:href="#DejaVuSans-36" x="95.410156"/>
      </g>
     </g>
    </g>
    <g id="ytick_5">
     <g id="line2d_10">
      <g>
       <use xlink:href="#m11e5110942" x="108" y="135.54389" style="stroke: #000000; stroke-width: 0.8"/>
      </g>
     </g>
     <g id="text_11">
      <!-- 1.8 -->
      <g transform="translate(75.555 141.62264)scale(0.16 -0.16)">
       <use xlink:href="#DejaVuSans-31"/>
       <use xlink:href="#DejaVuSans-2e" x="63.623047"/>
       <use xlink:href="#DejaVuSans-38" x="95.410156"/>
      </g>
     </g>
    </g>
    <g id="text_12">
     <!-- Loss -->
     <g transform="translate(68.2275 308.4275)rotate(-90)scale(0.16 -0.16)">
      <defs>
       <path id="DejaVuSans-4c" d="M 628 4666 
L 1259 4666 
L 1259 531 
L 3531 531 
L 3531 0 
L 628 0 
L 628 4666 
z
" transform="scale(0.015625)"/>
       <path id="DejaVuSans-6f" d="M 1959 3097 
Q 1497 3097 1228 2736 
Q 959 2375 959 1747 
Q 959 1119 1226 758 
Q 1494 397 1959 397 
Q 2419 397 2687 759 
Q 2956 1122 2956 1747 
Q 2956 2369 2687 2733 
Q 2419 3097 1959 3097 
z
M 1959 3584 
Q 2709 3584 3137 3096 
Q 3566 2609 3566 1747 
Q 3566 888 3137 398 
Q 2709 -91 1959 -91 
Q 1206 -91 779 398 
Q 353 888 353 1747 
Q 353 2609 779 3096 
Q 1206 3584 1959 3584 
z
" transform="scale(0.015625)"/>
      </defs>
      <use xlink:href="#DejaVuSans-4c"/>
      <use xlink:href="#DejaVuSans-6f" x="53.962891"/>
      <use xlink:href="#DejaVuSans-73" x="115.144531"/>
      <use xlink:href="#DejaVuSans-73" x="167.244141"/>
     </g>
    </g>
   </g>
   <g id="line2d_11">
    <path d="M 138.436364 265.043508 
L 139.091614 281.609524 
L 139.746864 294.052617 
L 140.402114 298.69868 
L 141.057364 302.218907 
L 141.712614 303.842922 
L 142.367864 303.456483 
L 143.023114 318.202649 
L 143.678364 310.361301 
L 144.333614 282.191845 
L 144.988864 298.060188 
L 145.644114 286.221643 
L 146.299364 286.457859 
L 146.954614 289.197846 
L 147.609864 281.303291 
L 148.265114 291.541299 
L 148.920364 289.716864 
L 149.575614 298.515718 
L 150.230864 296.767644 
L 150.886114 279.905165 
L 151.541364 286.226413 
L 152.196614 284.158584 
L 152.851864 277.301462 
L 154.162364 302.545053 
L 154.817614 301.551935 
L 155.472864 302.619979 
L 156.128114 291.544401 
L 156.783364 282.564993 
L 157.438614 276.064118 
L 158.093864 295.086856 
L 158.749114 286.611277 
L 160.059614 303.215358 
L 160.714864 301.08117 
L 161.370114 284.377296 
L 162.025365 289.736544 
L 162.680615 302.877265 
L 163.335865 294.545379 
L 163.991115 298.547624 
L 164.646365 312.352398 
L 165.301615 308.827355 
L 165.956865 305.978128 
L 166.612115 308.32436 
L 167.267365 325.810234 
L 167.922615 324.277446 
L 168.577865 315.256268 
L 169.233115 320.573655 
L 169.888365 316.551914 
L 170.543615 304.948613 
L 171.198865 320.242785 
L 171.854115 301.195319 
L 172.509365 297.285041 
L 173.164615 305.502547 
L 173.819865 310.26512 
L 174.475115 296.706055 
L 175.130365 289.178396 
L 175.785615 306.824079 
L 176.440865 286.72436 
L 177.096115 308.909829 
L 177.751365 309.994219 
L 178.406615 298.560266 
L 179.061865 292.789201 
L 179.717115 297.989105 
L 180.372365 297.947799 
L 181.027615 301.744437 
L 181.682865 297.086427 
L 182.338115 271.913456 
L 182.993365 280.352406 
L 183.648615 279.227219 
L 184.303865 296.461411 
L 184.959115 279.143402 
L 185.614365 283.31819 
L 186.269615 283.644474 
L 186.924865 288.116281 
L 187.580115 275.969928 
L 188.235365 291.413489 
L 188.890616 291.723196 
L 189.545866 293.917769 
L 190.201116 299.158007 
L 190.856366 301.329473 
L 191.511616 282.243154 
L 192.166866 279.448941 
L 192.822116 272.222793 
L 193.477366 289.860557 
L 194.132616 269.401258 
L 194.787866 270.581181 
L 195.443116 281.951878 
L 196.098366 263.494512 
L 197.408866 277.700821 
L 198.064116 267.181956 
L 198.719366 251.628784 
L 199.374616 256.652163 
L 200.029866 274.544157 
L 200.685116 260.698817 
L 201.340366 276.25912 
L 201.995616 246.047767 
L 202.650866 256.26364 
L 203.306116 258.319522 
L 203.961366 256.157132 
L 204.616616 242.948849 
L 205.271866 262.272819 
L 205.927116 266.802278 
L 206.582366 284.504133 
L 207.237616 277.952735 
L 207.892866 296.542079 
L 208.548116 318.782932 
L 209.203366 298.220089 
L 209.858616 306.261764 
L 210.513866 312.400929 
L 211.169116 303.135477 
L 211.824366 304.568102 
L 212.479616 298.905722 
L 213.134866 314.04995 
L 213.790116 311.334089 
L 214.445366 312.672848 
L 215.100616 308.873153 
L 215.755867 306.751006 
L 216.411117 313.136899 
L 217.066367 310.222378 
L 217.721617 315.056126 
L 218.376867 297.489166 
L 219.032117 310.673925 
L 219.687367 296.063163 
L 220.342617 302.955525 
L 220.997867 306.302746 
L 221.653117 308.244849 
L 222.308367 306.520763 
L 222.963617 306.289826 
L 223.618867 264.327033 
L 224.274117 263.10034 
L 224.929367 275.770295 
L 225.584617 262.860975 
L 226.239867 261.480215 
L 226.895117 271.149933 
L 227.550367 268.496588 
L 228.205617 284.198362 
L 228.860867 285.143227 
L 229.516117 275.126802 
L 230.171367 317.678815 
L 230.826617 297.230167 
L 231.481867 299.989232 
L 232.137117 290.415926 
L 232.792367 283.647531 
L 233.447617 309.382354 
L 234.102867 290.653856 
L 234.758117 280.281277 
L 235.413367 310.518516 
L 236.068617 298.919614 
L 236.723867 295.650283 
L 237.379117 273.822079 
L 238.689617 301.810611 
L 239.344867 286.52306 
L 240.000117 297.118889 
L 240.655367 300.304403 
L 241.310617 292.959614 
L 241.965868 296.835022 
L 242.621118 305.430399 
L 243.276368 300.306857 
L 243.931618 264.335832 
L 244.586868 291.641601 
L 245.242118 288.708511 
L 245.897368 294.037104 
L 246.552618 310.175931 
L 247.207868 301.605652 
L 247.863118 303.821574 
L 248.518368 303.532057 
L 249.173618 320.938745 
L 249.828868 300.193357 
L 250.484118 306.033698 
L 251.139368 308.345198 
L 251.794618 313.511853 
L 252.449868 270.373814 
L 253.105118 247.575277 
L 253.760368 273.345201 
L 254.415618 272.598441 
L 255.070868 275.285545 
L 255.726118 271.817182 
L 256.381368 308.605494 
L 257.036618 288.444418 
L 257.691868 300.994297 
L 258.347118 316.695978 
L 259.002368 317.939944 
L 259.657618 313.182327 
L 260.312868 334.890779 
L 260.968118 320.461173 
L 261.623368 327.825874 
L 262.278618 321.06461 
L 262.933868 316.367378 
L 263.589118 334.434739 
L 264.244368 321.041039 
L 264.899618 342.954542 
L 265.554868 329.000611 
L 266.210118 311.262961 
L 266.865368 331.238528 
L 267.520618 325.907573 
L 268.175868 333.260975 
L 268.831119 311.882003 
L 269.486369 321.49041 
L 270.141619 345.966078 
L 270.796869 288.204358 
L 271.452119 305.21266 
L 272.107369 318.364819 
L 272.762619 305.994151 
L 274.073119 317.928692 
L 274.728369 281.9052 
L 275.383619 292.372385 
L 276.038869 290.727207 
L 276.694119 278.550245 
L 277.349369 305.652862 
L 278.004619 285.56009 
L 278.659869 285.791443 
L 279.315119 303.737895 
L 279.970369 281.567755 
L 280.625619 312.504797 
L 281.280869 313.567793 
L 281.936119 312.332347 
L 282.591369 322.32284 
L 283.246619 299.750376 
L 283.901869 319.985036 
L 284.557119 332.522227 
L 285.212369 322.026747 
L 285.867619 345.104058 
L 286.522869 309.574717 
L 287.178119 313.965762 
L 287.833369 293.972088 
L 288.488619 296.075991 
L 289.143869 319.101993 
L 289.799119 301.567912 
L 290.454369 319.932894 
L 291.109619 298.88882 
L 291.764869 293.280713 
L 292.420119 318.038719 
L 293.075369 299.780847 
L 293.730619 322.555073 
L 294.385869 290.770968 
L 295.041119 341.96337 
L 295.69637 301.841915 
L 297.00687 324.891163 
L 297.66212 315.053208 
L 298.31737 318.749914 
L 299.62787 297.541077 
L 300.28312 291.589644 
L 300.93837 320.768379 
L 301.59362 302.526252 
L 302.24887 309.511368 
L 302.90412 328.717068 
L 303.55937 296.611911 
L 304.21462 321.593214 
L 304.86987 308.725848 
L 305.52512 292.927477 
L 306.18037 283.464476 
L 306.83562 306.262782 
L 307.49087 272.631876 
L 308.14612 304.102616 
L 308.80137 316.5082 
L 309.45662 317.687891 
L 310.11187 270.479165 
L 310.76712 319.750996 
L 311.42237 286.463694 
L 312.73287 273.564237 
L 314.04337 304.002869 
L 314.69862 302.544682 
L 315.35387 290.321829 
L 316.00912 289.374742 
L 316.66437 286.488191 
L 317.31962 300.324223 
L 317.97487 299.974691 
L 318.63012 311.393919 
L 319.28537 312.276083 
L 319.94062 321.390571 
L 320.59587 322.849359 
L 321.25112 331.836686 
L 321.90637 311.924282 
L 322.561621 344.226247 
L 323.216871 344.73869 
L 323.872121 317.139468 
L 324.527371 337.379175 
L 325.182621 340.112817 
L 325.837871 353.698185 
L 326.493121 288.850445 
L 327.148371 324.319817 
L 327.803621 315.018709 
L 328.458871 277.882857 
L 329.114121 313.712829 
L 329.769371 306.8558 
L 330.424621 331.868546 
L 331.079871 298.900397 
L 332.390371 328.894195 
L 333.045621 289.34779 
L 333.700871 323.272474 
L 334.356121 315.872254 
L 335.011371 316.948957 
L 335.666621 321.604652 
L 336.321871 342.570188 
L 336.977121 330.643149 
L 337.632371 342.499429 
L 338.287621 349.354004 
L 338.942871 357.631108 
L 339.598121 343.901259 
L 340.253371 334.657665 
L 340.908621 337.465493 
L 341.563871 353.895688 
L 342.219121 324.473698 
L 342.874371 332.66893 
L 343.529621 355.331693 
L 344.184871 339.553836 
L 344.840121 352.829868 
L 345.495371 341.406333 
L 346.150621 348.468598 
L 346.805871 334.801034 
L 347.461121 400.761783 
L 348.116371 353.507444 
L 348.771621 394.100498 
L 349.426872 363.509652 
L 350.082122 362.992579 
L 350.737372 300.575582 
L 351.392622 282.662888 
L 352.047872 279.74707 
L 352.703122 340.727044 
L 353.358372 292.036977 
L 354.013622 316.678381 
L 354.668872 298.209114 
L 355.324122 312.095482 
L 355.979372 315.535134 
L 357.289872 394.693145 
L 357.945122 377.268767 
L 358.600372 365.379932 
L 359.255622 402.700969 
L 359.910872 385.348137 
L 360.566122 408.003491 
L 361.221372 415.070988 
L 361.876622 428.645937 
L 362.531872 414.222629 
L 363.187122 415.588015 
L 363.842372 412.164525 
L 364.497622 417.727853 
L 365.152872 388.892629 
L 365.808122 408.929137 
L 366.463372 364.984185 
L 367.118622 386.845175 
L 367.773872 363.595322 
L 368.429122 348.688931 
L 369.084372 326.164721 
L 369.739622 311.064115 
L 370.394872 299.043025 
L 371.050122 308.749836 
L 371.705372 334.307022 
L 372.360622 373.978088 
L 373.015872 351.676572 
L 373.671122 317.196658 
L 374.326372 366.042319 
L 374.981622 355.05556 
L 375.636872 359.794006 
L 376.292123 360.131498 
L 376.947373 372.29466 
L 377.602623 389.718806 
L 378.257873 366.820105 
L 378.913123 395.038416 
L 379.568373 339.129564 
L 380.223623 362.387753 
L 380.878873 337.576631 
L 381.534123 296.655903 
L 382.844623 345.148792 
L 383.499873 332.138196 
L 384.155123 330.77721 
L 384.810373 357.363217 
L 385.465623 361.261084 
L 386.120873 362.059106 
L 386.776123 325.701874 
L 387.431373 349.844635 
L 388.086623 368.856722 
L 388.741873 371.130065 
L 389.397123 354.911218 
L 390.052373 331.765974 
L 390.707623 357.130011 
L 391.362873 375.752974 
L 392.018123 373.717097 
L 392.673373 340.20974 
L 393.328623 350.434643 
L 393.983873 300.314174 
L 394.639123 343.437996 
L 395.294373 284.232537 
L 395.949623 260.552947 
L 396.604873 253.983629 
L 397.260123 263.437044 
L 397.915373 305.995725 
L 398.570623 303.639306 
L 399.225873 313.733204 
L 399.881123 351.03757 
L 400.536373 350.916475 
L 401.191623 310.814979 
L 401.846873 360.915257 
L 402.502123 366.266912 
L 403.157374 357.652548 
L 403.812624 401.793567 
L 404.467874 417.592402 
L 405.123124 426.24886 
L 405.778374 447.824084 
L 406.433624 396.969035 
L 407.088874 378.521578 
L 407.744124 379.774251 
L 408.399374 390.664088 
L 409.054624 365.922196 
L 409.709874 427.471432 
L 410.365124 363.22949 
L 411.020374 349.008455 
L 412.986124 421.072804 
L 413.641374 397.17089 
L 414.296624 449.214013 
L 414.951874 404.292105 
L 415.607124 399.56732 
L 416.262374 313.306339 
L 416.917624 378.36955 
L 417.572874 361.345596 
L 418.228124 339.948425 
L 418.883374 327.064111 
L 419.538624 327.328158 
L 420.193874 325.09288 
L 420.849124 377.559997 
L 421.504374 342.687532 
L 422.159624 413.020942 
L 422.814874 418.465073 
L 423.470124 441.095976 
L 424.125374 443.194878 
L 424.780624 413.926167 
L 425.435874 408.542745 
L 426.091124 434.165781 
L 426.746374 390.466029 
L 427.401624 358.010137 
L 428.056874 402.48786 
L 428.712124 325.122702 
L 429.367374 390.824405 
L 430.022625 308.586091 
L 430.677875 375.12027 
L 431.333125 269.60316 
L 431.988375 290.558415 
L 432.643625 260.551465 
L 433.298875 325.439911 
L 433.954125 311.212763 
L 434.609375 324.817487 
L 435.264625 309.224908 
L 435.919875 314.964529 
L 436.575125 344.580456 
L 437.230375 340.821373 
L 437.885625 308.484677 
L 438.540875 369.098449 
L 439.196125 369.806495 
L 439.851375 412.492662 
L 440.506625 374.302335 
L 441.161875 401.113908 
L 441.817125 405.931957 
L 442.472375 380.328092 
L 443.127625 407.289332 
L 443.782875 409.388835 
L 444.438125 403.953827 
L 445.093375 367.246044 
L 445.748625 387.383272 
L 446.403875 415.196575 
L 447.059125 335.207709 
L 447.714375 346.341032 
L 448.369625 313.377931 
L 449.024875 373.395536 
L 449.680125 331.467659 
L 450.335375 416.474856 
L 450.990625 357.567944 
L 451.645875 370.950298 
L 452.301125 354.46069 
L 452.956375 416.561822 
L 453.611625 395.991431 
L 454.266875 414.478295 
L 454.922125 380.188382 
L 456.232626 412.097471 
L 456.887876 350.916383 
L 457.543126 402.312632 
L 458.198376 330.417352 
L 458.853626 374.671316 
L 459.508876 392.310099 
L 460.164126 369.362079 
L 460.819376 398.543824 
L 461.474626 380.49832 
L 462.129876 421.624794 
L 462.785126 401.233799 
L 463.440376 425.236571 
L 464.095626 364.06831 
L 464.750876 373.268097 
L 465.406126 314.449308 
L 466.061376 283.301287 
L 466.716626 200.891357 
L 467.371876 179.379203 
L 468.027126 243.745991 
L 468.682376 261.100907 
L 469.337626 327.043874 
L 469.992876 252.782404 
L 470.648126 274.714384 
L 471.303376 242.906292 
L 471.958626 336.089503 
L 472.613876 374.921563 
L 473.269126 371.932394 
L 473.924376 353.023156 
L 474.579626 339.232228 
L 475.234876 379.815465 
L 475.890126 409.144237 
L 476.545376 426.783993 
L 477.200626 366.981534 
L 477.855876 401.217545 
L 479.166376 310.727179 
L 479.821626 348.033768 
L 480.476876 356.391401 
L 481.132126 307.829977 
L 481.787376 362.596647 
L 482.442626 309.840663 
L 483.097877 331.126185 
L 483.753127 414.639075 
L 484.408377 319.047025 
L 485.063627 322.009891 
L 485.718877 364.326985 
L 486.374127 344.995791 
L 487.029377 407.068443 
L 487.684627 347.296594 
L 488.339877 377.572361 
L 488.995127 383.489851 
L 489.650377 313.742512 
L 490.305627 354.225122 
L 490.960877 366.269042 
L 491.616127 365.011044 
L 492.271377 309.367258 
L 492.926627 306.911555 
L 493.581877 350.789407 
L 494.237127 364.648778 
L 494.892377 347.594214 
L 495.547627 362.461058 
L 496.202877 337.891432 
L 496.858127 387.690663 
L 497.513377 386.158616 
L 498.168627 347.198097 
L 498.823877 404.064919 
L 499.479127 374.075797 
L 500.134377 404.94875 
L 501.444877 410.234416 
L 502.755377 355.344845 
L 503.410627 410.057335 
L 504.065877 355.652097 
L 504.721127 353.457894 
L 505.376377 339.139937 
L 506.031627 377.076636 
L 506.686877 404.819273 
L 507.342127 363.304323 
L 507.997377 361.820066 
L 508.652627 387.025961 
L 509.307877 284.469078 
L 509.963128 330.324968 
L 510.618378 270.273558 
L 511.273628 298.452276 
L 511.928878 341.890019 
L 512.584128 290.328636 
L 513.239378 358.94787 
L 513.894628 334.542498 
L 514.549878 372.845677 
L 515.205128 392.807491 
L 515.860378 429.390844 
L 516.515628 421.112027 
L 517.170878 393.061165 
L 517.826128 414.217258 
L 519.136628 362.531446 
L 519.791878 360.308995 
L 520.447128 380.511518 
L 521.102378 383.436087 
L 521.757628 365.893949 
L 522.412878 376.640139 
L 523.068128 358.433853 
L 523.723378 402.920607 
L 524.378628 425.37392 
L 525.033878 422.990272 
L 525.689128 434.637519 
L 526.344378 396.420333 
L 526.999628 449.487044 
L 527.654878 444.455793 
L 528.310128 421.957978 
L 528.965378 423.825526 
L 529.620628 441.794854 
L 530.931128 350.466873 
L 531.586378 281.509175 
L 532.241628 430.865609 
L 534.207378 301.219631 
L 534.862628 345.810252 
L 535.517878 303.627359 
L 536.173128 370.86963 
L 536.828379 354.601466 
L 537.483629 349.118806 
L 538.138879 433.380308 
L 538.794129 342.195928 
L 539.449379 343.769282 
L 540.104629 372.076041 
L 540.759879 348.797569 
L 541.415129 333.904793 
L 542.070379 347.863911 
L 542.725629 402.38765 
L 543.380879 356.800994 
L 544.036129 413.129626 
L 544.691379 348.915747 
L 545.346629 366.151976 
L 546.001879 370.665783 
L 546.657129 422.747526 
L 547.312379 391.353704 
L 547.967629 410.213762 
L 548.622879 401.900585 
L 549.278129 361.993349 
L 550.588629 400.529827 
L 551.243879 406.047912 
L 551.899129 407.31105 
L 552.554379 351.638183 
L 553.209629 377.607787 
L 553.864879 423.098447 
L 554.520129 389.083232 
L 555.175379 368.105656 
L 555.830629 428.071859 
L 556.485879 401.985513 
L 557.141129 353.608487 
L 557.796379 380.920462 
L 558.451629 420.251813 
L 559.106879 378.552003 
L 559.762129 325.636811 
L 560.417379 348.811554 
L 561.072629 322.7504 
L 561.727879 282.224446 
L 562.383129 268.972633 
L 563.038379 301.93203 
L 563.69363 310.947419 
L 564.34888 322.045734 
L 565.00413 338.242445 
L 565.65938 296.924026 
L 566.31463 191.192371 
L 566.96988 267.018397 
L 567.62513 180.564591 
L 568.28038 173.572343 
L 568.93563 238.395402 
L 569.59088 322.880941 
L 570.24613 293.064594 
L 570.90138 354.242812 
L 571.55663 303.67876 
L 572.21188 312.1354 
L 572.86713 281.588315 
L 573.52238 293.891698 
L 574.17763 294.594465 
L 574.83288 302.493373 
L 575.48813 283.414093 
L 576.14338 333.484503 
L 576.79863 283.44336 
L 577.45388 272.60335 
L 578.10913 333.876777 
L 578.76438 178.568956 
L 579.41963 109.257698 
L 580.07488 264.57867 
L 580.73013 89.28 
L 581.38538 116.188912 
L 582.04063 161.033856 
L 582.69588 160.258941 
L 583.35113 231.409962 
L 584.00638 189.441103 
L 584.66163 194.285687 
L 585.31688 240.754785 
L 585.97213 214.000912 
L 586.62738 276.258703 
L 587.28263 280.783439 
L 587.93788 364.753295 
L 588.59313 284.914975 
L 589.24838 313.342829 
L 589.90363 386.788356 
L 590.558881 336.807551 
L 591.214131 328.970233 
L 591.869381 391.028993 
L 592.524631 353.71481 
L 593.179881 415.120399 
L 593.835131 362.927332 
L 594.490381 395.297277 
L 595.145631 361.593898 
L 595.800881 389.6844 
L 596.456131 347.579442 
L 597.111381 327.597114 
L 597.766631 367.412428 
L 598.421881 386.613914 
L 599.077131 326.272942 
L 599.732381 345.072615 
L 600.387631 276.86603 
L 601.042881 334.723283 
L 601.698131 345.063168 
L 602.353381 335.91307 
L 603.008631 333.696917 
L 603.663881 305.730659 
L 604.319131 319.29681 
L 604.974381 311.520061 
L 605.629631 294.738019 
L 606.284881 393.311227 
L 606.940131 288.764868 
L 607.595381 325.972404 
L 608.250631 299.050341 
L 608.905881 314.849685 
L 609.561131 334.022924 
L 610.216381 394.02798 
L 610.871631 388.858268 
L 611.526881 344.601063 
L 612.182131 280.123044 
L 613.492631 416.586087 
L 614.147881 394.336575 
L 614.803131 390.308907 
L 615.458381 398.551789 
L 616.113631 394.590295 
L 616.768881 397.657215 
L 617.424132 380.886935 
L 618.079382 398.253428 
L 618.734632 370.884448 
L 619.389882 405.129211 
L 620.045132 409.686641 
L 620.700382 440.77423 
L 621.355632 426.211165 
L 622.010882 348.730145 
L 622.666132 298.997689 
L 623.321382 281.523531 
L 623.976632 260.975598 
L 624.631882 287.229764 
L 625.287132 251.960348 
L 625.942382 197.71779 
L 626.597632 333.789394 
L 627.252882 297.743026 
L 627.908132 343.418778 
L 628.563382 309.429727 
L 629.218632 299.842714 
L 629.873882 310.154352 
L 630.529132 299.285076 
L 631.184382 334.177824 
L 631.839632 282.507386 
L 632.494882 278.392289 
L 633.150132 366.821957 
L 633.805382 264.768347 
L 634.460632 246.605313 
L 635.115882 286.264755 
L 636.426382 329.195844 
L 637.736882 297.817859 
L 638.392132 272.721203 
L 639.047382 284.75776 
L 639.702632 265.273334 
L 640.357882 281.623092 
L 641.013132 305.292773 
L 641.668382 288.531754 
L 642.323632 289.511535 
L 642.978882 328.064915 
L 643.634132 341.615135 
L 644.289383 318.354631 
L 644.944633 371.256022 
L 645.599883 326.862209 
L 646.255133 366.071308 
L 646.910383 329.088364 
L 647.565633 330.544467 
L 648.220883 267.891901 
L 648.876133 252.363921 
L 649.531383 159.390855 
L 650.186633 173.166224 
L 650.841883 243.789058 
L 651.497133 253.191673 
L 652.152383 282.317895 
L 652.807633 297.748305 
L 653.462883 215.104334 
L 654.118133 197.461939 
L 654.773383 140.94275 
L 655.428633 223.414641 
L 656.083883 192.058698 
L 656.739133 187.941656 
L 657.394383 163.357859 
L 658.049633 206.151275 
L 658.704883 179.219164 
L 659.360133 209.038011 
L 660.015383 335.429663 
L 660.670633 234.673041 
L 661.325883 254.144039 
L 661.981133 208.917889 
L 662.636383 261.065482 
L 663.291633 276.548822 
L 663.946883 319.930902 
L 664.602133 347.121967 
L 665.257383 272.272064 
L 665.912633 307.252427 
L 666.567883 264.802707 
L 667.223133 267.757006 
L 667.878383 305.097909 
L 668.533633 311.268934 
L 669.188883 395.030451 
L 669.844133 395.321542 
L 670.499384 361.019589 
L 671.154634 335.17798 
L 671.809884 348.219185 
L 672.465134 321.45869 
L 673.120384 263.793197 
L 673.775634 309.274642 
L 674.430884 343.9923 
L 675.086134 369.815942 
L 675.741384 356.51069 
L 676.396634 321.1425 
L 677.051884 297.379972 
L 677.707134 259.516023 
L 678.362384 297.772338 
L 679.017634 255.656452 
L 679.672884 279.669088 
L 680.328134 308.232763 
L 680.983384 299.878001 
L 681.638634 316.698293 
L 682.293884 298.327893 
L 682.949134 292.575676 
L 683.604384 308.685653 
L 684.259634 263.987875 
L 684.914884 281.19456 
L 685.570134 210.293416 
L 686.225384 196.490031 
L 686.880634 338.390769 
L 687.535884 310.608724 
L 688.191134 314.47876 
L 690.156884 351.884448 
L 690.812134 350.48535 
L 691.467384 387.432266 
L 692.122634 394.597102 
L 692.777884 411.281204 
L 693.433134 383.719584 
L 694.088384 410.294477 
L 694.743634 403.090603 
L 695.398884 392.855975 
L 696.054134 394.425347 
L 696.709384 318.828267 
L 698.019885 382.771107 
L 698.675135 382.992875 
L 699.330385 351.508243 
L 699.985635 332.212937 
L 700.640885 405.191032 
L 701.296135 394.122447 
L 701.951385 392.29014 
L 702.606635 391.932551 
L 703.261885 383.813681 
L 703.917135 404.994965 
L 704.572385 351.415025 
L 705.227635 404.667661 
L 705.882885 378.860505 
L 706.538135 423.161518 
L 707.193385 421.581727 
L 707.848635 436.693586 
L 708.503885 461.779822 
L 709.159135 461.385094 
L 709.814385 485.381569 
L 710.469635 446.422046 
L 711.124885 486.219346 
L 711.780135 492.48 
L 712.435385 484.517511 
L 713.090635 480.271548 
L 713.745885 477.248065 
L 714.401135 451.733297 
L 715.056385 388.035055 
L 715.711635 393.338919 
L 716.366885 332.97558 
L 717.022135 355.493215 
L 717.677385 344.075191 
L 718.332635 383.282901 
L 718.987885 284.235686 
L 719.643135 236.278302 
L 720.298385 210.085726 
L 720.953635 248.659389 
L 721.608885 321.472721 
L 722.264135 213.919873 
L 722.919385 221.598495 
L 723.574635 300.294493 
L 724.229886 348.649893 
L 724.885136 279.25718 
L 725.540386 311.572528 
L 726.195636 293.685258 
L 726.850886 304.779682 
L 727.506136 346.142372 
L 728.161386 262.758218 
L 728.816636 311.914234 
L 729.471886 329.988912 
L 730.127136 238.528491 
L 730.782386 240.850133 
L 731.437636 300.482642 
L 732.092886 254.969985 
L 732.748136 298.112191 
L 733.403386 318.12726 
L 734.058636 300.2179 
L 735.369136 330.989716 
L 736.024386 364.033023 
L 736.679636 386.862031 
L 737.334886 251.079944 
L 737.990136 393.678819 
L 738.645386 320.379023 
L 739.300636 367.817714 
L 739.955886 354.03225 
L 740.611136 367.738944 
L 741.266386 331.908278 
L 741.921636 381.25411 
L 742.576886 416.140189 
L 743.232136 413.968909 
L 743.887386 401.03398 
L 744.542636 441.60916 
L 745.197886 407.574171 
L 745.853136 391.63294 
L 746.508386 368.569336 
L 747.163636 362.802162 
L 747.163636 362.802162 
" clip-path="url(#p0cd05f98b1)" style="fill: none; stroke: #1f77b4; stroke-width: 1.5; stroke-linecap: square"/>
   </g>
   <g id="patch_3">
    <path d="M 108 512.64 
L 108 69.12 
" style="fill: none; stroke: #000000; stroke-width: 0.8; stroke-linejoin: miter; stroke-linecap: square"/>
   </g>
   <g id="patch_4">
    <path d="M 777.6 512.64 
L 777.6 69.12 
" style="fill: none; stroke: #000000; stroke-width: 0.8; stroke-linejoin: miter; stroke-linecap: square"/>
   </g>
   <g id="patch_5">
    <path d="M 108 512.64 
L 777.6 512.64 
" style="fill: none; stroke: #000000; stroke-width: 0.8; stroke-linejoin: miter; stroke-linecap: square"/>
   </g>
   <g id="patch_6">
    <path d="M 108 69.12 
L 777.6 69.12 
" style="fill: none; stroke: #000000; stroke-width: 0.8; stroke-linejoin: miter; stroke-linecap: square"/>
   </g>
   <g id="text_13">
    <!-- Discriminator loss across training steps -->
    <g transform="translate(253.8075 63.12)scale(0.192 -0.192)">
     <defs>
      <path id="DejaVuSans-44" d="M 1259 4147 
L 1259 519 
L 2022 519 
Q 2988 519 3436 956 
Q 3884 1394 3884 2338 
Q 3884 3275 3436 3711 
Q 2988 4147 2022 4147 
L 1259 4147 
z
M 628 4666 
L 1925 4666 
Q 3281 4666 3915 4102 
Q 4550 3538 4550 2338 
Q 4550 1131 3912 565 
Q 3275 0 1925 0 
L 628 0 
L 628 4666 
z
" transform="scale(0.015625)"/>
      <path id="DejaVuSans-63" d="M 3122 3366 
L 3122 2828 
Q 2878 2963 2633 3030 
Q 2388 3097 2138 3097 
Q 1578 3097 1268 2742 
Q 959 2388 959 1747 
Q 959 1106 1268 751 
Q 1578 397 2138 397 
Q 2388 397 2633 464 
Q 2878 531 3122 666 
L 3122 134 
Q 2881 22 2623 -34 
Q 2366 -91 2075 -91 
Q 1284 -91 818 406 
Q 353 903 353 1747 
Q 353 2603 823 3093 
Q 1294 3584 2113 3584 
Q 2378 3584 2631 3529 
Q 2884 3475 3122 3366 
z
" transform="scale(0.015625)"/>
      <path id="DejaVuSans-6d" d="M 3328 2828 
Q 3544 3216 3844 3400 
Q 4144 3584 4550 3584 
Q 5097 3584 5394 3201 
Q 5691 2819 5691 2113 
L 5691 0 
L 5113 0 
L 5113 2094 
Q 5113 2597 4934 2840 
Q 4756 3084 4391 3084 
Q 3944 3084 3684 2787 
Q 3425 2491 3425 1978 
L 3425 0 
L 2847 0 
L 2847 2094 
Q 2847 2600 2669 2842 
Q 2491 3084 2119 3084 
Q 1678 3084 1418 2786 
Q 1159 2488 1159 1978 
L 1159 0 
L 581 0 
L 581 3500 
L 1159 3500 
L 1159 2956 
Q 1356 3278 1631 3431 
Q 1906 3584 2284 3584 
Q 2666 3584 2933 3390 
Q 3200 3197 3328 2828 
z
" transform="scale(0.015625)"/>
      <path id="DejaVuSans-6c" d="M 603 4863 
L 1178 4863 
L 1178 0 
L 603 0 
L 603 4863 
z
" transform="scale(0.015625)"/>
     </defs>
     <use xlink:href="#DejaVuSans-44"/>
     <use xlink:href="#DejaVuSans-69" x="77.001953"/>
     <use xlink:href="#DejaVuSans-73" x="104.785156"/>
     <use xlink:href="#DejaVuSans-63" x="156.884766"/>
     <use xlink:href="#DejaVuSans-72" x="211.865234"/>
     <use xlink:href="#DejaVuSans-69" x="252.978516"/>
     <use xlink:href="#DejaVuSans-6d" x="280.761719"/>
     <use xlink:href="#DejaVuSans-69" x="378.173828"/>
     <use xlink:href="#DejaVuSans-6e" x="405.957031"/>
     <use xlink:href="#DejaVuSans-61" x="469.335938"/>
     <use xlink:href="#DejaVuSans-74" x="530.615234"/>
     <use xlink:href="#DejaVuSans-6f" x="569.824219"/>
     <use xlink:href="#DejaVuSans-72" x="631.005859"/>
     <use xlink:href="#DejaVuSans-20" x="672.119141"/>
     <use xlink:href="#DejaVuSans-6c" x="703.90625"/>
     <use xlink:href="#DejaVuSans-6f" x="731.689453"/>
     <use xlink:href="#DejaVuSans-73" x="792.871094"/>
     <use xlink:href="#DejaVuSans-73" x="844.970703"/>
     <use xlink:href="#DejaVuSans-20" x="897.070312"/>
     <use xlink:href="#DejaVuSans-61" x="928.857422"/>
     <use xlink:href="#DejaVuSans-63" x="990.136719"/>
     <use xlink:href="#DejaVuSans-72" x="1045.117188"/>
     <use xlink:href="#DejaVuSans-6f" x="1083.980469"/>
     <use xlink:href="#DejaVuSans-73" x="1145.162109"/>
     <use xlink:href="#DejaVuSans-73" x="1197.261719"/>
     <use xlink:href="#DejaVuSans-20" x="1249.361328"/>
     <use xlink:href="#DejaVuSans-74" x="1281.148438"/>
     <use xlink:href="#DejaVuSans-72" x="1320.357422"/>
     <use xlink:href="#DejaVuSans-61" x="1361.470703"/>
     <use xlink:href="#DejaVuSans-69" x="1422.75"/>
     <use xlink:href="#DejaVuSans-6e" x="1450.533203"/>
     <use xlink:href="#DejaVuSans-69" x="1513.912109"/>
     <use xlink:href="#DejaVuSans-6e" x="1541.695312"/>
     <use xlink:href="#DejaVuSans-67" x="1605.074219"/>
     <use xlink:href="#DejaVuSans-20" x="1668.550781"/>
     <use xlink:href="#DejaVuSans-73" x="1700.337891"/>
     <use xlink:href="#DejaVuSans-74" x="1752.4375"/>
     <use xlink:href="#DejaVuSans-65" x="1791.646484"/>
     <use xlink:href="#DejaVuSans-70" x="1853.169922"/>
     <use xlink:href="#DejaVuSans-73" x="1916.646484"/>
    </g>
   </g>
   <g id="legend_1">
    <g id="patch_7">
     <path d="M 119.2 105.405 
L 218.71 105.405 
Q 221.91 105.405 221.91 102.205 
L 221.91 80.32 
Q 221.91 77.12 218.71 77.12 
L 119.2 77.12 
Q 116 77.12 116 80.32 
L 116 102.205 
Q 116 105.405 119.2 105.405 
z
" style="fill: #ffffff; opacity: 0.8; stroke: #cccccc; stroke-linejoin: miter"/>
    </g>
    <g id="line2d_12">
     <path d="M 122.4 90.0775 
L 138.4 90.0775 
L 154.4 90.0775 
" style="fill: none; stroke: #1f77b4; stroke-width: 1.5; stroke-linecap: square"/>
    </g>
    <g id="text_14">
     <!-- D loss -->
     <g transform="translate(167.2 95.6775)scale(0.16 -0.16)">
      <use xlink:href="#DejaVuSans-44"/>
      <use xlink:href="#DejaVuSans-20" x="77.001953"/>
      <use xlink:href="#DejaVuSans-6c" x="108.789062"/>
      <use xlink:href="#DejaVuSans-6f" x="136.572266"/>
      <use xlink:href="#DejaVuSans-73" x="197.753906"/>
      <use xlink:href="#DejaVuSans-73" x="249.853516"/>
     </g>
    </g>
   </g>
  </g>
 </g>
 <defs>
  <clipPath id="p0cd05f98b1">
   <rect x="108" y="69.12" width="669.6" height="443.52"/>
  </clipPath>
 </defs>
</svg>
