<?xml version="1.0" encoding="utf-8" standalone="no"?>
<!DOCTYPE svg PUBLIC "-//W3C//DTD SVG 1.1//EN"
  "http://www.w3.org/Graphics/SVG/1.1/DTD/svg11.dtd">
<svg xmlns:xlink="http://www.w3.org/1999/xlink" width="864pt" height="576pt" viewBox="0 0 864 576" xmlns="http://www.w3.org/2000/svg" version="1.1">
 <metadata>
  <rdf:RDF xmlns:dc="http://purl.org/dc/elements/1.1/" xmlns:cc="http://creativecommons.org/ns#" xmlns:rdf="http://www.w3.org/1999/02/22-rdf-syntax-ns#">
   <cc:Work>
    <dc:type rdf:resource="http://purl.org/dc/dcmitype/StillImage"/>
    <dc:date>2022-01-29T23:08:36.079619</dc:date>
    <dc:format>image/svg+xml</dc:format>
    <dc:creator>
     <cc:Agent>
      <dc:title>Matplotlib v3.5.0, https://matplotlib.org/</dc:title>
     </cc:Agent>
    </dc:creator>
   </cc:Work>
  </rdf:RDF>
 </metadata>
 <defs>
  <style type="text/css">*{stroke-linejoin: round; stroke-linecap: butt}</style>
 </defs>
 <g id="figure_1">
  <g id="patch_1">
   <path d="M 0 576 
L 864 576 
L 864 0 
L 0 0 
z
" style="fill: #ffffff"/>
  </g>
  <g id="axes_1">
   <g id="patch_2">
    <path d="M 108 512.64 
L 777.6 512.64 
L 777.6 69.12 
L 108 69.12 
z
" style="fill: #ffffff"/>
   </g>
   <g id="matplotlib.axis_1">
    <g id="xtick_1">
     <g id="line2d_1">
      <defs>
       <path id="m63e2733ecd" d="M 0 0 
L 0 3.5 
" style="stroke: #000000; stroke-width: 0.8"/>
      </defs>
      <g>
       <use xlink:href="#m63e2733ecd" x="138.436364" y="512.64" style="stroke: #000000; stroke-width: 0.8"/>
      </g>
     </g>
     <g id="text_1">
      <!-- 0 -->
      <g transform="translate(133.346364 531.7975)scale(0.16 -0.16)">
       <defs>
        <path id="DejaVuSans-30" d="M 2034 4250 
Q 1547 4250 1301 3770 
Q 1056 3291 1056 2328 
Q 1056 1369 1301 889 
Q 1547 409 2034 409 
Q 2525 409 2770 889 
Q 3016 1369 3016 2328 
Q 3016 3291 2770 3770 
Q 2525 4250 2034 4250 
z
M 2034 4750 
Q 2819 4750 3233 4129 
Q 3647 3509 3647 2328 
Q 3647 1150 3233 529 
Q 2819 -91 2034 -91 
Q 1250 -91 836 529 
Q 422 1150 422 2328 
Q 422 3509 836 4129 
Q 1250 4750 2034 4750 
z
" transform="scale(0.015625)"/>
       </defs>
       <use xlink:href="#DejaVuSans-30"/>
      </g>
     </g>
    </g>
    <g id="xtick_2">
     <g id="line2d_2">
      <g>
       <use xlink:href="#m63e2733ecd" x="281.835014" y="512.64" style="stroke: #000000; stroke-width: 0.8"/>
      </g>
     </g>
     <g id="text_2">
      <!-- 200 -->
      <g transform="translate(266.565014 531.7975)scale(0.16 -0.16)">
       <defs>
        <path id="DejaVuSans-32" d="M 1228 531 
L 3431 531 
L 3431 0 
L 469 0 
L 469 531 
Q 828 903 1448 1529 
Q 2069 2156 2228 2338 
Q 2531 2678 2651 2914 
Q 2772 3150 2772 3378 
Q 2772 3750 2511 3984 
Q 2250 4219 1831 4219 
Q 1534 4219 1204 4116 
Q 875 4013 500 3803 
L 500 4441 
Q 881 4594 1212 4672 
Q 1544 4750 1819 4750 
Q 2544 4750 2975 4387 
Q 3406 4025 3406 3419 
Q 3406 3131 3298 2873 
Q 3191 2616 2906 2266 
Q 2828 2175 2409 1742 
Q 1991 1309 1228 531 
z
" transform="scale(0.015625)"/>
       </defs>
       <use xlink:href="#DejaVuSans-32"/>
       <use xlink:href="#DejaVuSans-30" x="63.623047"/>
       <use xlink:href="#DejaVuSans-30" x="127.246094"/>
      </g>
     </g>
    </g>
    <g id="xtick_3">
     <g id="line2d_3">
      <g>
       <use xlink:href="#m63e2733ecd" x="425.233665" y="512.64" style="stroke: #000000; stroke-width: 0.8"/>
      </g>
     </g>
     <g id="text_3">
      <!-- 400 -->
      <g transform="translate(409.963665 531.7975)scale(0.16 -0.16)">
       <defs>
        <path id="DejaVuSans-34" d="M 2419 4116 
L 825 1625 
L 2419 1625 
L 2419 4116 
z
M 2253 4666 
L 3047 4666 
L 3047 1625 
L 3713 1625 
L 3713 1100 
L 3047 1100 
L 3047 0 
L 2419 0 
L 2419 1100 
L 313 1100 
L 313 1709 
L 2253 4666 
z
" transform="scale(0.015625)"/>
       </defs>
       <use xlink:href="#DejaVuSans-34"/>
       <use xlink:href="#DejaVuSans-30" x="63.623047"/>
       <use xlink:href="#DejaVuSans-30" x="127.246094"/>
      </g>
     </g>
    </g>
    <g id="xtick_4">
     <g id="line2d_4">
      <g>
       <use xlink:href="#m63e2733ecd" x="568.632316" y="512.64" style="stroke: #000000; stroke-width: 0.8"/>
      </g>
     </g>
     <g id="text_4">
      <!-- 600 -->
      <g transform="translate(553.362316 531.7975)scale(0.16 -0.16)">
       <defs>
        <path id="DejaVuSans-36" d="M 2113 2584 
Q 1688 2584 1439 2293 
Q 1191 2003 1191 1497 
Q 1191 994 1439 701 
Q 1688 409 2113 409 
Q 2538 409 2786 701 
Q 3034 994 3034 1497 
Q 3034 2003 2786 2293 
Q 2538 2584 2113 2584 
z
M 3366 4563 
L 3366 3988 
Q 3128 4100 2886 4159 
Q 2644 4219 2406 4219 
Q 1781 4219 1451 3797 
Q 1122 3375 1075 2522 
Q 1259 2794 1537 2939 
Q 1816 3084 2150 3084 
Q 2853 3084 3261 2657 
Q 3669 2231 3669 1497 
Q 3669 778 3244 343 
Q 2819 -91 2113 -91 
Q 1303 -91 875 529 
Q 447 1150 447 2328 
Q 447 3434 972 4092 
Q 1497 4750 2381 4750 
Q 2619 4750 2861 4703 
Q 3103 4656 3366 4563 
z
" transform="scale(0.015625)"/>
       </defs>
       <use xlink:href="#DejaVuSans-36"/>
       <use xlink:href="#DejaVuSans-30" x="63.623047"/>
       <use xlink:href="#DejaVuSans-30" x="127.246094"/>
      </g>
     </g>
    </g>
    <g id="xtick_5">
     <g id="line2d_5">
      <g>
       <use xlink:href="#m63e2733ecd" x="712.030967" y="512.64" style="stroke: #000000; stroke-width: 0.8"/>
      </g>
     </g>
     <g id="text_5">
      <!-- 800 -->
      <g transform="translate(696.760967 531.7975)scale(0.16 -0.16)">
       <defs>
        <path id="DejaVuSans-38" d="M 2034 2216 
Q 1584 2216 1326 1975 
Q 1069 1734 1069 1313 
Q 1069 891 1326 650 
Q 1584 409 2034 409 
Q 2484 409 2743 651 
Q 3003 894 3003 1313 
Q 3003 1734 2745 1975 
Q 2488 2216 2034 2216 
z
M 1403 2484 
Q 997 2584 770 2862 
Q 544 3141 544 3541 
Q 544 4100 942 4425 
Q 1341 4750 2034 4750 
Q 2731 4750 3128 4425 
Q 3525 4100 3525 3541 
Q 3525 3141 3298 2862 
Q 3072 2584 2669 2484 
Q 3125 2378 3379 2068 
Q 3634 1759 3634 1313 
Q 3634 634 3220 271 
Q 2806 -91 2034 -91 
Q 1263 -91 848 271 
Q 434 634 434 1313 
Q 434 1759 690 2068 
Q 947 2378 1403 2484 
z
M 1172 3481 
Q 1172 3119 1398 2916 
Q 1625 2713 2034 2713 
Q 2441 2713 2670 2916 
Q 2900 3119 2900 3481 
Q 2900 3844 2670 4047 
Q 2441 4250 2034 4250 
Q 1625 4250 1398 4047 
Q 1172 3844 1172 3481 
z
" transform="scale(0.015625)"/>
       </defs>
       <use xlink:href="#DejaVuSans-38"/>
       <use xlink:href="#DejaVuSans-30" x="63.623047"/>
       <use xlink:href="#DejaVuSans-30" x="127.246094"/>
      </g>
     </g>
    </g>
    <g id="text_6">
     <!-- Training steps -->
     <g transform="translate(387.22375 551.2825)scale(0.16 -0.16)">
      <defs>
       <path id="DejaVuSans-54" d="M -19 4666 
L 3928 4666 
L 3928 4134 
L 2272 4134 
L 2272 0 
L 1638 0 
L 1638 4134 
L -19 4134 
L -19 4666 
z
" transform="scale(0.015625)"/>
       <path id="DejaVuSans-72" d="M 2631 2963 
Q 2534 3019 2420 3045 
Q 2306 3072 2169 3072 
Q 1681 3072 1420 2755 
Q 1159 2438 1159 1844 
L 1159 0 
L 581 0 
L 581 3500 
L 1159 3500 
L 1159 2956 
Q 1341 3275 1631 3429 
Q 1922 3584 2338 3584 
Q 2397 3584 2469 3576 
Q 2541 3569 2628 3553 
L 2631 2963 
z
" transform="scale(0.015625)"/>
       <path id="DejaVuSans-61" d="M 2194 1759 
Q 1497 1759 1228 1600 
Q 959 1441 959 1056 
Q 959 750 1161 570 
Q 1363 391 1709 391 
Q 2188 391 2477 730 
Q 2766 1069 2766 1631 
L 2766 1759 
L 2194 1759 
z
M 3341 1997 
L 3341 0 
L 2766 0 
L 2766 531 
Q 2569 213 2275 61 
Q 1981 -91 1556 -91 
Q 1019 -91 701 211 
Q 384 513 384 1019 
Q 384 1609 779 1909 
Q 1175 2209 1959 2209 
L 2766 2209 
L 2766 2266 
Q 2766 2663 2505 2880 
Q 2244 3097 1772 3097 
Q 1472 3097 1187 3025 
Q 903 2953 641 2809 
L 641 3341 
Q 956 3463 1253 3523 
Q 1550 3584 1831 3584 
Q 2591 3584 2966 3190 
Q 3341 2797 3341 1997 
z
" transform="scale(0.015625)"/>
       <path id="DejaVuSans-69" d="M 603 3500 
L 1178 3500 
L 1178 0 
L 603 0 
L 603 3500 
z
M 603 4863 
L 1178 4863 
L 1178 4134 
L 603 4134 
L 603 4863 
z
" transform="scale(0.015625)"/>
       <path id="DejaVuSans-6e" d="M 3513 2113 
L 3513 0 
L 2938 0 
L 2938 2094 
Q 2938 2591 2744 2837 
Q 2550 3084 2163 3084 
Q 1697 3084 1428 2787 
Q 1159 2491 1159 1978 
L 1159 0 
L 581 0 
L 581 3500 
L 1159 3500 
L 1159 2956 
Q 1366 3272 1645 3428 
Q 1925 3584 2291 3584 
Q 2894 3584 3203 3211 
Q 3513 2838 3513 2113 
z
" transform="scale(0.015625)"/>
       <path id="DejaVuSans-67" d="M 2906 1791 
Q 2906 2416 2648 2759 
Q 2391 3103 1925 3103 
Q 1463 3103 1205 2759 
Q 947 2416 947 1791 
Q 947 1169 1205 825 
Q 1463 481 1925 481 
Q 2391 481 2648 825 
Q 2906 1169 2906 1791 
z
M 3481 434 
Q 3481 -459 3084 -895 
Q 2688 -1331 1869 -1331 
Q 1566 -1331 1297 -1286 
Q 1028 -1241 775 -1147 
L 775 -588 
Q 1028 -725 1275 -790 
Q 1522 -856 1778 -856 
Q 2344 -856 2625 -561 
Q 2906 -266 2906 331 
L 2906 616 
Q 2728 306 2450 153 
Q 2172 0 1784 0 
Q 1141 0 747 490 
Q 353 981 353 1791 
Q 353 2603 747 3093 
Q 1141 3584 1784 3584 
Q 2172 3584 2450 3431 
Q 2728 3278 2906 2969 
L 2906 3500 
L 3481 3500 
L 3481 434 
z
" transform="scale(0.015625)"/>
       <path id="DejaVuSans-20" transform="scale(0.015625)"/>
       <path id="DejaVuSans-73" d="M 2834 3397 
L 2834 2853 
Q 2591 2978 2328 3040 
Q 2066 3103 1784 3103 
Q 1356 3103 1142 2972 
Q 928 2841 928 2578 
Q 928 2378 1081 2264 
Q 1234 2150 1697 2047 
L 1894 2003 
Q 2506 1872 2764 1633 
Q 3022 1394 3022 966 
Q 3022 478 2636 193 
Q 2250 -91 1575 -91 
Q 1294 -91 989 -36 
Q 684 19 347 128 
L 347 722 
Q 666 556 975 473 
Q 1284 391 1588 391 
Q 1994 391 2212 530 
Q 2431 669 2431 922 
Q 2431 1156 2273 1281 
Q 2116 1406 1581 1522 
L 1381 1569 
Q 847 1681 609 1914 
Q 372 2147 372 2553 
Q 372 3047 722 3315 
Q 1072 3584 1716 3584 
Q 2034 3584 2315 3537 
Q 2597 3491 2834 3397 
z
" transform="scale(0.015625)"/>
       <path id="DejaVuSans-74" d="M 1172 4494 
L 1172 3500 
L 2356 3500 
L 2356 3053 
L 1172 3053 
L 1172 1153 
Q 1172 725 1289 603 
Q 1406 481 1766 481 
L 2356 481 
L 2356 0 
L 1766 0 
Q 1100 0 847 248 
Q 594 497 594 1153 
L 594 3053 
L 172 3053 
L 172 3500 
L 594 3500 
L 594 4494 
L 1172 4494 
z
" transform="scale(0.015625)"/>
       <path id="DejaVuSans-65" d="M 3597 1894 
L 3597 1613 
L 953 1613 
Q 991 1019 1311 708 
Q 1631 397 2203 397 
Q 2534 397 2845 478 
Q 3156 559 3463 722 
L 3463 178 
Q 3153 47 2828 -22 
Q 2503 -91 2169 -91 
Q 1331 -91 842 396 
Q 353 884 353 1716 
Q 353 2575 817 3079 
Q 1281 3584 2069 3584 
Q 2775 3584 3186 3129 
Q 3597 2675 3597 1894 
z
M 3022 2063 
Q 3016 2534 2758 2815 
Q 2500 3097 2075 3097 
Q 1594 3097 1305 2825 
Q 1016 2553 972 2059 
L 3022 2063 
z
" transform="scale(0.015625)"/>
       <path id="DejaVuSans-70" d="M 1159 525 
L 1159 -1331 
L 581 -1331 
L 581 3500 
L 1159 3500 
L 1159 2969 
Q 1341 3281 1617 3432 
Q 1894 3584 2278 3584 
Q 2916 3584 3314 3078 
Q 3713 2572 3713 1747 
Q 3713 922 3314 415 
Q 2916 -91 2278 -91 
Q 1894 -91 1617 61 
Q 1341 213 1159 525 
z
M 3116 1747 
Q 3116 2381 2855 2742 
Q 2594 3103 2138 3103 
Q 1681 3103 1420 2742 
Q 1159 2381 1159 1747 
Q 1159 1113 1420 752 
Q 1681 391 2138 391 
Q 2594 391 2855 752 
Q 3116 1113 3116 1747 
z
" transform="scale(0.015625)"/>
      </defs>
      <use xlink:href="#DejaVuSans-54"/>
      <use xlink:href="#DejaVuSans-72" x="46.333984"/>
      <use xlink:href="#DejaVuSans-61" x="87.447266"/>
      <use xlink:href="#DejaVuSans-69" x="148.726562"/>
      <use xlink:href="#DejaVuSans-6e" x="176.509766"/>
      <use xlink:href="#DejaVuSans-69" x="239.888672"/>
      <use xlink:href="#DejaVuSans-6e" x="267.671875"/>
      <use xlink:href="#DejaVuSans-67" x="331.050781"/>
      <use xlink:href="#DejaVuSans-20" x="394.527344"/>
      <use xlink:href="#DejaVuSans-73" x="426.314453"/>
      <use xlink:href="#DejaVuSans-74" x="478.414062"/>
      <use xlink:href="#DejaVuSans-65" x="517.623047"/>
      <use xlink:href="#DejaVuSans-70" x="579.146484"/>
      <use xlink:href="#DejaVuSans-73" x="642.623047"/>
     </g>
    </g>
   </g>
   <g id="matplotlib.axis_2">
    <g id="ytick_1">
     <g id="line2d_6">
      <defs>
       <path id="meb9318ffd9" d="M 0 0 
L -3.5 0 
" style="stroke: #000000; stroke-width: 0.8"/>
      </defs>
      <g>
       <use xlink:href="#meb9318ffd9" x="108" y="506.101105" style="stroke: #000000; stroke-width: 0.8"/>
      </g>
     </g>
     <g id="text_7">
      <!-- 1.1 -->
      <g transform="translate(75.555 512.179855)scale(0.16 -0.16)">
       <defs>
        <path id="DejaVuSans-31" d="M 794 531 
L 1825 531 
L 1825 4091 
L 703 3866 
L 703 4441 
L 1819 4666 
L 2450 4666 
L 2450 531 
L 3481 531 
L 3481 0 
L 794 0 
L 794 531 
z
" transform="scale(0.015625)"/>
        <path id="DejaVuSans-2e" d="M 684 794 
L 1344 794 
L 1344 0 
L 684 0 
L 684 794 
z
" transform="scale(0.015625)"/>
       </defs>
       <use xlink:href="#DejaVuSans-31"/>
       <use xlink:href="#DejaVuSans-2e" x="63.623047"/>
       <use xlink:href="#DejaVuSans-31" x="95.410156"/>
      </g>
     </g>
    </g>
    <g id="ytick_2">
     <g id="line2d_7">
      <g>
       <use xlink:href="#meb9318ffd9" x="108" y="447.900081" style="stroke: #000000; stroke-width: 0.8"/>
      </g>
     </g>
     <g id="text_8">
      <!-- 1.2 -->
      <g transform="translate(75.555 453.978831)scale(0.16 -0.16)">
       <use xlink:href="#DejaVuSans-31"/>
       <use xlink:href="#DejaVuSans-2e" x="63.623047"/>
       <use xlink:href="#DejaVuSans-32" x="95.410156"/>
      </g>
     </g>
    </g>
    <g id="ytick_3">
     <g id="line2d_8">
      <g>
       <use xlink:href="#meb9318ffd9" x="108" y="389.699057" style="stroke: #000000; stroke-width: 0.8"/>
      </g>
     </g>
     <g id="text_9">
      <!-- 1.3 -->
      <g transform="translate(75.555 395.777807)scale(0.16 -0.16)">
       <defs>
        <path id="DejaVuSans-33" d="M 2597 2516 
Q 3050 2419 3304 2112 
Q 3559 1806 3559 1356 
Q 3559 666 3084 287 
Q 2609 -91 1734 -91 
Q 1441 -91 1130 -33 
Q 819 25 488 141 
L 488 750 
Q 750 597 1062 519 
Q 1375 441 1716 441 
Q 2309 441 2620 675 
Q 2931 909 2931 1356 
Q 2931 1769 2642 2001 
Q 2353 2234 1838 2234 
L 1294 2234 
L 1294 2753 
L 1863 2753 
Q 2328 2753 2575 2939 
Q 2822 3125 2822 3475 
Q 2822 3834 2567 4026 
Q 2313 4219 1838 4219 
Q 1578 4219 1281 4162 
Q 984 4106 628 3988 
L 628 4550 
Q 988 4650 1302 4700 
Q 1616 4750 1894 4750 
Q 2613 4750 3031 4423 
Q 3450 4097 3450 3541 
Q 3450 3153 3228 2886 
Q 3006 2619 2597 2516 
z
" transform="scale(0.015625)"/>
       </defs>
       <use xlink:href="#DejaVuSans-31"/>
       <use xlink:href="#DejaVuSans-2e" x="63.623047"/>
       <use xlink:href="#DejaVuSans-33" x="95.410156"/>
      </g>
     </g>
    </g>
    <g id="ytick_4">
     <g id="line2d_9">
      <g>
       <use xlink:href="#meb9318ffd9" x="108" y="331.498033" style="stroke: #000000; stroke-width: 0.8"/>
      </g>
     </g>
     <g id="text_10">
      <!-- 1.4 -->
      <g transform="translate(75.555 337.576783)scale(0.16 -0.16)">
       <use xlink:href="#DejaVuSans-31"/>
       <use xlink:href="#DejaVuSans-2e" x="63.623047"/>
       <use xlink:href="#DejaVuSans-34" x="95.410156"/>
      </g>
     </g>
    </g>
    <g id="ytick_5">
     <g id="line2d_10">
      <g>
       <use xlink:href="#meb9318ffd9" x="108" y="273.297009" style="stroke: #000000; stroke-width: 0.8"/>
      </g>
     </g>
     <g id="text_11">
      <!-- 1.5 -->
      <g transform="translate(75.555 279.375759)scale(0.16 -0.16)">
       <defs>
        <path id="DejaVuSans-35" d="M 691 4666 
L 3169 4666 
L 3169 4134 
L 1269 4134 
L 1269 2991 
Q 1406 3038 1543 3061 
Q 1681 3084 1819 3084 
Q 2600 3084 3056 2656 
Q 3513 2228 3513 1497 
Q 3513 744 3044 326 
Q 2575 -91 1722 -91 
Q 1428 -91 1123 -41 
Q 819 9 494 109 
L 494 744 
Q 775 591 1075 516 
Q 1375 441 1709 441 
Q 2250 441 2565 725 
Q 2881 1009 2881 1497 
Q 2881 1984 2565 2268 
Q 2250 2553 1709 2553 
Q 1456 2553 1204 2497 
Q 953 2441 691 2322 
L 691 4666 
z
" transform="scale(0.015625)"/>
       </defs>
       <use xlink:href="#DejaVuSans-31"/>
       <use xlink:href="#DejaVuSans-2e" x="63.623047"/>
       <use xlink:href="#DejaVuSans-35" x="95.410156"/>
      </g>
     </g>
    </g>
    <g id="ytick_6">
     <g id="line2d_11">
      <g>
       <use xlink:href="#meb9318ffd9" x="108" y="215.095985" style="stroke: #000000; stroke-width: 0.8"/>
      </g>
     </g>
     <g id="text_12">
      <!-- 1.6 -->
      <g transform="translate(75.555 221.174735)scale(0.16 -0.16)">
       <use xlink:href="#DejaVuSans-31"/>
       <use xlink:href="#DejaVuSans-2e" x="63.623047"/>
       <use xlink:href="#DejaVuSans-36" x="95.410156"/>
      </g>
     </g>
    </g>
    <g id="ytick_7">
     <g id="line2d_12">
      <g>
       <use xlink:href="#meb9318ffd9" x="108" y="156.894961" style="stroke: #000000; stroke-width: 0.8"/>
      </g>
     </g>
     <g id="text_13">
      <!-- 1.7 -->
      <g transform="translate(75.555 162.973711)scale(0.16 -0.16)">
       <defs>
        <path id="DejaVuSans-37" d="M 525 4666 
L 3525 4666 
L 3525 4397 
L 1831 0 
L 1172 0 
L 2766 4134 
L 525 4134 
L 525 4666 
z
" transform="scale(0.015625)"/>
       </defs>
       <use xlink:href="#DejaVuSans-31"/>
       <use xlink:href="#DejaVuSans-2e" x="63.623047"/>
       <use xlink:href="#DejaVuSans-37" x="95.410156"/>
      </g>
     </g>
    </g>
    <g id="ytick_8">
     <g id="line2d_13">
      <g>
       <use xlink:href="#meb9318ffd9" x="108" y="98.693937" style="stroke: #000000; stroke-width: 0.8"/>
      </g>
     </g>
     <g id="text_14">
      <!-- 1.8 -->
      <g transform="translate(75.555 104.772687)scale(0.16 -0.16)">
       <use xlink:href="#DejaVuSans-31"/>
       <use xlink:href="#DejaVuSans-2e" x="63.623047"/>
       <use xlink:href="#DejaVuSans-38" x="95.410156"/>
      </g>
     </g>
    </g>
    <g id="text_15">
     <!-- Loss -->
     <g transform="translate(68.2275 308.4275)rotate(-90)scale(0.16 -0.16)">
      <defs>
       <path id="DejaVuSans-4c" d="M 628 4666 
L 1259 4666 
L 1259 531 
L 3531 531 
L 3531 0 
L 628 0 
L 628 4666 
z
" transform="scale(0.015625)"/>
       <path id="DejaVuSans-6f" d="M 1959 3097 
Q 1497 3097 1228 2736 
Q 959 2375 959 1747 
Q 959 1119 1226 758 
Q 1494 397 1959 397 
Q 2419 397 2687 759 
Q 2956 1122 2956 1747 
Q 2956 2369 2687 2733 
Q 2419 3097 1959 3097 
z
M 1959 3584 
Q 2709 3584 3137 3096 
Q 3566 2609 3566 1747 
Q 3566 888 3137 398 
Q 2709 -91 1959 -91 
Q 1206 -91 779 398 
Q 353 888 353 1747 
Q 353 2609 779 3096 
Q 1206 3584 1959 3584 
z
" transform="scale(0.015625)"/>
      </defs>
      <use xlink:href="#DejaVuSans-4c"/>
      <use xlink:href="#DejaVuSans-6f" x="53.962891"/>
      <use xlink:href="#DejaVuSans-73" x="115.144531"/>
      <use xlink:href="#DejaVuSans-73" x="167.244141"/>
     </g>
    </g>
   </g>
   <g id="line2d_14">
    <path d="M 138.436364 324.143589 
L 139.153357 331.186179 
L 139.87035 322.507723 
L 140.587343 326.12747 
L 142.02133 348.235249 
L 142.738323 345.725806 
L 143.455316 340.616657 
L 144.17231 350.031176 
L 144.889303 354.570222 
L 145.606296 336.342092 
L 146.323289 328.022266 
L 147.040283 331.630495 
L 147.757276 312.847247 
L 148.474269 344.051364 
L 149.191262 339.446615 
L 149.908256 336.884721 
L 150.625249 351.754462 
L 151.342242 355.41223 
L 152.059235 388.169303 
L 152.776229 368.483754 
L 153.493222 371.111006 
L 154.210215 370.528413 
L 154.927208 362.02563 
L 155.644202 379.112165 
L 156.361195 313.606831 
L 157.078188 336.778637 
L 157.795181 348.381504 
L 158.512175 385.734098 
L 159.229168 371.761869 
L 159.946161 365.604789 
L 160.663155 400.063986 
L 161.380148 410.676716 
L 162.097141 401.437106 
L 162.814134 428.643627 
L 164.248121 344.288648 
L 164.965114 352.816408 
L 165.682107 322.245185 
L 166.399101 371.035727 
L 167.116094 396.793156 
L 168.55008 275.14636 
L 169.267074 323.545247 
L 169.984067 300.151213 
L 170.70106 347.948774 
L 171.418053 298.133335 
L 172.135047 311.742355 
L 172.85204 318.708834 
L 173.569033 314.42747 
L 174.286026 360.532411 
L 175.00302 339.980363 
L 175.720013 393.323827 
L 176.437006 363.690358 
L 177.153999 370.498094 
L 177.870993 346.914095 
L 178.587986 354.051668 
L 179.304979 323.696081 
L 180.021972 317.296722 
L 180.738966 341.492315 
L 181.455959 300.217333 
L 182.172952 318.369353 
L 182.889945 320.697086 
L 183.606939 318.298237 
L 184.323932 323.131181 
L 185.040925 342.154765 
L 185.757918 344.328333 
L 186.474912 361.763924 
L 187.191905 353.886472 
L 187.908898 350.503037 
L 188.625891 340.816405 
L 189.342885 343.579365 
L 190.059878 336.188968 
L 190.776871 322.248238 
L 191.493864 323.406901 
L 192.210858 320.932288 
L 192.927851 299.582983 
L 194.361837 317.585 
L 195.078831 306.856126 
L 195.795824 298.712251 
L 196.512817 320.349279 
L 197.22981 318.724375 
L 197.946804 332.827318 
L 199.38079 248.384502 
L 200.097783 242.304851 
L 200.814777 265.942204 
L 201.53177 256.647366 
L 202.248763 264.343388 
L 202.965757 275.03542 
L 203.68275 303.425304 
L 204.399743 298.258776 
L 205.116736 331.675454 
L 205.83373 291.871281 
L 206.550723 306.191803 
L 207.267716 322.740635 
L 207.984709 299.055826 
L 208.701703 321.733292 
L 209.418696 311.964027 
L 210.135689 310.617341 
L 210.852682 302.942412 
L 211.569676 339.304592 
L 212.286669 311.787938 
L 213.003662 308.302374 
L 213.720655 311.110918 
L 214.437649 310.928168 
L 215.154642 355.478142 
L 215.871635 326.308971 
L 216.588628 342.986227 
L 217.305622 293.677408 
L 218.022615 262.150531 
L 218.739608 288.589212 
L 219.456601 250.747759 
L 220.173595 274.918166 
L 220.890588 293.563485 
L 221.607581 325.606765 
L 222.324574 286.241566 
L 223.041568 302.961908 
L 223.758561 294.582068 
L 224.475554 291.720933 
L 225.192547 323.293532 
L 225.909541 296.56241 
L 226.626534 310.442779 
L 227.343527 317.202503 
L 228.06052 359.190443 
L 228.777514 340.505578 
L 229.494507 354.251347 
L 230.2115 310.746737 
L 230.928493 320.464174 
L 232.36248 320.924032 
L 233.079473 329.994352 
L 233.796466 324.222267 
L 234.51346 343.962973 
L 235.230453 324.050896 
L 235.947446 312.761909 
L 236.664439 343.650897 
L 237.381433 289.074116 
L 238.098426 267.554758 
L 238.815419 316.044256 
L 239.532412 303.875795 
L 240.249406 274.55676 
L 240.966399 273.583414 
L 241.683392 283.904882 
L 242.400385 313.917103 
L 243.117379 294.905591 
L 243.834372 293.33869 
L 244.551365 327.610004 
L 245.268358 318.270901 
L 245.985352 368.150587 
L 246.702345 327.273783 
L 247.419338 321.053566 
L 248.136332 333.680982 
L 249.570318 322.217571 
L 251.004305 351.640886 
L 251.721298 338.723595 
L 252.438291 362.666641 
L 253.155284 341.815838 
L 253.872278 359.344469 
L 254.589271 350.238764 
L 255.306264 347.641278 
L 256.023257 348.026759 
L 256.740251 338.186031 
L 257.457244 332.784926 
L 258.174237 334.789969 
L 259.608224 302.551311 
L 260.325217 313.300167 
L 261.04221 316.711216 
L 261.759203 322.602497 
L 262.476197 335.848723 
L 263.19319 334.516607 
L 263.910183 350.233769 
L 264.627176 337.241894 
L 265.34417 344.495819 
L 266.061163 343.720972 
L 266.778156 340.53 
L 267.495149 365.402057 
L 268.212143 347.826317 
L 268.929136 333.138908 
L 270.363122 343.914406 
L 271.080116 374.063099 
L 271.797109 343.31093 
L 272.514102 329.831515 
L 273.231095 321.529589 
L 273.948089 315.308956 
L 274.665082 306.09578 
L 275.382075 316.840542 
L 276.099068 292.136803 
L 276.816062 319.939098 
L 277.533055 304.225059 
L 278.250048 301.672323 
L 278.967041 358.83993 
L 279.684035 356.791664 
L 280.401028 352.703179 
L 281.118021 354.511942 
L 281.835014 330.719523 
L 282.552008 333.151119 
L 283.269001 333.586555 
L 283.985994 327.344968 
L 284.702987 324.107372 
L 285.419981 324.647503 
L 286.136974 334.785528 
L 286.853967 334.084086 
L 287.57096 314.120597 
L 288.287954 339.154937 
L 289.004947 342.689623 
L 289.72194 327.860261 
L 290.438934 355.367757 
L 291.155927 332.294333 
L 291.87292 353.059519 
L 292.589913 362.501792 
L 293.306907 351.004176 
L 294.0239 364.151326 
L 294.740893 359.295139 
L 295.457886 356.815392 
L 296.17488 341.888203 
L 296.891873 347.73855 
L 297.608866 356.119778 
L 298.325859 374.932166 
L 299.042853 375.037556 
L 299.759846 361.882011 
L 300.476839 387.615711 
L 301.193832 387.954499 
L 301.910826 332.303075 
L 302.627819 312.842113 
L 303.344812 344.466124 
L 304.061805 314.595233 
L 304.778799 341.81785 
L 305.495792 357.292942 
L 306.212785 355.307326 
L 306.929778 344.279628 
L 307.646772 372.091776 
L 309.080758 322.536724 
L 309.797751 315.92388 
L 310.514745 308.198649 
L 311.231738 314.770836 
L 311.948731 272.006869 
L 312.665724 302.515719 
L 313.382718 298.303041 
L 314.099711 322.64593 
L 315.533697 305.473432 
L 316.250691 276.676628 
L 316.967684 283.916608 
L 317.684677 302.506838 
L 318.40167 288.390713 
L 319.118664 283.068633 
L 319.835657 330.433603 
L 320.55265 331.160578 
L 321.269643 334.528125 
L 321.986637 315.819184 
L 322.70363 345.961008 
L 323.420623 343.772938 
L 324.137616 340.762704 
L 324.85461 358.601121 
L 325.571603 334.393803 
L 326.288596 332.208856 
L 327.005589 346.593763 
L 327.722583 346.119335 
L 328.439576 324.847182 
L 329.156569 346.985627 
L 329.873562 357.878656 
L 330.590556 364.037679 
L 331.307549 369.22856 
L 332.024542 322.82188 
L 332.741535 342.588257 
L 333.458529 341.734038 
L 334.175522 353.542411 
L 334.892515 340.852136 
L 335.609509 373.123958 
L 336.326502 360.989424 
L 337.043495 367.944872 
L 337.760488 368.537802 
L 338.477482 340.711847 
L 339.194475 338.794919 
L 339.911468 348.787036 
L 340.628461 318.688991 
L 341.345455 303.728083 
L 342.062448 300.214836 
L 342.779441 295.806157 
L 343.496434 336.409252 
L 344.213428 302.735171 
L 344.930421 321.166865 
L 345.647414 333.156323 
L 346.364407 317.499453 
L 347.081401 354.760604 
L 347.798394 330.827549 
L 348.515387 348.207427 
L 349.23238 344.002243 
L 349.949374 317.347717 
L 350.666367 345.511974 
L 351.38336 359.728146 
L 352.100353 330.106611 
L 352.817347 327.9243 
L 353.53434 303.303748 
L 354.251333 310.70934 
L 354.968326 308.838828 
L 355.68532 335.300405 
L 356.402313 336.248219 
L 357.119306 318.81693 
L 357.836299 317.139574 
L 358.553293 313.688354 
L 359.270286 312.562924 
L 359.987279 321.583984 
L 360.704272 309.329352 
L 361.421266 276.885118 
L 362.138259 295.860413 
L 362.855252 307.771054 
L 363.572245 306.529827 
L 364.289239 323.174613 
L 365.006232 308.588779 
L 365.723225 329.473994 
L 366.440218 339.074941 
L 367.157212 292.661531 
L 367.874205 321.295498 
L 368.591198 319.114713 
L 369.308191 320.204897 
L 370.025185 308.247563 
L 370.742178 305.383861 
L 371.459171 303.060221 
L 372.176164 288.796245 
L 372.893158 288.447328 
L 373.610151 276.105692 
L 374.327144 294.775849 
L 375.044137 301.898227 
L 375.761131 302.207736 
L 376.478124 325.088281 
L 377.195117 334.460548 
L 377.912111 330.310938 
L 378.629104 330.623083 
L 379.346097 346.837776 
L 380.06309 352.892311 
L 380.780084 343.747753 
L 381.497077 363.693411 
L 382.21407 340.331639 
L 382.931063 339.882814 
L 383.648057 356.590042 
L 384.36505 386.294558 
L 385.082043 359.69408 
L 385.799036 358.52161 
L 386.51603 367.715568 
L 387.233023 352.926169 
L 387.950016 346.740226 
L 388.667009 341.679435 
L 389.384003 278.904314 
L 390.100996 301.59198 
L 390.817989 262.679769 
L 391.534982 259.645321 
L 392.251976 245.185066 
L 392.968969 278.469226 
L 393.685962 289.287879 
L 394.402955 316.128623 
L 395.119949 306.162802 
L 395.836942 316.336558 
L 396.553935 333.635191 
L 397.270928 357.441001 
L 397.987922 341.701915 
L 398.704915 341.210766 
L 399.421908 352.702901 
L 400.138901 342.052983 
L 400.855895 366.707114 
L 401.572888 351.742668 
L 402.289881 378.8762 
L 403.006874 335.923516 
L 403.723868 333.880383 
L 404.440861 325.726031 
L 405.157854 334.797323 
L 405.874847 326.517946 
L 406.591841 334.52084 
L 407.308834 347.749512 
L 408.025827 354.662638 
L 408.74282 349.558692 
L 409.459814 357.252354 
L 410.176807 358.69423 
L 410.8938 365.493779 
L 411.610793 362.78674 
L 412.327787 375.645403 
L 413.04478 386.344096 
L 413.761773 395.033098 
L 414.478766 392.402933 
L 415.19576 393.007589 
L 415.912753 398.002468 
L 416.629746 360.313306 
L 417.346739 331.874717 
L 418.063733 308.271707 
L 418.780726 253.280791 
L 419.497719 281.490492 
L 420.214712 261.623721 
L 420.931706 256.509853 
L 421.648699 252.22384 
L 422.365692 277.183804 
L 423.082686 287.974565 
L 423.799679 288.381624 
L 424.516672 279.253648 
L 425.233665 321.651422 
L 425.950659 325.627302 
L 426.667652 310.583067 
L 427.384645 320.648311 
L 428.101638 360.393927 
L 428.818632 354.600264 
L 429.535625 343.236554 
L 430.252618 379.390244 
L 430.969611 343.043883 
L 431.686605 341.911515 
L 432.403598 341.881889 
L 433.120591 333.041428 
L 433.837584 273.682976 
L 434.554578 296.843612 
L 435.271571 304.778928 
L 435.988564 318.964919 
L 436.705557 299.321 
L 437.422551 313.740875 
L 438.139544 314.700692 
L 439.57353 333.432598 
L 441.007517 272.410389 
L 441.72451 278.794692 
L 442.441503 304.230956 
L 443.158497 306.366921 
L 443.87549 316.584318 
L 444.592483 317.551281 
L 445.309476 332.145441 
L 446.02647 353.456934 
L 446.743463 323.251765 
L 447.460456 311.200281 
L 448.177449 312.115 
L 448.894443 318.158226 
L 449.611436 291.618457 
L 450.328429 303.736408 
L 451.045422 341.817226 
L 451.762416 317.921845 
L 452.479409 316.625183 
L 453.196402 289.484505 
L 453.913395 304.047374 
L 454.630389 311.466496 
L 455.347382 317.384628 
L 456.064375 318.743733 
L 456.781368 340.347805 
L 457.498362 342.510897 
L 458.215355 332.507749 
L 458.932348 308.171799 
L 459.649341 322.479346 
L 460.366335 318.899909 
L 461.083328 320.251729 
L 461.800321 336.201734 
L 462.517314 330.354786 
L 463.234308 356.736298 
L 463.951301 346.445704 
L 464.668294 358.920967 
L 465.385288 357.25832 
L 466.102281 356.842798 
L 466.819274 363.254576 
L 467.536267 353.316923 
L 468.253261 341.469419 
L 468.970254 377.102613 
L 469.687247 352.433148 
L 470.40424 348.817008 
L 471.121234 371.792674 
L 471.838227 370.511346 
L 472.55522 353.473516 
L 473.272213 383.086657 
L 473.989207 383.842216 
L 474.7062 389.984241 
L 475.423193 385.169891 
L 476.140186 371.342322 
L 476.85718 406.029505 
L 477.574173 385.31129 
L 478.291166 404.099117 
L 479.008159 394.887121 
L 479.725153 358.675914 
L 480.442146 344.15946 
L 481.159139 360.68949 
L 481.876132 328.875514 
L 482.593126 367.095926 
L 483.310119 379.893326 
L 484.027112 373.51596 
L 484.744105 353.695882 
L 485.461099 397.148248 
L 486.178092 392.509294 
L 486.895085 366.897218 
L 487.612078 329.306855 
L 488.329072 351.334846 
L 489.046065 334.797462 
L 489.763058 347.085327 
L 490.480051 333.027413 
L 491.197045 332.32715 
L 491.914038 316.989572 
L 492.631031 331.066705 
L 493.348024 353.455408 
L 494.065018 333.931933 
L 494.782011 334.382563 
L 495.499004 349.857308 
L 496.215997 356.350955 
L 497.649984 365.05432 
L 498.366977 359.759298 
L 499.08397 391.437773 
L 499.800964 347.045711 
L 500.517957 364.500035 
L 501.23495 358.752094 
L 501.951943 368.105489 
L 502.668937 356.934589 
L 503.38593 373.065677 
L 504.102923 356.5847 
L 504.819916 356.684956 
L 505.53691 344.716173 
L 506.253903 375.669964 
L 506.970896 370.922012 
L 507.687889 348.107449 
L 508.404883 331.220454 
L 509.121876 349.657074 
L 509.838869 355.339588 
L 510.555863 342.669364 
L 511.272856 374.275128 
L 511.989849 377.316792 
L 512.706842 344.721446 
L 513.423836 347.256074 
L 514.140829 359.27266 
L 514.857822 367.021966 
L 515.574815 367.655553 
L 516.291809 350.779243 
L 517.008802 374.829274 
L 517.725795 352.549985 
L 518.442788 377.683193 
L 519.159782 375.555069 
L 519.876775 374.394879 
L 520.593768 357.363918 
L 521.310761 349.583946 
L 522.027755 388.509408 
L 522.744748 394.232858 
L 523.461741 383.150626 
L 524.178734 307.419361 
L 524.895728 294.633826 
L 525.612721 306.774187 
L 526.329714 303.838676 
L 527.046707 301.802274 
L 528.480694 300.514909 
L 529.197687 300.608642 
L 529.91468 315.762846 
L 530.631674 287.247244 
L 531.348667 268.848922 
L 532.06566 234.097006 
L 532.782653 275.787996 
L 533.499647 235.927208 
L 534.21664 269.920581 
L 534.933633 288.532181 
L 535.650626 294.50665 
L 536.36762 296.161874 
L 537.084613 305.561615 
L 537.801606 310.34398 
L 538.518599 319.097298 
L 539.235593 310.218817 
L 539.952586 333.7317 
L 540.669579 319.014804 
L 541.386572 333.249571 
L 542.103566 318.83927 
L 542.820559 330.86439 
L 543.537552 328.042247 
L 544.254545 330.397733 
L 544.971539 302.34518 
L 545.688532 315.650241 
L 546.405525 295.891149 
L 547.122518 308.48554 
L 547.839512 327.685074 
L 548.556505 323.025444 
L 549.273498 342.751719 
L 549.990491 347.873149 
L 550.707485 345.705963 
L 551.424478 332.539664 
L 552.141471 330.97318 
L 552.858465 319.253683 
L 553.575458 319.814351 
L 554.292451 322.222567 
L 555.009444 338.317023 
L 555.726438 362.791527 
L 556.443431 350.468554 
L 557.160424 356.769323 
L 557.877417 373.720218 
L 558.594411 369.904678 
L 559.311404 347.12314 
L 560.74539 321.76715 
L 561.462384 330.749356 
L 562.179377 296.857141 
L 562.89637 339.05482 
L 563.613363 326.089033 
L 564.330357 332.489433 
L 565.04735 323.723625 
L 565.764343 372.388866 
L 566.481336 353.170321 
L 567.19833 338.034919 
L 567.915323 376.817248 
L 568.632316 377.741612 
L 569.349309 354.291796 
L 570.066303 359.451038 
L 570.783296 380.030076 
L 571.500289 390.627681 
L 572.217282 371.227219 
L 572.934276 362.557505 
L 573.651269 377.064592 
L 575.085255 372.910125 
L 575.802249 405.524203 
L 576.519242 348.642446 
L 577.236235 355.241067 
L 577.953228 356.876725 
L 578.670222 334.682012 
L 579.387215 363.418384 
L 580.104208 368.212197 
L 580.821201 328.840962 
L 581.538195 344.946796 
L 582.255188 347.62088 
L 582.972181 362.840163 
L 583.689174 347.208479 
L 584.406168 327.318742 
L 585.123161 347.803421 
L 585.840154 328.08901 
L 586.557147 376.453761 
L 587.274141 325.017235 
L 587.991134 342.49834 
L 588.708127 341.46373 
L 589.42512 330.297408 
L 590.142114 329.36909 
L 590.859107 333.782695 
L 591.5761 321.370498 
L 592.293093 341.93108 
L 593.010087 332.942907 
L 593.72708 318.696207 
L 594.444073 344.676696 
L 595.161066 337.19083 
L 595.87806 349.00406 
L 596.595053 309.49101 
L 597.312046 309.228749 
L 598.02904 339.557278 
L 598.746033 344.896842 
L 599.463026 340.635667 
L 600.180019 359.409549 
L 600.897013 342.012742 
L 601.614006 363.259502 
L 602.330999 332.019099 
L 603.047992 365.981181 
L 603.764986 365.881341 
L 604.481979 352.211683 
L 605.198972 364.856861 
L 605.915965 360.777465 
L 606.632959 365.690544 
L 607.349952 347.815563 
L 608.066945 373.609694 
L 608.783938 371.592926 
L 609.500932 310.074643 
L 610.217925 309.044473 
L 610.934918 316.53811 
L 611.651911 340.426067 
L 612.368905 313.605166 
L 613.085898 303.91777 
L 613.802891 360.070542 
L 614.519884 350.520035 
L 615.236878 367.094399 
L 615.953871 377.089361 
L 616.670864 370.651356 
L 617.387857 378.604295 
L 618.104851 402.525139 
L 618.821844 371.131959 
L 619.538837 372.717732 
L 620.25583 363.562419 
L 620.972824 385.553846 
L 621.689817 397.082198 
L 622.40681 403.123065 
L 623.123803 394.346642 
L 623.840797 388.973776 
L 624.55779 364.485326 
L 625.274783 374.02605 
L 625.991776 334.103235 
L 626.70877 365.597504 
L 627.425763 411.129982 
L 628.142756 352.968908 
L 628.859749 358.34233 
L 629.576743 354.085526 
L 630.293736 385.721193 
L 631.727722 376.10644 
L 632.444716 352.078541 
L 633.161709 385.063461 
L 633.878702 388.162156 
L 634.595695 417.563477 
L 635.312689 406.793876 
L 636.029682 417.005029 
L 636.746675 463.59196 
L 637.463668 429.707516 
L 638.180662 444.368143 
L 638.897655 409.870509 
L 639.614648 448.256672 
L 640.331642 368.150517 
L 641.048635 351.32541 
L 641.765628 293.254045 
L 642.482621 244.392041 
L 643.199615 255.782324 
L 643.916608 221.7834 
L 644.633601 268.843233 
L 645.350594 262.680879 
L 646.067588 324.219977 
L 646.784581 309.502388 
L 647.501574 286.156089 
L 648.218567 295.805394 
L 648.935561 337.465232 
L 649.652554 286.079076 
L 650.369547 351.436697 
L 651.08654 367.481892 
L 651.803534 309.977579 
L 652.520527 307.068224 
L 653.23752 343.362688 
L 653.954513 342.341261 
L 654.671507 355.33605 
L 655.3885 347.757976 
L 656.105493 350.589347 
L 656.822486 333.886628 
L 657.53948 345.65809 
L 658.256473 337.808876 
L 658.973466 369.778543 
L 659.690459 359.388457 
L 660.407453 341.016916 
L 661.124446 362.83933 
L 661.841439 341.529295 
L 662.558432 380.076006 
L 663.275426 356.242305 
L 663.992419 348.429932 
L 665.426405 381.692584 
L 666.143399 356.184025 
L 666.860392 405.830798 
L 667.577385 423.782862 
L 668.294378 435.230523 
L 669.011372 414.643229 
L 669.728365 417.546132 
L 670.445358 431.033179 
L 671.162351 449.837311 
L 671.879345 438.361619 
L 672.596338 465.537613 
L 673.313331 420.537425 
L 674.030324 394.395001 
L 674.747318 330.829491 
L 675.464311 340.105318 
L 676.181304 357.293705 
L 676.898297 344.618693 
L 677.615291 385.486685 
L 678.332284 348.884516 
L 679.049277 404.671649 
L 679.76627 406.638879 
L 680.483264 376.413728 
L 681.200257 356.744762 
L 681.91725 390.995955 
L 682.634243 417.006208 
L 683.351237 419.913412 
L 684.06823 425.088682 
L 684.785223 449.533075 
L 685.502217 455.975519 
L 686.21921 437.047334 
L 686.936203 471.065685 
L 687.653196 478.063455 
L 688.37019 470.174902 
L 689.087183 485.666991 
L 689.804176 450.394856 
L 690.521169 465.28125 
L 691.238163 450.171796 
L 691.955156 411.559937 
L 692.672149 427.582583 
L 693.389142 429.540862 
L 694.106136 492.48 
L 694.823129 421.04016 
L 695.540122 424.975938 
L 696.257115 404.641954 
L 696.974109 294.469601 
L 697.691102 262.275139 
L 698.408095 145.515612 
L 699.125088 89.28 
L 699.842082 184.613347 
L 700.559075 181.028707 
L 701.276068 241.484837 
L 701.993061 196.49131 
L 702.710055 266.332888 
L 703.427048 203.110954 
L 704.144041 258.61751 
L 705.578028 186.542348 
L 706.295021 174.874957 
L 707.012014 233.809769 
L 707.729007 242.966815 
L 708.446001 181.451862 
L 709.162994 261.956264 
L 709.879987 258.796652 
L 710.59698 235.584258 
L 711.313974 264.197896 
L 712.030967 261.071656 
L 712.74796 268.884792 
L 713.464953 282.748509 
L 714.181947 291.424745 
L 714.89894 305.634743 
L 715.615933 279.43834 
L 716.332926 330.463784 
L 717.04992 331.081969 
L 717.766913 362.828368 
L 718.483906 339.730314 
L 719.200899 341.473998 
L 719.917893 320.136071 
L 721.351879 363.75856 
L 722.068872 331.458361 
L 722.785866 393.296769 
L 723.502859 376.081185 
L 724.219852 409.437571 
L 724.936845 386.133108 
L 725.653839 382.52134 
L 726.370832 384.80349 
L 727.087825 370.826197 
L 727.804819 391.19827 
L 728.521812 384.399554 
L 729.238805 384.762833 
L 729.955798 374.606075 
L 730.672792 355.656798 
L 731.389785 389.455072 
L 732.106778 397.060273 
L 732.823771 405.925781 
L 733.540765 366.727304 
L 734.257758 343.171266 
L 734.974751 395.584608 
L 735.691744 340.705326 
L 736.408738 404.719384 
L 737.125731 405.747888 
L 737.842724 391.473852 
L 738.559717 387.368368 
L 739.276711 331.990167 
L 739.993704 332.729075 
L 740.710697 326.308277 
L 741.42769 342.499727 
L 742.144684 279.268357 
L 742.861677 324.381358 
L 744.295663 331.822126 
L 745.012657 357.272752 
L 745.72965 370.294183 
L 746.446643 368.678368 
L 747.163636 353.077836 
L 747.163636 353.077836 
" clip-path="url(#p2e4fa2a2eb)" style="fill: none; stroke: #1f77b4; stroke-width: 1.5; stroke-linecap: square"/>
   </g>
   <g id="patch_3">
    <path d="M 108 512.64 
L 108 69.12 
" style="fill: none; stroke: #000000; stroke-width: 0.8; stroke-linejoin: miter; stroke-linecap: square"/>
   </g>
   <g id="patch_4">
    <path d="M 777.6 512.64 
L 777.6 69.12 
" style="fill: none; stroke: #000000; stroke-width: 0.8; stroke-linejoin: miter; stroke-linecap: square"/>
   </g>
   <g id="patch_5">
    <path d="M 108 512.64 
L 777.6 512.64 
" style="fill: none; stroke: #000000; stroke-width: 0.8; stroke-linejoin: miter; stroke-linecap: square"/>
   </g>
   <g id="patch_6">
    <path d="M 108 69.12 
L 777.6 69.12 
" style="fill: none; stroke: #000000; stroke-width: 0.8; stroke-linejoin: miter; stroke-linecap: square"/>
   </g>
   <g id="text_16">
    <!-- Discriminator loss across training steps -->
    <g transform="translate(253.8075 63.12)scale(0.192 -0.192)">
     <defs>
      <path id="DejaVuSans-44" d="M 1259 4147 
L 1259 519 
L 2022 519 
Q 2988 519 3436 956 
Q 3884 1394 3884 2338 
Q 3884 3275 3436 3711 
Q 2988 4147 2022 4147 
L 1259 4147 
z
M 628 4666 
L 1925 4666 
Q 3281 4666 3915 4102 
Q 4550 3538 4550 2338 
Q 4550 1131 3912 565 
Q 3275 0 1925 0 
L 628 0 
L 628 4666 
z
" transform="scale(0.015625)"/>
      <path id="DejaVuSans-63" d="M 3122 3366 
L 3122 2828 
Q 2878 2963 2633 3030 
Q 2388 3097 2138 3097 
Q 1578 3097 1268 2742 
Q 959 2388 959 1747 
Q 959 1106 1268 751 
Q 1578 397 2138 397 
Q 2388 397 2633 464 
Q 2878 531 3122 666 
L 3122 134 
Q 2881 22 2623 -34 
Q 2366 -91 2075 -91 
Q 1284 -91 818 406 
Q 353 903 353 1747 
Q 353 2603 823 3093 
Q 1294 3584 2113 3584 
Q 2378 3584 2631 3529 
Q 2884 3475 3122 3366 
z
" transform="scale(0.015625)"/>
      <path id="DejaVuSans-6d" d="M 3328 2828 
Q 3544 3216 3844 3400 
Q 4144 3584 4550 3584 
Q 5097 3584 5394 3201 
Q 5691 2819 5691 2113 
L 5691 0 
L 5113 0 
L 5113 2094 
Q 5113 2597 4934 2840 
Q 4756 3084 4391 3084 
Q 3944 3084 3684 2787 
Q 3425 2491 3425 1978 
L 3425 0 
L 2847 0 
L 2847 2094 
Q 2847 2600 2669 2842 
Q 2491 3084 2119 3084 
Q 1678 3084 1418 2786 
Q 1159 2488 1159 1978 
L 1159 0 
L 581 0 
L 581 3500 
L 1159 3500 
L 1159 2956 
Q 1356 3278 1631 3431 
Q 1906 3584 2284 3584 
Q 2666 3584 2933 3390 
Q 3200 3197 3328 2828 
z
" transform="scale(0.015625)"/>
      <path id="DejaVuSans-6c" d="M 603 4863 
L 1178 4863 
L 1178 0 
L 603 0 
L 603 4863 
z
" transform="scale(0.015625)"/>
     </defs>
     <use xlink:href="#DejaVuSans-44"/>
     <use xlink:href="#DejaVuSans-69" x="77.001953"/>
     <use xlink:href="#DejaVuSans-73" x="104.785156"/>
     <use xlink:href="#DejaVuSans-63" x="156.884766"/>
     <use xlink:href="#DejaVuSans-72" x="211.865234"/>
     <use xlink:href="#DejaVuSans-69" x="252.978516"/>
     <use xlink:href="#DejaVuSans-6d" x="280.761719"/>
     <use xlink:href="#DejaVuSans-69" x="378.173828"/>
     <use xlink:href="#DejaVuSans-6e" x="405.957031"/>
     <use xlink:href="#DejaVuSans-61" x="469.335938"/>
     <use xlink:href="#DejaVuSans-74" x="530.615234"/>
     <use xlink:href="#DejaVuSans-6f" x="569.824219"/>
     <use xlink:href="#DejaVuSans-72" x="631.005859"/>
     <use xlink:href="#DejaVuSans-20" x="672.119141"/>
     <use xlink:href="#DejaVuSans-6c" x="703.90625"/>
     <use xlink:href="#DejaVuSans-6f" x="731.689453"/>
     <use xlink:href="#DejaVuSans-73" x="792.871094"/>
     <use xlink:href="#DejaVuSans-73" x="844.970703"/>
     <use xlink:href="#DejaVuSans-20" x="897.070312"/>
     <use xlink:href="#DejaVuSans-61" x="928.857422"/>
     <use xlink:href="#DejaVuSans-63" x="990.136719"/>
     <use xlink:href="#DejaVuSans-72" x="1045.117188"/>
     <use xlink:href="#DejaVuSans-6f" x="1083.980469"/>
     <use xlink:href="#DejaVuSans-73" x="1145.162109"/>
     <use xlink:href="#DejaVuSans-73" x="1197.261719"/>
     <use xlink:href="#DejaVuSans-20" x="1249.361328"/>
     <use xlink:href="#DejaVuSans-74" x="1281.148438"/>
     <use xlink:href="#DejaVuSans-72" x="1320.357422"/>
     <use xlink:href="#DejaVuSans-61" x="1361.470703"/>
     <use xlink:href="#DejaVuSans-69" x="1422.75"/>
     <use xlink:href="#DejaVuSans-6e" x="1450.533203"/>
     <use xlink:href="#DejaVuSans-69" x="1513.912109"/>
     <use xlink:href="#DejaVuSans-6e" x="1541.695312"/>
     <use xlink:href="#DejaVuSans-67" x="1605.074219"/>
     <use xlink:href="#DejaVuSans-20" x="1668.550781"/>
     <use xlink:href="#DejaVuSans-73" x="1700.337891"/>
     <use xlink:href="#DejaVuSans-74" x="1752.4375"/>
     <use xlink:href="#DejaVuSans-65" x="1791.646484"/>
     <use xlink:href="#DejaVuSans-70" x="1853.169922"/>
     <use xlink:href="#DejaVuSans-73" x="1916.646484"/>
    </g>
   </g>
   <g id="legend_1">
    <g id="patch_7">
     <path d="M 119.2 105.405 
L 218.71 105.405 
Q 221.91 105.405 221.91 102.205 
L 221.91 80.32 
Q 221.91 77.12 218.71 77.12 
L 119.2 77.12 
Q 116 77.12 116 80.32 
L 116 102.205 
Q 116 105.405 119.2 105.405 
z
" style="fill: #ffffff; opacity: 0.8; stroke: #cccccc; stroke-linejoin: miter"/>
    </g>
    <g id="line2d_15">
     <path d="M 122.4 90.0775 
L 138.4 90.0775 
L 154.4 90.0775 
" style="fill: none; stroke: #1f77b4; stroke-width: 1.5; stroke-linecap: square"/>
    </g>
    <g id="text_17">
     <!-- D loss -->
     <g transform="translate(167.2 95.6775)scale(0.16 -0.16)">
      <use xlink:href="#DejaVuSans-44"/>
      <use xlink:href="#DejaVuSans-20" x="77.001953"/>
      <use xlink:href="#DejaVuSans-6c" x="108.789062"/>
      <use xlink:href="#DejaVuSans-6f" x="136.572266"/>
      <use xlink:href="#DejaVuSans-73" x="197.753906"/>
      <use xlink:href="#DejaVuSans-73" x="249.853516"/>
     </g>
    </g>
   </g>
  </g>
 </g>
 <defs>
  <clipPath id="p2e4fa2a2eb">
   <rect x="108" y="69.12" width="669.6" height="443.52"/>
  </clipPath>
 </defs>
</svg>
