<?xml version="1.0" encoding="utf-8" standalone="no"?>
<!DOCTYPE svg PUBLIC "-//W3C//DTD SVG 1.1//EN"
  "http://www.w3.org/Graphics/SVG/1.1/DTD/svg11.dtd">
<svg xmlns:xlink="http://www.w3.org/1999/xlink" width="864pt" height="576pt" viewBox="0 0 864 576" xmlns="http://www.w3.org/2000/svg" version="1.1">
 <metadata>
  <rdf:RDF xmlns:dc="http://purl.org/dc/elements/1.1/" xmlns:cc="http://creativecommons.org/ns#" xmlns:rdf="http://www.w3.org/1999/02/22-rdf-syntax-ns#">
   <cc:Work>
    <dc:type rdf:resource="http://purl.org/dc/dcmitype/StillImage"/>
    <dc:date>2022-01-30T07:10:40.979283</dc:date>
    <dc:format>image/svg+xml</dc:format>
    <dc:creator>
     <cc:Agent>
      <dc:title>Matplotlib v3.5.0, https://matplotlib.org/</dc:title>
     </cc:Agent>
    </dc:creator>
   </cc:Work>
  </rdf:RDF>
 </metadata>
 <defs>
  <style type="text/css">*{stroke-linejoin: round; stroke-linecap: butt}</style>
 </defs>
 <g id="figure_1">
  <g id="patch_1">
   <path d="M 0 576 
L 864 576 
L 864 0 
L 0 0 
z
" style="fill: #ffffff"/>
  </g>
  <g id="axes_1">
   <g id="patch_2">
    <path d="M 108 512.64 
L 777.6 512.64 
L 777.6 69.12 
L 108 69.12 
z
" style="fill: #ffffff"/>
   </g>
   <g id="matplotlib.axis_1">
    <g id="xtick_1">
     <g id="line2d_1">
      <defs>
       <path id="mdb132cd0a8" d="M 0 0 
L 0 3.5 
" style="stroke: #000000; stroke-width: 0.8"/>
      </defs>
      <g>
       <use xlink:href="#mdb132cd0a8" x="138.436364" y="512.64" style="stroke: #000000; stroke-width: 0.8"/>
      </g>
     </g>
     <g id="text_1">
      <!-- 0 -->
      <g transform="translate(133.346364 531.7975)scale(0.16 -0.16)">
       <defs>
        <path id="DejaVuSans-30" d="M 2034 4250 
Q 1547 4250 1301 3770 
Q 1056 3291 1056 2328 
Q 1056 1369 1301 889 
Q 1547 409 2034 409 
Q 2525 409 2770 889 
Q 3016 1369 3016 2328 
Q 3016 3291 2770 3770 
Q 2525 4250 2034 4250 
z
M 2034 4750 
Q 2819 4750 3233 4129 
Q 3647 3509 3647 2328 
Q 3647 1150 3233 529 
Q 2819 -91 2034 -91 
Q 1250 -91 836 529 
Q 422 1150 422 2328 
Q 422 3509 836 4129 
Q 1250 4750 2034 4750 
z
" transform="scale(0.015625)"/>
       </defs>
       <use xlink:href="#DejaVuSans-30"/>
      </g>
     </g>
    </g>
    <g id="xtick_2">
     <g id="line2d_2">
      <g>
       <use xlink:href="#mdb132cd0a8" x="262.793314" y="512.64" style="stroke: #000000; stroke-width: 0.8"/>
      </g>
     </g>
     <g id="text_2">
      <!-- 200 -->
      <g transform="translate(247.523314 531.7975)scale(0.16 -0.16)">
       <defs>
        <path id="DejaVuSans-32" d="M 1228 531 
L 3431 531 
L 3431 0 
L 469 0 
L 469 531 
Q 828 903 1448 1529 
Q 2069 2156 2228 2338 
Q 2531 2678 2651 2914 
Q 2772 3150 2772 3378 
Q 2772 3750 2511 3984 
Q 2250 4219 1831 4219 
Q 1534 4219 1204 4116 
Q 875 4013 500 3803 
L 500 4441 
Q 881 4594 1212 4672 
Q 1544 4750 1819 4750 
Q 2544 4750 2975 4387 
Q 3406 4025 3406 3419 
Q 3406 3131 3298 2873 
Q 3191 2616 2906 2266 
Q 2828 2175 2409 1742 
Q 1991 1309 1228 531 
z
" transform="scale(0.015625)"/>
       </defs>
       <use xlink:href="#DejaVuSans-32"/>
       <use xlink:href="#DejaVuSans-30" x="63.623047"/>
       <use xlink:href="#DejaVuSans-30" x="127.246094"/>
      </g>
     </g>
    </g>
    <g id="xtick_3">
     <g id="line2d_3">
      <g>
       <use xlink:href="#mdb132cd0a8" x="387.150265" y="512.64" style="stroke: #000000; stroke-width: 0.8"/>
      </g>
     </g>
     <g id="text_3">
      <!-- 400 -->
      <g transform="translate(371.880265 531.7975)scale(0.16 -0.16)">
       <defs>
        <path id="DejaVuSans-34" d="M 2419 4116 
L 825 1625 
L 2419 1625 
L 2419 4116 
z
M 2253 4666 
L 3047 4666 
L 3047 1625 
L 3713 1625 
L 3713 1100 
L 3047 1100 
L 3047 0 
L 2419 0 
L 2419 1100 
L 313 1100 
L 313 1709 
L 2253 4666 
z
" transform="scale(0.015625)"/>
       </defs>
       <use xlink:href="#DejaVuSans-34"/>
       <use xlink:href="#DejaVuSans-30" x="63.623047"/>
       <use xlink:href="#DejaVuSans-30" x="127.246094"/>
      </g>
     </g>
    </g>
    <g id="xtick_4">
     <g id="line2d_4">
      <g>
       <use xlink:href="#mdb132cd0a8" x="511.507215" y="512.64" style="stroke: #000000; stroke-width: 0.8"/>
      </g>
     </g>
     <g id="text_4">
      <!-- 600 -->
      <g transform="translate(496.237215 531.7975)scale(0.16 -0.16)">
       <defs>
        <path id="DejaVuSans-36" d="M 2113 2584 
Q 1688 2584 1439 2293 
Q 1191 2003 1191 1497 
Q 1191 994 1439 701 
Q 1688 409 2113 409 
Q 2538 409 2786 701 
Q 3034 994 3034 1497 
Q 3034 2003 2786 2293 
Q 2538 2584 2113 2584 
z
M 3366 4563 
L 3366 3988 
Q 3128 4100 2886 4159 
Q 2644 4219 2406 4219 
Q 1781 4219 1451 3797 
Q 1122 3375 1075 2522 
Q 1259 2794 1537 2939 
Q 1816 3084 2150 3084 
Q 2853 3084 3261 2657 
Q 3669 2231 3669 1497 
Q 3669 778 3244 343 
Q 2819 -91 2113 -91 
Q 1303 -91 875 529 
Q 447 1150 447 2328 
Q 447 3434 972 4092 
Q 1497 4750 2381 4750 
Q 2619 4750 2861 4703 
Q 3103 4656 3366 4563 
z
" transform="scale(0.015625)"/>
       </defs>
       <use xlink:href="#DejaVuSans-36"/>
       <use xlink:href="#DejaVuSans-30" x="63.623047"/>
       <use xlink:href="#DejaVuSans-30" x="127.246094"/>
      </g>
     </g>
    </g>
    <g id="xtick_5">
     <g id="line2d_5">
      <g>
       <use xlink:href="#mdb132cd0a8" x="635.864166" y="512.64" style="stroke: #000000; stroke-width: 0.8"/>
      </g>
     </g>
     <g id="text_5">
      <!-- 800 -->
      <g transform="translate(620.594166 531.7975)scale(0.16 -0.16)">
       <defs>
        <path id="DejaVuSans-38" d="M 2034 2216 
Q 1584 2216 1326 1975 
Q 1069 1734 1069 1313 
Q 1069 891 1326 650 
Q 1584 409 2034 409 
Q 2484 409 2743 651 
Q 3003 894 3003 1313 
Q 3003 1734 2745 1975 
Q 2488 2216 2034 2216 
z
M 1403 2484 
Q 997 2584 770 2862 
Q 544 3141 544 3541 
Q 544 4100 942 4425 
Q 1341 4750 2034 4750 
Q 2731 4750 3128 4425 
Q 3525 4100 3525 3541 
Q 3525 3141 3298 2862 
Q 3072 2584 2669 2484 
Q 3125 2378 3379 2068 
Q 3634 1759 3634 1313 
Q 3634 634 3220 271 
Q 2806 -91 2034 -91 
Q 1263 -91 848 271 
Q 434 634 434 1313 
Q 434 1759 690 2068 
Q 947 2378 1403 2484 
z
M 1172 3481 
Q 1172 3119 1398 2916 
Q 1625 2713 2034 2713 
Q 2441 2713 2670 2916 
Q 2900 3119 2900 3481 
Q 2900 3844 2670 4047 
Q 2441 4250 2034 4250 
Q 1625 4250 1398 4047 
Q 1172 3844 1172 3481 
z
" transform="scale(0.015625)"/>
       </defs>
       <use xlink:href="#DejaVuSans-38"/>
       <use xlink:href="#DejaVuSans-30" x="63.623047"/>
       <use xlink:href="#DejaVuSans-30" x="127.246094"/>
      </g>
     </g>
    </g>
    <g id="xtick_6">
     <g id="line2d_6">
      <g>
       <use xlink:href="#mdb132cd0a8" x="760.221116" y="512.64" style="stroke: #000000; stroke-width: 0.8"/>
      </g>
     </g>
     <g id="text_6">
      <!-- 1000 -->
      <g transform="translate(739.861116 531.7975)scale(0.16 -0.16)">
       <defs>
        <path id="DejaVuSans-31" d="M 794 531 
L 1825 531 
L 1825 4091 
L 703 3866 
L 703 4441 
L 1819 4666 
L 2450 4666 
L 2450 531 
L 3481 531 
L 3481 0 
L 794 0 
L 794 531 
z
" transform="scale(0.015625)"/>
       </defs>
       <use xlink:href="#DejaVuSans-31"/>
       <use xlink:href="#DejaVuSans-30" x="63.623047"/>
       <use xlink:href="#DejaVuSans-30" x="127.246094"/>
       <use xlink:href="#DejaVuSans-30" x="190.869141"/>
      </g>
     </g>
    </g>
    <g id="text_7">
     <!-- Training steps -->
     <g transform="translate(387.22375 551.2825)scale(0.16 -0.16)">
      <defs>
       <path id="DejaVuSans-54" d="M -19 4666 
L 3928 4666 
L 3928 4134 
L 2272 4134 
L 2272 0 
L 1638 0 
L 1638 4134 
L -19 4134 
L -19 4666 
z
" transform="scale(0.015625)"/>
       <path id="DejaVuSans-72" d="M 2631 2963 
Q 2534 3019 2420 3045 
Q 2306 3072 2169 3072 
Q 1681 3072 1420 2755 
Q 1159 2438 1159 1844 
L 1159 0 
L 581 0 
L 581 3500 
L 1159 3500 
L 1159 2956 
Q 1341 3275 1631 3429 
Q 1922 3584 2338 3584 
Q 2397 3584 2469 3576 
Q 2541 3569 2628 3553 
L 2631 2963 
z
" transform="scale(0.015625)"/>
       <path id="DejaVuSans-61" d="M 2194 1759 
Q 1497 1759 1228 1600 
Q 959 1441 959 1056 
Q 959 750 1161 570 
Q 1363 391 1709 391 
Q 2188 391 2477 730 
Q 2766 1069 2766 1631 
L 2766 1759 
L 2194 1759 
z
M 3341 1997 
L 3341 0 
L 2766 0 
L 2766 531 
Q 2569 213 2275 61 
Q 1981 -91 1556 -91 
Q 1019 -91 701 211 
Q 384 513 384 1019 
Q 384 1609 779 1909 
Q 1175 2209 1959 2209 
L 2766 2209 
L 2766 2266 
Q 2766 2663 2505 2880 
Q 2244 3097 1772 3097 
Q 1472 3097 1187 3025 
Q 903 2953 641 2809 
L 641 3341 
Q 956 3463 1253 3523 
Q 1550 3584 1831 3584 
Q 2591 3584 2966 3190 
Q 3341 2797 3341 1997 
z
" transform="scale(0.015625)"/>
       <path id="DejaVuSans-69" d="M 603 3500 
L 1178 3500 
L 1178 0 
L 603 0 
L 603 3500 
z
M 603 4863 
L 1178 4863 
L 1178 4134 
L 603 4134 
L 603 4863 
z
" transform="scale(0.015625)"/>
       <path id="DejaVuSans-6e" d="M 3513 2113 
L 3513 0 
L 2938 0 
L 2938 2094 
Q 2938 2591 2744 2837 
Q 2550 3084 2163 3084 
Q 1697 3084 1428 2787 
Q 1159 2491 1159 1978 
L 1159 0 
L 581 0 
L 581 3500 
L 1159 3500 
L 1159 2956 
Q 1366 3272 1645 3428 
Q 1925 3584 2291 3584 
Q 2894 3584 3203 3211 
Q 3513 2838 3513 2113 
z
" transform="scale(0.015625)"/>
       <path id="DejaVuSans-67" d="M 2906 1791 
Q 2906 2416 2648 2759 
Q 2391 3103 1925 3103 
Q 1463 3103 1205 2759 
Q 947 2416 947 1791 
Q 947 1169 1205 825 
Q 1463 481 1925 481 
Q 2391 481 2648 825 
Q 2906 1169 2906 1791 
z
M 3481 434 
Q 3481 -459 3084 -895 
Q 2688 -1331 1869 -1331 
Q 1566 -1331 1297 -1286 
Q 1028 -1241 775 -1147 
L 775 -588 
Q 1028 -725 1275 -790 
Q 1522 -856 1778 -856 
Q 2344 -856 2625 -561 
Q 2906 -266 2906 331 
L 2906 616 
Q 2728 306 2450 153 
Q 2172 0 1784 0 
Q 1141 0 747 490 
Q 353 981 353 1791 
Q 353 2603 747 3093 
Q 1141 3584 1784 3584 
Q 2172 3584 2450 3431 
Q 2728 3278 2906 2969 
L 2906 3500 
L 3481 3500 
L 3481 434 
z
" transform="scale(0.015625)"/>
       <path id="DejaVuSans-20" transform="scale(0.015625)"/>
       <path id="DejaVuSans-73" d="M 2834 3397 
L 2834 2853 
Q 2591 2978 2328 3040 
Q 2066 3103 1784 3103 
Q 1356 3103 1142 2972 
Q 928 2841 928 2578 
Q 928 2378 1081 2264 
Q 1234 2150 1697 2047 
L 1894 2003 
Q 2506 1872 2764 1633 
Q 3022 1394 3022 966 
Q 3022 478 2636 193 
Q 2250 -91 1575 -91 
Q 1294 -91 989 -36 
Q 684 19 347 128 
L 347 722 
Q 666 556 975 473 
Q 1284 391 1588 391 
Q 1994 391 2212 530 
Q 2431 669 2431 922 
Q 2431 1156 2273 1281 
Q 2116 1406 1581 1522 
L 1381 1569 
Q 847 1681 609 1914 
Q 372 2147 372 2553 
Q 372 3047 722 3315 
Q 1072 3584 1716 3584 
Q 2034 3584 2315 3537 
Q 2597 3491 2834 3397 
z
" transform="scale(0.015625)"/>
       <path id="DejaVuSans-74" d="M 1172 4494 
L 1172 3500 
L 2356 3500 
L 2356 3053 
L 1172 3053 
L 1172 1153 
Q 1172 725 1289 603 
Q 1406 481 1766 481 
L 2356 481 
L 2356 0 
L 1766 0 
Q 1100 0 847 248 
Q 594 497 594 1153 
L 594 3053 
L 172 3053 
L 172 3500 
L 594 3500 
L 594 4494 
L 1172 4494 
z
" transform="scale(0.015625)"/>
       <path id="DejaVuSans-65" d="M 3597 1894 
L 3597 1613 
L 953 1613 
Q 991 1019 1311 708 
Q 1631 397 2203 397 
Q 2534 397 2845 478 
Q 3156 559 3463 722 
L 3463 178 
Q 3153 47 2828 -22 
Q 2503 -91 2169 -91 
Q 1331 -91 842 396 
Q 353 884 353 1716 
Q 353 2575 817 3079 
Q 1281 3584 2069 3584 
Q 2775 3584 3186 3129 
Q 3597 2675 3597 1894 
z
M 3022 2063 
Q 3016 2534 2758 2815 
Q 2500 3097 2075 3097 
Q 1594 3097 1305 2825 
Q 1016 2553 972 2059 
L 3022 2063 
z
" transform="scale(0.015625)"/>
       <path id="DejaVuSans-70" d="M 1159 525 
L 1159 -1331 
L 581 -1331 
L 581 3500 
L 1159 3500 
L 1159 2969 
Q 1341 3281 1617 3432 
Q 1894 3584 2278 3584 
Q 2916 3584 3314 3078 
Q 3713 2572 3713 1747 
Q 3713 922 3314 415 
Q 2916 -91 2278 -91 
Q 1894 -91 1617 61 
Q 1341 213 1159 525 
z
M 3116 1747 
Q 3116 2381 2855 2742 
Q 2594 3103 2138 3103 
Q 1681 3103 1420 2742 
Q 1159 2381 1159 1747 
Q 1159 1113 1420 752 
Q 1681 391 2138 391 
Q 2594 391 2855 752 
Q 3116 1113 3116 1747 
z
" transform="scale(0.015625)"/>
      </defs>
      <use xlink:href="#DejaVuSans-54"/>
      <use xlink:href="#DejaVuSans-72" x="46.333984"/>
      <use xlink:href="#DejaVuSans-61" x="87.447266"/>
      <use xlink:href="#DejaVuSans-69" x="148.726562"/>
      <use xlink:href="#DejaVuSans-6e" x="176.509766"/>
      <use xlink:href="#DejaVuSans-69" x="239.888672"/>
      <use xlink:href="#DejaVuSans-6e" x="267.671875"/>
      <use xlink:href="#DejaVuSans-67" x="331.050781"/>
      <use xlink:href="#DejaVuSans-20" x="394.527344"/>
      <use xlink:href="#DejaVuSans-73" x="426.314453"/>
      <use xlink:href="#DejaVuSans-74" x="478.414062"/>
      <use xlink:href="#DejaVuSans-65" x="517.623047"/>
      <use xlink:href="#DejaVuSans-70" x="579.146484"/>
      <use xlink:href="#DejaVuSans-73" x="642.623047"/>
     </g>
    </g>
   </g>
   <g id="matplotlib.axis_2">
    <g id="ytick_1">
     <g id="line2d_7">
      <defs>
       <path id="m8eb1827c64" d="M 0 0 
L -3.5 0 
" style="stroke: #000000; stroke-width: 0.8"/>
      </defs>
      <g>
       <use xlink:href="#m8eb1827c64" x="108" y="449.991522" style="stroke: #000000; stroke-width: 0.8"/>
      </g>
     </g>
     <g id="text_8">
      <!-- 1.2 -->
      <g transform="translate(75.555 456.070272)scale(0.16 -0.16)">
       <defs>
        <path id="DejaVuSans-2e" d="M 684 794 
L 1344 794 
L 1344 0 
L 684 0 
L 684 794 
z
" transform="scale(0.015625)"/>
       </defs>
       <use xlink:href="#DejaVuSans-31"/>
       <use xlink:href="#DejaVuSans-2e" x="63.623047"/>
       <use xlink:href="#DejaVuSans-32" x="95.410156"/>
      </g>
     </g>
    </g>
    <g id="ytick_2">
     <g id="line2d_8">
      <g>
       <use xlink:href="#m8eb1827c64" x="108" y="359.128896" style="stroke: #000000; stroke-width: 0.8"/>
      </g>
     </g>
     <g id="text_9">
      <!-- 1.3 -->
      <g transform="translate(75.555 365.207646)scale(0.16 -0.16)">
       <defs>
        <path id="DejaVuSans-33" d="M 2597 2516 
Q 3050 2419 3304 2112 
Q 3559 1806 3559 1356 
Q 3559 666 3084 287 
Q 2609 -91 1734 -91 
Q 1441 -91 1130 -33 
Q 819 25 488 141 
L 488 750 
Q 750 597 1062 519 
Q 1375 441 1716 441 
Q 2309 441 2620 675 
Q 2931 909 2931 1356 
Q 2931 1769 2642 2001 
Q 2353 2234 1838 2234 
L 1294 2234 
L 1294 2753 
L 1863 2753 
Q 2328 2753 2575 2939 
Q 2822 3125 2822 3475 
Q 2822 3834 2567 4026 
Q 2313 4219 1838 4219 
Q 1578 4219 1281 4162 
Q 984 4106 628 3988 
L 628 4550 
Q 988 4650 1302 4700 
Q 1616 4750 1894 4750 
Q 2613 4750 3031 4423 
Q 3450 4097 3450 3541 
Q 3450 3153 3228 2886 
Q 3006 2619 2597 2516 
z
" transform="scale(0.015625)"/>
       </defs>
       <use xlink:href="#DejaVuSans-31"/>
       <use xlink:href="#DejaVuSans-2e" x="63.623047"/>
       <use xlink:href="#DejaVuSans-33" x="95.410156"/>
      </g>
     </g>
    </g>
    <g id="ytick_3">
     <g id="line2d_9">
      <g>
       <use xlink:href="#m8eb1827c64" x="108" y="268.26627" style="stroke: #000000; stroke-width: 0.8"/>
      </g>
     </g>
     <g id="text_10">
      <!-- 1.4 -->
      <g transform="translate(75.555 274.34502)scale(0.16 -0.16)">
       <use xlink:href="#DejaVuSans-31"/>
       <use xlink:href="#DejaVuSans-2e" x="63.623047"/>
       <use xlink:href="#DejaVuSans-34" x="95.410156"/>
      </g>
     </g>
    </g>
    <g id="ytick_4">
     <g id="line2d_10">
      <g>
       <use xlink:href="#m8eb1827c64" x="108" y="177.403644" style="stroke: #000000; stroke-width: 0.8"/>
      </g>
     </g>
     <g id="text_11">
      <!-- 1.5 -->
      <g transform="translate(75.555 183.482394)scale(0.16 -0.16)">
       <defs>
        <path id="DejaVuSans-35" d="M 691 4666 
L 3169 4666 
L 3169 4134 
L 1269 4134 
L 1269 2991 
Q 1406 3038 1543 3061 
Q 1681 3084 1819 3084 
Q 2600 3084 3056 2656 
Q 3513 2228 3513 1497 
Q 3513 744 3044 326 
Q 2575 -91 1722 -91 
Q 1428 -91 1123 -41 
Q 819 9 494 109 
L 494 744 
Q 775 591 1075 516 
Q 1375 441 1709 441 
Q 2250 441 2565 725 
Q 2881 1009 2881 1497 
Q 2881 1984 2565 2268 
Q 2250 2553 1709 2553 
Q 1456 2553 1204 2497 
Q 953 2441 691 2322 
L 691 4666 
z
" transform="scale(0.015625)"/>
       </defs>
       <use xlink:href="#DejaVuSans-31"/>
       <use xlink:href="#DejaVuSans-2e" x="63.623047"/>
       <use xlink:href="#DejaVuSans-35" x="95.410156"/>
      </g>
     </g>
    </g>
    <g id="ytick_5">
     <g id="line2d_11">
      <g>
       <use xlink:href="#m8eb1827c64" x="108" y="86.541017" style="stroke: #000000; stroke-width: 0.8"/>
      </g>
     </g>
     <g id="text_12">
      <!-- 1.6 -->
      <g transform="translate(75.555 92.619767)scale(0.16 -0.16)">
       <use xlink:href="#DejaVuSans-31"/>
       <use xlink:href="#DejaVuSans-2e" x="63.623047"/>
       <use xlink:href="#DejaVuSans-36" x="95.410156"/>
      </g>
     </g>
    </g>
    <g id="text_13">
     <!-- Loss -->
     <g transform="translate(68.2275 308.4275)rotate(-90)scale(0.16 -0.16)">
      <defs>
       <path id="DejaVuSans-4c" d="M 628 4666 
L 1259 4666 
L 1259 531 
L 3531 531 
L 3531 0 
L 628 0 
L 628 4666 
z
" transform="scale(0.015625)"/>
       <path id="DejaVuSans-6f" d="M 1959 3097 
Q 1497 3097 1228 2736 
Q 959 2375 959 1747 
Q 959 1119 1226 758 
Q 1494 397 1959 397 
Q 2419 397 2687 759 
Q 2956 1122 2956 1747 
Q 2956 2369 2687 2733 
Q 2419 3097 1959 3097 
z
M 1959 3584 
Q 2709 3584 3137 3096 
Q 3566 2609 3566 1747 
Q 3566 888 3137 398 
Q 2709 -91 1959 -91 
Q 1206 -91 779 398 
Q 353 888 353 1747 
Q 353 2609 779 3096 
Q 1206 3584 1959 3584 
z
" transform="scale(0.015625)"/>
      </defs>
      <use xlink:href="#DejaVuSans-4c"/>
      <use xlink:href="#DejaVuSans-6f" x="53.962891"/>
      <use xlink:href="#DejaVuSans-73" x="115.144531"/>
      <use xlink:href="#DejaVuSans-73" x="167.244141"/>
     </g>
    </g>
   </g>
   <g id="line2d_12">
    <path d="M 138.436364 229.18877 
L 139.679933 298.552721 
L 140.301718 242.633688 
L 140.923503 240.0069 
L 141.545287 231.864193 
L 142.167072 241.540339 
L 142.788857 241.005363 
L 143.410642 281.2774 
L 144.032426 313.284116 
L 144.654211 298.675227 
L 145.275996 309.698834 
L 145.897781 271.845833 
L 146.519565 295.39399 
L 147.14135 303.596271 
L 147.763135 291.954393 
L 148.38492 298.391004 
L 149.006704 286.731579 
L 149.628489 292.155646 
L 150.250274 329.343582 
L 150.872059 349.789657 
L 151.493843 314.2542 
L 152.115628 317.525581 
L 152.737413 269.959606 
L 153.359198 265.11785 
L 154.602767 285.381736 
L 155.224552 304.09312 
L 155.846337 274.382068 
L 156.468121 264.824962 
L 157.089906 296.472499 
L 157.711691 299.019458 
L 158.333476 272.379726 
L 158.95526 335.329271 
L 159.577045 311.517904 
L 160.19883 313.616323 
L 160.820615 290.537828 
L 161.442399 319.275545 
L 162.064184 355.941937 
L 162.685969 313.030005 
L 163.307754 301.498935 
L 163.929538 261.837046 
L 165.173108 205.792148 
L 165.794893 206.328208 
L 166.416678 256.543067 
L 167.660247 228.128566 
L 168.282032 204.280806 
L 168.903817 246.006886 
L 169.525601 264.37783 
L 170.147386 251.022166 
L 171.390956 281.915169 
L 172.01274 289.774195 
L 172.634525 309.124538 
L 173.25631 256.496708 
L 173.878095 288.381242 
L 174.499879 268.095259 
L 175.121664 259.507479 
L 175.743449 268.017271 
L 176.365234 240.012207 
L 176.987018 271.385595 
L 177.608803 273.156465 
L 178.230588 289.410576 
L 178.852373 299.536128 
L 179.474157 262.738999 
L 180.095942 289.218205 
L 180.717727 330.864998 
L 181.339512 290.213744 
L 181.961296 287.217704 
L 182.583081 257.822179 
L 183.204866 277.26405 
L 183.826651 259.113422 
L 184.448435 286.960885 
L 185.692005 259.285429 
L 186.31379 281.862419 
L 186.935574 285.787491 
L 187.557359 260.863604 
L 188.179144 311.968285 
L 188.800929 279.014881 
L 189.422713 265.09857 
L 190.666283 319.25529 
L 191.288068 257.421949 
L 191.909852 301.252948 
L 192.531637 277.985331 
L 193.153422 280.978121 
L 193.775207 342.637289 
L 194.396991 335.450044 
L 195.018776 301.787058 
L 195.640561 357.161258 
L 196.262346 356.153804 
L 196.88413 371.022003 
L 197.505915 371.498272 
L 198.1277 347.757853 
L 198.749485 263.777972 
L 199.371269 209.220047 
L 199.993054 227.646232 
L 200.614839 183.344814 
L 201.236624 202.305434 
L 201.858408 202.124762 
L 202.480193 181.958794 
L 203.101978 235.473738 
L 203.723763 160.037662 
L 204.345547 161.294569 
L 204.967332 218.795784 
L 205.589117 154.975589 
L 206.210902 182.387294 
L 206.832686 216.265181 
L 207.454471 190.979191 
L 208.076256 215.4332 
L 208.698041 232.310241 
L 209.319825 229.4262 
L 209.94161 247.290764 
L 210.563395 247.231731 
L 211.18518 249.616757 
L 211.806964 257.869297 
L 212.428749 246.052596 
L 213.050534 238.140387 
L 213.672319 241.588865 
L 214.294103 217.769483 
L 214.915888 241.061579 
L 215.537673 206.030878 
L 216.159458 257.359125 
L 216.781242 269.452792 
L 217.403027 201.456989 
L 218.024812 200.80514 
L 218.646597 219.945024 
L 219.268381 207.810305 
L 219.890166 227.365584 
L 220.511951 259.592616 
L 221.133736 230.403975 
L 221.75552 266.47495 
L 222.377305 241.045332 
L 222.99909 282.582183 
L 223.620875 238.221299 
L 224.242659 159.185426 
L 224.864444 140.259034 
L 225.486229 109.480846 
L 226.108014 115.568678 
L 226.729798 130.347082 
L 227.351583 197.295354 
L 227.973368 171.348091 
L 228.595153 234.588141 
L 229.216938 208.320693 
L 229.838722 198.686573 
L 230.460507 267.296207 
L 231.082292 256.451215 
L 231.704077 289.462893 
L 232.325861 279.530685 
L 232.947646 327.721106 
L 233.569431 306.797138 
L 234.191216 310.237168 
L 234.813 317.972929 
L 235.434785 323.930022 
L 236.05657 286.694101 
L 236.678355 291.382373 
L 237.300139 318.068031 
L 237.921924 242.298339 
L 238.543709 227.721946 
L 239.165494 223.223337 
L 239.787278 240.559532 
L 240.409063 261.735336 
L 241.030848 255.318114 
L 241.652633 254.632469 
L 242.274417 233.062608 
L 242.896202 241.584966 
L 243.517987 254.905752 
L 244.139772 274.371237 
L 244.761556 233.265594 
L 245.383341 220.161874 
L 246.005126 220.330415 
L 246.626911 199.882606 
L 247.248695 258.647227 
L 247.87048 289.359992 
L 248.492265 265.681963 
L 249.11405 303.252582 
L 249.735834 317.842191 
L 250.357619 301.772651 
L 250.979404 266.59009 
L 251.601189 275.303627 
L 252.222973 290.840464 
L 252.844758 258.438609 
L 253.466543 200.240918 
L 254.088328 218.95111 
L 254.710112 208.421536 
L 255.331897 206.941822 
L 255.953682 204.910451 
L 257.197251 258.550176 
L 257.819036 207.662778 
L 258.440821 227.596515 
L 259.062606 219.230567 
L 259.68439 263.480751 
L 260.92796 191.758638 
L 261.549745 212.500959 
L 262.171529 199.707133 
L 262.793314 198.247783 
L 263.415099 209.611612 
L 264.036884 196.537029 
L 264.658668 206.713598 
L 265.280453 231.558306 
L 265.902238 217.721932 
L 266.524023 228.502801 
L 267.145807 233.675573 
L 267.767592 231.344489 
L 268.389377 241.343528 
L 269.011162 253.576165 
L 269.632946 206.982007 
L 270.254731 215.150277 
L 270.876516 225.69729 
L 271.498301 227.220114 
L 272.120085 220.762923 
L 272.74187 234.734585 
L 273.363655 236.988222 
L 273.98544 223.364798 
L 274.607224 233.616107 
L 275.229009 236.052149 
L 275.850794 231.673988 
L 276.472579 252.180721 
L 277.094363 257.636958 
L 277.716148 238.910843 
L 278.337933 250.743358 
L 278.959718 245.74346 
L 279.581502 263.584735 
L 280.203287 252.566762 
L 280.825072 274.371778 
L 281.446857 264.804598 
L 282.068641 248.61721 
L 282.690426 259.070854 
L 283.312211 272.526712 
L 283.933996 280.338511 
L 284.55578 266.065621 
L 285.177565 268.301819 
L 285.79935 273.221455 
L 286.421135 312.924288 
L 287.042919 315.044696 
L 287.664704 284.260009 
L 288.286489 276.582522 
L 288.908274 290.460273 
L 289.530059 257.568068 
L 290.151843 261.901494 
L 290.773628 271.38527 
L 291.395413 268.463319 
L 292.017198 232.088191 
L 292.638982 258.007942 
L 293.260767 228.727233 
L 293.882552 245.293079 
L 294.504337 266.434764 
L 295.126121 264.560669 
L 295.747906 263.126773 
L 296.369691 285.307215 
L 297.61326 227.887454 
L 298.235045 221.4568 
L 298.85683 220.440898 
L 299.478615 239.965198 
L 300.100399 213.586076 
L 300.722184 225.127978 
L 301.343969 227.347387 
L 301.965754 239.481889 
L 302.587538 236.250369 
L 303.209323 256.468112 
L 303.831108 241.280162 
L 304.452893 230.851323 
L 305.074677 246.438203 
L 305.696462 243.57626 
L 306.318247 228.480812 
L 306.940032 240.905495 
L 307.561816 241.655263 
L 308.183601 231.401247 
L 308.805386 244.409648 
L 309.427171 245.543941 
L 310.048955 242.533603 
L 310.67074 252.659806 
L 311.292525 272.867043 
L 311.91431 253.201389 
L 312.536094 248.288469 
L 313.157879 267.957914 
L 313.779664 265.934991 
L 314.401449 258.03383 
L 315.023233 268.9111 
L 315.645018 265.921235 
L 316.266803 285.570857 
L 316.888588 290.495151 
L 318.132157 311.420419 
L 318.753942 303.661045 
L 319.375727 303.860022 
L 319.997511 310.529623 
L 320.619296 313.895889 
L 321.241081 261.184438 
L 321.862866 285.230093 
L 322.48465 259.119055 
L 323.106435 269.364081 
L 323.72822 223.882552 
L 324.350005 217.339033 
L 324.971789 225.817955 
L 325.593574 230.411991 
L 326.215359 261.307702 
L 326.837144 233.420812 
L 327.458928 223.086858 
L 328.080713 239.398377 
L 328.702498 280.489072 
L 329.324283 302.604307 
L 329.946067 304.214326 
L 330.567852 290.032314 
L 331.189637 305.050748 
L 331.811422 335.963681 
L 332.433206 337.031684 
L 333.054991 363.412647 
L 333.676776 320.25202 
L 334.298561 290.948564 
L 334.920345 297.608525 
L 335.54213 256.41937 
L 336.163915 260.939209 
L 336.7857 260.239699 
L 337.407484 249.775007 
L 338.029269 270.169524 
L 338.651054 273.036017 
L 339.272839 252.595682 
L 339.894623 282.800008 
L 340.516408 270.245887 
L 341.138193 283.482078 
L 341.759978 265.141571 
L 342.381762 260.115677 
L 343.003547 228.091631 
L 343.625332 247.802235 
L 344.247117 284.498306 
L 344.868901 256.336832 
L 345.490686 262.932777 
L 346.112471 238.066731 
L 346.734256 261.691576 
L 347.35604 238.695076 
L 349.221395 253.154055 
L 349.843179 276.629531 
L 350.464964 252.917924 
L 351.086749 239.829152 
L 351.708534 248.308833 
L 352.330319 300.873839 
L 352.952103 296.582982 
L 353.573888 299.625923 
L 354.195673 305.946093 
L 354.817458 293.516537 
L 355.439242 312.314465 
L 356.061027 289.216581 
L 356.682812 280.39332 
L 357.304597 311.233031 
L 357.926381 292.891116 
L 358.548166 284.415227 
L 359.169951 250.825896 
L 359.791736 277.403237 
L 360.41352 261.157467 
L 361.035305 265.399907 
L 361.65709 248.822687 
L 362.278875 269.130117 
L 362.900659 270.521336 
L 363.522444 245.818199 
L 364.144229 242.040329 
L 364.766014 246.323821 
L 365.387798 211.925473 
L 366.009583 226.024623 
L 366.631368 219.862703 
L 367.253153 237.810562 
L 367.874937 213.575786 
L 368.496722 235.939066 
L 369.118507 248.194342 
L 369.740292 245.723313 
L 370.362076 250.134619 
L 370.983861 282.798708 
L 371.605646 289.327714 
L 372.227431 236.60933 
L 372.849215 247.306037 
L 373.471 262.450335 
L 374.092785 229.934531 
L 374.71457 232.495246 
L 375.336354 249.21436 
L 375.958139 233.652068 
L 376.579924 256.585528 
L 377.201709 220.049225 
L 377.823493 240.292206 
L 379.067063 247.725006 
L 379.688848 257.849367 
L 380.310632 286.300804 
L 380.932417 280.390937 
L 381.554202 303.086966 
L 382.175987 290.301697 
L 382.797771 267.709977 
L 383.419556 297.5483 
L 384.041341 277.832063 
L 384.663126 326.524423 
L 385.28491 294.90494 
L 385.906695 310.444052 
L 386.52848 295.915101 
L 387.150265 311.785013 
L 387.772049 337.069378 
L 388.393834 306.819776 
L 389.015619 299.516523 
L 389.637404 307.918649 
L 390.259188 259.951144 
L 390.880973 263.964277 
L 391.502758 281.420378 
L 392.124543 278.753405 
L 392.746327 271.764379 
L 393.368112 320.284082 
L 393.989897 330.602655 
L 394.611682 323.456786 
L 395.233466 340.868586 
L 396.477036 384.567114 
L 397.098821 339.94172 
L 397.720605 393.557616 
L 398.34239 381.151239 
L 398.964175 385.446212 
L 399.58596 378.060422 
L 400.207744 405.770648 
L 400.829529 409.285741 
L 401.451314 429.674516 
L 402.073099 392.296484 
L 402.694883 368.68767 
L 403.316668 356.225402 
L 403.938453 350.01084 
L 404.560238 323.097608 
L 405.182022 256.856103 
L 405.803807 288.903545 
L 406.425592 310.239984 
L 407.047377 273.299335 
L 407.669161 284.288604 
L 408.290946 314.85135 
L 408.912731 292.870644 
L 409.534516 374.898766 
L 410.1563 369.003955 
L 410.778085 360.61981 
L 411.39987 390.105454 
L 412.021655 373.039618 
L 412.64344 390.572624 
L 413.265224 363.767493 
L 413.887009 367.779326 
L 414.508794 338.360946 
L 415.130579 381.68524 
L 416.374148 331.275518 
L 416.995933 263.131322 
L 417.617718 235.039171 
L 418.239502 312.956025 
L 418.861287 265.977559 
L 419.483072 228.594328 
L 420.104857 266.392954 
L 420.726641 231.088645 
L 421.348426 217.999873 
L 421.970211 291.18177 
L 422.591996 242.625889 
L 423.21378 263.048243 
L 423.835565 261.368468 
L 424.45735 261.772814 
L 426.322704 327.680487 
L 426.944489 270.113199 
L 427.566274 362.83976 
L 428.188058 259.343595 
L 428.809843 340.227568 
L 429.431628 315.019024 
L 430.053413 340.101054 
L 430.675197 299.737164 
L 431.296982 283.188323 
L 431.918767 335.112204 
L 433.162336 294.096681 
L 433.784121 253.111161 
L 434.405906 236.306693 
L 435.027691 255.37758 
L 435.649475 231.748619 
L 436.27126 318.710999 
L 436.893045 277.401938 
L 437.51483 283.255913 
L 438.136614 258.664233 
L 438.758399 334.748585 
L 439.380184 301.772435 
L 440.001969 346.241202 
L 440.623753 299.09008 
L 441.245538 289.532215 
L 442.489108 317.784566 
L 443.110892 363.328594 
L 443.732677 329.266677 
L 444.354462 358.808105 
L 444.976247 332.380349 
L 445.598031 349.350108 
L 446.219816 414.857985 
L 446.841601 390.735858 
L 447.463386 341.865425 
L 448.08517 327.095902 
L 448.706955 352.383192 
L 449.32874 346.891536 
L 449.950525 366.21415 
L 450.572309 377.613074 
L 451.194094 353.790876 
L 451.815879 352.603291 
L 452.437664 358.01631 
L 453.059448 376.466433 
L 453.681233 366.917775 
L 454.303018 383.751814 
L 454.924803 379.585846 
L 455.546587 403.576368 
L 456.168372 364.379807 
L 456.790157 397.8892 
L 457.411942 326.539479 
L 458.033726 335.835218 
L 458.655511 356.118276 
L 459.277296 310.783192 
L 459.899081 322.953114 
L 460.520865 305.903417 
L 461.14265 312.267239 
L 461.764435 272.393482 
L 462.38622 284.75155 
L 463.008004 345.721391 
L 463.629789 341.538741 
L 464.251574 380.403962 
L 464.873359 381.547786 
L 465.495143 340.644912 
L 466.116928 255.375305 
L 466.738713 284.349045 
L 467.360498 258.913795 
L 467.982282 263.558956 
L 468.604067 296.173653 
L 469.225852 320.014915 
L 469.847637 325.05749 
L 470.469421 295.005025 
L 471.091206 291.793651 
L 471.712991 301.734307 
L 472.334776 320.477861 
L 472.95656 330.069412 
L 473.578345 273.442854 
L 474.20013 322.147671 
L 474.821915 332.072079 
L 475.4437 366.198336 
L 476.065484 315.841906 
L 476.687269 327.993739 
L 477.309054 301.197165 
L 477.930839 252.205634 
L 478.552623 317.951591 
L 479.174408 259.917457 
L 479.796193 283.094305 
L 480.417978 171.052278 
L 481.039762 161.069053 
L 481.661547 217.103769 
L 482.283332 212.570824 
L 482.905117 190.996305 
L 483.526901 183.054959 
L 484.148686 158.9194 
L 484.770471 184.138992 
L 485.392256 239.962165 
L 486.01404 206.883547 
L 486.635825 295.409912 
L 487.25761 301.377729 
L 487.879395 302.476927 
L 488.501179 268.281347 
L 489.122964 281.10626 
L 489.744749 311.115616 
L 490.366534 279.873616 
L 490.988318 279.985182 
L 491.610103 270.180355 
L 492.231888 280.380322 
L 492.853673 315.58043 
L 493.475457 288.377993 
L 494.097242 325.783212 
L 494.719027 323.306226 
L 495.340812 350.761474 
L 495.962596 389.906693 
L 496.584381 407.817616 
L 497.206166 335.012444 
L 497.827951 403.982664 
L 499.07152 338.867977 
L 500.31509 388.477888 
L 500.936874 380.381107 
L 501.558659 413.449759 
L 502.180444 407.510214 
L 502.802229 317.419431 
L 503.424013 355.215457 
L 504.045798 375.589393 
L 504.667583 350.15945 
L 505.911152 250.870739 
L 506.532937 317.537063 
L 507.154722 250.17123 
L 507.776507 298.538098 
L 509.020076 172.61897 
L 509.641861 281.27675 
L 510.263646 286.486567 
L 510.88543 179.023736 
L 511.507215 223.763404 
L 512.129 260.407482 
L 512.750785 209.991911 
L 513.372569 249.565739 
L 513.994354 258.822484 
L 514.616139 252.392372 
L 515.237924 312.16228 
L 515.859708 304.332825 
L 516.481493 282.087068 
L 517.103278 348.403312 
L 517.725063 309.041676 
L 518.346847 327.173782 
L 518.968632 341.236755 
L 519.590417 304.589969 
L 520.212202 375.713741 
L 520.833986 347.749946 
L 521.455771 386.017691 
L 522.077556 396.272249 
L 522.699341 442.500621 
L 523.321125 373.586617 
L 523.94291 381.674841 
L 524.564695 289.560811 
L 525.18648 313.492517 
L 525.808264 274.83624 
L 526.430049 345.843788 
L 527.051834 276.404666 
L 527.673619 153.551442 
L 528.295403 141.458858 
L 528.917188 115.29507 
L 529.538973 163.423317 
L 530.160758 136.599013 
L 530.782542 190.14277 
L 531.404327 231.229457 
L 532.026112 175.055229 
L 532.647897 196.352349 
L 533.269681 187.057044 
L 533.891466 314.118804 
L 534.513251 266.082085 
L 535.135036 174.00954 
L 535.756821 190.740678 
L 536.378605 231.986374 
L 537.00039 370.748179 
L 537.622175 274.674198 
L 538.24396 284.124938 
L 538.865744 244.838582 
L 539.487529 282.470184 
L 540.109314 275.659447 
L 540.731099 335.564643 
L 541.352883 250.243477 
L 541.974668 229.609039 
L 542.596453 215.696843 
L 543.218238 250.416242 
L 543.840022 265.571913 
L 544.461807 287.647505 
L 545.083592 193.598938 
L 545.705377 298.945911 
L 546.327161 249.969544 
L 546.948946 308.847356 
L 547.570731 274.187856 
L 548.192516 374.558543 
L 548.8143 341.364568 
L 549.436085 259.404578 
L 550.05787 299.596786 
L 550.679655 379.283209 
L 551.301439 321.657213 
L 551.923224 369.55832 
L 552.545009 348.999054 
L 553.166794 353.961908 
L 553.788578 347.694379 
L 554.410363 422.677258 
L 555.032148 302.623587 
L 555.653933 340.655636 
L 556.275717 343.943589 
L 556.897502 334.313802 
L 557.519287 374.145315 
L 558.141072 353.377106 
L 558.762856 390.862696 
L 559.384641 368.711175 
L 560.006426 263.690886 
L 560.628211 323.487115 
L 561.249995 371.160973 
L 561.87178 348.809824 
L 562.493565 335.750731 
L 563.11535 344.544096 
L 563.737134 355.501846 
L 564.358919 356.440085 
L 564.980704 359.714282 
L 565.602489 332.228272 
L 566.224273 371.429057 
L 566.846058 372.664193 
L 567.467843 323.399162 
L 568.089628 341.716598 
L 568.711412 407.325209 
L 569.333197 356.610467 
L 569.954982 411.024765 
L 570.576767 340.161711 
L 571.198551 366.918642 
L 571.820336 368.180098 
L 572.442121 355.09815 
L 573.063906 316.086919 
L 573.68569 202.589657 
L 574.307475 295.802452 
L 574.92926 203.268478 
L 575.551045 310.018151 
L 576.172829 237.606927 
L 576.794614 297.547109 
L 577.416399 318.268417 
L 578.038184 311.89398 
L 579.281753 193.274638 
L 579.903538 207.701447 
L 580.525323 162.61744 
L 581.147107 235.206521 
L 581.768892 141.855405 
L 582.390677 221.288692 
L 583.012462 197.369443 
L 583.634246 158.888855 
L 584.256031 135.564805 
L 584.877816 234.076669 
L 585.499601 144.434967 
L 586.121385 195.84521 
L 586.74317 138.726353 
L 587.364955 111.893167 
L 587.98674 169.262344 
L 588.608524 174.560005 
L 589.230309 167.359003 
L 589.852094 147.357568 
L 590.473879 146.86007 
L 591.095663 125.068268 
L 591.717448 155.1255 
L 592.339233 161.464301 
L 592.961018 212.474855 
L 593.582802 249.958279 
L 594.204587 252.019329 
L 594.826372 314.17892 
L 595.448157 236.719597 
L 596.069941 273.365841 
L 596.691726 269.19684 
L 597.313511 291.662805 
L 597.935296 278.014902 
L 598.557081 285.973687 
L 599.178865 309.271308 
L 599.80065 354.404056 
L 600.422435 351.778785 
L 601.04422 374.431704 
L 601.666004 343.15656 
L 602.287789 336.221259 
L 602.909574 386.032314 
L 603.531359 350.164866 
L 604.153143 327.458655 
L 604.774928 332.196319 
L 605.396713 346.972123 
L 606.018498 366.388432 
L 606.640282 315.447634 
L 607.262067 285.687839 
L 607.883852 357.440282 
L 608.505637 330.511019 
L 609.127421 314.770654 
L 609.749206 381.185792 
L 610.370991 312.340244 
L 610.992776 313.250863 
L 611.61456 310.334869 
L 612.236345 292.638955 
L 613.479915 383.549912 
L 614.101699 317.681665 
L 614.723484 334.324525 
L 615.345269 269.656644 
L 615.967054 343.074889 
L 616.588838 340.685423 
L 617.210623 340.81941 
L 617.832408 238.991431 
L 618.454193 250.201992 
L 619.075977 249.083947 
L 619.697762 245.363268 
L 620.319547 127.57385 
L 620.941332 251.953689 
L 621.563116 222.195411 
L 622.184901 211.947353 
L 622.806686 245.447106 
L 623.428471 239.842583 
L 624.67204 210.790205 
L 625.293825 246.960723 
L 625.91561 250.992054 
L 626.537394 276.940183 
L 627.780964 300.353703 
L 628.402749 295.501115 
L 629.024533 285.230418 
L 629.646318 358.030608 
L 630.889888 260.722792 
L 631.511672 324.357981 
L 632.133457 315.136656 
L 632.755242 302.512454 
L 633.998811 376.935336 
L 634.620596 309.470502 
L 635.242381 229.755592 
L 635.864166 230.153872 
L 636.48595 227.912583 
L 637.107735 232.126861 
L 637.72952 170.228746 
L 638.351305 161.016736 
L 638.973089 193.309083 
L 639.594874 199.377526 
L 640.216659 244.626282 
L 641.460228 197.037777 
L 642.082013 247.989948 
L 642.703798 244.649786 
L 643.325583 203.221685 
L 643.947367 240.317552 
L 644.569152 306.459081 
L 645.190937 306.18634 
L 645.812722 310.023134 
L 647.056291 350.463929 
L 647.678076 341.152809 
L 648.299861 363.93755 
L 648.921645 300.512278 
L 649.54343 277.508521 
L 650.165215 278.510775 
L 650.787 278.403975 
L 652.030569 212.436403 
L 652.652354 158.503139 
L 653.274139 150.165679 
L 653.895923 181.981973 
L 654.517708 229.957602 
L 655.139493 157.796264 
L 655.761278 211.401437 
L 656.383062 236.157974 
L 657.004847 271.792108 
L 657.626632 264.044865 
L 658.248417 259.225964 
L 658.870202 303.208606 
L 659.491986 232.055155 
L 660.113771 295.788154 
L 660.735556 336.705867 
L 661.357341 286.672763 
L 661.979125 347.529738 
L 662.60091 286.231589 
L 663.222695 295.093519 
L 663.84448 383.933244 
L 665.088049 347.631122 
L 665.709834 336.290581 
L 666.331619 345.311087 
L 666.953403 366.593692 
L 667.575188 364.375041 
L 668.196973 361.701027 
L 668.818758 392.450836 
L 669.440542 442.016662 
L 670.062327 411.364663 
L 670.684112 409.88939 
L 671.305897 403.624677 
L 671.927681 330.50387 
L 672.549466 297.070082 
L 673.171251 278.843308 
L 673.793036 282.322656 
L 674.41482 254.862642 
L 675.036605 268.892253 
L 675.65839 223.128018 
L 676.280175 347.354265 
L 676.901959 308.017109 
L 677.523744 318.983307 
L 678.145529 307.569002 
L 678.767314 336.117708 
L 679.389098 302.330266 
L 680.010883 288.042319 
L 680.632668 312.959058 
L 681.254453 312.54323 
L 681.876237 262.520849 
L 682.498022 289.425415 
L 683.119807 325.982948 
L 683.741592 282.377031 
L 684.363376 306.481611 
L 684.985161 292.377262 
L 685.606946 338.370153 
L 686.228731 339.399487 
L 686.850515 346.924139 
L 687.4723 327.356404 
L 688.094085 377.618598 
L 688.71587 389.809533 
L 689.337654 405.723313 
L 689.959439 414.245345 
L 690.581224 322.873393 
L 691.203009 399.998993 
L 691.824793 420.63408 
L 692.446578 473.017657 
L 693.068363 435.873589 
L 693.690148 492.48 
L 694.311932 428.252535 
L 694.933717 399.218246 
L 695.555502 387.233221 
L 696.177287 391.57607 
L 696.799071 352.851337 
L 697.420856 361.15966 
L 698.042641 394.905942 
L 698.664426 441.385392 
L 699.28621 438.056279 
L 699.907995 392.067395 
L 700.52978 463.664186 
L 701.151565 435.754766 
L 701.773349 452.116218 
L 702.395134 392.92353 
L 703.016919 345.943115 
L 703.638704 394.828929 
L 704.260488 363.610867 
L 704.882273 465.086276 
L 706.125843 331.558117 
L 706.747627 397.332236 
L 707.369412 370.788147 
L 707.991197 400.638711 
L 708.612982 343.728038 
L 709.234766 329.883866 
L 709.856551 325.349512 
L 710.478336 281.153486 
L 711.100121 204.650599 
L 711.721905 159.892626 
L 712.34369 142.280873 
L 712.965475 242.175725 
L 713.58726 181.927707 
L 714.209044 172.182996 
L 714.830829 142.984499 
L 715.452614 252.833871 
L 716.074399 194.688713 
L 716.696183 160.863468 
L 717.317968 158.698001 
L 717.939753 290.551584 
L 718.561538 234.60038 
L 719.183322 291.041067 
L 719.805107 325.245745 
L 721.048677 278.814279 
L 721.670462 182.492578 
L 722.292246 304.872025 
L 722.914031 250.918182 
L 724.157601 350.875424 
L 724.779385 270.969443 
L 725.40117 294.811029 
L 726.022955 337.639557 
L 726.64474 303.460442 
L 727.266524 262.51305 
L 727.888309 230.92877 
L 728.510094 274.461031 
L 729.131879 248.414441 
L 729.753663 248.92028 
L 730.375448 259.122629 
L 730.997233 310.22417 
L 731.619018 319.92003 
L 732.240802 246.30909 
L 732.862587 234.917857 
L 733.484372 216.186651 
L 734.106157 214.035049 
L 734.727941 89.28 
L 735.349726 266.079485 
L 735.971511 210.805045 
L 736.593296 186.686276 
L 737.21508 302.768298 
L 737.836865 227.50802 
L 738.45865 235.402899 
L 739.080435 269.835908 
L 739.702219 347.523672 
L 740.324004 278.998092 
L 740.945789 290.634663 
L 741.567574 329.176774 
L 742.189358 292.156079 
L 742.811143 374.506876 
L 743.432928 341.746493 
L 744.054713 349.837533 
L 744.676497 392.372523 
L 745.298282 366.579069 
L 745.920067 367.488604 
L 746.541852 406.22157 
L 747.163636 355.487115 
L 747.163636 355.487115 
" clip-path="url(#pf05a5e9acb)" style="fill: none; stroke: #1f77b4; stroke-width: 1.5; stroke-linecap: square"/>
   </g>
   <g id="patch_3">
    <path d="M 108 512.64 
L 108 69.12 
" style="fill: none; stroke: #000000; stroke-width: 0.8; stroke-linejoin: miter; stroke-linecap: square"/>
   </g>
   <g id="patch_4">
    <path d="M 777.6 512.64 
L 777.6 69.12 
" style="fill: none; stroke: #000000; stroke-width: 0.8; stroke-linejoin: miter; stroke-linecap: square"/>
   </g>
   <g id="patch_5">
    <path d="M 108 512.64 
L 777.6 512.64 
" style="fill: none; stroke: #000000; stroke-width: 0.8; stroke-linejoin: miter; stroke-linecap: square"/>
   </g>
   <g id="patch_6">
    <path d="M 108 69.12 
L 777.6 69.12 
" style="fill: none; stroke: #000000; stroke-width: 0.8; stroke-linejoin: miter; stroke-linecap: square"/>
   </g>
   <g id="text_14">
    <!-- Discriminator loss across training steps -->
    <g transform="translate(253.8075 63.12)scale(0.192 -0.192)">
     <defs>
      <path id="DejaVuSans-44" d="M 1259 4147 
L 1259 519 
L 2022 519 
Q 2988 519 3436 956 
Q 3884 1394 3884 2338 
Q 3884 3275 3436 3711 
Q 2988 4147 2022 4147 
L 1259 4147 
z
M 628 4666 
L 1925 4666 
Q 3281 4666 3915 4102 
Q 4550 3538 4550 2338 
Q 4550 1131 3912 565 
Q 3275 0 1925 0 
L 628 0 
L 628 4666 
z
" transform="scale(0.015625)"/>
      <path id="DejaVuSans-63" d="M 3122 3366 
L 3122 2828 
Q 2878 2963 2633 3030 
Q 2388 3097 2138 3097 
Q 1578 3097 1268 2742 
Q 959 2388 959 1747 
Q 959 1106 1268 751 
Q 1578 397 2138 397 
Q 2388 397 2633 464 
Q 2878 531 3122 666 
L 3122 134 
Q 2881 22 2623 -34 
Q 2366 -91 2075 -91 
Q 1284 -91 818 406 
Q 353 903 353 1747 
Q 353 2603 823 3093 
Q 1294 3584 2113 3584 
Q 2378 3584 2631 3529 
Q 2884 3475 3122 3366 
z
" transform="scale(0.015625)"/>
      <path id="DejaVuSans-6d" d="M 3328 2828 
Q 3544 3216 3844 3400 
Q 4144 3584 4550 3584 
Q 5097 3584 5394 3201 
Q 5691 2819 5691 2113 
L 5691 0 
L 5113 0 
L 5113 2094 
Q 5113 2597 4934 2840 
Q 4756 3084 4391 3084 
Q 3944 3084 3684 2787 
Q 3425 2491 3425 1978 
L 3425 0 
L 2847 0 
L 2847 2094 
Q 2847 2600 2669 2842 
Q 2491 3084 2119 3084 
Q 1678 3084 1418 2786 
Q 1159 2488 1159 1978 
L 1159 0 
L 581 0 
L 581 3500 
L 1159 3500 
L 1159 2956 
Q 1356 3278 1631 3431 
Q 1906 3584 2284 3584 
Q 2666 3584 2933 3390 
Q 3200 3197 3328 2828 
z
" transform="scale(0.015625)"/>
      <path id="DejaVuSans-6c" d="M 603 4863 
L 1178 4863 
L 1178 0 
L 603 0 
L 603 4863 
z
" transform="scale(0.015625)"/>
     </defs>
     <use xlink:href="#DejaVuSans-44"/>
     <use xlink:href="#DejaVuSans-69" x="77.001953"/>
     <use xlink:href="#DejaVuSans-73" x="104.785156"/>
     <use xlink:href="#DejaVuSans-63" x="156.884766"/>
     <use xlink:href="#DejaVuSans-72" x="211.865234"/>
     <use xlink:href="#DejaVuSans-69" x="252.978516"/>
     <use xlink:href="#DejaVuSans-6d" x="280.761719"/>
     <use xlink:href="#DejaVuSans-69" x="378.173828"/>
     <use xlink:href="#DejaVuSans-6e" x="405.957031"/>
     <use xlink:href="#DejaVuSans-61" x="469.335938"/>
     <use xlink:href="#DejaVuSans-74" x="530.615234"/>
     <use xlink:href="#DejaVuSans-6f" x="569.824219"/>
     <use xlink:href="#DejaVuSans-72" x="631.005859"/>
     <use xlink:href="#DejaVuSans-20" x="672.119141"/>
     <use xlink:href="#DejaVuSans-6c" x="703.90625"/>
     <use xlink:href="#DejaVuSans-6f" x="731.689453"/>
     <use xlink:href="#DejaVuSans-73" x="792.871094"/>
     <use xlink:href="#DejaVuSans-73" x="844.970703"/>
     <use xlink:href="#DejaVuSans-20" x="897.070312"/>
     <use xlink:href="#DejaVuSans-61" x="928.857422"/>
     <use xlink:href="#DejaVuSans-63" x="990.136719"/>
     <use xlink:href="#DejaVuSans-72" x="1045.117188"/>
     <use xlink:href="#DejaVuSans-6f" x="1083.980469"/>
     <use xlink:href="#DejaVuSans-73" x="1145.162109"/>
     <use xlink:href="#DejaVuSans-73" x="1197.261719"/>
     <use xlink:href="#DejaVuSans-20" x="1249.361328"/>
     <use xlink:href="#DejaVuSans-74" x="1281.148438"/>
     <use xlink:href="#DejaVuSans-72" x="1320.357422"/>
     <use xlink:href="#DejaVuSans-61" x="1361.470703"/>
     <use xlink:href="#DejaVuSans-69" x="1422.75"/>
     <use xlink:href="#DejaVuSans-6e" x="1450.533203"/>
     <use xlink:href="#DejaVuSans-69" x="1513.912109"/>
     <use xlink:href="#DejaVuSans-6e" x="1541.695312"/>
     <use xlink:href="#DejaVuSans-67" x="1605.074219"/>
     <use xlink:href="#DejaVuSans-20" x="1668.550781"/>
     <use xlink:href="#DejaVuSans-73" x="1700.337891"/>
     <use xlink:href="#DejaVuSans-74" x="1752.4375"/>
     <use xlink:href="#DejaVuSans-65" x="1791.646484"/>
     <use xlink:href="#DejaVuSans-70" x="1853.169922"/>
     <use xlink:href="#DejaVuSans-73" x="1916.646484"/>
    </g>
   </g>
   <g id="legend_1">
    <g id="patch_7">
     <path d="M 119.2 105.405 
L 218.71 105.405 
Q 221.91 105.405 221.91 102.205 
L 221.91 80.32 
Q 221.91 77.12 218.71 77.12 
L 119.2 77.12 
Q 116 77.12 116 80.32 
L 116 102.205 
Q 116 105.405 119.2 105.405 
z
" style="fill: #ffffff; opacity: 0.8; stroke: #cccccc; stroke-linejoin: miter"/>
    </g>
    <g id="line2d_13">
     <path d="M 122.4 90.0775 
L 138.4 90.0775 
L 154.4 90.0775 
" style="fill: none; stroke: #1f77b4; stroke-width: 1.5; stroke-linecap: square"/>
    </g>
    <g id="text_15">
     <!-- D loss -->
     <g transform="translate(167.2 95.6775)scale(0.16 -0.16)">
      <use xlink:href="#DejaVuSans-44"/>
      <use xlink:href="#DejaVuSans-20" x="77.001953"/>
      <use xlink:href="#DejaVuSans-6c" x="108.789062"/>
      <use xlink:href="#DejaVuSans-6f" x="136.572266"/>
      <use xlink:href="#DejaVuSans-73" x="197.753906"/>
      <use xlink:href="#DejaVuSans-73" x="249.853516"/>
     </g>
    </g>
   </g>
  </g>
 </g>
 <defs>
  <clipPath id="pf05a5e9acb">
   <rect x="108" y="69.12" width="669.6" height="443.52"/>
  </clipPath>
 </defs>
</svg>
