<?xml version="1.0" encoding="utf-8" standalone="no"?>
<!DOCTYPE svg PUBLIC "-//W3C//DTD SVG 1.1//EN"
  "http://www.w3.org/Graphics/SVG/1.1/DTD/svg11.dtd">
<svg xmlns:xlink="http://www.w3.org/1999/xlink" width="864pt" height="576pt" viewBox="0 0 864 576" xmlns="http://www.w3.org/2000/svg" version="1.1">
 <metadata>
  <rdf:RDF xmlns:dc="http://purl.org/dc/elements/1.1/" xmlns:cc="http://creativecommons.org/ns#" xmlns:rdf="http://www.w3.org/1999/02/22-rdf-syntax-ns#">
   <cc:Work>
    <dc:type rdf:resource="http://purl.org/dc/dcmitype/StillImage"/>
    <dc:date>2022-01-29T21:05:19.117825</dc:date>
    <dc:format>image/svg+xml</dc:format>
    <dc:creator>
     <cc:Agent>
      <dc:title>Matplotlib v3.5.0, https://matplotlib.org/</dc:title>
     </cc:Agent>
    </dc:creator>
   </cc:Work>
  </rdf:RDF>
 </metadata>
 <defs>
  <style type="text/css">*{stroke-linejoin: round; stroke-linecap: butt}</style>
 </defs>
 <g id="figure_1">
  <g id="patch_1">
   <path d="M 0 576 
L 864 576 
L 864 0 
L 0 0 
z
" style="fill: #ffffff"/>
  </g>
  <g id="axes_1">
   <g id="patch_2">
    <path d="M 108 512.64 
L 777.6 512.64 
L 777.6 69.12 
L 108 69.12 
z
" style="fill: #ffffff"/>
   </g>
   <g id="matplotlib.axis_1">
    <g id="xtick_1">
     <g id="line2d_1">
      <defs>
       <path id="m53c34eee54" d="M 0 0 
L 0 3.5 
" style="stroke: #000000; stroke-width: 0.8"/>
      </defs>
      <g>
       <use xlink:href="#m53c34eee54" x="138.436364" y="512.64" style="stroke: #000000; stroke-width: 0.8"/>
      </g>
     </g>
     <g id="text_1">
      <!-- 0 -->
      <g transform="translate(133.346364 531.7975)scale(0.16 -0.16)">
       <defs>
        <path id="DejaVuSans-30" d="M 2034 4250 
Q 1547 4250 1301 3770 
Q 1056 3291 1056 2328 
Q 1056 1369 1301 889 
Q 1547 409 2034 409 
Q 2525 409 2770 889 
Q 3016 1369 3016 2328 
Q 3016 3291 2770 3770 
Q 2525 4250 2034 4250 
z
M 2034 4750 
Q 2819 4750 3233 4129 
Q 3647 3509 3647 2328 
Q 3647 1150 3233 529 
Q 2819 -91 2034 -91 
Q 1250 -91 836 529 
Q 422 1150 422 2328 
Q 422 3509 836 4129 
Q 1250 4750 2034 4750 
z
" transform="scale(0.015625)"/>
       </defs>
       <use xlink:href="#DejaVuSans-30"/>
      </g>
     </g>
    </g>
    <g id="xtick_2">
     <g id="line2d_2">
      <g>
       <use xlink:href="#m53c34eee54" x="271.63708" y="512.64" style="stroke: #000000; stroke-width: 0.8"/>
      </g>
     </g>
     <g id="text_2">
      <!-- 200 -->
      <g transform="translate(256.36708 531.7975)scale(0.16 -0.16)">
       <defs>
        <path id="DejaVuSans-32" d="M 1228 531 
L 3431 531 
L 3431 0 
L 469 0 
L 469 531 
Q 828 903 1448 1529 
Q 2069 2156 2228 2338 
Q 2531 2678 2651 2914 
Q 2772 3150 2772 3378 
Q 2772 3750 2511 3984 
Q 2250 4219 1831 4219 
Q 1534 4219 1204 4116 
Q 875 4013 500 3803 
L 500 4441 
Q 881 4594 1212 4672 
Q 1544 4750 1819 4750 
Q 2544 4750 2975 4387 
Q 3406 4025 3406 3419 
Q 3406 3131 3298 2873 
Q 3191 2616 2906 2266 
Q 2828 2175 2409 1742 
Q 1991 1309 1228 531 
z
" transform="scale(0.015625)"/>
       </defs>
       <use xlink:href="#DejaVuSans-32"/>
       <use xlink:href="#DejaVuSans-30" x="63.623047"/>
       <use xlink:href="#DejaVuSans-30" x="127.246094"/>
      </g>
     </g>
    </g>
    <g id="xtick_3">
     <g id="line2d_3">
      <g>
       <use xlink:href="#m53c34eee54" x="404.837796" y="512.64" style="stroke: #000000; stroke-width: 0.8"/>
      </g>
     </g>
     <g id="text_3">
      <!-- 400 -->
      <g transform="translate(389.567796 531.7975)scale(0.16 -0.16)">
       <defs>
        <path id="DejaVuSans-34" d="M 2419 4116 
L 825 1625 
L 2419 1625 
L 2419 4116 
z
M 2253 4666 
L 3047 4666 
L 3047 1625 
L 3713 1625 
L 3713 1100 
L 3047 1100 
L 3047 0 
L 2419 0 
L 2419 1100 
L 313 1100 
L 313 1709 
L 2253 4666 
z
" transform="scale(0.015625)"/>
       </defs>
       <use xlink:href="#DejaVuSans-34"/>
       <use xlink:href="#DejaVuSans-30" x="63.623047"/>
       <use xlink:href="#DejaVuSans-30" x="127.246094"/>
      </g>
     </g>
    </g>
    <g id="xtick_4">
     <g id="line2d_4">
      <g>
       <use xlink:href="#m53c34eee54" x="538.038512" y="512.64" style="stroke: #000000; stroke-width: 0.8"/>
      </g>
     </g>
     <g id="text_4">
      <!-- 600 -->
      <g transform="translate(522.768512 531.7975)scale(0.16 -0.16)">
       <defs>
        <path id="DejaVuSans-36" d="M 2113 2584 
Q 1688 2584 1439 2293 
Q 1191 2003 1191 1497 
Q 1191 994 1439 701 
Q 1688 409 2113 409 
Q 2538 409 2786 701 
Q 3034 994 3034 1497 
Q 3034 2003 2786 2293 
Q 2538 2584 2113 2584 
z
M 3366 4563 
L 3366 3988 
Q 3128 4100 2886 4159 
Q 2644 4219 2406 4219 
Q 1781 4219 1451 3797 
Q 1122 3375 1075 2522 
Q 1259 2794 1537 2939 
Q 1816 3084 2150 3084 
Q 2853 3084 3261 2657 
Q 3669 2231 3669 1497 
Q 3669 778 3244 343 
Q 2819 -91 2113 -91 
Q 1303 -91 875 529 
Q 447 1150 447 2328 
Q 447 3434 972 4092 
Q 1497 4750 2381 4750 
Q 2619 4750 2861 4703 
Q 3103 4656 3366 4563 
z
" transform="scale(0.015625)"/>
       </defs>
       <use xlink:href="#DejaVuSans-36"/>
       <use xlink:href="#DejaVuSans-30" x="63.623047"/>
       <use xlink:href="#DejaVuSans-30" x="127.246094"/>
      </g>
     </g>
    </g>
    <g id="xtick_5">
     <g id="line2d_5">
      <g>
       <use xlink:href="#m53c34eee54" x="671.239228" y="512.64" style="stroke: #000000; stroke-width: 0.8"/>
      </g>
     </g>
     <g id="text_5">
      <!-- 800 -->
      <g transform="translate(655.969228 531.7975)scale(0.16 -0.16)">
       <defs>
        <path id="DejaVuSans-38" d="M 2034 2216 
Q 1584 2216 1326 1975 
Q 1069 1734 1069 1313 
Q 1069 891 1326 650 
Q 1584 409 2034 409 
Q 2484 409 2743 651 
Q 3003 894 3003 1313 
Q 3003 1734 2745 1975 
Q 2488 2216 2034 2216 
z
M 1403 2484 
Q 997 2584 770 2862 
Q 544 3141 544 3541 
Q 544 4100 942 4425 
Q 1341 4750 2034 4750 
Q 2731 4750 3128 4425 
Q 3525 4100 3525 3541 
Q 3525 3141 3298 2862 
Q 3072 2584 2669 2484 
Q 3125 2378 3379 2068 
Q 3634 1759 3634 1313 
Q 3634 634 3220 271 
Q 2806 -91 2034 -91 
Q 1263 -91 848 271 
Q 434 634 434 1313 
Q 434 1759 690 2068 
Q 947 2378 1403 2484 
z
M 1172 3481 
Q 1172 3119 1398 2916 
Q 1625 2713 2034 2713 
Q 2441 2713 2670 2916 
Q 2900 3119 2900 3481 
Q 2900 3844 2670 4047 
Q 2441 4250 2034 4250 
Q 1625 4250 1398 4047 
Q 1172 3844 1172 3481 
z
" transform="scale(0.015625)"/>
       </defs>
       <use xlink:href="#DejaVuSans-38"/>
       <use xlink:href="#DejaVuSans-30" x="63.623047"/>
       <use xlink:href="#DejaVuSans-30" x="127.246094"/>
      </g>
     </g>
    </g>
    <g id="text_6">
     <!-- Training steps -->
     <g transform="translate(387.22375 551.2825)scale(0.16 -0.16)">
      <defs>
       <path id="DejaVuSans-54" d="M -19 4666 
L 3928 4666 
L 3928 4134 
L 2272 4134 
L 2272 0 
L 1638 0 
L 1638 4134 
L -19 4134 
L -19 4666 
z
" transform="scale(0.015625)"/>
       <path id="DejaVuSans-72" d="M 2631 2963 
Q 2534 3019 2420 3045 
Q 2306 3072 2169 3072 
Q 1681 3072 1420 2755 
Q 1159 2438 1159 1844 
L 1159 0 
L 581 0 
L 581 3500 
L 1159 3500 
L 1159 2956 
Q 1341 3275 1631 3429 
Q 1922 3584 2338 3584 
Q 2397 3584 2469 3576 
Q 2541 3569 2628 3553 
L 2631 2963 
z
" transform="scale(0.015625)"/>
       <path id="DejaVuSans-61" d="M 2194 1759 
Q 1497 1759 1228 1600 
Q 959 1441 959 1056 
Q 959 750 1161 570 
Q 1363 391 1709 391 
Q 2188 391 2477 730 
Q 2766 1069 2766 1631 
L 2766 1759 
L 2194 1759 
z
M 3341 1997 
L 3341 0 
L 2766 0 
L 2766 531 
Q 2569 213 2275 61 
Q 1981 -91 1556 -91 
Q 1019 -91 701 211 
Q 384 513 384 1019 
Q 384 1609 779 1909 
Q 1175 2209 1959 2209 
L 2766 2209 
L 2766 2266 
Q 2766 2663 2505 2880 
Q 2244 3097 1772 3097 
Q 1472 3097 1187 3025 
Q 903 2953 641 2809 
L 641 3341 
Q 956 3463 1253 3523 
Q 1550 3584 1831 3584 
Q 2591 3584 2966 3190 
Q 3341 2797 3341 1997 
z
" transform="scale(0.015625)"/>
       <path id="DejaVuSans-69" d="M 603 3500 
L 1178 3500 
L 1178 0 
L 603 0 
L 603 3500 
z
M 603 4863 
L 1178 4863 
L 1178 4134 
L 603 4134 
L 603 4863 
z
" transform="scale(0.015625)"/>
       <path id="DejaVuSans-6e" d="M 3513 2113 
L 3513 0 
L 2938 0 
L 2938 2094 
Q 2938 2591 2744 2837 
Q 2550 3084 2163 3084 
Q 1697 3084 1428 2787 
Q 1159 2491 1159 1978 
L 1159 0 
L 581 0 
L 581 3500 
L 1159 3500 
L 1159 2956 
Q 1366 3272 1645 3428 
Q 1925 3584 2291 3584 
Q 2894 3584 3203 3211 
Q 3513 2838 3513 2113 
z
" transform="scale(0.015625)"/>
       <path id="DejaVuSans-67" d="M 2906 1791 
Q 2906 2416 2648 2759 
Q 2391 3103 1925 3103 
Q 1463 3103 1205 2759 
Q 947 2416 947 1791 
Q 947 1169 1205 825 
Q 1463 481 1925 481 
Q 2391 481 2648 825 
Q 2906 1169 2906 1791 
z
M 3481 434 
Q 3481 -459 3084 -895 
Q 2688 -1331 1869 -1331 
Q 1566 -1331 1297 -1286 
Q 1028 -1241 775 -1147 
L 775 -588 
Q 1028 -725 1275 -790 
Q 1522 -856 1778 -856 
Q 2344 -856 2625 -561 
Q 2906 -266 2906 331 
L 2906 616 
Q 2728 306 2450 153 
Q 2172 0 1784 0 
Q 1141 0 747 490 
Q 353 981 353 1791 
Q 353 2603 747 3093 
Q 1141 3584 1784 3584 
Q 2172 3584 2450 3431 
Q 2728 3278 2906 2969 
L 2906 3500 
L 3481 3500 
L 3481 434 
z
" transform="scale(0.015625)"/>
       <path id="DejaVuSans-20" transform="scale(0.015625)"/>
       <path id="DejaVuSans-73" d="M 2834 3397 
L 2834 2853 
Q 2591 2978 2328 3040 
Q 2066 3103 1784 3103 
Q 1356 3103 1142 2972 
Q 928 2841 928 2578 
Q 928 2378 1081 2264 
Q 1234 2150 1697 2047 
L 1894 2003 
Q 2506 1872 2764 1633 
Q 3022 1394 3022 966 
Q 3022 478 2636 193 
Q 2250 -91 1575 -91 
Q 1294 -91 989 -36 
Q 684 19 347 128 
L 347 722 
Q 666 556 975 473 
Q 1284 391 1588 391 
Q 1994 391 2212 530 
Q 2431 669 2431 922 
Q 2431 1156 2273 1281 
Q 2116 1406 1581 1522 
L 1381 1569 
Q 847 1681 609 1914 
Q 372 2147 372 2553 
Q 372 3047 722 3315 
Q 1072 3584 1716 3584 
Q 2034 3584 2315 3537 
Q 2597 3491 2834 3397 
z
" transform="scale(0.015625)"/>
       <path id="DejaVuSans-74" d="M 1172 4494 
L 1172 3500 
L 2356 3500 
L 2356 3053 
L 1172 3053 
L 1172 1153 
Q 1172 725 1289 603 
Q 1406 481 1766 481 
L 2356 481 
L 2356 0 
L 1766 0 
Q 1100 0 847 248 
Q 594 497 594 1153 
L 594 3053 
L 172 3053 
L 172 3500 
L 594 3500 
L 594 4494 
L 1172 4494 
z
" transform="scale(0.015625)"/>
       <path id="DejaVuSans-65" d="M 3597 1894 
L 3597 1613 
L 953 1613 
Q 991 1019 1311 708 
Q 1631 397 2203 397 
Q 2534 397 2845 478 
Q 3156 559 3463 722 
L 3463 178 
Q 3153 47 2828 -22 
Q 2503 -91 2169 -91 
Q 1331 -91 842 396 
Q 353 884 353 1716 
Q 353 2575 817 3079 
Q 1281 3584 2069 3584 
Q 2775 3584 3186 3129 
Q 3597 2675 3597 1894 
z
M 3022 2063 
Q 3016 2534 2758 2815 
Q 2500 3097 2075 3097 
Q 1594 3097 1305 2825 
Q 1016 2553 972 2059 
L 3022 2063 
z
" transform="scale(0.015625)"/>
       <path id="DejaVuSans-70" d="M 1159 525 
L 1159 -1331 
L 581 -1331 
L 581 3500 
L 1159 3500 
L 1159 2969 
Q 1341 3281 1617 3432 
Q 1894 3584 2278 3584 
Q 2916 3584 3314 3078 
Q 3713 2572 3713 1747 
Q 3713 922 3314 415 
Q 2916 -91 2278 -91 
Q 1894 -91 1617 61 
Q 1341 213 1159 525 
z
M 3116 1747 
Q 3116 2381 2855 2742 
Q 2594 3103 2138 3103 
Q 1681 3103 1420 2742 
Q 1159 2381 1159 1747 
Q 1159 1113 1420 752 
Q 1681 391 2138 391 
Q 2594 391 2855 752 
Q 3116 1113 3116 1747 
z
" transform="scale(0.015625)"/>
      </defs>
      <use xlink:href="#DejaVuSans-54"/>
      <use xlink:href="#DejaVuSans-72" x="46.333984"/>
      <use xlink:href="#DejaVuSans-61" x="87.447266"/>
      <use xlink:href="#DejaVuSans-69" x="148.726562"/>
      <use xlink:href="#DejaVuSans-6e" x="176.509766"/>
      <use xlink:href="#DejaVuSans-69" x="239.888672"/>
      <use xlink:href="#DejaVuSans-6e" x="267.671875"/>
      <use xlink:href="#DejaVuSans-67" x="331.050781"/>
      <use xlink:href="#DejaVuSans-20" x="394.527344"/>
      <use xlink:href="#DejaVuSans-73" x="426.314453"/>
      <use xlink:href="#DejaVuSans-74" x="478.414062"/>
      <use xlink:href="#DejaVuSans-65" x="517.623047"/>
      <use xlink:href="#DejaVuSans-70" x="579.146484"/>
      <use xlink:href="#DejaVuSans-73" x="642.623047"/>
     </g>
    </g>
   </g>
   <g id="matplotlib.axis_2">
    <g id="ytick_1">
     <g id="line2d_6">
      <defs>
       <path id="mca441b8cff" d="M 0 0 
L -3.5 0 
" style="stroke: #000000; stroke-width: 0.8"/>
      </defs>
      <g>
       <use xlink:href="#mca441b8cff" x="108" y="508.610062" style="stroke: #000000; stroke-width: 0.8"/>
      </g>
     </g>
     <g id="text_7">
      <!-- 0.8 -->
      <g transform="translate(75.555 514.688812)scale(0.16 -0.16)">
       <defs>
        <path id="DejaVuSans-2e" d="M 684 794 
L 1344 794 
L 1344 0 
L 684 0 
L 684 794 
z
" transform="scale(0.015625)"/>
       </defs>
       <use xlink:href="#DejaVuSans-30"/>
       <use xlink:href="#DejaVuSans-2e" x="63.623047"/>
       <use xlink:href="#DejaVuSans-38" x="95.410156"/>
      </g>
     </g>
    </g>
    <g id="ytick_2">
     <g id="line2d_7">
      <g>
       <use xlink:href="#mca441b8cff" x="108" y="454.768064" style="stroke: #000000; stroke-width: 0.8"/>
      </g>
     </g>
     <g id="text_8">
      <!-- 0.9 -->
      <g transform="translate(75.555 460.846814)scale(0.16 -0.16)">
       <defs>
        <path id="DejaVuSans-39" d="M 703 97 
L 703 672 
Q 941 559 1184 500 
Q 1428 441 1663 441 
Q 2288 441 2617 861 
Q 2947 1281 2994 2138 
Q 2813 1869 2534 1725 
Q 2256 1581 1919 1581 
Q 1219 1581 811 2004 
Q 403 2428 403 3163 
Q 403 3881 828 4315 
Q 1253 4750 1959 4750 
Q 2769 4750 3195 4129 
Q 3622 3509 3622 2328 
Q 3622 1225 3098 567 
Q 2575 -91 1691 -91 
Q 1453 -91 1209 -44 
Q 966 3 703 97 
z
M 1959 2075 
Q 2384 2075 2632 2365 
Q 2881 2656 2881 3163 
Q 2881 3666 2632 3958 
Q 2384 4250 1959 4250 
Q 1534 4250 1286 3958 
Q 1038 3666 1038 3163 
Q 1038 2656 1286 2365 
Q 1534 2075 1959 2075 
z
" transform="scale(0.015625)"/>
       </defs>
       <use xlink:href="#DejaVuSans-30"/>
       <use xlink:href="#DejaVuSans-2e" x="63.623047"/>
       <use xlink:href="#DejaVuSans-39" x="95.410156"/>
      </g>
     </g>
    </g>
    <g id="ytick_3">
     <g id="line2d_8">
      <g>
       <use xlink:href="#mca441b8cff" x="108" y="400.926066" style="stroke: #000000; stroke-width: 0.8"/>
      </g>
     </g>
     <g id="text_9">
      <!-- 1.0 -->
      <g transform="translate(75.555 407.004816)scale(0.16 -0.16)">
       <defs>
        <path id="DejaVuSans-31" d="M 794 531 
L 1825 531 
L 1825 4091 
L 703 3866 
L 703 4441 
L 1819 4666 
L 2450 4666 
L 2450 531 
L 3481 531 
L 3481 0 
L 794 0 
L 794 531 
z
" transform="scale(0.015625)"/>
       </defs>
       <use xlink:href="#DejaVuSans-31"/>
       <use xlink:href="#DejaVuSans-2e" x="63.623047"/>
       <use xlink:href="#DejaVuSans-30" x="95.410156"/>
      </g>
     </g>
    </g>
    <g id="ytick_4">
     <g id="line2d_9">
      <g>
       <use xlink:href="#mca441b8cff" x="108" y="347.084067" style="stroke: #000000; stroke-width: 0.8"/>
      </g>
     </g>
     <g id="text_10">
      <!-- 1.1 -->
      <g transform="translate(75.555 353.162817)scale(0.16 -0.16)">
       <use xlink:href="#DejaVuSans-31"/>
       <use xlink:href="#DejaVuSans-2e" x="63.623047"/>
       <use xlink:href="#DejaVuSans-31" x="95.410156"/>
      </g>
     </g>
    </g>
    <g id="ytick_5">
     <g id="line2d_10">
      <g>
       <use xlink:href="#mca441b8cff" x="108" y="293.242069" style="stroke: #000000; stroke-width: 0.8"/>
      </g>
     </g>
     <g id="text_11">
      <!-- 1.2 -->
      <g transform="translate(75.555 299.320819)scale(0.16 -0.16)">
       <use xlink:href="#DejaVuSans-31"/>
       <use xlink:href="#DejaVuSans-2e" x="63.623047"/>
       <use xlink:href="#DejaVuSans-32" x="95.410156"/>
      </g>
     </g>
    </g>
    <g id="ytick_6">
     <g id="line2d_11">
      <g>
       <use xlink:href="#mca441b8cff" x="108" y="239.400071" style="stroke: #000000; stroke-width: 0.8"/>
      </g>
     </g>
     <g id="text_12">
      <!-- 1.3 -->
      <g transform="translate(75.555 245.478821)scale(0.16 -0.16)">
       <defs>
        <path id="DejaVuSans-33" d="M 2597 2516 
Q 3050 2419 3304 2112 
Q 3559 1806 3559 1356 
Q 3559 666 3084 287 
Q 2609 -91 1734 -91 
Q 1441 -91 1130 -33 
Q 819 25 488 141 
L 488 750 
Q 750 597 1062 519 
Q 1375 441 1716 441 
Q 2309 441 2620 675 
Q 2931 909 2931 1356 
Q 2931 1769 2642 2001 
Q 2353 2234 1838 2234 
L 1294 2234 
L 1294 2753 
L 1863 2753 
Q 2328 2753 2575 2939 
Q 2822 3125 2822 3475 
Q 2822 3834 2567 4026 
Q 2313 4219 1838 4219 
Q 1578 4219 1281 4162 
Q 984 4106 628 3988 
L 628 4550 
Q 988 4650 1302 4700 
Q 1616 4750 1894 4750 
Q 2613 4750 3031 4423 
Q 3450 4097 3450 3541 
Q 3450 3153 3228 2886 
Q 3006 2619 2597 2516 
z
" transform="scale(0.015625)"/>
       </defs>
       <use xlink:href="#DejaVuSans-31"/>
       <use xlink:href="#DejaVuSans-2e" x="63.623047"/>
       <use xlink:href="#DejaVuSans-33" x="95.410156"/>
      </g>
     </g>
    </g>
    <g id="ytick_7">
     <g id="line2d_12">
      <g>
       <use xlink:href="#mca441b8cff" x="108" y="185.558073" style="stroke: #000000; stroke-width: 0.8"/>
      </g>
     </g>
     <g id="text_13">
      <!-- 1.4 -->
      <g transform="translate(75.555 191.636823)scale(0.16 -0.16)">
       <use xlink:href="#DejaVuSans-31"/>
       <use xlink:href="#DejaVuSans-2e" x="63.623047"/>
       <use xlink:href="#DejaVuSans-34" x="95.410156"/>
      </g>
     </g>
    </g>
    <g id="ytick_8">
     <g id="line2d_13">
      <g>
       <use xlink:href="#mca441b8cff" x="108" y="131.716075" style="stroke: #000000; stroke-width: 0.8"/>
      </g>
     </g>
     <g id="text_14">
      <!-- 1.5 -->
      <g transform="translate(75.555 137.794825)scale(0.16 -0.16)">
       <defs>
        <path id="DejaVuSans-35" d="M 691 4666 
L 3169 4666 
L 3169 4134 
L 1269 4134 
L 1269 2991 
Q 1406 3038 1543 3061 
Q 1681 3084 1819 3084 
Q 2600 3084 3056 2656 
Q 3513 2228 3513 1497 
Q 3513 744 3044 326 
Q 2575 -91 1722 -91 
Q 1428 -91 1123 -41 
Q 819 9 494 109 
L 494 744 
Q 775 591 1075 516 
Q 1375 441 1709 441 
Q 2250 441 2565 725 
Q 2881 1009 2881 1497 
Q 2881 1984 2565 2268 
Q 2250 2553 1709 2553 
Q 1456 2553 1204 2497 
Q 953 2441 691 2322 
L 691 4666 
z
" transform="scale(0.015625)"/>
       </defs>
       <use xlink:href="#DejaVuSans-31"/>
       <use xlink:href="#DejaVuSans-2e" x="63.623047"/>
       <use xlink:href="#DejaVuSans-35" x="95.410156"/>
      </g>
     </g>
    </g>
    <g id="ytick_9">
     <g id="line2d_14">
      <g>
       <use xlink:href="#mca441b8cff" x="108" y="77.874077" style="stroke: #000000; stroke-width: 0.8"/>
      </g>
     </g>
     <g id="text_15">
      <!-- 1.6 -->
      <g transform="translate(75.555 83.952827)scale(0.16 -0.16)">
       <use xlink:href="#DejaVuSans-31"/>
       <use xlink:href="#DejaVuSans-2e" x="63.623047"/>
       <use xlink:href="#DejaVuSans-36" x="95.410156"/>
      </g>
     </g>
    </g>
    <g id="text_16">
     <!-- Loss -->
     <g transform="translate(68.2275 308.4275)rotate(-90)scale(0.16 -0.16)">
      <defs>
       <path id="DejaVuSans-4c" d="M 628 4666 
L 1259 4666 
L 1259 531 
L 3531 531 
L 3531 0 
L 628 0 
L 628 4666 
z
" transform="scale(0.015625)"/>
       <path id="DejaVuSans-6f" d="M 1959 3097 
Q 1497 3097 1228 2736 
Q 959 2375 959 1747 
Q 959 1119 1226 758 
Q 1494 397 1959 397 
Q 2419 397 2687 759 
Q 2956 1122 2956 1747 
Q 2956 2369 2687 2733 
Q 2419 3097 1959 3097 
z
M 1959 3584 
Q 2709 3584 3137 3096 
Q 3566 2609 3566 1747 
Q 3566 888 3137 398 
Q 2709 -91 1959 -91 
Q 1206 -91 779 398 
Q 353 888 353 1747 
Q 353 2609 779 3096 
Q 1206 3584 1959 3584 
z
" transform="scale(0.015625)"/>
      </defs>
      <use xlink:href="#DejaVuSans-4c"/>
      <use xlink:href="#DejaVuSans-6f" x="53.962891"/>
      <use xlink:href="#DejaVuSans-73" x="115.144531"/>
      <use xlink:href="#DejaVuSans-73" x="167.244141"/>
     </g>
    </g>
   </g>
   <g id="line2d_15">
    <path d="M 138.436364 171.677703 
L 139.102367 199.127237 
L 139.768371 197.843801 
L 140.434374 138.465734 
L 141.100378 116.283001 
L 141.766382 105.847666 
L 142.432385 129.173657 
L 143.098389 143.910712 
L 143.764392 149.449399 
L 144.430396 159.232554 
L 145.096399 179.64501 
L 145.762403 159.877867 
L 146.428407 151.157674 
L 147.09441 157.0074 
L 147.760414 150.626738 
L 148.426417 162.016949 
L 149.092421 182.099624 
L 149.758425 171.448115 
L 150.424428 157.073639 
L 151.090432 160.105209 
L 151.756435 166.28356 
L 152.422439 168.477392 
L 153.088442 159.800331 
L 153.754446 173.077378 
L 154.42045 164.49223 
L 155.086453 172.060372 
L 155.752457 161.789414 
L 156.41846 159.480949 
L 157.084464 161.979593 
L 157.750467 140.781068 
L 158.416471 143.986257 
L 159.082475 129.223721 
L 159.748478 131.5008 
L 161.080485 155.038086 
L 161.746489 151.935785 
L 162.412493 163.45982 
L 163.078496 145.318346 
L 163.7445 171.869872 
L 164.410503 166.242033 
L 165.076507 157.280313 
L 165.74251 157.833585 
L 166.408514 149.853377 
L 167.074518 171.004535 
L 168.406525 178.006247 
L 169.072528 159.905081 
L 169.738532 183.082034 
L 170.404536 174.247208 
L 171.736543 128.794775 
L 173.734553 133.00914 
L 174.400557 140.782352 
L 175.066561 164.690689 
L 175.732564 127.700041 
L 176.398568 126.518401 
L 177.064571 122.362316 
L 177.730575 150.401771 
L 178.396578 158.4909 
L 179.062582 136.015742 
L 179.728586 153.606768 
L 180.394589 141.139411 
L 181.060593 155.252014 
L 181.726596 148.496321 
L 182.3926 150.839126 
L 183.058604 158.536279 
L 183.724607 168.294145 
L 185.056614 138.306877 
L 185.722618 144.153523 
L 186.388621 152.115309 
L 187.054625 167.017576 
L 187.720629 157.900209 
L 188.386632 169.838941 
L 189.052636 179.338015 
L 189.718639 174.256066 
L 190.384643 166.609811 
L 191.71665 147.635412 
L 192.382654 147.39703 
L 193.048657 148.107683 
L 193.714661 145.716612 
L 195.046668 183.304884 
L 195.712672 156.908812 
L 196.378675 184.505394 
L 197.044679 175.272109 
L 197.710682 195.026479 
L 198.376686 190.903449 
L 199.042689 175.263636 
L 199.708693 168.753514 
L 200.374697 157.136283 
L 201.0407 174.407734 
L 201.706704 173.214541 
L 202.372707 193.254405 
L 203.038711 183.295898 
L 203.704715 184.945123 
L 204.370718 181.621448 
L 205.036722 174.953304 
L 205.702725 175.729232 
L 206.368729 183.619902 
L 207.034732 183.779401 
L 207.700736 184.294033 
L 208.36674 199.727557 
L 209.032743 185.41688 
L 209.698747 175.523263 
L 210.36475 168.665581 
L 211.030754 149.18406 
L 211.696758 169.085863 
L 212.362761 155.251693 
L 213.028765 148.545294 
L 213.694768 155.028779 
L 214.360772 164.844476 
L 215.692779 152.015374 
L 216.358783 161.669967 
L 217.024786 159.03923 
L 217.69079 156.955282 
L 218.356793 163.145508 
L 219.022797 168.284902 
L 219.6888 189.392414 
L 220.354804 188.683815 
L 221.020808 178.524281 
L 221.686811 174.00183 
L 223.018818 168.672898 
L 223.684822 176.125251 
L 224.350826 177.659457 
L 225.016829 177.971587 
L 225.682833 180.353994 
L 226.348836 180.692439 
L 227.01484 185.622207 
L 227.680843 186.801022 
L 228.346847 175.418707 
L 229.012851 172.788355 
L 229.678854 184.946471 
L 230.344858 174.380712 
L 231.010861 188.233752 
L 231.676865 170.978604 
L 232.342869 187.535808 
L 233.008872 179.967153 
L 233.674876 156.665617 
L 234.340879 153.51094 
L 235.006883 161.570159 
L 235.672886 159.027548 
L 236.33889 163.336714 
L 237.004894 176.252273 
L 237.670897 168.025018 
L 238.336901 183.415281 
L 239.002904 188.317898 
L 239.668908 189.909614 
L 240.334911 178.059585 
L 241.000915 187.249866 
L 241.666919 190.567507 
L 242.332922 169.555887 
L 242.998926 175.48655 
L 243.664929 167.977393 
L 244.330933 174.473716 
L 244.996937 168.818341 
L 245.66294 160.350266 
L 246.328944 172.792206 
L 246.994947 180.569847 
L 247.660951 189.839845 
L 248.326954 176.627496 
L 249.658962 207.383503 
L 250.324965 192.605947 
L 250.990969 174.226797 
L 251.656972 176.452336 
L 252.322976 153.282443 
L 252.98898 160.738583 
L 253.654983 159.39584 
L 254.320987 148.730274 
L 254.98699 154.954582 
L 255.652994 152.51794 
L 256.318997 164.271178 
L 256.985001 169.685668 
L 257.651005 163.371566 
L 258.317008 191.535155 
L 258.983012 180.440194 
L 259.649015 202.842246 
L 260.315019 207.127792 
L 260.981022 202.401875 
L 261.647026 190.578803 
L 262.31303 198.291746 
L 262.979033 193.563262 
L 263.645037 204.823498 
L 264.31104 195.646054 
L 264.977044 211.701527 
L 265.643048 218.504395 
L 266.309051 228.488062 
L 267.641058 213.926231 
L 268.307062 210.882723 
L 268.973065 209.192163 
L 269.639069 207.843964 
L 270.305073 219.312865 
L 270.971076 211.5462 
L 271.63708 215.881681 
L 272.303083 229.077213 
L 272.969087 216.770254 
L 273.635091 208.941779 
L 274.301094 215.884056 
L 274.967098 177.479997 
L 275.633101 185.124776 
L 276.299105 143.319379 
L 276.965108 167.867188 
L 277.631112 175.573456 
L 278.297116 170.183741 
L 278.963119 195.936939 
L 279.629123 200.706373 
L 280.295126 217.420316 
L 280.96113 207.298138 
L 281.627133 213.201971 
L 282.293137 226.630045 
L 282.959141 218.5103 
L 283.625144 219.595021 
L 284.291148 214.03971 
L 284.957151 222.298992 
L 286.289159 227.269902 
L 286.955162 218.71338 
L 287.621166 216.850356 
L 288.287169 215.723851 
L 288.953173 176.424416 
L 289.619176 175.13899 
L 290.28518 188.125344 
L 290.951184 181.201681 
L 291.617187 183.241726 
L 292.283191 188.711735 
L 292.949194 176.418254 
L 293.615198 186.222847 
L 294.281202 198.552335 
L 295.613209 151.695991 
L 296.279212 175.498873 
L 297.611219 208.581638 
L 298.277223 209.540621 
L 298.943227 189.496265 
L 299.60923 206.784532 
L 300.275234 218.63148 
L 300.941237 174.821597 
L 301.607241 163.2776 
L 302.273244 192.000365 
L 302.939248 154.733594 
L 303.605252 163.903144 
L 304.271255 163.875416 
L 304.937259 168.327906 
L 305.603262 151.383411 
L 306.269266 159.664966 
L 306.93527 184.131454 
L 307.601273 177.038278 
L 308.267277 174.758824 
L 308.93328 174.063961 
L 309.599284 193.102223 
L 310.931291 172.320577 
L 311.597295 143.500379 
L 312.263298 169.033937 
L 312.929302 141.483826 
L 313.595305 175.923519 
L 314.261309 194.598432 
L 314.927313 193.140798 
L 315.593316 194.6501 
L 316.25932 203.761563 
L 316.925323 180.670617 
L 317.591327 171.33868 
L 318.25733 170.477964 
L 318.923334 163.820345 
L 319.589338 172.810434 
L 320.255341 177.172552 
L 320.921345 184.004175 
L 321.587348 182.694937 
L 322.253352 204.303923 
L 322.919355 207.561038 
L 323.585359 192.851133 
L 324.251363 212.044465 
L 324.917366 214.647988 
L 325.58337 204.621445 
L 326.249373 216.294966 
L 326.915377 184.717716 
L 327.581381 200.558427 
L 328.247384 179.500915 
L 328.913388 197.581093 
L 329.579391 191.331561 
L 330.245395 189.755892 
L 330.911398 206.598268 
L 331.577402 213.927451 
L 332.243406 210.365523 
L 332.909409 211.69299 
L 333.575413 215.487844 
L 334.241416 209.73908 
L 334.90742 238.051449 
L 336.239427 205.409953 
L 336.905431 216.497854 
L 337.571434 216.598881 
L 338.237438 217.965565 
L 338.903441 222.464332 
L 339.569445 223.915098 
L 340.235449 219.554135 
L 340.901452 235.162754 
L 341.567456 228.780744 
L 342.233459 214.789258 
L 342.899463 241.554134 
L 343.565466 234.721549 
L 344.23147 219.596561 
L 344.897474 264.791935 
L 345.563477 244.733907 
L 346.229481 243.947901 
L 346.895484 232.161672 
L 347.561488 232.418154 
L 348.227492 223.118181 
L 348.893495 228.129463 
L 349.559499 223.802197 
L 350.225502 204.200329 
L 350.891506 216.11711 
L 351.557509 190.58336 
L 352.223513 189.631052 
L 352.889517 187.093961 
L 353.55552 170.904792 
L 354.221524 170.36211 
L 354.887527 184.980938 
L 355.553531 187.446463 
L 356.219535 185.344223 
L 356.885538 187.332728 
L 357.551542 208.900444 
L 358.217545 170.658579 
L 358.883549 177.037829 
L 359.549552 181.33435 
L 360.215556 168.418406 
L 360.88156 176.707599 
L 361.547563 182.786015 
L 362.213567 152.608568 
L 362.87957 174.05658 
L 363.545574 183.002831 
L 364.211577 180.293853 
L 364.877581 180.699243 
L 365.543585 190.860445 
L 366.875592 204.247184 
L 367.541595 200.138595 
L 368.207599 209.530994 
L 368.873603 242.087509 
L 369.539606 208.582409 
L 370.20561 211.984132 
L 370.871613 217.37314 
L 371.537617 230.481638 
L 372.20362 224.451874 
L 372.869624 219.976855 
L 373.535628 236.119234 
L 374.201631 235.449018 
L 374.867635 221.055992 
L 375.533638 240.638668 
L 376.199642 221.255221 
L 376.865646 193.702671 
L 377.531649 192.195294 
L 378.197653 189.77688 
L 378.863656 213.971289 
L 379.52966 208.557312 
L 380.195663 209.944022 
L 380.861667 208.453333 
L 381.527671 200.576399 
L 382.859678 247.309188 
L 383.525681 232.246652 
L 384.191685 226.845641 
L 384.857688 215.759217 
L 385.523692 232.997163 
L 386.189696 222.309262 
L 386.855699 222.579736 
L 387.521703 218.058311 
L 388.187706 241.391747 
L 388.85371 237.260565 
L 389.519714 223.681851 
L 390.185717 248.092626 
L 390.851721 203.859444 
L 391.517724 195.965501 
L 392.183728 152.024616 
L 392.849731 174.887578 
L 393.515735 192.931043 
L 394.181739 187.496014 
L 394.847742 178.871392 
L 395.513746 198.376084 
L 396.179749 157.014268 
L 396.845753 189.038756 
L 397.511757 191.230149 
L 398.17776 194.512424 
L 398.843764 195.243423 
L 399.509767 216.284376 
L 400.175771 195.685463 
L 400.841774 211.839459 
L 402.173782 174.350353 
L 402.839785 141.172915 
L 403.505789 178.302844 
L 404.171792 186.875476 
L 404.837796 190.370524 
L 405.503799 204.955718 
L 406.169803 222.346232 
L 406.835807 205.052124 
L 407.50181 228.885301 
L 408.167814 209.585679 
L 408.833817 238.413964 
L 409.499821 234.875528 
L 410.165825 202.99109 
L 410.831828 191.092666 
L 411.497832 194.609536 
L 412.163835 214.666922 
L 412.829839 218.428272 
L 413.495842 221.133142 
L 414.161846 253.674253 
L 414.82785 214.785728 
L 415.493853 200.949889 
L 416.159857 199.53051 
L 416.82586 191.041318 
L 417.491864 158.820938 
L 418.823871 110.597139 
L 419.489875 164.805901 
L 420.155878 191.363525 
L 420.821882 142.269382 
L 422.153889 200.111445 
L 422.819893 188.859103 
L 423.485896 194.963386 
L 424.1519 217.549455 
L 424.817903 207.281706 
L 425.483907 225.363874 
L 426.14991 219.562864 
L 426.815914 225.810086 
L 427.481918 204.348339 
L 428.147921 196.761968 
L 428.813925 180.901425 
L 429.479928 191.4426 
L 430.145932 175.467744 
L 430.811936 174.144962 
L 431.477939 166.589978 
L 432.143943 174.422817 
L 432.809946 165.412253 
L 433.47595 185.079333 
L 434.141953 195.271601 
L 434.807957 210.479836 
L 435.473961 190.447032 
L 436.139964 198.915364 
L 436.805968 220.292772 
L 437.471971 201.981658 
L 438.137975 209.190173 
L 438.803979 232.761092 
L 439.469982 227.941915 
L 440.135986 198.042966 
L 440.801989 222.978836 
L 441.467993 188.032854 
L 442.133996 179.44469 
L 442.8 183.045578 
L 443.466004 224.770102 
L 444.132007 189.828163 
L 444.798011 185.782925 
L 445.464014 231.991903 
L 446.130018 205.637745 
L 446.796021 208.692229 
L 447.462025 231.2179 
L 448.128029 213.429955 
L 448.794032 255.210384 
L 449.460036 239.354333 
L 450.126039 201.741543 
L 450.792043 178.115618 
L 451.458047 141.445443 
L 452.12405 178.473319 
L 452.790054 172.668715 
L 453.456057 133.77666 
L 454.122061 137.344942 
L 454.788064 136.90425 
L 455.454068 145.43099 
L 456.120072 150.246059 
L 456.786075 172.501 
L 457.452079 190.112309 
L 458.118082 188.722198 
L 458.784086 226.444551 
L 459.45009 180.342761 
L 460.116093 185.28466 
L 460.782097 213.890159 
L 461.4481 204.840379 
L 462.114104 222.194885 
L 462.780107 218.871659 
L 463.446111 245.067731 
L 464.112115 210.352172 
L 464.778118 213.418274 
L 465.444122 184.794866 
L 466.110125 236.090094 
L 466.776129 230.744988 
L 467.442132 220.502335 
L 468.108136 259.174814 
L 468.77414 216.405941 
L 469.440143 224.516572 
L 470.106147 225.120422 
L 470.77215 241.122428 
L 471.438154 227.01849 
L 472.104158 208.984911 
L 472.770161 175.868834 
L 473.436165 166.277784 
L 474.102168 152.486168 
L 474.768172 162.73755 
L 475.434175 89.28 
L 476.100179 136.288719 
L 476.766183 130.179623 
L 477.432186 151.191628 
L 478.09819 181.347636 
L 478.764193 145.038437 
L 479.430197 167.238564 
L 480.096201 167.982336 
L 480.762204 161.447182 
L 481.428208 171.876034 
L 482.094211 166.413021 
L 482.760215 172.639446 
L 483.426218 189.93824 
L 484.092222 200.840069 
L 484.758226 189.495751 
L 485.424229 187.47265 
L 486.090233 187.354487 
L 486.756236 189.702041 
L 487.42224 198.454069 
L 488.088243 204.169392 
L 488.754247 199.101114 
L 489.420251 211.524441 
L 490.086254 188.725214 
L 490.752258 194.2829 
L 491.418261 217.651766 
L 492.084265 205.540505 
L 492.750269 206.343455 
L 493.416272 206.798396 
L 494.082276 217.172178 
L 494.748279 210.583558 
L 495.414283 209.719055 
L 496.080286 194.739317 
L 496.74629 227.503855 
L 497.412294 187.309236 
L 498.078297 218.442007 
L 498.744301 213.529185 
L 499.410304 173.075517 
L 500.076308 195.810816 
L 500.742312 199.008303 
L 501.408315 172.278985 
L 502.074319 202.543595 
L 502.740322 134.958428 
L 503.406326 178.694242 
L 504.072329 169.00576 
L 505.404337 194.611911 
L 506.07034 177.690651 
L 506.736344 174.950479 
L 507.402347 188.444406 
L 508.068351 182.975488 
L 508.734354 193.813004 
L 509.400358 209.66315 
L 510.066362 255.077458 
L 510.732365 227.851736 
L 511.398369 236.428476 
L 512.064372 201.182687 
L 512.730376 218.881223 
L 513.39638 231.415846 
L 514.062383 203.424529 
L 514.728387 230.277852 
L 515.39439 177.520305 
L 516.060394 228.136138 
L 516.726397 197.50343 
L 517.392401 203.970163 
L 518.058405 198.666199 
L 518.724408 197.516202 
L 519.390412 177.116455 
L 520.056415 191.032974 
L 520.722419 202.522542 
L 521.388423 209.558914 
L 522.054426 209.377336 
L 522.72043 200.550404 
L 523.386433 200.140071 
L 524.052437 187.411932 
L 524.71844 212.834771 
L 525.384444 214.618784 
L 526.050448 188.068348 
L 526.716451 215.407228 
L 527.382455 221.115812 
L 528.048458 229.804747 
L 528.714462 233.106085 
L 529.380465 206.155394 
L 530.046469 230.455451 
L 530.712473 240.89791 
L 531.378476 236.57533 
L 532.04448 262.304137 
L 532.710483 250.446855 
L 533.376487 256.091511 
L 534.042491 271.721119 
L 534.708494 238.133477 
L 535.374498 230.386388 
L 536.040501 264.829804 
L 537.372508 156.748736 
L 538.038512 175.814469 
L 538.704516 174.486681 
L 539.370519 159.109448 
L 540.036523 182.792818 
L 540.702526 177.298419 
L 541.36853 215.107101 
L 542.034534 190.386827 
L 542.700537 182.93595 
L 543.366541 226.08563 
L 544.032544 221.197712 
L 544.698548 197.667935 
L 545.364551 201.807653 
L 546.030555 203.774592 
L 546.696559 209.970338 
L 547.362562 219.503172 
L 548.028566 238.919097 
L 548.694569 235.401072 
L 549.360573 272.996468 
L 550.026576 233.156149 
L 550.69258 215.739063 
L 551.358584 213.595552 
L 552.024587 192.163394 
L 552.690591 205.803148 
L 553.356594 207.681448 
L 554.022598 224.966122 
L 554.688602 204.55848 
L 555.354605 226.839544 
L 557.352616 180.568114 
L 558.018619 206.11239 
L 558.684623 170.734317 
L 559.350627 161.468363 
L 560.01663 209.1007 
L 560.682634 220.634812 
L 561.348637 175.087835 
L 562.014641 227.152765 
L 562.680645 224.422285 
L 563.346648 204.790443 
L 564.012652 243.825373 
L 564.678655 263.099385 
L 565.344659 286.807916 
L 566.010662 275.945047 
L 566.676666 254.255252 
L 567.34267 220.477046 
L 568.008673 272.420667 
L 568.674677 237.323017 
L 569.34068 270.51618 
L 570.006684 254.539205 
L 570.672687 250.064379 
L 571.338691 259.305173 
L 572.004695 238.88033 
L 572.670698 273.403976 
L 573.336702 213.997861 
L 574.002705 229.402822 
L 574.668709 237.03746 
L 575.334713 209.542932 
L 576.000716 267.976585 
L 576.66672 287.266837 
L 577.332723 260.15838 
L 577.998727 227.755715 
L 578.66473 219.654584 
L 579.330734 205.99551 
L 579.996738 247.703667 
L 580.662741 250.843516 
L 581.328745 268.987109 
L 581.994748 238.478726 
L 582.660752 244.604446 
L 583.326756 248.57292 
L 583.992759 223.023509 
L 584.658763 267.116896 
L 585.99077 238.513193 
L 586.656773 231.287284 
L 587.322777 250.503338 
L 587.988781 243.76889 
L 588.654784 265.855988 
L 589.320788 244.043472 
L 589.986791 260.048817 
L 590.652795 263.988343 
L 591.318798 329.074801 
L 591.984802 281.737521 
L 593.316809 272.800769 
L 593.982813 277.688174 
L 594.648816 267.473057 
L 595.31482 312.980882 
L 595.980824 275.041006 
L 596.646827 286.198611 
L 597.312831 294.022722 
L 597.978834 278.681496 
L 598.644838 208.326633 
L 599.310841 237.691245 
L 599.976845 169.596901 
L 600.642849 212.084003 
L 601.308852 219.188411 
L 601.974856 190.438816 
L 602.640859 242.006379 
L 603.306863 229.046148 
L 603.972867 233.506019 
L 604.63887 265.823254 
L 605.304874 269.300843 
L 606.636881 233.29498 
L 607.302884 266.73596 
L 607.968888 269.494424 
L 608.634892 278.316157 
L 609.300895 271.899359 
L 609.966899 285.38982 
L 610.632902 320.404993 
L 611.298906 264.618893 
L 611.964909 243.269341 
L 612.630913 308.673385 
L 613.296917 267.794494 
L 614.628924 288.298092 
L 615.294927 304.339379 
L 615.960931 305.884882 
L 616.626935 339.643383 
L 617.292938 280.810309 
L 617.958942 317.792934 
L 618.624945 339.686708 
L 619.290949 313.508865 
L 619.956952 317.658724 
L 620.622956 358.682994 
L 621.28896 306.810938 
L 621.954963 202.496676 
L 622.620967 241.557729 
L 623.952974 275.49062 
L 624.618978 248.287041 
L 625.284981 237.036176 
L 625.950985 289.539616 
L 626.616988 273.84377 
L 627.282992 343.760316 
L 627.948995 313.859505 
L 628.614999 381.45706 
L 629.281003 346.038551 
L 629.947006 375.292893 
L 631.279013 354.650849 
L 631.945017 252.67156 
L 632.61102 263.629936 
L 633.277024 210.874892 
L 633.943028 243.925501 
L 635.275035 292.405461 
L 636.607042 235.317439 
L 637.273046 311.237883 
L 637.939049 273.087546 
L 638.605053 312.495389 
L 639.271056 274.536322 
L 639.93706 291.305978 
L 640.603063 281.823721 
L 641.269067 286.566004 
L 641.935071 285.593093 
L 642.601074 284.38809 
L 643.267078 276.979832 
L 643.933081 313.80206 
L 644.599085 240.781094 
L 645.265089 191.158391 
L 645.931092 251.998006 
L 646.597096 285.853426 
L 647.263099 263.35959 
L 647.929103 289.737946 
L 649.927114 262.56922 
L 650.593117 307.294506 
L 651.259121 278.853896 
L 651.925124 285.287767 
L 652.591128 308.543475 
L 653.257131 399.552578 
L 653.923135 335.37966 
L 654.589139 383.757823 
L 655.255142 374.250149 
L 655.921146 371.654136 
L 656.587149 357.792046 
L 657.253153 346.908895 
L 657.919157 365.778287 
L 658.58516 435.419995 
L 659.251164 388.777963 
L 659.917167 385.125534 
L 660.583171 398.63493 
L 661.249174 400.742433 
L 661.915178 383.077787 
L 662.581182 352.540329 
L 663.247185 316.470602 
L 663.913189 386.243503 
L 664.579192 361.930352 
L 665.245196 361.201985 
L 665.9112 386.361153 
L 666.577203 369.929559 
L 667.243207 430.993628 
L 667.90921 410.286628 
L 668.575214 429.865711 
L 669.241217 427.499832 
L 669.907221 405.731924 
L 670.573225 355.054827 
L 671.239228 313.602703 
L 671.905232 253.027656 
L 672.571235 298.061413 
L 673.237239 266.600787 
L 673.903242 333.765352 
L 674.569246 304.118841 
L 675.23525 328.157602 
L 675.901253 370.645731 
L 676.567257 337.992746 
L 677.23326 388.316603 
L 677.899264 412.682834 
L 678.565268 386.338304 
L 679.231271 431.991892 
L 679.897275 468.397882 
L 680.563278 460.7644 
L 681.229282 490.971275 
L 681.895285 485.352389 
L 682.561289 437.338346 
L 683.227293 417.943666 
L 683.893296 383.138185 
L 684.5593 397.87601 
L 685.225303 437.887349 
L 685.891307 396.864588 
L 686.557311 281.303825 
L 687.223314 383.629133 
L 687.889318 323.837461 
L 688.555321 306.671786 
L 689.221325 392.700416 
L 689.887328 389.747472 
L 690.553332 329.728907 
L 691.219336 353.694947 
L 691.885339 281.363645 
L 692.551343 391.95183 
L 693.217346 401.788964 
L 693.88335 355.716314 
L 694.549353 372.82679 
L 695.215357 367.011339 
L 695.881361 428.185099 
L 696.547364 384.339208 
L 697.213368 400.161369 
L 697.879371 421.689708 
L 698.545375 453.306367 
L 699.211379 443.671318 
L 699.877382 357.462907 
L 700.543386 492.48 
L 701.209389 312.779278 
L 701.875393 330.182885 
L 702.541396 282.049201 
L 703.2074 283.039506 
L 703.873404 275.790876 
L 704.539407 402.372242 
L 705.205411 279.473792 
L 705.871414 236.521415 
L 706.537418 284.327436 
L 707.203422 342.124762 
L 707.869425 443.440831 
L 708.535429 426.675797 
L 709.201432 436.824708 
L 709.867436 427.144024 
L 710.533439 353.563175 
L 711.199443 364.993565 
L 711.865447 489.715021 
L 712.53145 415.083341 
L 713.197454 484.612533 
L 713.863457 400.998273 
L 714.529461 420.193499 
L 715.195464 436.002791 
L 715.861468 298.651527 
L 716.527472 263.382055 
L 717.193475 201.28089 
L 717.859479 204.270804 
L 718.525482 189.958202 
L 719.191486 179.266192 
L 719.85749 191.599724 
L 720.523493 198.454775 
L 721.189497 402.584405 
L 721.8555 303.672822 
L 722.521504 370.433601 
L 723.187507 287.314654 
L 723.853511 366.34446 
L 724.519515 303.62648 
L 725.185518 337.143391 
L 725.851522 349.82076 
L 726.517525 374.165554 
L 727.183529 413.853755 
L 727.849533 361.689724 
L 728.515536 456.138676 
L 729.18154 346.324301 
L 729.847543 457.037068 
L 730.513547 429.866802 
L 731.17955 382.558982 
L 731.845554 360.20616 
L 732.511558 430.282783 
L 733.177561 454.67886 
L 733.843565 447.517745 
L 734.509568 466.258158 
L 735.175572 355.820807 
L 735.841575 350.917997 
L 736.507579 308.413501 
L 737.173583 333.376457 
L 737.839586 404.617133 
L 738.50559 196.002471 
L 739.171593 241.001569 
L 739.837597 361.782856 
L 740.503601 329.501372 
L 741.169604 287.811251 
L 741.835608 327.372688 
L 742.501611 295.384592 
L 743.167615 234.864488 
L 743.833618 270.021573 
L 744.499622 257.609286 
L 745.165626 334.568109 
L 745.831629 371.38623 
L 746.497633 340.639786 
L 747.163636 331.470686 
L 747.163636 331.470686 
" clip-path="url(#pf81d40ef9c)" style="fill: none; stroke: #1f77b4; stroke-width: 1.5; stroke-linecap: square"/>
   </g>
   <g id="patch_3">
    <path d="M 108 512.64 
L 108 69.12 
" style="fill: none; stroke: #000000; stroke-width: 0.8; stroke-linejoin: miter; stroke-linecap: square"/>
   </g>
   <g id="patch_4">
    <path d="M 777.6 512.64 
L 777.6 69.12 
" style="fill: none; stroke: #000000; stroke-width: 0.8; stroke-linejoin: miter; stroke-linecap: square"/>
   </g>
   <g id="patch_5">
    <path d="M 108 512.64 
L 777.6 512.64 
" style="fill: none; stroke: #000000; stroke-width: 0.8; stroke-linejoin: miter; stroke-linecap: square"/>
   </g>
   <g id="patch_6">
    <path d="M 108 69.12 
L 777.6 69.12 
" style="fill: none; stroke: #000000; stroke-width: 0.8; stroke-linejoin: miter; stroke-linecap: square"/>
   </g>
   <g id="text_17">
    <!-- Discriminator loss across training steps -->
    <g transform="translate(253.8075 63.12)scale(0.192 -0.192)">
     <defs>
      <path id="DejaVuSans-44" d="M 1259 4147 
L 1259 519 
L 2022 519 
Q 2988 519 3436 956 
Q 3884 1394 3884 2338 
Q 3884 3275 3436 3711 
Q 2988 4147 2022 4147 
L 1259 4147 
z
M 628 4666 
L 1925 4666 
Q 3281 4666 3915 4102 
Q 4550 3538 4550 2338 
Q 4550 1131 3912 565 
Q 3275 0 1925 0 
L 628 0 
L 628 4666 
z
" transform="scale(0.015625)"/>
      <path id="DejaVuSans-63" d="M 3122 3366 
L 3122 2828 
Q 2878 2963 2633 3030 
Q 2388 3097 2138 3097 
Q 1578 3097 1268 2742 
Q 959 2388 959 1747 
Q 959 1106 1268 751 
Q 1578 397 2138 397 
Q 2388 397 2633 464 
Q 2878 531 3122 666 
L 3122 134 
Q 2881 22 2623 -34 
Q 2366 -91 2075 -91 
Q 1284 -91 818 406 
Q 353 903 353 1747 
Q 353 2603 823 3093 
Q 1294 3584 2113 3584 
Q 2378 3584 2631 3529 
Q 2884 3475 3122 3366 
z
" transform="scale(0.015625)"/>
      <path id="DejaVuSans-6d" d="M 3328 2828 
Q 3544 3216 3844 3400 
Q 4144 3584 4550 3584 
Q 5097 3584 5394 3201 
Q 5691 2819 5691 2113 
L 5691 0 
L 5113 0 
L 5113 2094 
Q 5113 2597 4934 2840 
Q 4756 3084 4391 3084 
Q 3944 3084 3684 2787 
Q 3425 2491 3425 1978 
L 3425 0 
L 2847 0 
L 2847 2094 
Q 2847 2600 2669 2842 
Q 2491 3084 2119 3084 
Q 1678 3084 1418 2786 
Q 1159 2488 1159 1978 
L 1159 0 
L 581 0 
L 581 3500 
L 1159 3500 
L 1159 2956 
Q 1356 3278 1631 3431 
Q 1906 3584 2284 3584 
Q 2666 3584 2933 3390 
Q 3200 3197 3328 2828 
z
" transform="scale(0.015625)"/>
      <path id="DejaVuSans-6c" d="M 603 4863 
L 1178 4863 
L 1178 0 
L 603 0 
L 603 4863 
z
" transform="scale(0.015625)"/>
     </defs>
     <use xlink:href="#DejaVuSans-44"/>
     <use xlink:href="#DejaVuSans-69" x="77.001953"/>
     <use xlink:href="#DejaVuSans-73" x="104.785156"/>
     <use xlink:href="#DejaVuSans-63" x="156.884766"/>
     <use xlink:href="#DejaVuSans-72" x="211.865234"/>
     <use xlink:href="#DejaVuSans-69" x="252.978516"/>
     <use xlink:href="#DejaVuSans-6d" x="280.761719"/>
     <use xlink:href="#DejaVuSans-69" x="378.173828"/>
     <use xlink:href="#DejaVuSans-6e" x="405.957031"/>
     <use xlink:href="#DejaVuSans-61" x="469.335938"/>
     <use xlink:href="#DejaVuSans-74" x="530.615234"/>
     <use xlink:href="#DejaVuSans-6f" x="569.824219"/>
     <use xlink:href="#DejaVuSans-72" x="631.005859"/>
     <use xlink:href="#DejaVuSans-20" x="672.119141"/>
     <use xlink:href="#DejaVuSans-6c" x="703.90625"/>
     <use xlink:href="#DejaVuSans-6f" x="731.689453"/>
     <use xlink:href="#DejaVuSans-73" x="792.871094"/>
     <use xlink:href="#DejaVuSans-73" x="844.970703"/>
     <use xlink:href="#DejaVuSans-20" x="897.070312"/>
     <use xlink:href="#DejaVuSans-61" x="928.857422"/>
     <use xlink:href="#DejaVuSans-63" x="990.136719"/>
     <use xlink:href="#DejaVuSans-72" x="1045.117188"/>
     <use xlink:href="#DejaVuSans-6f" x="1083.980469"/>
     <use xlink:href="#DejaVuSans-73" x="1145.162109"/>
     <use xlink:href="#DejaVuSans-73" x="1197.261719"/>
     <use xlink:href="#DejaVuSans-20" x="1249.361328"/>
     <use xlink:href="#DejaVuSans-74" x="1281.148438"/>
     <use xlink:href="#DejaVuSans-72" x="1320.357422"/>
     <use xlink:href="#DejaVuSans-61" x="1361.470703"/>
     <use xlink:href="#DejaVuSans-69" x="1422.75"/>
     <use xlink:href="#DejaVuSans-6e" x="1450.533203"/>
     <use xlink:href="#DejaVuSans-69" x="1513.912109"/>
     <use xlink:href="#DejaVuSans-6e" x="1541.695312"/>
     <use xlink:href="#DejaVuSans-67" x="1605.074219"/>
     <use xlink:href="#DejaVuSans-20" x="1668.550781"/>
     <use xlink:href="#DejaVuSans-73" x="1700.337891"/>
     <use xlink:href="#DejaVuSans-74" x="1752.4375"/>
     <use xlink:href="#DejaVuSans-65" x="1791.646484"/>
     <use xlink:href="#DejaVuSans-70" x="1853.169922"/>
     <use xlink:href="#DejaVuSans-73" x="1916.646484"/>
    </g>
   </g>
   <g id="legend_1">
    <g id="patch_7">
     <path d="M 119.2 105.405 
L 218.71 105.405 
Q 221.91 105.405 221.91 102.205 
L 221.91 80.32 
Q 221.91 77.12 218.71 77.12 
L 119.2 77.12 
Q 116 77.12 116 80.32 
L 116 102.205 
Q 116 105.405 119.2 105.405 
z
" style="fill: #ffffff; opacity: 0.8; stroke: #cccccc; stroke-linejoin: miter"/>
    </g>
    <g id="line2d_16">
     <path d="M 122.4 90.0775 
L 138.4 90.0775 
L 154.4 90.0775 
" style="fill: none; stroke: #1f77b4; stroke-width: 1.5; stroke-linecap: square"/>
    </g>
    <g id="text_18">
     <!-- D loss -->
     <g transform="translate(167.2 95.6775)scale(0.16 -0.16)">
      <use xlink:href="#DejaVuSans-44"/>
      <use xlink:href="#DejaVuSans-20" x="77.001953"/>
      <use xlink:href="#DejaVuSans-6c" x="108.789062"/>
      <use xlink:href="#DejaVuSans-6f" x="136.572266"/>
      <use xlink:href="#DejaVuSans-73" x="197.753906"/>
      <use xlink:href="#DejaVuSans-73" x="249.853516"/>
     </g>
    </g>
   </g>
  </g>
 </g>
 <defs>
  <clipPath id="pf81d40ef9c">
   <rect x="108" y="69.12" width="669.6" height="443.52"/>
  </clipPath>
 </defs>
</svg>
