<?xml version="1.0" encoding="utf-8" standalone="no"?>
<!DOCTYPE svg PUBLIC "-//W3C//DTD SVG 1.1//EN"
  "http://www.w3.org/Graphics/SVG/1.1/DTD/svg11.dtd">
<svg xmlns:xlink="http://www.w3.org/1999/xlink" width="864pt" height="576pt" viewBox="0 0 864 576" xmlns="http://www.w3.org/2000/svg" version="1.1">
 <metadata>
  <rdf:RDF xmlns:dc="http://purl.org/dc/elements/1.1/" xmlns:cc="http://creativecommons.org/ns#" xmlns:rdf="http://www.w3.org/1999/02/22-rdf-syntax-ns#">
   <cc:Work>
    <dc:type rdf:resource="http://purl.org/dc/dcmitype/StillImage"/>
    <dc:date>2022-01-30T05:38:10.311931</dc:date>
    <dc:format>image/svg+xml</dc:format>
    <dc:creator>
     <cc:Agent>
      <dc:title>Matplotlib v3.5.0, https://matplotlib.org/</dc:title>
     </cc:Agent>
    </dc:creator>
   </cc:Work>
  </rdf:RDF>
 </metadata>
 <defs>
  <style type="text/css">*{stroke-linejoin: round; stroke-linecap: butt}</style>
 </defs>
 <g id="figure_1">
  <g id="patch_1">
   <path d="M 0 576 
L 864 576 
L 864 0 
L 0 0 
z
" style="fill: #ffffff"/>
  </g>
  <g id="axes_1">
   <g id="patch_2">
    <path d="M 108 512.64 
L 777.6 512.64 
L 777.6 69.12 
L 108 69.12 
z
" style="fill: #ffffff"/>
   </g>
   <g id="matplotlib.axis_1">
    <g id="xtick_1">
     <g id="line2d_1">
      <defs>
       <path id="m02a32a9791" d="M 0 0 
L 0 3.5 
" style="stroke: #000000; stroke-width: 0.8"/>
      </defs>
      <g>
       <use xlink:href="#m02a32a9791" x="138.436364" y="512.64" style="stroke: #000000; stroke-width: 0.8"/>
      </g>
     </g>
     <g id="text_1">
      <!-- 0 -->
      <g transform="translate(133.346364 531.7975)scale(0.16 -0.16)">
       <defs>
        <path id="DejaVuSans-30" d="M 2034 4250 
Q 1547 4250 1301 3770 
Q 1056 3291 1056 2328 
Q 1056 1369 1301 889 
Q 1547 409 2034 409 
Q 2525 409 2770 889 
Q 3016 1369 3016 2328 
Q 3016 3291 2770 3770 
Q 2525 4250 2034 4250 
z
M 2034 4750 
Q 2819 4750 3233 4129 
Q 3647 3509 3647 2328 
Q 3647 1150 3233 529 
Q 2819 -91 2034 -91 
Q 1250 -91 836 529 
Q 422 1150 422 2328 
Q 422 3509 836 4129 
Q 1250 4750 2034 4750 
z
" transform="scale(0.015625)"/>
       </defs>
       <use xlink:href="#DejaVuSans-30"/>
      </g>
     </g>
    </g>
    <g id="xtick_2">
     <g id="line2d_2">
      <g>
       <use xlink:href="#m02a32a9791" x="270.195514" y="512.64" style="stroke: #000000; stroke-width: 0.8"/>
      </g>
     </g>
     <g id="text_2">
      <!-- 200 -->
      <g transform="translate(254.925514 531.7975)scale(0.16 -0.16)">
       <defs>
        <path id="DejaVuSans-32" d="M 1228 531 
L 3431 531 
L 3431 0 
L 469 0 
L 469 531 
Q 828 903 1448 1529 
Q 2069 2156 2228 2338 
Q 2531 2678 2651 2914 
Q 2772 3150 2772 3378 
Q 2772 3750 2511 3984 
Q 2250 4219 1831 4219 
Q 1534 4219 1204 4116 
Q 875 4013 500 3803 
L 500 4441 
Q 881 4594 1212 4672 
Q 1544 4750 1819 4750 
Q 2544 4750 2975 4387 
Q 3406 4025 3406 3419 
Q 3406 3131 3298 2873 
Q 3191 2616 2906 2266 
Q 2828 2175 2409 1742 
Q 1991 1309 1228 531 
z
" transform="scale(0.015625)"/>
       </defs>
       <use xlink:href="#DejaVuSans-32"/>
       <use xlink:href="#DejaVuSans-30" x="63.623047"/>
       <use xlink:href="#DejaVuSans-30" x="127.246094"/>
      </g>
     </g>
    </g>
    <g id="xtick_3">
     <g id="line2d_3">
      <g>
       <use xlink:href="#m02a32a9791" x="401.954664" y="512.64" style="stroke: #000000; stroke-width: 0.8"/>
      </g>
     </g>
     <g id="text_3">
      <!-- 400 -->
      <g transform="translate(386.684664 531.7975)scale(0.16 -0.16)">
       <defs>
        <path id="DejaVuSans-34" d="M 2419 4116 
L 825 1625 
L 2419 1625 
L 2419 4116 
z
M 2253 4666 
L 3047 4666 
L 3047 1625 
L 3713 1625 
L 3713 1100 
L 3047 1100 
L 3047 0 
L 2419 0 
L 2419 1100 
L 313 1100 
L 313 1709 
L 2253 4666 
z
" transform="scale(0.015625)"/>
       </defs>
       <use xlink:href="#DejaVuSans-34"/>
       <use xlink:href="#DejaVuSans-30" x="63.623047"/>
       <use xlink:href="#DejaVuSans-30" x="127.246094"/>
      </g>
     </g>
    </g>
    <g id="xtick_4">
     <g id="line2d_4">
      <g>
       <use xlink:href="#m02a32a9791" x="533.713813" y="512.64" style="stroke: #000000; stroke-width: 0.8"/>
      </g>
     </g>
     <g id="text_4">
      <!-- 600 -->
      <g transform="translate(518.443813 531.7975)scale(0.16 -0.16)">
       <defs>
        <path id="DejaVuSans-36" d="M 2113 2584 
Q 1688 2584 1439 2293 
Q 1191 2003 1191 1497 
Q 1191 994 1439 701 
Q 1688 409 2113 409 
Q 2538 409 2786 701 
Q 3034 994 3034 1497 
Q 3034 2003 2786 2293 
Q 2538 2584 2113 2584 
z
M 3366 4563 
L 3366 3988 
Q 3128 4100 2886 4159 
Q 2644 4219 2406 4219 
Q 1781 4219 1451 3797 
Q 1122 3375 1075 2522 
Q 1259 2794 1537 2939 
Q 1816 3084 2150 3084 
Q 2853 3084 3261 2657 
Q 3669 2231 3669 1497 
Q 3669 778 3244 343 
Q 2819 -91 2113 -91 
Q 1303 -91 875 529 
Q 447 1150 447 2328 
Q 447 3434 972 4092 
Q 1497 4750 2381 4750 
Q 2619 4750 2861 4703 
Q 3103 4656 3366 4563 
z
" transform="scale(0.015625)"/>
       </defs>
       <use xlink:href="#DejaVuSans-36"/>
       <use xlink:href="#DejaVuSans-30" x="63.623047"/>
       <use xlink:href="#DejaVuSans-30" x="127.246094"/>
      </g>
     </g>
    </g>
    <g id="xtick_5">
     <g id="line2d_5">
      <g>
       <use xlink:href="#m02a32a9791" x="665.472963" y="512.64" style="stroke: #000000; stroke-width: 0.8"/>
      </g>
     </g>
     <g id="text_5">
      <!-- 800 -->
      <g transform="translate(650.202963 531.7975)scale(0.16 -0.16)">
       <defs>
        <path id="DejaVuSans-38" d="M 2034 2216 
Q 1584 2216 1326 1975 
Q 1069 1734 1069 1313 
Q 1069 891 1326 650 
Q 1584 409 2034 409 
Q 2484 409 2743 651 
Q 3003 894 3003 1313 
Q 3003 1734 2745 1975 
Q 2488 2216 2034 2216 
z
M 1403 2484 
Q 997 2584 770 2862 
Q 544 3141 544 3541 
Q 544 4100 942 4425 
Q 1341 4750 2034 4750 
Q 2731 4750 3128 4425 
Q 3525 4100 3525 3541 
Q 3525 3141 3298 2862 
Q 3072 2584 2669 2484 
Q 3125 2378 3379 2068 
Q 3634 1759 3634 1313 
Q 3634 634 3220 271 
Q 2806 -91 2034 -91 
Q 1263 -91 848 271 
Q 434 634 434 1313 
Q 434 1759 690 2068 
Q 947 2378 1403 2484 
z
M 1172 3481 
Q 1172 3119 1398 2916 
Q 1625 2713 2034 2713 
Q 2441 2713 2670 2916 
Q 2900 3119 2900 3481 
Q 2900 3844 2670 4047 
Q 2441 4250 2034 4250 
Q 1625 4250 1398 4047 
Q 1172 3844 1172 3481 
z
" transform="scale(0.015625)"/>
       </defs>
       <use xlink:href="#DejaVuSans-38"/>
       <use xlink:href="#DejaVuSans-30" x="63.623047"/>
       <use xlink:href="#DejaVuSans-30" x="127.246094"/>
      </g>
     </g>
    </g>
    <g id="text_6">
     <!-- Training steps -->
     <g transform="translate(387.22375 551.2825)scale(0.16 -0.16)">
      <defs>
       <path id="DejaVuSans-54" d="M -19 4666 
L 3928 4666 
L 3928 4134 
L 2272 4134 
L 2272 0 
L 1638 0 
L 1638 4134 
L -19 4134 
L -19 4666 
z
" transform="scale(0.015625)"/>
       <path id="DejaVuSans-72" d="M 2631 2963 
Q 2534 3019 2420 3045 
Q 2306 3072 2169 3072 
Q 1681 3072 1420 2755 
Q 1159 2438 1159 1844 
L 1159 0 
L 581 0 
L 581 3500 
L 1159 3500 
L 1159 2956 
Q 1341 3275 1631 3429 
Q 1922 3584 2338 3584 
Q 2397 3584 2469 3576 
Q 2541 3569 2628 3553 
L 2631 2963 
z
" transform="scale(0.015625)"/>
       <path id="DejaVuSans-61" d="M 2194 1759 
Q 1497 1759 1228 1600 
Q 959 1441 959 1056 
Q 959 750 1161 570 
Q 1363 391 1709 391 
Q 2188 391 2477 730 
Q 2766 1069 2766 1631 
L 2766 1759 
L 2194 1759 
z
M 3341 1997 
L 3341 0 
L 2766 0 
L 2766 531 
Q 2569 213 2275 61 
Q 1981 -91 1556 -91 
Q 1019 -91 701 211 
Q 384 513 384 1019 
Q 384 1609 779 1909 
Q 1175 2209 1959 2209 
L 2766 2209 
L 2766 2266 
Q 2766 2663 2505 2880 
Q 2244 3097 1772 3097 
Q 1472 3097 1187 3025 
Q 903 2953 641 2809 
L 641 3341 
Q 956 3463 1253 3523 
Q 1550 3584 1831 3584 
Q 2591 3584 2966 3190 
Q 3341 2797 3341 1997 
z
" transform="scale(0.015625)"/>
       <path id="DejaVuSans-69" d="M 603 3500 
L 1178 3500 
L 1178 0 
L 603 0 
L 603 3500 
z
M 603 4863 
L 1178 4863 
L 1178 4134 
L 603 4134 
L 603 4863 
z
" transform="scale(0.015625)"/>
       <path id="DejaVuSans-6e" d="M 3513 2113 
L 3513 0 
L 2938 0 
L 2938 2094 
Q 2938 2591 2744 2837 
Q 2550 3084 2163 3084 
Q 1697 3084 1428 2787 
Q 1159 2491 1159 1978 
L 1159 0 
L 581 0 
L 581 3500 
L 1159 3500 
L 1159 2956 
Q 1366 3272 1645 3428 
Q 1925 3584 2291 3584 
Q 2894 3584 3203 3211 
Q 3513 2838 3513 2113 
z
" transform="scale(0.015625)"/>
       <path id="DejaVuSans-67" d="M 2906 1791 
Q 2906 2416 2648 2759 
Q 2391 3103 1925 3103 
Q 1463 3103 1205 2759 
Q 947 2416 947 1791 
Q 947 1169 1205 825 
Q 1463 481 1925 481 
Q 2391 481 2648 825 
Q 2906 1169 2906 1791 
z
M 3481 434 
Q 3481 -459 3084 -895 
Q 2688 -1331 1869 -1331 
Q 1566 -1331 1297 -1286 
Q 1028 -1241 775 -1147 
L 775 -588 
Q 1028 -725 1275 -790 
Q 1522 -856 1778 -856 
Q 2344 -856 2625 -561 
Q 2906 -266 2906 331 
L 2906 616 
Q 2728 306 2450 153 
Q 2172 0 1784 0 
Q 1141 0 747 490 
Q 353 981 353 1791 
Q 353 2603 747 3093 
Q 1141 3584 1784 3584 
Q 2172 3584 2450 3431 
Q 2728 3278 2906 2969 
L 2906 3500 
L 3481 3500 
L 3481 434 
z
" transform="scale(0.015625)"/>
       <path id="DejaVuSans-20" transform="scale(0.015625)"/>
       <path id="DejaVuSans-73" d="M 2834 3397 
L 2834 2853 
Q 2591 2978 2328 3040 
Q 2066 3103 1784 3103 
Q 1356 3103 1142 2972 
Q 928 2841 928 2578 
Q 928 2378 1081 2264 
Q 1234 2150 1697 2047 
L 1894 2003 
Q 2506 1872 2764 1633 
Q 3022 1394 3022 966 
Q 3022 478 2636 193 
Q 2250 -91 1575 -91 
Q 1294 -91 989 -36 
Q 684 19 347 128 
L 347 722 
Q 666 556 975 473 
Q 1284 391 1588 391 
Q 1994 391 2212 530 
Q 2431 669 2431 922 
Q 2431 1156 2273 1281 
Q 2116 1406 1581 1522 
L 1381 1569 
Q 847 1681 609 1914 
Q 372 2147 372 2553 
Q 372 3047 722 3315 
Q 1072 3584 1716 3584 
Q 2034 3584 2315 3537 
Q 2597 3491 2834 3397 
z
" transform="scale(0.015625)"/>
       <path id="DejaVuSans-74" d="M 1172 4494 
L 1172 3500 
L 2356 3500 
L 2356 3053 
L 1172 3053 
L 1172 1153 
Q 1172 725 1289 603 
Q 1406 481 1766 481 
L 2356 481 
L 2356 0 
L 1766 0 
Q 1100 0 847 248 
Q 594 497 594 1153 
L 594 3053 
L 172 3053 
L 172 3500 
L 594 3500 
L 594 4494 
L 1172 4494 
z
" transform="scale(0.015625)"/>
       <path id="DejaVuSans-65" d="M 3597 1894 
L 3597 1613 
L 953 1613 
Q 991 1019 1311 708 
Q 1631 397 2203 397 
Q 2534 397 2845 478 
Q 3156 559 3463 722 
L 3463 178 
Q 3153 47 2828 -22 
Q 2503 -91 2169 -91 
Q 1331 -91 842 396 
Q 353 884 353 1716 
Q 353 2575 817 3079 
Q 1281 3584 2069 3584 
Q 2775 3584 3186 3129 
Q 3597 2675 3597 1894 
z
M 3022 2063 
Q 3016 2534 2758 2815 
Q 2500 3097 2075 3097 
Q 1594 3097 1305 2825 
Q 1016 2553 972 2059 
L 3022 2063 
z
" transform="scale(0.015625)"/>
       <path id="DejaVuSans-70" d="M 1159 525 
L 1159 -1331 
L 581 -1331 
L 581 3500 
L 1159 3500 
L 1159 2969 
Q 1341 3281 1617 3432 
Q 1894 3584 2278 3584 
Q 2916 3584 3314 3078 
Q 3713 2572 3713 1747 
Q 3713 922 3314 415 
Q 2916 -91 2278 -91 
Q 1894 -91 1617 61 
Q 1341 213 1159 525 
z
M 3116 1747 
Q 3116 2381 2855 2742 
Q 2594 3103 2138 3103 
Q 1681 3103 1420 2742 
Q 1159 2381 1159 1747 
Q 1159 1113 1420 752 
Q 1681 391 2138 391 
Q 2594 391 2855 752 
Q 3116 1113 3116 1747 
z
" transform="scale(0.015625)"/>
      </defs>
      <use xlink:href="#DejaVuSans-54"/>
      <use xlink:href="#DejaVuSans-72" x="46.333984"/>
      <use xlink:href="#DejaVuSans-61" x="87.447266"/>
      <use xlink:href="#DejaVuSans-69" x="148.726562"/>
      <use xlink:href="#DejaVuSans-6e" x="176.509766"/>
      <use xlink:href="#DejaVuSans-69" x="239.888672"/>
      <use xlink:href="#DejaVuSans-6e" x="267.671875"/>
      <use xlink:href="#DejaVuSans-67" x="331.050781"/>
      <use xlink:href="#DejaVuSans-20" x="394.527344"/>
      <use xlink:href="#DejaVuSans-73" x="426.314453"/>
      <use xlink:href="#DejaVuSans-74" x="478.414062"/>
      <use xlink:href="#DejaVuSans-65" x="517.623047"/>
      <use xlink:href="#DejaVuSans-70" x="579.146484"/>
      <use xlink:href="#DejaVuSans-73" x="642.623047"/>
     </g>
    </g>
   </g>
   <g id="matplotlib.axis_2">
    <g id="ytick_1">
     <g id="line2d_6">
      <defs>
       <path id="mae951190a8" d="M 0 0 
L -3.5 0 
" style="stroke: #000000; stroke-width: 0.8"/>
      </defs>
      <g>
       <use xlink:href="#mae951190a8" x="108" y="458.500055" style="stroke: #000000; stroke-width: 0.8"/>
      </g>
     </g>
     <g id="text_7">
      <!-- 1.2 -->
      <g transform="translate(75.555 464.578805)scale(0.16 -0.16)">
       <defs>
        <path id="DejaVuSans-31" d="M 794 531 
L 1825 531 
L 1825 4091 
L 703 3866 
L 703 4441 
L 1819 4666 
L 2450 4666 
L 2450 531 
L 3481 531 
L 3481 0 
L 794 0 
L 794 531 
z
" transform="scale(0.015625)"/>
        <path id="DejaVuSans-2e" d="M 684 794 
L 1344 794 
L 1344 0 
L 684 0 
L 684 794 
z
" transform="scale(0.015625)"/>
       </defs>
       <use xlink:href="#DejaVuSans-31"/>
       <use xlink:href="#DejaVuSans-2e" x="63.623047"/>
       <use xlink:href="#DejaVuSans-32" x="95.410156"/>
      </g>
     </g>
    </g>
    <g id="ytick_2">
     <g id="line2d_7">
      <g>
       <use xlink:href="#mae951190a8" x="108" y="365.097862" style="stroke: #000000; stroke-width: 0.8"/>
      </g>
     </g>
     <g id="text_8">
      <!-- 1.3 -->
      <g transform="translate(75.555 371.176612)scale(0.16 -0.16)">
       <defs>
        <path id="DejaVuSans-33" d="M 2597 2516 
Q 3050 2419 3304 2112 
Q 3559 1806 3559 1356 
Q 3559 666 3084 287 
Q 2609 -91 1734 -91 
Q 1441 -91 1130 -33 
Q 819 25 488 141 
L 488 750 
Q 750 597 1062 519 
Q 1375 441 1716 441 
Q 2309 441 2620 675 
Q 2931 909 2931 1356 
Q 2931 1769 2642 2001 
Q 2353 2234 1838 2234 
L 1294 2234 
L 1294 2753 
L 1863 2753 
Q 2328 2753 2575 2939 
Q 2822 3125 2822 3475 
Q 2822 3834 2567 4026 
Q 2313 4219 1838 4219 
Q 1578 4219 1281 4162 
Q 984 4106 628 3988 
L 628 4550 
Q 988 4650 1302 4700 
Q 1616 4750 1894 4750 
Q 2613 4750 3031 4423 
Q 3450 4097 3450 3541 
Q 3450 3153 3228 2886 
Q 3006 2619 2597 2516 
z
" transform="scale(0.015625)"/>
       </defs>
       <use xlink:href="#DejaVuSans-31"/>
       <use xlink:href="#DejaVuSans-2e" x="63.623047"/>
       <use xlink:href="#DejaVuSans-33" x="95.410156"/>
      </g>
     </g>
    </g>
    <g id="ytick_3">
     <g id="line2d_8">
      <g>
       <use xlink:href="#mae951190a8" x="108" y="271.695669" style="stroke: #000000; stroke-width: 0.8"/>
      </g>
     </g>
     <g id="text_9">
      <!-- 1.4 -->
      <g transform="translate(75.555 277.774419)scale(0.16 -0.16)">
       <use xlink:href="#DejaVuSans-31"/>
       <use xlink:href="#DejaVuSans-2e" x="63.623047"/>
       <use xlink:href="#DejaVuSans-34" x="95.410156"/>
      </g>
     </g>
    </g>
    <g id="ytick_4">
     <g id="line2d_9">
      <g>
       <use xlink:href="#mae951190a8" x="108" y="178.293476" style="stroke: #000000; stroke-width: 0.8"/>
      </g>
     </g>
     <g id="text_10">
      <!-- 1.5 -->
      <g transform="translate(75.555 184.372226)scale(0.16 -0.16)">
       <defs>
        <path id="DejaVuSans-35" d="M 691 4666 
L 3169 4666 
L 3169 4134 
L 1269 4134 
L 1269 2991 
Q 1406 3038 1543 3061 
Q 1681 3084 1819 3084 
Q 2600 3084 3056 2656 
Q 3513 2228 3513 1497 
Q 3513 744 3044 326 
Q 2575 -91 1722 -91 
Q 1428 -91 1123 -41 
Q 819 9 494 109 
L 494 744 
Q 775 591 1075 516 
Q 1375 441 1709 441 
Q 2250 441 2565 725 
Q 2881 1009 2881 1497 
Q 2881 1984 2565 2268 
Q 2250 2553 1709 2553 
Q 1456 2553 1204 2497 
Q 953 2441 691 2322 
L 691 4666 
z
" transform="scale(0.015625)"/>
       </defs>
       <use xlink:href="#DejaVuSans-31"/>
       <use xlink:href="#DejaVuSans-2e" x="63.623047"/>
       <use xlink:href="#DejaVuSans-35" x="95.410156"/>
      </g>
     </g>
    </g>
    <g id="ytick_5">
     <g id="line2d_10">
      <g>
       <use xlink:href="#mae951190a8" x="108" y="84.891284" style="stroke: #000000; stroke-width: 0.8"/>
      </g>
     </g>
     <g id="text_11">
      <!-- 1.6 -->
      <g transform="translate(75.555 90.970034)scale(0.16 -0.16)">
       <use xlink:href="#DejaVuSans-31"/>
       <use xlink:href="#DejaVuSans-2e" x="63.623047"/>
       <use xlink:href="#DejaVuSans-36" x="95.410156"/>
      </g>
     </g>
    </g>
    <g id="text_12">
     <!-- Loss -->
     <g transform="translate(68.2275 308.4275)rotate(-90)scale(0.16 -0.16)">
      <defs>
       <path id="DejaVuSans-4c" d="M 628 4666 
L 1259 4666 
L 1259 531 
L 3531 531 
L 3531 0 
L 628 0 
L 628 4666 
z
" transform="scale(0.015625)"/>
       <path id="DejaVuSans-6f" d="M 1959 3097 
Q 1497 3097 1228 2736 
Q 959 2375 959 1747 
Q 959 1119 1226 758 
Q 1494 397 1959 397 
Q 2419 397 2687 759 
Q 2956 1122 2956 1747 
Q 2956 2369 2687 2733 
Q 2419 3097 1959 3097 
z
M 1959 3584 
Q 2709 3584 3137 3096 
Q 3566 2609 3566 1747 
Q 3566 888 3137 398 
Q 2709 -91 1959 -91 
Q 1206 -91 779 398 
Q 353 888 353 1747 
Q 353 2609 779 3096 
Q 1206 3584 1959 3584 
z
" transform="scale(0.015625)"/>
      </defs>
      <use xlink:href="#DejaVuSans-4c"/>
      <use xlink:href="#DejaVuSans-6f" x="53.962891"/>
      <use xlink:href="#DejaVuSans-73" x="115.144531"/>
      <use xlink:href="#DejaVuSans-73" x="167.244141"/>
     </g>
    </g>
   </g>
   <g id="line2d_11">
    <path d="M 138.436364 233.01442 
L 139.753955 277.419669 
L 140.412751 284.856897 
L 141.071547 282.191097 
L 141.730342 306.752267 
L 142.389138 325.772955 
L 143.047934 322.780472 
L 143.70673 330.486373 
L 144.365525 356.717037 
L 145.683117 309.758669 
L 146.341913 339.582072 
L 147.000708 375.945271 
L 147.659504 377.634249 
L 148.3183 307.840322 
L 148.977096 206.871496 
L 149.635891 260.772057 
L 150.294687 237.313304 
L 150.953483 198.172405 
L 151.612279 179.044381 
L 152.271074 194.069821 
L 152.92987 238.847515 
L 153.588666 227.264389 
L 154.247462 269.671456 
L 154.906257 249.594892 
L 155.565053 259.382594 
L 156.223849 321.342574 
L 156.882645 296.075928 
L 158.200236 283.842107 
L 158.859032 304.300916 
L 159.517828 311.34766 
L 160.176623 357.600998 
L 160.835419 363.074005 
L 161.494215 299.389528 
L 162.153011 324.487154 
L 162.811806 292.786823 
L 163.470602 336.49862 
L 164.129398 316.516921 
L 164.788194 320.691322 
L 165.446989 301.785207 
L 166.105785 329.377832 
L 166.764581 320.479657 
L 167.423377 309.639976 
L 168.082172 312.415228 
L 168.740968 303.323537 
L 169.399764 296.596795 
L 170.05856 348.484032 
L 170.717355 326.766033 
L 171.376151 369.452351 
L 172.034947 361.401506 
L 172.693743 293.673568 
L 173.352538 294.859716 
L 174.011334 284.354624 
L 174.67013 318.037659 
L 175.328926 273.740637 
L 175.987721 316.663339 
L 176.646517 306.869067 
L 177.305313 334.535067 
L 177.964109 287.630701 
L 178.622904 274.019554 
L 179.2817 241.038321 
L 179.940496 226.779263 
L 180.599292 256.51437 
L 181.258087 253.502513 
L 181.916883 251.321393 
L 182.575679 243.304841 
L 183.234475 284.504048 
L 183.89327 261.865456 
L 184.552066 253.477126 
L 185.210862 213.804447 
L 185.869658 189.268663 
L 186.528453 211.695367 
L 187.187249 169.440508 
L 187.846045 180.791592 
L 188.504841 160.076024 
L 189.163636 182.287389 
L 189.822432 191.059967 
L 190.481228 211.645263 
L 191.140024 227.643738 
L 191.798819 237.943067 
L 192.457615 186.902602 
L 194.434002 241.697255 
L 195.092798 253.80882 
L 195.751594 244.067103 
L 196.41039 301.543257 
L 197.069185 262.020224 
L 197.727981 275.482949 
L 198.386777 249.596896 
L 199.045573 231.273667 
L 199.704368 240.330952 
L 200.363164 231.070353 
L 201.02196 233.230873 
L 201.680756 261.90643 
L 202.339551 238.875685 
L 202.998347 265.128506 
L 203.657143 254.235936 
L 204.315939 280.260724 
L 204.974734 260.089963 
L 205.63353 267.860222 
L 206.292326 239.645852 
L 206.951122 239.43697 
L 207.609917 264.883215 
L 208.268713 226.247706 
L 208.927509 225.653017 
L 209.586305 217.389282 
L 210.2451 195.598798 
L 210.903896 221.241787 
L 211.562692 161.500115 
L 212.221488 187.330163 
L 212.880283 262.860538 
L 213.539079 218.643016 
L 214.197875 207.226684 
L 214.856671 243.979809 
L 215.515466 229.236293 
L 216.174262 222.72155 
L 216.833058 186.321385 
L 217.491854 216.747049 
L 218.150649 195.437349 
L 218.809445 220.77147 
L 219.468241 235.477574 
L 220.127037 239.301353 
L 220.785832 224.09587 
L 221.444628 259.736 
L 222.103424 250.754986 
L 222.76222 248.276912 
L 223.421015 259.285279 
L 224.079811 238.904523 
L 224.738607 263.840143 
L 226.056198 274.088476 
L 226.714994 247.743573 
L 227.37379 266.052884 
L 228.032586 296.596127 
L 228.691381 273.166213 
L 229.350177 319.879179 
L 230.008973 323.722665 
L 230.667769 262.9328 
L 231.326564 264.688697 
L 231.98536 234.650511 
L 232.644156 250.017777 
L 233.302952 262.405809 
L 233.961747 220.916551 
L 234.620543 247.110582 
L 235.279339 262.323303 
L 235.938135 286.81544 
L 237.255726 247.053797 
L 238.573318 212.203208 
L 239.232113 181.312237 
L 239.890909 206.376683 
L 240.549705 245.413476 
L 241.208501 232.355152 
L 241.867296 244.295804 
L 242.526092 219.375103 
L 243.184888 262.377193 
L 244.502479 227.287883 
L 245.161275 256.468942 
L 245.820071 245.036242 
L 246.478867 254.155657 
L 247.137662 231.892183 
L 247.796458 195.408065 
L 248.455254 252.852931 
L 249.11405 230.309538 
L 249.772845 233.207046 
L 250.431641 233.8436 
L 251.090437 269.35034 
L 251.749233 255.933265 
L 252.408028 261.129471 
L 253.066824 302.082273 
L 253.72562 271.465543 
L 254.384416 275.078325 
L 255.043211 282.304779 
L 255.702007 248.392598 
L 256.360803 268.887816 
L 257.678394 296.824828 
L 258.33719 246.404995 
L 258.995986 245.27463 
L 259.654782 227.086572 
L 260.313577 249.225341 
L 260.972373 238.166312 
L 261.631169 215.325742 
L 262.94876 243.679403 
L 263.607556 256.029689 
L 264.266352 272.130268 
L 264.925148 240.69449 
L 265.583943 280.579391 
L 266.242739 281.078769 
L 266.901535 269.52348 
L 267.560331 272.556827 
L 268.219126 288.662081 
L 268.877922 316.668349 
L 269.536718 286.427405 
L 270.195514 261.298937 
L 270.854309 253.958689 
L 271.513105 232.207621 
L 272.171901 260.336924 
L 272.830697 248.14675 
L 274.148288 311.803949 
L 274.807084 269.904165 
L 275.46588 278.03362 
L 276.124675 274.494325 
L 276.783471 286.630497 
L 277.442267 224.864256 
L 278.101063 265.723306 
L 278.759858 281.451549 
L 279.418654 290.731411 
L 280.07745 318.019398 
L 280.736246 306.966048 
L 281.395041 312.496286 
L 282.712633 299.103373 
L 283.371429 298.914757 
L 284.030224 301.717065 
L 284.68902 286.339555 
L 285.347816 303.761454 
L 286.006612 298.453792 
L 286.665407 332.371986 
L 287.324203 292.643635 
L 287.982999 282.527579 
L 288.641795 288.155354 
L 289.30059 316.965192 
L 289.959386 306.280502 
L 290.618182 283.222032 
L 291.276978 327.302601 
L 291.935773 298.437313 
L 292.594569 318.95647 
L 293.253365 332.482105 
L 293.912161 309.87391 
L 294.570956 333.789507 
L 295.229752 391.907225 
L 295.888548 364.412027 
L 296.547344 369.299142 
L 297.206139 346.976879 
L 297.864935 333.848854 
L 298.523731 303.850863 
L 299.182527 294.59082 
L 299.841322 337.382581 
L 300.500118 355.351513 
L 301.158914 311.417696 
L 301.81771 284.795212 
L 302.476505 278.824608 
L 303.135301 288.812507 
L 303.794097 283.19375 
L 304.452893 298.918097 
L 305.111688 292.397564 
L 305.770484 273.636308 
L 306.42928 289.601046 
L 307.088076 297.769583 
L 307.746871 317.051818 
L 308.405667 308.168564 
L 309.064463 316.197809 
L 309.723259 305.15871 
L 310.382054 341.078759 
L 311.04085 298.743732 
L 311.699646 340.744059 
L 312.358442 300.574118 
L 313.017237 268.756319 
L 314.334829 282.563543 
L 314.993625 253.680997 
L 315.65242 294.738462 
L 316.311216 301.737329 
L 316.970012 291.787733 
L 317.628808 337.839537 
L 318.287603 343.304082 
L 318.946399 331.332589 
L 319.605195 353.272385 
L 320.263991 303.020013 
L 320.922786 273.932706 
L 321.581582 314.230359 
L 322.240378 278.553374 
L 322.899174 285.122119 
L 323.557969 285.321091 
L 324.216765 300.801148 
L 324.875561 304.556784 
L 325.534357 310.909855 
L 326.193152 278.624968 
L 326.851948 267.564714 
L 327.510744 238.398353 
L 328.16954 245.897377 
L 328.828335 288.882654 
L 329.487131 241.661848 
L 330.145927 237.012119 
L 330.804723 222.836791 
L 331.463518 227.350124 
L 332.122314 251.866311 
L 332.78111 231.344036 
L 333.439906 229.339954 
L 334.098701 177.531883 
L 334.757497 171.817259 
L 335.416293 210.990782 
L 336.075089 164.96236 
L 336.733884 250.153728 
L 337.39268 182.667963 
L 338.051476 208.456925 
L 338.710272 208.497899 
L 339.369067 218.577323 
L 340.027863 198.286087 
L 340.686659 256.571156 
L 341.345455 267.378102 
L 342.00425 269.20292 
L 342.663046 282.761401 
L 343.321842 316.242347 
L 343.980638 270.2392 
L 344.639433 259.970936 
L 345.298229 233.037135 
L 345.957025 277.720409 
L 346.615821 235.020284 
L 347.274616 219.495355 
L 347.933412 227.036134 
L 348.592208 280.544986 
L 349.251004 279.770699 
L 349.909799 312.508757 
L 350.568595 301.221361 
L 351.227391 312.281503 
L 351.886187 326.254741 
L 353.203778 241.564533 
L 353.862574 254.901996 
L 354.52137 259.913817 
L 355.180165 248.920592 
L 355.838961 233.254478 
L 356.497757 221.540857 
L 357.156553 263.035905 
L 357.815348 199.553294 
L 358.474144 193.936764 
L 359.13294 234.859281 
L 359.791736 225.223006 
L 360.450531 157.485715 
L 361.109327 218.787652 
L 361.768123 208.256617 
L 362.426919 168.289433 
L 363.085714 209.802518 
L 363.74451 220.776814 
L 364.403306 203.256488 
L 365.062102 204.148354 
L 365.720897 269.701853 
L 366.379693 261.901531 
L 367.038489 261.301832 
L 367.697285 229.712177 
L 368.35608 240.765973 
L 369.014876 224.790769 
L 369.673672 240.051478 
L 370.332468 240.05159 
L 370.991263 272.892307 
L 371.650059 263.918864 
L 372.308855 248.341714 
L 372.967651 245.470484 
L 373.626446 197.697634 
L 374.285242 233.627926 
L 374.944038 146.748805 
L 375.602834 181.385502 
L 376.261629 100.019694 
L 376.920425 92.394851 
L 377.579221 128.085197 
L 378.238017 89.28 
L 378.896812 158.378472 
L 379.555608 148.230127 
L 380.214404 191.944262 
L 380.8732 137.676934 
L 381.531995 152.009924 
L 382.190791 173.4833 
L 382.849587 208.882148 
L 383.508383 197.04872 
L 384.167178 232.498675 
L 384.825974 229.154789 
L 385.48477 229.420901 
L 386.143566 245.444652 
L 386.802361 272.758137 
L 387.461157 292.408142 
L 388.119953 279.236025 
L 388.778749 310.86966 
L 389.437544 307.711608 
L 390.09634 293.984886 
L 390.755136 302.144849 
L 391.413932 280.135462 
L 392.072727 282.990881 
L 392.731523 270.497406 
L 393.390319 263.42405 
L 394.049115 271.296078 
L 394.70791 274.120655 
L 396.025502 250.540314 
L 396.684298 240.342977 
L 397.343093 218.996756 
L 398.001889 242.296955 
L 398.660685 220.066662 
L 399.319481 235.006144 
L 400.637072 257.822107 
L 401.295868 253.200102 
L 401.954664 267.576962 
L 402.613459 288.624336 
L 403.272255 250.52918 
L 403.931051 232.412272 
L 404.589847 209.453009 
L 405.248642 212.39394 
L 406.566234 225.573295 
L 407.22503 211.167374 
L 407.883825 207.944853 
L 408.542621 218.187841 
L 409.201417 203.448445 
L 409.860213 214.272983 
L 410.519008 198.917742 
L 411.177804 195.845982 
L 411.8366 184.085707 
L 412.495396 199.843234 
L 413.154191 158.20099 
L 413.812987 215.186895 
L 414.471783 201.593452 
L 415.130579 211.690357 
L 415.789374 212.653595 
L 416.44817 219.947635 
L 417.106966 262.487758 
L 417.765762 242.003563 
L 418.424557 267.722712 
L 419.083353 269.261376 
L 419.742149 275.731135 
L 420.400945 275.293108 
L 421.05974 288.780217 
L 421.718536 284.778065 
L 422.377332 286.975775 
L 423.036128 298.791833 
L 423.694923 302.069357 
L 424.353719 319.76082 
L 425.012515 307.458745 
L 425.671311 261.412063 
L 426.330106 249.538106 
L 426.988902 217.810162 
L 427.647698 215.638284 
L 428.306494 201.225349 
L 428.965289 226.623604 
L 429.624085 219.082714 
L 430.282881 213.962556 
L 430.941677 250.401802 
L 431.600472 243.416519 
L 432.259268 247.188969 
L 432.918064 227.550655 
L 433.57686 237.90521 
L 434.894451 251.741494 
L 435.553247 249.967449 
L 436.212043 251.126096 
L 436.870838 269.594295 
L 437.529634 271.228046 
L 438.18843 228.705181 
L 438.847226 279.002648 
L 439.506021 255.601683 
L 440.164817 297.22099 
L 440.823613 279.839732 
L 441.482409 265.475009 
L 442.141204 274.639295 
L 442.8 287.523365 
L 443.458796 259.862042 
L 444.117591 247.746134 
L 444.776387 249.19383 
L 445.435183 251.354128 
L 446.093979 233.29356 
L 446.752774 268.591752 
L 447.41157 243.358955 
L 448.070366 225.214433 
L 448.729162 163.758396 
L 449.387957 160.501693 
L 450.046753 168.167065 
L 450.705549 164.287058 
L 451.364345 168.743048 
L 452.02314 160.372534 
L 452.681936 179.483522 
L 453.340732 188.063475 
L 453.999528 174.523922 
L 454.658323 170.376578 
L 455.317119 217.149558 
L 455.975915 216.172736 
L 456.634711 224.583335 
L 457.293506 228.160152 
L 457.952302 246.502866 
L 458.611098 253.441385 
L 459.269894 277.700144 
L 459.928689 251.048489 
L 460.587485 262.354702 
L 461.246281 262.66936 
L 461.905077 262.764448 
L 462.563872 278.256197 
L 463.222668 301.867825 
L 463.881464 299.650964 
L 464.54026 273.01189 
L 465.199055 263.240444 
L 465.857851 276.26336 
L 466.516647 218.589794 
L 467.175443 234.215378 
L 467.834238 214.111423 
L 468.493034 220.101846 
L 469.15183 221.592076 
L 469.810626 211.550509 
L 470.469421 224.424669 
L 471.128217 227.118751 
L 471.787013 217.268362 
L 472.445809 235.122387 
L 473.104604 230.080504 
L 473.7634 271.053682 
L 474.422196 251.162394 
L 475.080992 271.584459 
L 475.739787 244.378644 
L 476.398583 197.82657 
L 477.057379 160.877925 
L 477.716175 191.424174 
L 479.033766 214.381432 
L 479.692562 208.076907 
L 480.351358 234.262588 
L 481.010153 243.186817 
L 481.668949 267.249945 
L 482.327745 273.554581 
L 482.986541 258.754057 
L 483.645336 275.715547 
L 484.304132 275.123976 
L 484.962928 292.732487 
L 485.621724 285.996504 
L 486.280519 276.910269 
L 487.598111 255.316976 
L 488.256907 251.397998 
L 488.915702 261.925359 
L 489.574498 274.8327 
L 490.233294 271.512531 
L 490.89209 274.184232 
L 491.550885 259.23729 
L 492.209681 267.302165 
L 492.868477 273.629404 
L 493.527273 266.624525 
L 494.186068 287.424715 
L 494.844864 297.699102 
L 495.50366 284.601251 
L 496.821251 314.176914 
L 497.480047 312.855371 
L 498.138843 310.890927 
L 498.797639 285.184026 
L 499.456434 293.607429 
L 500.11523 328.56914 
L 500.774026 305.787582 
L 501.432822 300.341408 
L 502.091617 316.581055 
L 502.750413 322.513691 
L 503.409209 341.300112 
L 504.068005 304.744288 
L 504.7268 286.782482 
L 505.385596 274.59743 
L 506.044392 288.585365 
L 506.703188 264.61276 
L 507.361983 274.441103 
L 508.020779 304.636729 
L 508.679575 301.347625 
L 509.338371 302.29984 
L 509.997166 318.904138 
L 510.655962 298.03447 
L 511.314758 307.20811 
L 511.973554 329.841468 
L 512.632349 300.064607 
L 513.291145 288.152459 
L 513.949941 290.514513 
L 514.608737 275.995021 
L 515.267532 256.935028 
L 515.926328 253.163247 
L 516.585124 275.997693 
L 517.24392 253.442721 
L 517.902715 279.538547 
L 518.561511 290.709142 
L 519.220307 295.644803 
L 519.879103 268.317957 
L 520.537898 278.691775 
L 521.196694 270.714416 
L 521.85549 288.735012 
L 522.514286 254.871154 
L 523.173081 252.359677 
L 523.831877 265.611739 
L 524.490673 262.979342 
L 525.149469 274.686728 
L 525.808264 263.172413 
L 526.46706 301.368001 
L 527.125856 275.746612 
L 527.784652 295.402296 
L 528.443447 331.049775 
L 529.102243 302.292268 
L 529.761039 280.401352 
L 530.419835 266.801117 
L 531.07863 237.114555 
L 531.737426 228.472806 
L 532.396222 217.890553 
L 533.055018 250.024903 
L 533.713813 219.680854 
L 534.372609 247.025849 
L 535.031405 253.89244 
L 535.690201 277.769623 
L 536.348996 296.009121 
L 537.007792 309.263522 
L 537.666588 284.018921 
L 538.325384 321.655562 
L 538.984179 257.654311 
L 539.642975 271.447283 
L 540.301771 294.488161 
L 540.960567 279.228008 
L 541.619362 310.930565 
L 542.278158 305.251349 
L 542.936954 334.69184 
L 543.59575 348.341512 
L 544.254545 312.035322 
L 544.913341 319.414874 
L 546.230933 341.42259 
L 546.889728 309.188921 
L 547.548524 285.522067 
L 548.20732 298.655548 
L 548.866116 302.972135 
L 549.524911 331.376347 
L 550.183707 313.786653 
L 550.842503 314.140616 
L 551.501299 292.946491 
L 552.160094 312.06505 
L 552.81889 301.250088 
L 553.477686 301.562742 
L 554.795277 276.776656 
L 555.454073 238.572383 
L 556.112869 174.082888 
L 556.771665 206.609169 
L 557.43046 200.463532 
L 558.089256 219.249841 
L 558.748052 195.345379 
L 559.406848 214.896065 
L 560.065643 214.694755 
L 560.724439 246.847254 
L 561.383235 216.536163 
L 562.042031 230.483681 
L 562.700826 214.264966 
L 563.359622 254.16913 
L 564.018418 249.170448 
L 564.677214 242.652254 
L 565.336009 234.298441 
L 565.994805 268.657111 
L 566.653601 270.112713 
L 567.312397 282.910602 
L 567.971192 288.239085 
L 568.629988 287.336975 
L 569.288784 326.415299 
L 569.94758 308.261202 
L 570.606375 310.734154 
L 571.265171 335.051927 
L 571.923967 334.472937 
L 572.582763 359.832667 
L 573.241558 343.45629 
L 573.900354 364.260042 
L 574.55915 360.954125 
L 575.217946 383.769865 
L 575.876741 401.782221 
L 576.535537 402.506849 
L 577.194333 410.259961 
L 577.853129 429.010305 
L 578.511924 455.799916 
L 579.829516 381.583624 
L 580.488312 414.881854 
L 581.147107 371.329947 
L 581.805903 394.269502 
L 582.464699 401.895124 
L 583.123495 437.679556 
L 583.78229 391.698901 
L 584.441086 425.855037 
L 585.099882 425.036435 
L 585.758678 414.6546 
L 586.417473 361.573755 
L 587.076269 345.420066 
L 587.735065 337.029286 
L 588.393861 307.168026 
L 589.052656 306.286069 
L 589.711452 259.101005 
L 590.370248 265.229829 
L 591.029044 256.598435 
L 591.687839 306.037883 
L 592.346635 313.538912 
L 593.005431 280.537414 
L 593.664227 289.124939 
L 594.323022 281.303796 
L 594.981818 238.577394 
L 596.29941 253.658951 
L 596.958205 248.11769 
L 597.617001 273.384002 
L 598.275797 270.103248 
L 598.934593 279.656015 
L 599.593388 236.20866 
L 600.252184 248.759143 
L 600.91098 312.031313 
L 601.569776 251.343996 
L 602.228571 298.470716 
L 602.887367 228.917181 
L 603.546163 247.528011 
L 604.204959 199.716748 
L 604.863754 226.209404 
L 605.52255 302.725842 
L 606.181346 301.837094 
L 606.840142 286.194585 
L 607.498937 313.971261 
L 608.157733 358.648523 
L 608.816529 348.974948 
L 609.475325 348.54104 
L 610.13412 396.421226 
L 610.792916 400.928658 
L 611.451712 354.475012 
L 612.110508 356.189711 
L 612.769303 353.288084 
L 613.428099 248.604041 
L 614.086895 338.769483 
L 614.745691 321.903748 
L 615.404486 315.210855 
L 616.063282 266.340152 
L 616.722078 235.376029 
L 617.380874 314.781512 
L 618.039669 301.477341 
L 618.698465 270.253674 
L 619.357261 325.559063 
L 620.016057 332.522746 
L 620.674852 303.278554 
L 621.333648 365.297101 
L 621.992444 347.679683 
L 622.65124 326.894747 
L 623.310035 331.836421 
L 623.968831 369.290346 
L 624.627627 384.098219 
L 625.286423 380.253619 
L 625.945218 378.442051 
L 626.604014 389.497071 
L 627.26281 378.910698 
L 627.921606 406.304128 
L 628.580401 390.93174 
L 629.239197 272.05511 
L 629.897993 298.485636 
L 630.556789 293.187996 
L 631.215584 334.424948 
L 631.87438 327.831374 
L 632.533176 254.149088 
L 633.850767 334.074214 
L 634.509563 304.470159 
L 635.168359 313.464089 
L 635.827155 380.412396 
L 636.48595 297.253725 
L 637.144746 302.245726 
L 637.803542 298.89516 
L 638.462338 302.803115 
L 639.121133 339.02357 
L 639.779929 333.662798 
L 640.438725 368.006214 
L 641.097521 329.614438 
L 641.756316 374.334678 
L 642.415112 345.862547 
L 643.073908 345.92245 
L 643.732704 367.517414 
L 644.391499 363.146045 
L 645.050295 346.999036 
L 645.709091 371.684689 
L 646.367887 404.941053 
L 647.026682 396.97327 
L 647.685478 422.198831 
L 648.344274 427.413408 
L 649.00307 402.389715 
L 649.661865 431.335281 
L 650.979457 478.040008 
L 651.638253 422.420962 
L 652.297048 437.799919 
L 652.955844 405.639181 
L 653.61464 394.538509 
L 654.273436 356.587321 
L 654.932231 349.075269 
L 655.591027 346.864421 
L 656.249823 279.710128 
L 656.908619 326.138832 
L 657.567414 352.304693 
L 658.22621 234.491511 
L 658.885006 178.295035 
L 659.543802 135.967357 
L 660.202597 263.850944 
L 660.861393 283.580448 
L 661.520189 221.743504 
L 662.178985 209.176319 
L 662.83778 266.77818 
L 663.496576 246.955925 
L 664.155372 330.019508 
L 665.472963 304.57048 
L 666.131759 330.577453 
L 666.790555 349.368327 
L 667.449351 318.602062 
L 668.108146 348.376585 
L 668.766942 358.03446 
L 669.425738 342.277045 
L 670.084534 333.990817 
L 670.743329 265.52645 
L 671.402125 264.441847 
L 672.060921 365.151686 
L 672.719717 327.125229 
L 673.378512 308.27011 
L 674.037308 304.624259 
L 675.3549 357.628054 
L 676.013695 344.056323 
L 676.672491 367.178037 
L 677.331287 436.265709 
L 677.990083 400.243558 
L 678.648878 420.628434 
L 679.307674 421.8658 
L 679.96647 371.55475 
L 680.625266 395.51199 
L 681.284061 325.362318 
L 681.942857 357.751424 
L 682.601653 335.217829 
L 683.260449 319.478897 
L 683.919244 359.604746 
L 684.57804 365.557758 
L 685.236836 331.806692 
L 685.895632 347.651958 
L 686.554427 344.411845 
L 687.213223 414.021832 
L 687.872019 391.082834 
L 688.530815 417.369503 
L 689.18961 411.420166 
L 689.848406 421.27011 
L 690.507202 332.288255 
L 691.165998 413.244428 
L 691.824793 379.832404 
L 692.483589 406.369709 
L 693.142385 381.101059 
L 693.801181 376.16885 
L 694.459976 365.236864 
L 695.118772 297.033487 
L 695.777568 280.271859 
L 696.436364 210.623792 
L 697.095159 203.974323 
L 697.753955 153.571191 
L 698.412751 276.546174 
L 699.071547 201.53945 
L 699.730342 257.164174 
L 700.389138 282.41913 
L 701.047934 238.057417 
L 701.70673 241.174384 
L 702.365525 255.442238 
L 703.024321 258.424033 
L 704.341913 293.5296 
L 705.000708 291.222995 
L 705.659504 263.880784 
L 706.3183 273.498018 
L 706.977096 336.050238 
L 707.635891 341.745377 
L 708.294687 280.238344 
L 708.953483 333.903078 
L 709.612279 302.191836 
L 710.271074 331.250083 
L 710.92987 351.483753 
L 711.588666 351.860653 
L 712.247462 368.736298 
L 712.906257 413.710959 
L 714.223849 358.488967 
L 714.882645 436.064399 
L 715.54144 394.53116 
L 716.200236 389.912607 
L 716.859032 420.01927 
L 717.517828 360.089204 
L 718.176623 352.687272 
L 718.835419 326.295493 
L 719.494215 405.867325 
L 720.153011 361.114683 
L 720.811806 394.433957 
L 721.470602 327.42519 
L 722.129398 284.83641 
L 722.788194 277.412877 
L 723.446989 255.573847 
L 724.105785 268.334436 
L 724.764581 277.371791 
L 725.423377 216.154587 
L 726.082172 241.384712 
L 726.740968 310.547208 
L 727.399764 320.997741 
L 728.05856 342.340733 
L 728.717355 315.249157 
L 729.376151 282.381718 
L 730.034947 222.432501 
L 730.693743 256.687956 
L 731.352538 179.736719 
L 732.011334 262.655331 
L 732.67013 290.804564 
L 733.328926 227.51547 
L 733.987721 254.068697 
L 734.646517 239.138568 
L 735.305313 304.223309 
L 735.964109 318.25812 
L 736.622904 285.259406 
L 737.2817 322.231991 
L 737.940496 285.697322 
L 738.599292 283.684221 
L 739.258087 306.973842 
L 739.916883 288.366017 
L 740.575679 318.516216 
L 741.234475 343.086293 
L 741.89327 326.341367 
L 742.552066 335.018412 
L 743.210862 334.776907 
L 743.869658 436.07776 
L 744.528453 422.473517 
L 745.846045 438.90835 
L 746.504841 433.649791 
L 747.163636 492.48 
L 747.163636 492.48 
" clip-path="url(#p9f676795f6)" style="fill: none; stroke: #1f77b4; stroke-width: 1.5; stroke-linecap: square"/>
   </g>
   <g id="patch_3">
    <path d="M 108 512.64 
L 108 69.12 
" style="fill: none; stroke: #000000; stroke-width: 0.8; stroke-linejoin: miter; stroke-linecap: square"/>
   </g>
   <g id="patch_4">
    <path d="M 777.6 512.64 
L 777.6 69.12 
" style="fill: none; stroke: #000000; stroke-width: 0.8; stroke-linejoin: miter; stroke-linecap: square"/>
   </g>
   <g id="patch_5">
    <path d="M 108 512.64 
L 777.6 512.64 
" style="fill: none; stroke: #000000; stroke-width: 0.8; stroke-linejoin: miter; stroke-linecap: square"/>
   </g>
   <g id="patch_6">
    <path d="M 108 69.12 
L 777.6 69.12 
" style="fill: none; stroke: #000000; stroke-width: 0.8; stroke-linejoin: miter; stroke-linecap: square"/>
   </g>
   <g id="text_13">
    <!-- Discriminator loss across training steps -->
    <g transform="translate(253.8075 63.12)scale(0.192 -0.192)">
     <defs>
      <path id="DejaVuSans-44" d="M 1259 4147 
L 1259 519 
L 2022 519 
Q 2988 519 3436 956 
Q 3884 1394 3884 2338 
Q 3884 3275 3436 3711 
Q 2988 4147 2022 4147 
L 1259 4147 
z
M 628 4666 
L 1925 4666 
Q 3281 4666 3915 4102 
Q 4550 3538 4550 2338 
Q 4550 1131 3912 565 
Q 3275 0 1925 0 
L 628 0 
L 628 4666 
z
" transform="scale(0.015625)"/>
      <path id="DejaVuSans-63" d="M 3122 3366 
L 3122 2828 
Q 2878 2963 2633 3030 
Q 2388 3097 2138 3097 
Q 1578 3097 1268 2742 
Q 959 2388 959 1747 
Q 959 1106 1268 751 
Q 1578 397 2138 397 
Q 2388 397 2633 464 
Q 2878 531 3122 666 
L 3122 134 
Q 2881 22 2623 -34 
Q 2366 -91 2075 -91 
Q 1284 -91 818 406 
Q 353 903 353 1747 
Q 353 2603 823 3093 
Q 1294 3584 2113 3584 
Q 2378 3584 2631 3529 
Q 2884 3475 3122 3366 
z
" transform="scale(0.015625)"/>
      <path id="DejaVuSans-6d" d="M 3328 2828 
Q 3544 3216 3844 3400 
Q 4144 3584 4550 3584 
Q 5097 3584 5394 3201 
Q 5691 2819 5691 2113 
L 5691 0 
L 5113 0 
L 5113 2094 
Q 5113 2597 4934 2840 
Q 4756 3084 4391 3084 
Q 3944 3084 3684 2787 
Q 3425 2491 3425 1978 
L 3425 0 
L 2847 0 
L 2847 2094 
Q 2847 2600 2669 2842 
Q 2491 3084 2119 3084 
Q 1678 3084 1418 2786 
Q 1159 2488 1159 1978 
L 1159 0 
L 581 0 
L 581 3500 
L 1159 3500 
L 1159 2956 
Q 1356 3278 1631 3431 
Q 1906 3584 2284 3584 
Q 2666 3584 2933 3390 
Q 3200 3197 3328 2828 
z
" transform="scale(0.015625)"/>
      <path id="DejaVuSans-6c" d="M 603 4863 
L 1178 4863 
L 1178 0 
L 603 0 
L 603 4863 
z
" transform="scale(0.015625)"/>
     </defs>
     <use xlink:href="#DejaVuSans-44"/>
     <use xlink:href="#DejaVuSans-69" x="77.001953"/>
     <use xlink:href="#DejaVuSans-73" x="104.785156"/>
     <use xlink:href="#DejaVuSans-63" x="156.884766"/>
     <use xlink:href="#DejaVuSans-72" x="211.865234"/>
     <use xlink:href="#DejaVuSans-69" x="252.978516"/>
     <use xlink:href="#DejaVuSans-6d" x="280.761719"/>
     <use xlink:href="#DejaVuSans-69" x="378.173828"/>
     <use xlink:href="#DejaVuSans-6e" x="405.957031"/>
     <use xlink:href="#DejaVuSans-61" x="469.335938"/>
     <use xlink:href="#DejaVuSans-74" x="530.615234"/>
     <use xlink:href="#DejaVuSans-6f" x="569.824219"/>
     <use xlink:href="#DejaVuSans-72" x="631.005859"/>
     <use xlink:href="#DejaVuSans-20" x="672.119141"/>
     <use xlink:href="#DejaVuSans-6c" x="703.90625"/>
     <use xlink:href="#DejaVuSans-6f" x="731.689453"/>
     <use xlink:href="#DejaVuSans-73" x="792.871094"/>
     <use xlink:href="#DejaVuSans-73" x="844.970703"/>
     <use xlink:href="#DejaVuSans-20" x="897.070312"/>
     <use xlink:href="#DejaVuSans-61" x="928.857422"/>
     <use xlink:href="#DejaVuSans-63" x="990.136719"/>
     <use xlink:href="#DejaVuSans-72" x="1045.117188"/>
     <use xlink:href="#DejaVuSans-6f" x="1083.980469"/>
     <use xlink:href="#DejaVuSans-73" x="1145.162109"/>
     <use xlink:href="#DejaVuSans-73" x="1197.261719"/>
     <use xlink:href="#DejaVuSans-20" x="1249.361328"/>
     <use xlink:href="#DejaVuSans-74" x="1281.148438"/>
     <use xlink:href="#DejaVuSans-72" x="1320.357422"/>
     <use xlink:href="#DejaVuSans-61" x="1361.470703"/>
     <use xlink:href="#DejaVuSans-69" x="1422.75"/>
     <use xlink:href="#DejaVuSans-6e" x="1450.533203"/>
     <use xlink:href="#DejaVuSans-69" x="1513.912109"/>
     <use xlink:href="#DejaVuSans-6e" x="1541.695312"/>
     <use xlink:href="#DejaVuSans-67" x="1605.074219"/>
     <use xlink:href="#DejaVuSans-20" x="1668.550781"/>
     <use xlink:href="#DejaVuSans-73" x="1700.337891"/>
     <use xlink:href="#DejaVuSans-74" x="1752.4375"/>
     <use xlink:href="#DejaVuSans-65" x="1791.646484"/>
     <use xlink:href="#DejaVuSans-70" x="1853.169922"/>
     <use xlink:href="#DejaVuSans-73" x="1916.646484"/>
    </g>
   </g>
   <g id="legend_1">
    <g id="patch_7">
     <path d="M 119.2 105.405 
L 218.71 105.405 
Q 221.91 105.405 221.91 102.205 
L 221.91 80.32 
Q 221.91 77.12 218.71 77.12 
L 119.2 77.12 
Q 116 77.12 116 80.32 
L 116 102.205 
Q 116 105.405 119.2 105.405 
z
" style="fill: #ffffff; opacity: 0.8; stroke: #cccccc; stroke-linejoin: miter"/>
    </g>
    <g id="line2d_12">
     <path d="M 122.4 90.0775 
L 138.4 90.0775 
L 154.4 90.0775 
" style="fill: none; stroke: #1f77b4; stroke-width: 1.5; stroke-linecap: square"/>
    </g>
    <g id="text_14">
     <!-- D loss -->
     <g transform="translate(167.2 95.6775)scale(0.16 -0.16)">
      <use xlink:href="#DejaVuSans-44"/>
      <use xlink:href="#DejaVuSans-20" x="77.001953"/>
      <use xlink:href="#DejaVuSans-6c" x="108.789062"/>
      <use xlink:href="#DejaVuSans-6f" x="136.572266"/>
      <use xlink:href="#DejaVuSans-73" x="197.753906"/>
      <use xlink:href="#DejaVuSans-73" x="249.853516"/>
     </g>
    </g>
   </g>
  </g>
 </g>
 <defs>
  <clipPath id="p9f676795f6">
   <rect x="108" y="69.12" width="669.6" height="443.52"/>
  </clipPath>
 </defs>
</svg>
