<?xml version="1.0" encoding="utf-8" standalone="no"?>
<!DOCTYPE svg PUBLIC "-//W3C//DTD SVG 1.1//EN"
  "http://www.w3.org/Graphics/SVG/1.1/DTD/svg11.dtd">
<svg xmlns:xlink="http://www.w3.org/1999/xlink" width="864pt" height="576pt" viewBox="0 0 864 576" xmlns="http://www.w3.org/2000/svg" version="1.1">
 <metadata>
  <rdf:RDF xmlns:dc="http://purl.org/dc/elements/1.1/" xmlns:cc="http://creativecommons.org/ns#" xmlns:rdf="http://www.w3.org/1999/02/22-rdf-syntax-ns#">
   <cc:Work>
    <dc:type rdf:resource="http://purl.org/dc/dcmitype/StillImage"/>
    <dc:date>2022-01-30T19:10:40.890981</dc:date>
    <dc:format>image/svg+xml</dc:format>
    <dc:creator>
     <cc:Agent>
      <dc:title>Matplotlib v3.5.0, https://matplotlib.org/</dc:title>
     </cc:Agent>
    </dc:creator>
   </cc:Work>
  </rdf:RDF>
 </metadata>
 <defs>
  <style type="text/css">*{stroke-linejoin: round; stroke-linecap: butt}</style>
 </defs>
 <g id="figure_1">
  <g id="patch_1">
   <path d="M 0 576 
L 864 576 
L 864 0 
L 0 0 
z
" style="fill: #ffffff"/>
  </g>
  <g id="axes_1">
   <g id="patch_2">
    <path d="M 108 512.64 
L 777.6 512.64 
L 777.6 69.12 
L 108 69.12 
z
" style="fill: #ffffff"/>
   </g>
   <g id="matplotlib.axis_1">
    <g id="xtick_1">
     <g id="line2d_1">
      <defs>
       <path id="macccd0e41e" d="M 0 0 
L 0 3.5 
" style="stroke: #000000; stroke-width: 0.8"/>
      </defs>
      <g>
       <use xlink:href="#macccd0e41e" x="138.436364" y="512.64" style="stroke: #000000; stroke-width: 0.8"/>
      </g>
     </g>
     <g id="text_1">
      <!-- 0 -->
      <g transform="translate(133.346364 531.7975)scale(0.16 -0.16)">
       <defs>
        <path id="DejaVuSans-30" d="M 2034 4250 
Q 1547 4250 1301 3770 
Q 1056 3291 1056 2328 
Q 1056 1369 1301 889 
Q 1547 409 2034 409 
Q 2525 409 2770 889 
Q 3016 1369 3016 2328 
Q 3016 3291 2770 3770 
Q 2525 4250 2034 4250 
z
M 2034 4750 
Q 2819 4750 3233 4129 
Q 3647 3509 3647 2328 
Q 3647 1150 3233 529 
Q 2819 -91 2034 -91 
Q 1250 -91 836 529 
Q 422 1150 422 2328 
Q 422 3509 836 4129 
Q 1250 4750 2034 4750 
z
" transform="scale(0.015625)"/>
       </defs>
       <use xlink:href="#DejaVuSans-30"/>
      </g>
     </g>
    </g>
    <g id="xtick_2">
     <g id="line2d_2">
      <g>
       <use xlink:href="#macccd0e41e" x="269.486369" y="512.64" style="stroke: #000000; stroke-width: 0.8"/>
      </g>
     </g>
     <g id="text_2">
      <!-- 200 -->
      <g transform="translate(254.216369 531.7975)scale(0.16 -0.16)">
       <defs>
        <path id="DejaVuSans-32" d="M 1228 531 
L 3431 531 
L 3431 0 
L 469 0 
L 469 531 
Q 828 903 1448 1529 
Q 2069 2156 2228 2338 
Q 2531 2678 2651 2914 
Q 2772 3150 2772 3378 
Q 2772 3750 2511 3984 
Q 2250 4219 1831 4219 
Q 1534 4219 1204 4116 
Q 875 4013 500 3803 
L 500 4441 
Q 881 4594 1212 4672 
Q 1544 4750 1819 4750 
Q 2544 4750 2975 4387 
Q 3406 4025 3406 3419 
Q 3406 3131 3298 2873 
Q 3191 2616 2906 2266 
Q 2828 2175 2409 1742 
Q 1991 1309 1228 531 
z
" transform="scale(0.015625)"/>
       </defs>
       <use xlink:href="#DejaVuSans-32"/>
       <use xlink:href="#DejaVuSans-30" x="63.623047"/>
       <use xlink:href="#DejaVuSans-30" x="127.246094"/>
      </g>
     </g>
    </g>
    <g id="xtick_3">
     <g id="line2d_3">
      <g>
       <use xlink:href="#macccd0e41e" x="400.536373" y="512.64" style="stroke: #000000; stroke-width: 0.8"/>
      </g>
     </g>
     <g id="text_3">
      <!-- 400 -->
      <g transform="translate(385.266373 531.7975)scale(0.16 -0.16)">
       <defs>
        <path id="DejaVuSans-34" d="M 2419 4116 
L 825 1625 
L 2419 1625 
L 2419 4116 
z
M 2253 4666 
L 3047 4666 
L 3047 1625 
L 3713 1625 
L 3713 1100 
L 3047 1100 
L 3047 0 
L 2419 0 
L 2419 1100 
L 313 1100 
L 313 1709 
L 2253 4666 
z
" transform="scale(0.015625)"/>
       </defs>
       <use xlink:href="#DejaVuSans-34"/>
       <use xlink:href="#DejaVuSans-30" x="63.623047"/>
       <use xlink:href="#DejaVuSans-30" x="127.246094"/>
      </g>
     </g>
    </g>
    <g id="xtick_4">
     <g id="line2d_4">
      <g>
       <use xlink:href="#macccd0e41e" x="531.586378" y="512.64" style="stroke: #000000; stroke-width: 0.8"/>
      </g>
     </g>
     <g id="text_4">
      <!-- 600 -->
      <g transform="translate(516.316378 531.7975)scale(0.16 -0.16)">
       <defs>
        <path id="DejaVuSans-36" d="M 2113 2584 
Q 1688 2584 1439 2293 
Q 1191 2003 1191 1497 
Q 1191 994 1439 701 
Q 1688 409 2113 409 
Q 2538 409 2786 701 
Q 3034 994 3034 1497 
Q 3034 2003 2786 2293 
Q 2538 2584 2113 2584 
z
M 3366 4563 
L 3366 3988 
Q 3128 4100 2886 4159 
Q 2644 4219 2406 4219 
Q 1781 4219 1451 3797 
Q 1122 3375 1075 2522 
Q 1259 2794 1537 2939 
Q 1816 3084 2150 3084 
Q 2853 3084 3261 2657 
Q 3669 2231 3669 1497 
Q 3669 778 3244 343 
Q 2819 -91 2113 -91 
Q 1303 -91 875 529 
Q 447 1150 447 2328 
Q 447 3434 972 4092 
Q 1497 4750 2381 4750 
Q 2619 4750 2861 4703 
Q 3103 4656 3366 4563 
z
" transform="scale(0.015625)"/>
       </defs>
       <use xlink:href="#DejaVuSans-36"/>
       <use xlink:href="#DejaVuSans-30" x="63.623047"/>
       <use xlink:href="#DejaVuSans-30" x="127.246094"/>
      </g>
     </g>
    </g>
    <g id="xtick_5">
     <g id="line2d_5">
      <g>
       <use xlink:href="#macccd0e41e" x="662.636383" y="512.64" style="stroke: #000000; stroke-width: 0.8"/>
      </g>
     </g>
     <g id="text_5">
      <!-- 800 -->
      <g transform="translate(647.366383 531.7975)scale(0.16 -0.16)">
       <defs>
        <path id="DejaVuSans-38" d="M 2034 2216 
Q 1584 2216 1326 1975 
Q 1069 1734 1069 1313 
Q 1069 891 1326 650 
Q 1584 409 2034 409 
Q 2484 409 2743 651 
Q 3003 894 3003 1313 
Q 3003 1734 2745 1975 
Q 2488 2216 2034 2216 
z
M 1403 2484 
Q 997 2584 770 2862 
Q 544 3141 544 3541 
Q 544 4100 942 4425 
Q 1341 4750 2034 4750 
Q 2731 4750 3128 4425 
Q 3525 4100 3525 3541 
Q 3525 3141 3298 2862 
Q 3072 2584 2669 2484 
Q 3125 2378 3379 2068 
Q 3634 1759 3634 1313 
Q 3634 634 3220 271 
Q 2806 -91 2034 -91 
Q 1263 -91 848 271 
Q 434 634 434 1313 
Q 434 1759 690 2068 
Q 947 2378 1403 2484 
z
M 1172 3481 
Q 1172 3119 1398 2916 
Q 1625 2713 2034 2713 
Q 2441 2713 2670 2916 
Q 2900 3119 2900 3481 
Q 2900 3844 2670 4047 
Q 2441 4250 2034 4250 
Q 1625 4250 1398 4047 
Q 1172 3844 1172 3481 
z
" transform="scale(0.015625)"/>
       </defs>
       <use xlink:href="#DejaVuSans-38"/>
       <use xlink:href="#DejaVuSans-30" x="63.623047"/>
       <use xlink:href="#DejaVuSans-30" x="127.246094"/>
      </g>
     </g>
    </g>
    <g id="text_6">
     <!-- Training steps -->
     <g transform="translate(387.22375 551.2825)scale(0.16 -0.16)">
      <defs>
       <path id="DejaVuSans-54" d="M -19 4666 
L 3928 4666 
L 3928 4134 
L 2272 4134 
L 2272 0 
L 1638 0 
L 1638 4134 
L -19 4134 
L -19 4666 
z
" transform="scale(0.015625)"/>
       <path id="DejaVuSans-72" d="M 2631 2963 
Q 2534 3019 2420 3045 
Q 2306 3072 2169 3072 
Q 1681 3072 1420 2755 
Q 1159 2438 1159 1844 
L 1159 0 
L 581 0 
L 581 3500 
L 1159 3500 
L 1159 2956 
Q 1341 3275 1631 3429 
Q 1922 3584 2338 3584 
Q 2397 3584 2469 3576 
Q 2541 3569 2628 3553 
L 2631 2963 
z
" transform="scale(0.015625)"/>
       <path id="DejaVuSans-61" d="M 2194 1759 
Q 1497 1759 1228 1600 
Q 959 1441 959 1056 
Q 959 750 1161 570 
Q 1363 391 1709 391 
Q 2188 391 2477 730 
Q 2766 1069 2766 1631 
L 2766 1759 
L 2194 1759 
z
M 3341 1997 
L 3341 0 
L 2766 0 
L 2766 531 
Q 2569 213 2275 61 
Q 1981 -91 1556 -91 
Q 1019 -91 701 211 
Q 384 513 384 1019 
Q 384 1609 779 1909 
Q 1175 2209 1959 2209 
L 2766 2209 
L 2766 2266 
Q 2766 2663 2505 2880 
Q 2244 3097 1772 3097 
Q 1472 3097 1187 3025 
Q 903 2953 641 2809 
L 641 3341 
Q 956 3463 1253 3523 
Q 1550 3584 1831 3584 
Q 2591 3584 2966 3190 
Q 3341 2797 3341 1997 
z
" transform="scale(0.015625)"/>
       <path id="DejaVuSans-69" d="M 603 3500 
L 1178 3500 
L 1178 0 
L 603 0 
L 603 3500 
z
M 603 4863 
L 1178 4863 
L 1178 4134 
L 603 4134 
L 603 4863 
z
" transform="scale(0.015625)"/>
       <path id="DejaVuSans-6e" d="M 3513 2113 
L 3513 0 
L 2938 0 
L 2938 2094 
Q 2938 2591 2744 2837 
Q 2550 3084 2163 3084 
Q 1697 3084 1428 2787 
Q 1159 2491 1159 1978 
L 1159 0 
L 581 0 
L 581 3500 
L 1159 3500 
L 1159 2956 
Q 1366 3272 1645 3428 
Q 1925 3584 2291 3584 
Q 2894 3584 3203 3211 
Q 3513 2838 3513 2113 
z
" transform="scale(0.015625)"/>
       <path id="DejaVuSans-67" d="M 2906 1791 
Q 2906 2416 2648 2759 
Q 2391 3103 1925 3103 
Q 1463 3103 1205 2759 
Q 947 2416 947 1791 
Q 947 1169 1205 825 
Q 1463 481 1925 481 
Q 2391 481 2648 825 
Q 2906 1169 2906 1791 
z
M 3481 434 
Q 3481 -459 3084 -895 
Q 2688 -1331 1869 -1331 
Q 1566 -1331 1297 -1286 
Q 1028 -1241 775 -1147 
L 775 -588 
Q 1028 -725 1275 -790 
Q 1522 -856 1778 -856 
Q 2344 -856 2625 -561 
Q 2906 -266 2906 331 
L 2906 616 
Q 2728 306 2450 153 
Q 2172 0 1784 0 
Q 1141 0 747 490 
Q 353 981 353 1791 
Q 353 2603 747 3093 
Q 1141 3584 1784 3584 
Q 2172 3584 2450 3431 
Q 2728 3278 2906 2969 
L 2906 3500 
L 3481 3500 
L 3481 434 
z
" transform="scale(0.015625)"/>
       <path id="DejaVuSans-20" transform="scale(0.015625)"/>
       <path id="DejaVuSans-73" d="M 2834 3397 
L 2834 2853 
Q 2591 2978 2328 3040 
Q 2066 3103 1784 3103 
Q 1356 3103 1142 2972 
Q 928 2841 928 2578 
Q 928 2378 1081 2264 
Q 1234 2150 1697 2047 
L 1894 2003 
Q 2506 1872 2764 1633 
Q 3022 1394 3022 966 
Q 3022 478 2636 193 
Q 2250 -91 1575 -91 
Q 1294 -91 989 -36 
Q 684 19 347 128 
L 347 722 
Q 666 556 975 473 
Q 1284 391 1588 391 
Q 1994 391 2212 530 
Q 2431 669 2431 922 
Q 2431 1156 2273 1281 
Q 2116 1406 1581 1522 
L 1381 1569 
Q 847 1681 609 1914 
Q 372 2147 372 2553 
Q 372 3047 722 3315 
Q 1072 3584 1716 3584 
Q 2034 3584 2315 3537 
Q 2597 3491 2834 3397 
z
" transform="scale(0.015625)"/>
       <path id="DejaVuSans-74" d="M 1172 4494 
L 1172 3500 
L 2356 3500 
L 2356 3053 
L 1172 3053 
L 1172 1153 
Q 1172 725 1289 603 
Q 1406 481 1766 481 
L 2356 481 
L 2356 0 
L 1766 0 
Q 1100 0 847 248 
Q 594 497 594 1153 
L 594 3053 
L 172 3053 
L 172 3500 
L 594 3500 
L 594 4494 
L 1172 4494 
z
" transform="scale(0.015625)"/>
       <path id="DejaVuSans-65" d="M 3597 1894 
L 3597 1613 
L 953 1613 
Q 991 1019 1311 708 
Q 1631 397 2203 397 
Q 2534 397 2845 478 
Q 3156 559 3463 722 
L 3463 178 
Q 3153 47 2828 -22 
Q 2503 -91 2169 -91 
Q 1331 -91 842 396 
Q 353 884 353 1716 
Q 353 2575 817 3079 
Q 1281 3584 2069 3584 
Q 2775 3584 3186 3129 
Q 3597 2675 3597 1894 
z
M 3022 2063 
Q 3016 2534 2758 2815 
Q 2500 3097 2075 3097 
Q 1594 3097 1305 2825 
Q 1016 2553 972 2059 
L 3022 2063 
z
" transform="scale(0.015625)"/>
       <path id="DejaVuSans-70" d="M 1159 525 
L 1159 -1331 
L 581 -1331 
L 581 3500 
L 1159 3500 
L 1159 2969 
Q 1341 3281 1617 3432 
Q 1894 3584 2278 3584 
Q 2916 3584 3314 3078 
Q 3713 2572 3713 1747 
Q 3713 922 3314 415 
Q 2916 -91 2278 -91 
Q 1894 -91 1617 61 
Q 1341 213 1159 525 
z
M 3116 1747 
Q 3116 2381 2855 2742 
Q 2594 3103 2138 3103 
Q 1681 3103 1420 2742 
Q 1159 2381 1159 1747 
Q 1159 1113 1420 752 
Q 1681 391 2138 391 
Q 2594 391 2855 752 
Q 3116 1113 3116 1747 
z
" transform="scale(0.015625)"/>
      </defs>
      <use xlink:href="#DejaVuSans-54"/>
      <use xlink:href="#DejaVuSans-72" x="46.333984"/>
      <use xlink:href="#DejaVuSans-61" x="87.447266"/>
      <use xlink:href="#DejaVuSans-69" x="148.726562"/>
      <use xlink:href="#DejaVuSans-6e" x="176.509766"/>
      <use xlink:href="#DejaVuSans-69" x="239.888672"/>
      <use xlink:href="#DejaVuSans-6e" x="267.671875"/>
      <use xlink:href="#DejaVuSans-67" x="331.050781"/>
      <use xlink:href="#DejaVuSans-20" x="394.527344"/>
      <use xlink:href="#DejaVuSans-73" x="426.314453"/>
      <use xlink:href="#DejaVuSans-74" x="478.414062"/>
      <use xlink:href="#DejaVuSans-65" x="517.623047"/>
      <use xlink:href="#DejaVuSans-70" x="579.146484"/>
      <use xlink:href="#DejaVuSans-73" x="642.623047"/>
     </g>
    </g>
   </g>
   <g id="matplotlib.axis_2">
    <g id="ytick_1">
     <g id="line2d_6">
      <defs>
       <path id="m2885d00df1" d="M 0 0 
L -3.5 0 
" style="stroke: #000000; stroke-width: 0.8"/>
      </defs>
      <g>
       <use xlink:href="#m2885d00df1" x="108" y="494.702959" style="stroke: #000000; stroke-width: 0.8"/>
      </g>
     </g>
     <g id="text_7">
      <!-- 1.20 -->
      <g transform="translate(65.375 500.781709)scale(0.16 -0.16)">
       <defs>
        <path id="DejaVuSans-31" d="M 794 531 
L 1825 531 
L 1825 4091 
L 703 3866 
L 703 4441 
L 1819 4666 
L 2450 4666 
L 2450 531 
L 3481 531 
L 3481 0 
L 794 0 
L 794 531 
z
" transform="scale(0.015625)"/>
        <path id="DejaVuSans-2e" d="M 684 794 
L 1344 794 
L 1344 0 
L 684 0 
L 684 794 
z
" transform="scale(0.015625)"/>
       </defs>
       <use xlink:href="#DejaVuSans-31"/>
       <use xlink:href="#DejaVuSans-2e" x="63.623047"/>
       <use xlink:href="#DejaVuSans-32" x="95.410156"/>
       <use xlink:href="#DejaVuSans-30" x="159.033203"/>
      </g>
     </g>
    </g>
    <g id="ytick_2">
     <g id="line2d_7">
      <g>
       <use xlink:href="#m2885d00df1" x="108" y="443.682043" style="stroke: #000000; stroke-width: 0.8"/>
      </g>
     </g>
     <g id="text_8">
      <!-- 1.25 -->
      <g transform="translate(65.375 449.760793)scale(0.16 -0.16)">
       <defs>
        <path id="DejaVuSans-35" d="M 691 4666 
L 3169 4666 
L 3169 4134 
L 1269 4134 
L 1269 2991 
Q 1406 3038 1543 3061 
Q 1681 3084 1819 3084 
Q 2600 3084 3056 2656 
Q 3513 2228 3513 1497 
Q 3513 744 3044 326 
Q 2575 -91 1722 -91 
Q 1428 -91 1123 -41 
Q 819 9 494 109 
L 494 744 
Q 775 591 1075 516 
Q 1375 441 1709 441 
Q 2250 441 2565 725 
Q 2881 1009 2881 1497 
Q 2881 1984 2565 2268 
Q 2250 2553 1709 2553 
Q 1456 2553 1204 2497 
Q 953 2441 691 2322 
L 691 4666 
z
" transform="scale(0.015625)"/>
       </defs>
       <use xlink:href="#DejaVuSans-31"/>
       <use xlink:href="#DejaVuSans-2e" x="63.623047"/>
       <use xlink:href="#DejaVuSans-32" x="95.410156"/>
       <use xlink:href="#DejaVuSans-35" x="159.033203"/>
      </g>
     </g>
    </g>
    <g id="ytick_3">
     <g id="line2d_8">
      <g>
       <use xlink:href="#m2885d00df1" x="108" y="392.661127" style="stroke: #000000; stroke-width: 0.8"/>
      </g>
     </g>
     <g id="text_9">
      <!-- 1.30 -->
      <g transform="translate(65.375 398.739877)scale(0.16 -0.16)">
       <defs>
        <path id="DejaVuSans-33" d="M 2597 2516 
Q 3050 2419 3304 2112 
Q 3559 1806 3559 1356 
Q 3559 666 3084 287 
Q 2609 -91 1734 -91 
Q 1441 -91 1130 -33 
Q 819 25 488 141 
L 488 750 
Q 750 597 1062 519 
Q 1375 441 1716 441 
Q 2309 441 2620 675 
Q 2931 909 2931 1356 
Q 2931 1769 2642 2001 
Q 2353 2234 1838 2234 
L 1294 2234 
L 1294 2753 
L 1863 2753 
Q 2328 2753 2575 2939 
Q 2822 3125 2822 3475 
Q 2822 3834 2567 4026 
Q 2313 4219 1838 4219 
Q 1578 4219 1281 4162 
Q 984 4106 628 3988 
L 628 4550 
Q 988 4650 1302 4700 
Q 1616 4750 1894 4750 
Q 2613 4750 3031 4423 
Q 3450 4097 3450 3541 
Q 3450 3153 3228 2886 
Q 3006 2619 2597 2516 
z
" transform="scale(0.015625)"/>
       </defs>
       <use xlink:href="#DejaVuSans-31"/>
       <use xlink:href="#DejaVuSans-2e" x="63.623047"/>
       <use xlink:href="#DejaVuSans-33" x="95.410156"/>
       <use xlink:href="#DejaVuSans-30" x="159.033203"/>
      </g>
     </g>
    </g>
    <g id="ytick_4">
     <g id="line2d_9">
      <g>
       <use xlink:href="#m2885d00df1" x="108" y="341.64021" style="stroke: #000000; stroke-width: 0.8"/>
      </g>
     </g>
     <g id="text_10">
      <!-- 1.35 -->
      <g transform="translate(65.375 347.71896)scale(0.16 -0.16)">
       <use xlink:href="#DejaVuSans-31"/>
       <use xlink:href="#DejaVuSans-2e" x="63.623047"/>
       <use xlink:href="#DejaVuSans-33" x="95.410156"/>
       <use xlink:href="#DejaVuSans-35" x="159.033203"/>
      </g>
     </g>
    </g>
    <g id="ytick_5">
     <g id="line2d_10">
      <g>
       <use xlink:href="#m2885d00df1" x="108" y="290.619294" style="stroke: #000000; stroke-width: 0.8"/>
      </g>
     </g>
     <g id="text_11">
      <!-- 1.40 -->
      <g transform="translate(65.375 296.698044)scale(0.16 -0.16)">
       <use xlink:href="#DejaVuSans-31"/>
       <use xlink:href="#DejaVuSans-2e" x="63.623047"/>
       <use xlink:href="#DejaVuSans-34" x="95.410156"/>
       <use xlink:href="#DejaVuSans-30" x="159.033203"/>
      </g>
     </g>
    </g>
    <g id="ytick_6">
     <g id="line2d_11">
      <g>
       <use xlink:href="#m2885d00df1" x="108" y="239.598378" style="stroke: #000000; stroke-width: 0.8"/>
      </g>
     </g>
     <g id="text_12">
      <!-- 1.45 -->
      <g transform="translate(65.375 245.677128)scale(0.16 -0.16)">
       <use xlink:href="#DejaVuSans-31"/>
       <use xlink:href="#DejaVuSans-2e" x="63.623047"/>
       <use xlink:href="#DejaVuSans-34" x="95.410156"/>
       <use xlink:href="#DejaVuSans-35" x="159.033203"/>
      </g>
     </g>
    </g>
    <g id="ytick_7">
     <g id="line2d_12">
      <g>
       <use xlink:href="#m2885d00df1" x="108" y="188.577461" style="stroke: #000000; stroke-width: 0.8"/>
      </g>
     </g>
     <g id="text_13">
      <!-- 1.50 -->
      <g transform="translate(65.375 194.656211)scale(0.16 -0.16)">
       <use xlink:href="#DejaVuSans-31"/>
       <use xlink:href="#DejaVuSans-2e" x="63.623047"/>
       <use xlink:href="#DejaVuSans-35" x="95.410156"/>
       <use xlink:href="#DejaVuSans-30" x="159.033203"/>
      </g>
     </g>
    </g>
    <g id="ytick_8">
     <g id="line2d_13">
      <g>
       <use xlink:href="#m2885d00df1" x="108" y="137.556545" style="stroke: #000000; stroke-width: 0.8"/>
      </g>
     </g>
     <g id="text_14">
      <!-- 1.55 -->
      <g transform="translate(65.375 143.635295)scale(0.16 -0.16)">
       <use xlink:href="#DejaVuSans-31"/>
       <use xlink:href="#DejaVuSans-2e" x="63.623047"/>
       <use xlink:href="#DejaVuSans-35" x="95.410156"/>
       <use xlink:href="#DejaVuSans-35" x="159.033203"/>
      </g>
     </g>
    </g>
    <g id="ytick_9">
     <g id="line2d_14">
      <g>
       <use xlink:href="#m2885d00df1" x="108" y="86.535629" style="stroke: #000000; stroke-width: 0.8"/>
      </g>
     </g>
     <g id="text_15">
      <!-- 1.60 -->
      <g transform="translate(65.375 92.614379)scale(0.16 -0.16)">
       <use xlink:href="#DejaVuSans-31"/>
       <use xlink:href="#DejaVuSans-2e" x="63.623047"/>
       <use xlink:href="#DejaVuSans-36" x="95.410156"/>
       <use xlink:href="#DejaVuSans-30" x="159.033203"/>
      </g>
     </g>
    </g>
    <g id="text_16">
     <!-- Loss -->
     <g transform="translate(58.0475 308.4275)rotate(-90)scale(0.16 -0.16)">
      <defs>
       <path id="DejaVuSans-4c" d="M 628 4666 
L 1259 4666 
L 1259 531 
L 3531 531 
L 3531 0 
L 628 0 
L 628 4666 
z
" transform="scale(0.015625)"/>
       <path id="DejaVuSans-6f" d="M 1959 3097 
Q 1497 3097 1228 2736 
Q 959 2375 959 1747 
Q 959 1119 1226 758 
Q 1494 397 1959 397 
Q 2419 397 2687 759 
Q 2956 1122 2956 1747 
Q 2956 2369 2687 2733 
Q 2419 3097 1959 3097 
z
M 1959 3584 
Q 2709 3584 3137 3096 
Q 3566 2609 3566 1747 
Q 3566 888 3137 398 
Q 2709 -91 1959 -91 
Q 1206 -91 779 398 
Q 353 888 353 1747 
Q 353 2609 779 3096 
Q 1206 3584 1959 3584 
z
" transform="scale(0.015625)"/>
      </defs>
      <use xlink:href="#DejaVuSans-4c"/>
      <use xlink:href="#DejaVuSans-6f" x="53.962891"/>
      <use xlink:href="#DejaVuSans-73" x="115.144531"/>
      <use xlink:href="#DejaVuSans-73" x="167.244141"/>
     </g>
    </g>
   </g>
   <g id="line2d_15">
    <path d="M 138.436364 264.340585 
L 139.091614 322.330887 
L 140.402114 351.90956 
L 141.057364 374.519287 
L 141.712614 373.182792 
L 142.367864 317.858182 
L 143.023114 347.816018 
L 143.678364 297.384999 
L 144.333614 292.356507 
L 144.988864 272.373303 
L 145.644114 262.529681 
L 146.299364 263.696727 
L 146.954614 363.668457 
L 147.609864 312.784074 
L 148.265114 289.813674 
L 148.920364 348.822374 
L 149.575614 334.399852 
L 150.230864 344.310622 
L 150.886114 396.282741 
L 151.541364 378.306774 
L 152.196614 401.140568 
L 152.851864 387.201335 
L 153.507114 438.993787 
L 154.162364 430.519017 
L 154.817614 368.884037 
L 155.472864 379.965868 
L 156.128114 365.764615 
L 156.783364 429.04178 
L 157.438614 312.372311 
L 158.093864 455.041828 
L 158.749114 424.351942 
L 159.404364 433.518255 
L 160.059614 399.547648 
L 160.714864 479.127818 
L 161.370114 446.663521 
L 162.680615 300.439829 
L 163.991115 432.424925 
L 164.646365 423.777786 
L 165.301615 460.530984 
L 165.956865 404.78926 
L 166.612115 398.895762 
L 167.267365 445.442952 
L 167.922615 439.876309 
L 168.577865 360.555969 
L 169.233115 371.679888 
L 169.888365 357.104948 
L 170.543615 269.291834 
L 171.198865 417.509383 
L 171.854115 329.48607 
L 172.509365 325.331341 
L 173.164615 353.236203 
L 173.819865 299.232883 
L 174.475115 442.718141 
L 175.130365 374.27746 
L 175.785615 326.725861 
L 176.440865 372.16707 
L 177.096115 397.31975 
L 177.751365 336.043619 
L 178.406615 235.8033 
L 179.061865 280.416969 
L 179.717115 419.848949 
L 180.372365 321.260425 
L 181.027615 324.594912 
L 181.682865 427.315296 
L 182.338115 430.329618 
L 182.993365 330.424305 
L 183.648615 418.475596 
L 184.303865 275.599406 
L 184.959115 492.48 
L 185.614365 336.737838 
L 186.269615 347.168024 
L 186.924865 377.51147 
L 187.580115 358.332207 
L 188.235365 390.759646 
L 188.890616 351.648149 
L 189.545866 350.106198 
L 190.201116 378.140366 
L 190.856366 355.131771 
L 191.511616 317.611855 
L 192.166866 291.731017 
L 192.822116 463.72254 
L 193.477366 376.438941 
L 194.132616 416.184565 
L 194.787866 382.975081 
L 195.443116 392.918086 
L 196.098366 376.979645 
L 196.753616 284.483263 
L 197.408866 263.049098 
L 198.064116 267.058827 
L 198.719366 264.931772 
L 199.374616 234.722134 
L 200.029866 343.785245 
L 200.685116 282.010011 
L 201.340366 402.326955 
L 201.995616 308.671312 
L 202.650866 367.376147 
L 203.306116 265.186615 
L 203.961366 365.59103 
L 204.616616 340.236787 
L 205.927116 436.433924 
L 206.582366 348.965913 
L 207.237616 379.921468 
L 207.892866 384.83148 
L 208.548116 365.119662 
L 209.203366 307.667755 
L 209.858616 290.410213 
L 210.513866 382.509673 
L 211.169116 333.838468 
L 211.824366 357.597968 
L 212.479616 339.958467 
L 213.134866 326.539746 
L 213.790116 215.949647 
L 214.445366 207.129653 
L 215.100616 213.746442 
L 215.755867 279.250896 
L 216.411117 156.118152 
L 217.066367 280.49105 
L 217.721617 290.532343 
L 218.376867 216.202665 
L 219.032117 345.529975 
L 219.687367 339.612756 
L 220.342617 328.075372 
L 220.997867 345.825812 
L 221.653117 342.51176 
L 222.308367 326.257047 
L 222.963617 301.085998 
L 223.618867 339.997149 
L 224.274117 210.663027 
L 224.929367 345.477912 
L 225.584617 225.307669 
L 226.239867 268.846011 
L 227.550367 170.392998 
L 228.205617 295.555727 
L 228.860867 197.561066 
L 229.516117 365.473401 
L 230.171367 275.122078 
L 230.826617 311.663373 
L 231.481867 274.863708 
L 232.137117 155.945905 
L 232.792367 238.16829 
L 233.447617 258.809462 
L 234.102867 131.262281 
L 234.758117 236.392054 
L 235.413367 290.912114 
L 236.068617 250.402448 
L 236.723867 341.752463 
L 237.379117 313.435839 
L 238.034367 354.056809 
L 238.689617 276.79066 
L 239.344867 307.169747 
L 240.000117 294.693762 
L 240.655367 227.912175 
L 241.310617 256.088422 
L 241.965868 246.46692 
L 242.621118 279.19494 
L 243.276368 304.058718 
L 243.931618 183.322712 
L 244.586868 233.475533 
L 245.242118 158.338508 
L 245.897368 162.364416 
L 246.552618 199.884575 
L 247.207868 132.41035 
L 248.518368 128.159645 
L 249.173618 225.748018 
L 249.828868 197.545009 
L 250.484118 208.613823 
L 251.139368 212.505924 
L 252.449868 311.711909 
L 253.105118 332.382033 
L 253.760368 314.36495 
L 254.415618 302.915757 
L 255.070868 308.771303 
L 255.726118 310.265691 
L 256.381368 255.194952 
L 257.036618 239.35115 
L 257.691868 286.985223 
L 258.347118 285.466993 
L 259.002368 293.268589 
L 259.657618 215.689816 
L 260.312868 182.617059 
L 260.968118 196.356675 
L 261.623368 238.542951 
L 262.278618 261.089059 
L 262.933868 220.021779 
L 263.589118 275.950712 
L 264.244368 265.785586 
L 264.899618 289.432566 
L 265.554868 232.055225 
L 266.210118 277.317497 
L 266.865368 253.328335 
L 267.520618 290.935834 
L 268.175868 192.416525 
L 268.831119 205.248682 
L 269.486369 187.098035 
L 270.141619 263.549417 
L 270.796869 161.651951 
L 271.452119 179.193286 
L 272.107369 219.611841 
L 272.762619 284.809632 
L 273.417869 259.065035 
L 274.073119 273.965493 
L 274.728369 239.080858 
L 275.383619 235.147642 
L 276.038869 275.759854 
L 276.694119 288.700395 
L 277.349369 325.277332 
L 278.004619 373.216487 
L 278.659869 255.381796 
L 279.315119 290.371288 
L 279.970369 279.957401 
L 280.625619 329.987848 
L 281.280869 274.892294 
L 281.936119 235.582639 
L 282.591369 153.495521 
L 283.246619 104.429705 
L 283.901869 91.534538 
L 284.557119 115.616757 
L 285.212369 104.054679 
L 285.867619 168.247331 
L 286.522869 89.28 
L 287.178119 104.061004 
L 287.833369 92.932706 
L 288.488619 185.155513 
L 289.143869 110.374172 
L 289.799119 105.096311 
L 290.454369 208.98885 
L 291.109619 171.436211 
L 291.764869 212.374792 
L 292.420119 184.833279 
L 293.075369 213.553273 
L 293.730619 224.480129 
L 294.385869 230.723961 
L 295.041119 281.918535 
L 295.69637 224.957093 
L 296.35162 318.41166 
L 297.00687 262.398914 
L 297.66212 246.968091 
L 298.31737 295.248577 
L 298.97262 203.237431 
L 299.62787 231.536538 
L 300.28312 172.481979 
L 300.93837 172.783168 
L 301.59362 236.372226 
L 302.24887 216.446195 
L 302.90412 242.220473 
L 303.55937 309.415526 
L 304.21462 256.78483 
L 304.86987 247.052268 
L 305.52512 268.286452 
L 306.18037 328.704025 
L 306.83562 317.61672 
L 307.49087 342.402403 
L 308.14612 275.014789 
L 308.80137 322.167398 
L 309.45662 281.482565 
L 310.11187 193.074616 
L 310.76712 198.803409 
L 311.42237 227.603201 
L 312.07762 222.896211 
L 312.73287 188.753601 
L 313.38812 205.324101 
L 314.04337 225.779888 
L 314.69862 222.886966 
L 315.35387 182.271227 
L 316.00912 188.876461 
L 316.66437 222.262936 
L 317.31962 191.922167 
L 317.97487 245.230173 
L 318.63012 242.132403 
L 319.28537 264.889683 
L 319.94062 256.916449 
L 320.59587 236.976915 
L 321.25112 237.26375 
L 321.90637 223.115048 
L 322.561621 273.253758 
L 323.216871 288.437645 
L 323.872121 252.794686 
L 324.527371 266.009897 
L 325.182621 288.153243 
L 325.837871 269.884602 
L 326.493121 287.199802 
L 327.148371 268.475972 
L 328.458871 296.689686 
L 329.114121 299.701819 
L 329.769371 239.671315 
L 330.424621 251.411601 
L 331.079871 231.322811 
L 331.735121 271.805107 
L 332.390371 283.832836 
L 333.045621 278.244663 
L 333.700871 286.640486 
L 334.356121 322.67903 
L 335.011371 302.422494 
L 335.666621 252.324169 
L 336.321871 297.761607 
L 336.977121 275.596 
L 337.632371 304.802324 
L 338.287621 270.571765 
L 338.942871 282.825264 
L 339.598121 245.907239 
L 340.253371 264.33207 
L 340.908621 230.923942 
L 341.563871 258.976844 
L 342.219121 281.521856 
L 342.874371 277.712595 
L 343.529621 268.73337 
L 344.184871 286.556066 
L 344.840121 260.443132 
L 345.495371 278.812007 
L 346.150621 305.955989 
L 346.805871 304.711578 
L 347.461121 240.387186 
L 348.116371 249.480269 
L 348.771621 291.622511 
L 349.426872 236.693486 
L 350.082122 273.426126 
L 350.737372 249.673439 
L 351.392622 243.684086 
L 352.047872 244.095483 
L 352.703122 264.175758 
L 353.358372 254.481635 
L 354.013622 283.037167 
L 354.668872 253.481605 
L 355.324122 214.76703 
L 355.979372 256.134525 
L 356.634622 260.944303 
L 357.289872 281.792756 
L 357.945122 292.880546 
L 358.600372 291.148953 
L 359.255622 306.176042 
L 359.910872 346.292314 
L 360.566122 303.506214 
L 361.221372 309.425866 
L 361.876622 312.702816 
L 362.531872 309.289747 
L 364.497622 219.486792 
L 365.152872 272.755385 
L 365.808122 289.816107 
L 366.463372 269.109248 
L 367.118622 264.29874 
L 367.773872 214.365607 
L 368.429122 219.979326 
L 369.084372 239.06395 
L 369.739622 231.207858 
L 370.394872 242.102479 
L 371.050122 213.220943 
L 371.705372 268.237795 
L 372.360622 250.287981 
L 373.015872 297.90612 
L 373.671122 220.445828 
L 374.326372 290.608979 
L 374.981622 229.731837 
L 375.636872 259.986727 
L 376.292123 278.362292 
L 377.602623 209.910784 
L 378.257873 275.022817 
L 378.913123 294.161086 
L 379.568373 275.84318 
L 380.223623 253.148424 
L 380.878873 280.813527 
L 381.534123 361.367452 
L 382.189373 281.354961 
L 382.844623 273.710772 
L 383.499873 275.117577 
L 384.155123 279.409398 
L 384.810373 278.708367 
L 385.465623 297.109234 
L 386.120873 320.19191 
L 386.776123 305.582301 
L 387.431373 284.711466 
L 388.086623 286.607399 
L 388.741873 278.852879 
L 389.397123 307.527378 
L 390.052373 298.748621 
L 390.707623 277.736923 
L 391.362873 273.31835 
L 392.673373 233.94313 
L 393.328623 263.617659 
L 393.983873 270.557655 
L 394.639123 250.780515 
L 395.294373 245.054033 
L 395.949623 265.032614 
L 396.604873 262.562889 
L 397.260123 261.707372 
L 397.915373 276.811704 
L 398.570623 236.09196 
L 399.225873 282.667371 
L 399.881123 270.206957 
L 400.536373 277.045867 
L 401.191623 272.950501 
L 401.846873 272.206895 
L 402.502123 315.047613 
L 403.157374 308.221232 
L 403.812624 314.798001 
L 404.467874 322.664797 
L 405.123124 282.62139 
L 405.778374 286.782687 
L 406.433624 254.18142 
L 407.088874 271.423877 
L 408.399374 288.99611 
L 409.054624 257.338429 
L 409.709874 257.126648 
L 410.365124 262.31644 
L 411.020374 261.268118 
L 411.675624 287.791597 
L 412.330874 284.293013 
L 412.986124 322.129688 
L 413.641374 332.471076 
L 414.296624 276.706847 
L 414.951874 295.00675 
L 415.607124 335.778072 
L 416.262374 347.791568 
L 416.917624 344.740875 
L 417.572874 352.2397 
L 418.228124 346.787037 
L 418.883374 352.058817 
L 419.538624 304.905721 
L 420.193874 296.212358 
L 420.849124 284.306394 
L 421.504374 306.317392 
L 422.159624 300.739923 
L 422.814874 276.996845 
L 423.470124 317.33986 
L 424.780624 290.886569 
L 425.435874 298.844233 
L 426.091124 341.050581 
L 426.746374 296.530333 
L 427.401624 295.300397 
L 428.056874 375.019971 
L 428.712124 333.045962 
L 429.367374 344.491628 
L 430.022625 337.993197 
L 430.677875 336.615951 
L 431.333125 332.95181 
L 431.988375 389.56961 
L 432.643625 365.628983 
L 433.298875 352.597453 
L 433.954125 361.228292 
L 434.609375 389.507693 
L 435.264625 359.647902 
L 435.919875 372.069998 
L 436.575125 357.608429 
L 437.230375 295.096158 
L 437.885625 347.526142 
L 438.540875 325.462594 
L 439.196125 321.545679 
L 439.851375 249.838144 
L 440.506625 246.590388 
L 441.161875 274.830134 
L 441.817125 239.942823 
L 442.472375 325.554192 
L 443.127625 341.018224 
L 443.782875 235.677521 
L 444.438125 298.724049 
L 445.093375 283.419249 
L 445.748625 315.098825 
L 446.403875 287.519968 
L 447.059125 281.518572 
L 447.714375 361.544808 
L 448.369625 343.047721 
L 449.024875 356.01624 
L 449.680125 391.584388 
L 450.335375 350.4232 
L 450.990625 354.02433 
L 451.645875 362.569775 
L 452.301125 391.640101 
L 452.956375 406.360162 
L 453.611625 366.808559 
L 454.266875 362.711124 
L 454.922125 376.243703 
L 455.577375 380.840362 
L 457.543126 272.254944 
L 458.198376 260.163109 
L 458.853626 325.09219 
L 459.508876 254.533455 
L 460.164126 358.168597 
L 460.819376 389.501246 
L 461.474626 328.679818 
L 462.129876 370.602371 
L 462.785126 377.849638 
L 463.440376 335.494643 
L 464.095626 348.249555 
L 464.750876 252.912193 
L 465.406126 174.817653 
L 466.061376 130.270279 
L 466.716626 168.05185 
L 467.371876 186.06504 
L 468.027126 190.085596 
L 468.682376 165.971019 
L 469.337626 251.9371 
L 469.992876 267.921522 
L 470.648126 315.544039 
L 471.303376 291.901926 
L 471.958626 318.744354 
L 472.613876 309.051083 
L 473.924376 359.273848 
L 474.579626 336.495281 
L 475.234876 302.600093 
L 475.890126 308.269646 
L 476.545376 357.879329 
L 477.200626 301.462119 
L 477.855876 346.432812 
L 478.511126 329.417584 
L 479.166376 327.265714 
L 479.821626 351.460088 
L 480.476876 363.855788 
L 481.132126 347.2269 
L 481.787376 442.21697 
L 482.442626 380.145048 
L 483.097877 389.807909 
L 483.753127 418.593833 
L 484.408377 452.919882 
L 485.063627 459.2738 
L 485.718877 414.617799 
L 486.374127 301.898576 
L 487.029377 295.9372 
L 487.684627 238.557305 
L 488.339877 244.916333 
L 488.995127 206.847805 
L 489.650377 218.9737 
L 490.305627 152.626501 
L 490.960877 218.577021 
L 491.616127 250.821022 
L 492.271377 239.458682 
L 492.926627 309.363584 
L 493.581877 303.756921 
L 494.237127 296.940271 
L 494.892377 301.785326 
L 495.547627 271.240804 
L 496.202877 358.832161 
L 496.858127 289.405196 
L 497.513377 351.008426 
L 498.168627 289.147312 
L 498.823877 296.401878 
L 499.479127 338.389268 
L 500.134377 350.378192 
L 500.789627 321.972404 
L 501.444877 379.470536 
L 502.100127 335.448905 
L 502.755377 380.101987 
L 503.410627 371.660425 
L 504.065877 383.082492 
L 504.721127 344.690636 
L 505.376377 283.426912 
L 506.031627 332.630793 
L 506.686877 328.007981 
L 507.342127 293.955144 
L 507.997377 313.482063 
L 508.652627 300.907304 
L 509.307877 306.020947 
L 509.963128 374.809041 
L 510.618378 371.280411 
L 511.273628 265.833514 
L 511.928878 372.475071 
L 512.584128 333.223683 
L 513.239378 324.711812 
L 513.894628 368.003583 
L 514.549878 312.57655 
L 515.205128 393.127921 
L 515.860378 336.664365 
L 516.515628 394.296548 
L 517.170878 350.621236 
L 517.826128 365.068816 
L 518.481378 362.760025 
L 519.136628 365.555754 
L 519.791878 322.723551 
L 520.447128 350.556278 
L 521.102378 394.102162 
L 521.757628 412.719554 
L 522.412878 392.413509 
L 523.068128 388.33943 
L 523.723378 373.056161 
L 525.033878 449.039337 
L 525.689128 419.069459 
L 526.344378 429.799375 
L 526.999628 466.278024 
L 527.654878 434.581174 
L 528.965378 241.025449 
L 529.620628 294.792293 
L 530.275878 285.189403 
L 530.931128 300.433017 
L 531.586378 384.375196 
L 532.241628 308.045336 
L 532.896878 358.437915 
L 533.552128 370.991873 
L 534.207378 455.418193 
L 534.862628 383.425526 
L 535.517878 452.094653 
L 536.173128 307.627734 
L 536.828379 330.105356 
L 537.483629 360.916398 
L 538.138879 368.514971 
L 538.794129 413.669589 
L 539.449379 439.925453 
L 540.104629 374.845534 
L 540.759879 264.017744 
L 541.415129 260.04025 
L 542.070379 353.593956 
L 542.725629 300.450655 
L 543.380879 277.815991 
L 544.036129 216.776091 
L 544.691379 265.906013 
L 545.346629 334.171285 
L 546.001879 216.507016 
L 546.657129 220.547035 
L 547.312379 271.025617 
L 547.967629 211.708187 
L 548.622879 171.550069 
L 549.278129 192.964529 
L 549.933379 134.457608 
L 550.588629 177.265482 
L 551.243879 180.119356 
L 551.899129 177.284458 
L 552.554379 216.334891 
L 553.209629 197.19796 
L 553.864879 224.778642 
L 555.175379 323.098456 
L 555.830629 311.504142 
L 556.485879 296.213087 
L 557.141129 335.457176 
L 557.796379 334.200114 
L 558.451629 291.517776 
L 559.106879 264.257624 
L 559.762129 216.806746 
L 560.417379 252.259941 
L 561.072629 237.898972 
L 561.727879 288.359428 
L 562.383129 277.78704 
L 563.038379 256.36881 
L 563.69363 229.883527 
L 564.34888 150.760006 
L 565.00413 187.539965 
L 565.65938 165.752791 
L 566.31463 184.373467 
L 567.62513 236.992972 
L 568.28038 242.864453 
L 568.93563 237.063525 
L 569.59088 221.034703 
L 570.24613 262.36753 
L 570.90138 272.57511 
L 571.55663 291.633581 
L 572.86713 194.459404 
L 573.52238 224.12858 
L 574.17763 170.21552 
L 574.83288 182.091317 
L 575.48813 190.730305 
L 576.14338 201.190903 
L 576.79863 174.786269 
L 577.45388 190.572899 
L 578.10913 226.097499 
L 578.76438 164.720769 
L 579.41963 243.694182 
L 580.07488 295.887813 
L 580.73013 205.393681 
L 581.38538 260.607351 
L 582.04063 295.653163 
L 582.69588 248.283907 
L 583.35113 278.984497 
L 584.00638 316.326571 
L 584.66163 328.106756 
L 585.31688 358.318218 
L 586.62738 306.11072 
L 587.28263 226.950584 
L 587.93788 235.987711 
L 588.59313 140.129351 
L 589.24838 181.112209 
L 589.90363 179.796272 
L 590.558881 156.451941 
L 591.214131 185.032653 
L 591.869381 251.059078 
L 592.524631 197.404267 
L 593.179881 217.160728 
L 593.835131 187.157884 
L 594.490381 178.438854 
L 595.145631 230.840008 
L 595.800881 274.312906 
L 596.456131 241.622231 
L 597.111381 226.045314 
L 597.766631 201.194309 
L 599.077131 238.696465 
L 599.732381 232.151202 
L 600.387631 228.690084 
L 601.042881 226.748778 
L 601.698131 285.311898 
L 602.353381 309.20557 
L 603.008631 291.846943 
L 603.663881 301.796517 
L 604.319131 286.048083 
L 604.974381 346.021901 
L 605.629631 335.189074 
L 606.284881 359.69291 
L 606.940131 339.604485 
L 607.595381 218.04179 
L 608.250631 232.748836 
L 608.905881 209.145891 
L 609.561131 181.368634 
L 610.216381 201.603761 
L 610.871631 199.965225 
L 611.526881 148.870884 
L 612.182131 291.242619 
L 612.837381 255.142402 
L 613.492631 258.397821 
L 614.147881 266.95543 
L 614.803131 281.325402 
L 615.458381 288.904512 
L 616.113631 313.184523 
L 616.768881 298.872698 
L 617.424132 309.496784 
L 618.079382 287.266463 
L 618.734632 305.88203 
L 619.389882 304.583853 
L 620.045132 295.681019 
L 620.700382 314.065951 
L 621.355632 338.816722 
L 622.010882 326.323951 
L 622.666132 332.84002 
L 623.321382 346.690939 
L 623.976632 266.165965 
L 624.631882 304.335943 
L 625.287132 329.696878 
L 625.942382 322.864293 
L 626.597632 280.04766 
L 627.252882 261.654822 
L 627.908132 296.079037 
L 628.563382 247.397735 
L 629.218632 276.638119 
L 629.873882 258.887071 
L 630.529132 245.031164 
L 631.184382 272.863404 
L 631.839632 253.046487 
L 632.494882 263.498205 
L 633.150132 275.867752 
L 633.805382 277.054139 
L 634.460632 302.379675 
L 635.115882 333.907075 
L 635.771132 319.264258 
L 636.426382 285.904787 
L 637.736882 347.608373 
L 638.392132 262.048581 
L 639.047382 301.868408 
L 639.702632 377.381068 
L 640.357882 349.723264 
L 641.013132 345.849532 
L 641.668382 366.174067 
L 642.323632 333.007279 
L 642.978882 325.903308 
L 643.634132 398.09547 
L 644.289383 357.329623 
L 644.944633 335.001257 
L 645.599883 368.868467 
L 646.255133 386.439118 
L 646.910383 383.04685 
L 647.565633 272.308832 
L 648.220883 220.219571 
L 648.876133 196.35558 
L 649.531383 210.65439 
L 650.186633 265.671485 
L 650.841883 220.971327 
L 651.497133 225.36545 
L 652.152383 266.000773 
L 652.807633 247.689071 
L 653.462883 290.154033 
L 654.118133 274.957616 
L 654.773383 211.073938 
L 655.428633 224.69337 
L 656.083883 254.273382 
L 656.739133 261.162653 
L 657.394383 219.201538 
L 658.049633 259.324014 
L 658.704883 275.864711 
L 659.360133 231.526563 
L 660.015383 237.71675 
L 660.670633 253.479659 
L 661.325883 238.621655 
L 661.981133 269.649831 
L 662.636383 277.657855 
L 663.291633 304.192404 
L 663.946883 288.138281 
L 664.602133 315.68916 
L 665.257383 281.279786 
L 665.912633 283.466081 
L 666.567883 316.908513 
L 667.223133 316.553071 
L 667.878383 351.265216 
L 668.533633 293.411155 
L 669.188883 318.157303 
L 669.844133 318.02532 
L 670.499384 353.711706 
L 671.154634 313.404211 
L 671.809884 347.646083 
L 672.465134 354.776451 
L 673.120384 404.971968 
L 673.775634 343.158903 
L 674.430884 413.172676 
L 675.086134 396.126307 
L 675.741384 325.980552 
L 676.396634 277.828034 
L 677.051884 245.094175 
L 677.707134 265.449729 
L 678.362384 306.293428 
L 679.017634 276.530708 
L 679.672884 203.940651 
L 680.328134 222.75766 
L 680.983384 250.890724 
L 681.638634 255.678849 
L 682.293884 226.358668 
L 682.949134 179.156184 
L 683.604384 197.800095 
L 684.259634 187.379396 
L 684.914884 211.178551 
L 686.225384 304.19581 
L 686.880634 286.298425 
L 687.535884 314.867459 
L 688.191134 328.909845 
L 688.846384 305.652854 
L 689.501634 254.980616 
L 690.156884 223.593228 
L 690.812134 214.358552 
L 691.467384 185.715072 
L 692.122634 234.144328 
L 692.777884 200.090274 
L 693.433134 261.208269 
L 694.088384 277.534144 
L 694.743634 218.388231 
L 695.398884 232.564303 
L 696.054134 272.790175 
L 696.709384 277.002319 
L 697.364635 236.095122 
L 698.019885 290.278352 
L 698.675135 293.229663 
L 699.330385 277.214465 
L 699.985635 303.708264 
L 700.640885 301.357993 
L 701.296135 305.589356 
L 701.951385 250.40707 
L 702.606635 233.095884 
L 703.261885 244.072493 
L 703.917135 224.840559 
L 705.227635 304.806703 
L 705.882885 229.435758 
L 706.538135 290.238696 
L 707.193385 288.419398 
L 707.848635 233.240883 
L 708.503885 298.294162 
L 709.159135 284.192657 
L 709.814385 288.637627 
L 710.469635 326.152799 
L 711.124885 335.639398 
L 711.780135 329.322459 
L 712.435385 352.070738 
L 713.090635 343.239918 
L 713.745885 375.625998 
L 714.401135 272.158968 
L 715.056385 268.986874 
L 715.711635 300.254079 
L 716.366885 182.821177 
L 717.022135 208.222861 
L 717.677385 188.093321 
L 718.332635 253.956623 
L 718.987885 191.005827 
L 719.643135 234.575554 
L 720.298385 232.783504 
L 720.953635 297.565518 
L 721.608885 289.053647 
L 722.264135 253.253768 
L 722.919385 310.762726 
L 723.574635 325.742739 
L 724.229886 291.833684 
L 724.885136 287.710704 
L 725.540386 356.496366 
L 726.195636 333.103134 
L 726.850886 338.238065 
L 727.506136 330.994325 
L 728.161386 365.808164 
L 728.816636 310.151955 
L 729.471886 373.4588 
L 730.127136 324.661086 
L 730.782386 291.205274 
L 731.437636 318.131758 
L 732.092886 324.285695 
L 732.748136 338.970966 
L 733.403386 277.820979 
L 734.058636 325.295091 
L 734.713886 331.209877 
L 735.369136 320.584575 
L 736.024386 385.807059 
L 736.679636 351.366666 
L 737.334886 329.948923 
L 737.990136 293.211903 
L 738.645386 291.657788 
L 739.300636 281.191838 
L 739.955886 294.238573 
L 740.611136 335.657645 
L 741.266386 328.653786 
L 741.921636 332.966651 
L 742.576886 278.961142 
L 743.887386 341.007154 
L 744.542636 304.382411 
L 745.197886 297.527201 
L 745.853136 316.375958 
L 746.508386 297.500196 
L 747.163636 266.967595 
L 747.163636 266.967595 
" clip-path="url(#pfaa59efbcd)" style="fill: none; stroke: #1f77b4; stroke-width: 1.5; stroke-linecap: square"/>
   </g>
   <g id="patch_3">
    <path d="M 108 512.64 
L 108 69.12 
" style="fill: none; stroke: #000000; stroke-width: 0.8; stroke-linejoin: miter; stroke-linecap: square"/>
   </g>
   <g id="patch_4">
    <path d="M 777.6 512.64 
L 777.6 69.12 
" style="fill: none; stroke: #000000; stroke-width: 0.8; stroke-linejoin: miter; stroke-linecap: square"/>
   </g>
   <g id="patch_5">
    <path d="M 108 512.64 
L 777.6 512.64 
" style="fill: none; stroke: #000000; stroke-width: 0.8; stroke-linejoin: miter; stroke-linecap: square"/>
   </g>
   <g id="patch_6">
    <path d="M 108 69.12 
L 777.6 69.12 
" style="fill: none; stroke: #000000; stroke-width: 0.8; stroke-linejoin: miter; stroke-linecap: square"/>
   </g>
   <g id="text_17">
    <!-- Discriminator loss across training steps -->
    <g transform="translate(253.8075 63.12)scale(0.192 -0.192)">
     <defs>
      <path id="DejaVuSans-44" d="M 1259 4147 
L 1259 519 
L 2022 519 
Q 2988 519 3436 956 
Q 3884 1394 3884 2338 
Q 3884 3275 3436 3711 
Q 2988 4147 2022 4147 
L 1259 4147 
z
M 628 4666 
L 1925 4666 
Q 3281 4666 3915 4102 
Q 4550 3538 4550 2338 
Q 4550 1131 3912 565 
Q 3275 0 1925 0 
L 628 0 
L 628 4666 
z
" transform="scale(0.015625)"/>
      <path id="DejaVuSans-63" d="M 3122 3366 
L 3122 2828 
Q 2878 2963 2633 3030 
Q 2388 3097 2138 3097 
Q 1578 3097 1268 2742 
Q 959 2388 959 1747 
Q 959 1106 1268 751 
Q 1578 397 2138 397 
Q 2388 397 2633 464 
Q 2878 531 3122 666 
L 3122 134 
Q 2881 22 2623 -34 
Q 2366 -91 2075 -91 
Q 1284 -91 818 406 
Q 353 903 353 1747 
Q 353 2603 823 3093 
Q 1294 3584 2113 3584 
Q 2378 3584 2631 3529 
Q 2884 3475 3122 3366 
z
" transform="scale(0.015625)"/>
      <path id="DejaVuSans-6d" d="M 3328 2828 
Q 3544 3216 3844 3400 
Q 4144 3584 4550 3584 
Q 5097 3584 5394 3201 
Q 5691 2819 5691 2113 
L 5691 0 
L 5113 0 
L 5113 2094 
Q 5113 2597 4934 2840 
Q 4756 3084 4391 3084 
Q 3944 3084 3684 2787 
Q 3425 2491 3425 1978 
L 3425 0 
L 2847 0 
L 2847 2094 
Q 2847 2600 2669 2842 
Q 2491 3084 2119 3084 
Q 1678 3084 1418 2786 
Q 1159 2488 1159 1978 
L 1159 0 
L 581 0 
L 581 3500 
L 1159 3500 
L 1159 2956 
Q 1356 3278 1631 3431 
Q 1906 3584 2284 3584 
Q 2666 3584 2933 3390 
Q 3200 3197 3328 2828 
z
" transform="scale(0.015625)"/>
      <path id="DejaVuSans-6c" d="M 603 4863 
L 1178 4863 
L 1178 0 
L 603 0 
L 603 4863 
z
" transform="scale(0.015625)"/>
     </defs>
     <use xlink:href="#DejaVuSans-44"/>
     <use xlink:href="#DejaVuSans-69" x="77.001953"/>
     <use xlink:href="#DejaVuSans-73" x="104.785156"/>
     <use xlink:href="#DejaVuSans-63" x="156.884766"/>
     <use xlink:href="#DejaVuSans-72" x="211.865234"/>
     <use xlink:href="#DejaVuSans-69" x="252.978516"/>
     <use xlink:href="#DejaVuSans-6d" x="280.761719"/>
     <use xlink:href="#DejaVuSans-69" x="378.173828"/>
     <use xlink:href="#DejaVuSans-6e" x="405.957031"/>
     <use xlink:href="#DejaVuSans-61" x="469.335938"/>
     <use xlink:href="#DejaVuSans-74" x="530.615234"/>
     <use xlink:href="#DejaVuSans-6f" x="569.824219"/>
     <use xlink:href="#DejaVuSans-72" x="631.005859"/>
     <use xlink:href="#DejaVuSans-20" x="672.119141"/>
     <use xlink:href="#DejaVuSans-6c" x="703.90625"/>
     <use xlink:href="#DejaVuSans-6f" x="731.689453"/>
     <use xlink:href="#DejaVuSans-73" x="792.871094"/>
     <use xlink:href="#DejaVuSans-73" x="844.970703"/>
     <use xlink:href="#DejaVuSans-20" x="897.070312"/>
     <use xlink:href="#DejaVuSans-61" x="928.857422"/>
     <use xlink:href="#DejaVuSans-63" x="990.136719"/>
     <use xlink:href="#DejaVuSans-72" x="1045.117188"/>
     <use xlink:href="#DejaVuSans-6f" x="1083.980469"/>
     <use xlink:href="#DejaVuSans-73" x="1145.162109"/>
     <use xlink:href="#DejaVuSans-73" x="1197.261719"/>
     <use xlink:href="#DejaVuSans-20" x="1249.361328"/>
     <use xlink:href="#DejaVuSans-74" x="1281.148438"/>
     <use xlink:href="#DejaVuSans-72" x="1320.357422"/>
     <use xlink:href="#DejaVuSans-61" x="1361.470703"/>
     <use xlink:href="#DejaVuSans-69" x="1422.75"/>
     <use xlink:href="#DejaVuSans-6e" x="1450.533203"/>
     <use xlink:href="#DejaVuSans-69" x="1513.912109"/>
     <use xlink:href="#DejaVuSans-6e" x="1541.695312"/>
     <use xlink:href="#DejaVuSans-67" x="1605.074219"/>
     <use xlink:href="#DejaVuSans-20" x="1668.550781"/>
     <use xlink:href="#DejaVuSans-73" x="1700.337891"/>
     <use xlink:href="#DejaVuSans-74" x="1752.4375"/>
     <use xlink:href="#DejaVuSans-65" x="1791.646484"/>
     <use xlink:href="#DejaVuSans-70" x="1853.169922"/>
     <use xlink:href="#DejaVuSans-73" x="1916.646484"/>
    </g>
   </g>
   <g id="legend_1">
    <g id="patch_7">
     <path d="M 119.2 105.405 
L 218.71 105.405 
Q 221.91 105.405 221.91 102.205 
L 221.91 80.32 
Q 221.91 77.12 218.71 77.12 
L 119.2 77.12 
Q 116 77.12 116 80.32 
L 116 102.205 
Q 116 105.405 119.2 105.405 
z
" style="fill: #ffffff; opacity: 0.8; stroke: #cccccc; stroke-linejoin: miter"/>
    </g>
    <g id="line2d_16">
     <path d="M 122.4 90.0775 
L 138.4 90.0775 
L 154.4 90.0775 
" style="fill: none; stroke: #1f77b4; stroke-width: 1.5; stroke-linecap: square"/>
    </g>
    <g id="text_18">
     <!-- D loss -->
     <g transform="translate(167.2 95.6775)scale(0.16 -0.16)">
      <use xlink:href="#DejaVuSans-44"/>
      <use xlink:href="#DejaVuSans-20" x="77.001953"/>
      <use xlink:href="#DejaVuSans-6c" x="108.789062"/>
      <use xlink:href="#DejaVuSans-6f" x="136.572266"/>
      <use xlink:href="#DejaVuSans-73" x="197.753906"/>
      <use xlink:href="#DejaVuSans-73" x="249.853516"/>
     </g>
    </g>
   </g>
  </g>
 </g>
 <defs>
  <clipPath id="pfaa59efbcd">
   <rect x="108" y="69.12" width="669.6" height="443.52"/>
  </clipPath>
 </defs>
</svg>
