<?xml version="1.0" encoding="utf-8" standalone="no"?>
<!DOCTYPE svg PUBLIC "-//W3C//DTD SVG 1.1//EN"
  "http://www.w3.org/Graphics/SVG/1.1/DTD/svg11.dtd">
<svg xmlns:xlink="http://www.w3.org/1999/xlink" width="864pt" height="576pt" viewBox="0 0 864 576" xmlns="http://www.w3.org/2000/svg" version="1.1">
 <metadata>
  <rdf:RDF xmlns:dc="http://purl.org/dc/elements/1.1/" xmlns:cc="http://creativecommons.org/ns#" xmlns:rdf="http://www.w3.org/1999/02/22-rdf-syntax-ns#">
   <cc:Work>
    <dc:type rdf:resource="http://purl.org/dc/dcmitype/StillImage"/>
    <dc:date>2022-01-30T11:00:22.177325</dc:date>
    <dc:format>image/svg+xml</dc:format>
    <dc:creator>
     <cc:Agent>
      <dc:title>Matplotlib v3.5.0, https://matplotlib.org/</dc:title>
     </cc:Agent>
    </dc:creator>
   </cc:Work>
  </rdf:RDF>
 </metadata>
 <defs>
  <style type="text/css">*{stroke-linejoin: round; stroke-linecap: butt}</style>
 </defs>
 <g id="figure_1">
  <g id="patch_1">
   <path d="M 0 576 
L 864 576 
L 864 0 
L 0 0 
z
" style="fill: #ffffff"/>
  </g>
  <g id="axes_1">
   <g id="patch_2">
    <path d="M 108 512.64 
L 777.6 512.64 
L 777.6 69.12 
L 108 69.12 
z
" style="fill: #ffffff"/>
   </g>
   <g id="matplotlib.axis_1">
    <g id="xtick_1">
     <g id="line2d_1">
      <defs>
       <path id="ma52401bbc9" d="M 0 0 
L 0 3.5 
" style="stroke: #000000; stroke-width: 0.8"/>
      </defs>
      <g>
       <use xlink:href="#ma52401bbc9" x="138.436364" y="512.64" style="stroke: #000000; stroke-width: 0.8"/>
      </g>
     </g>
     <g id="text_1">
      <!-- 0 -->
      <g transform="translate(133.346364 531.7975)scale(0.16 -0.16)">
       <defs>
        <path id="DejaVuSans-30" d="M 2034 4250 
Q 1547 4250 1301 3770 
Q 1056 3291 1056 2328 
Q 1056 1369 1301 889 
Q 1547 409 2034 409 
Q 2525 409 2770 889 
Q 3016 1369 3016 2328 
Q 3016 3291 2770 3770 
Q 2525 4250 2034 4250 
z
M 2034 4750 
Q 2819 4750 3233 4129 
Q 3647 3509 3647 2328 
Q 3647 1150 3233 529 
Q 2819 -91 2034 -91 
Q 1250 -91 836 529 
Q 422 1150 422 2328 
Q 422 3509 836 4129 
Q 1250 4750 2034 4750 
z
" transform="scale(0.015625)"/>
       </defs>
       <use xlink:href="#DejaVuSans-30"/>
      </g>
     </g>
    </g>
    <g id="xtick_2">
     <g id="line2d_2">
      <g>
       <use xlink:href="#ma52401bbc9" x="271.63708" y="512.64" style="stroke: #000000; stroke-width: 0.8"/>
      </g>
     </g>
     <g id="text_2">
      <!-- 200 -->
      <g transform="translate(256.36708 531.7975)scale(0.16 -0.16)">
       <defs>
        <path id="DejaVuSans-32" d="M 1228 531 
L 3431 531 
L 3431 0 
L 469 0 
L 469 531 
Q 828 903 1448 1529 
Q 2069 2156 2228 2338 
Q 2531 2678 2651 2914 
Q 2772 3150 2772 3378 
Q 2772 3750 2511 3984 
Q 2250 4219 1831 4219 
Q 1534 4219 1204 4116 
Q 875 4013 500 3803 
L 500 4441 
Q 881 4594 1212 4672 
Q 1544 4750 1819 4750 
Q 2544 4750 2975 4387 
Q 3406 4025 3406 3419 
Q 3406 3131 3298 2873 
Q 3191 2616 2906 2266 
Q 2828 2175 2409 1742 
Q 1991 1309 1228 531 
z
" transform="scale(0.015625)"/>
       </defs>
       <use xlink:href="#DejaVuSans-32"/>
       <use xlink:href="#DejaVuSans-30" x="63.623047"/>
       <use xlink:href="#DejaVuSans-30" x="127.246094"/>
      </g>
     </g>
    </g>
    <g id="xtick_3">
     <g id="line2d_3">
      <g>
       <use xlink:href="#ma52401bbc9" x="404.837796" y="512.64" style="stroke: #000000; stroke-width: 0.8"/>
      </g>
     </g>
     <g id="text_3">
      <!-- 400 -->
      <g transform="translate(389.567796 531.7975)scale(0.16 -0.16)">
       <defs>
        <path id="DejaVuSans-34" d="M 2419 4116 
L 825 1625 
L 2419 1625 
L 2419 4116 
z
M 2253 4666 
L 3047 4666 
L 3047 1625 
L 3713 1625 
L 3713 1100 
L 3047 1100 
L 3047 0 
L 2419 0 
L 2419 1100 
L 313 1100 
L 313 1709 
L 2253 4666 
z
" transform="scale(0.015625)"/>
       </defs>
       <use xlink:href="#DejaVuSans-34"/>
       <use xlink:href="#DejaVuSans-30" x="63.623047"/>
       <use xlink:href="#DejaVuSans-30" x="127.246094"/>
      </g>
     </g>
    </g>
    <g id="xtick_4">
     <g id="line2d_4">
      <g>
       <use xlink:href="#ma52401bbc9" x="538.038512" y="512.64" style="stroke: #000000; stroke-width: 0.8"/>
      </g>
     </g>
     <g id="text_4">
      <!-- 600 -->
      <g transform="translate(522.768512 531.7975)scale(0.16 -0.16)">
       <defs>
        <path id="DejaVuSans-36" d="M 2113 2584 
Q 1688 2584 1439 2293 
Q 1191 2003 1191 1497 
Q 1191 994 1439 701 
Q 1688 409 2113 409 
Q 2538 409 2786 701 
Q 3034 994 3034 1497 
Q 3034 2003 2786 2293 
Q 2538 2584 2113 2584 
z
M 3366 4563 
L 3366 3988 
Q 3128 4100 2886 4159 
Q 2644 4219 2406 4219 
Q 1781 4219 1451 3797 
Q 1122 3375 1075 2522 
Q 1259 2794 1537 2939 
Q 1816 3084 2150 3084 
Q 2853 3084 3261 2657 
Q 3669 2231 3669 1497 
Q 3669 778 3244 343 
Q 2819 -91 2113 -91 
Q 1303 -91 875 529 
Q 447 1150 447 2328 
Q 447 3434 972 4092 
Q 1497 4750 2381 4750 
Q 2619 4750 2861 4703 
Q 3103 4656 3366 4563 
z
" transform="scale(0.015625)"/>
       </defs>
       <use xlink:href="#DejaVuSans-36"/>
       <use xlink:href="#DejaVuSans-30" x="63.623047"/>
       <use xlink:href="#DejaVuSans-30" x="127.246094"/>
      </g>
     </g>
    </g>
    <g id="xtick_5">
     <g id="line2d_5">
      <g>
       <use xlink:href="#ma52401bbc9" x="671.239228" y="512.64" style="stroke: #000000; stroke-width: 0.8"/>
      </g>
     </g>
     <g id="text_5">
      <!-- 800 -->
      <g transform="translate(655.969228 531.7975)scale(0.16 -0.16)">
       <defs>
        <path id="DejaVuSans-38" d="M 2034 2216 
Q 1584 2216 1326 1975 
Q 1069 1734 1069 1313 
Q 1069 891 1326 650 
Q 1584 409 2034 409 
Q 2484 409 2743 651 
Q 3003 894 3003 1313 
Q 3003 1734 2745 1975 
Q 2488 2216 2034 2216 
z
M 1403 2484 
Q 997 2584 770 2862 
Q 544 3141 544 3541 
Q 544 4100 942 4425 
Q 1341 4750 2034 4750 
Q 2731 4750 3128 4425 
Q 3525 4100 3525 3541 
Q 3525 3141 3298 2862 
Q 3072 2584 2669 2484 
Q 3125 2378 3379 2068 
Q 3634 1759 3634 1313 
Q 3634 634 3220 271 
Q 2806 -91 2034 -91 
Q 1263 -91 848 271 
Q 434 634 434 1313 
Q 434 1759 690 2068 
Q 947 2378 1403 2484 
z
M 1172 3481 
Q 1172 3119 1398 2916 
Q 1625 2713 2034 2713 
Q 2441 2713 2670 2916 
Q 2900 3119 2900 3481 
Q 2900 3844 2670 4047 
Q 2441 4250 2034 4250 
Q 1625 4250 1398 4047 
Q 1172 3844 1172 3481 
z
" transform="scale(0.015625)"/>
       </defs>
       <use xlink:href="#DejaVuSans-38"/>
       <use xlink:href="#DejaVuSans-30" x="63.623047"/>
       <use xlink:href="#DejaVuSans-30" x="127.246094"/>
      </g>
     </g>
    </g>
    <g id="text_6">
     <!-- Training steps -->
     <g transform="translate(387.22375 551.2825)scale(0.16 -0.16)">
      <defs>
       <path id="DejaVuSans-54" d="M -19 4666 
L 3928 4666 
L 3928 4134 
L 2272 4134 
L 2272 0 
L 1638 0 
L 1638 4134 
L -19 4134 
L -19 4666 
z
" transform="scale(0.015625)"/>
       <path id="DejaVuSans-72" d="M 2631 2963 
Q 2534 3019 2420 3045 
Q 2306 3072 2169 3072 
Q 1681 3072 1420 2755 
Q 1159 2438 1159 1844 
L 1159 0 
L 581 0 
L 581 3500 
L 1159 3500 
L 1159 2956 
Q 1341 3275 1631 3429 
Q 1922 3584 2338 3584 
Q 2397 3584 2469 3576 
Q 2541 3569 2628 3553 
L 2631 2963 
z
" transform="scale(0.015625)"/>
       <path id="DejaVuSans-61" d="M 2194 1759 
Q 1497 1759 1228 1600 
Q 959 1441 959 1056 
Q 959 750 1161 570 
Q 1363 391 1709 391 
Q 2188 391 2477 730 
Q 2766 1069 2766 1631 
L 2766 1759 
L 2194 1759 
z
M 3341 1997 
L 3341 0 
L 2766 0 
L 2766 531 
Q 2569 213 2275 61 
Q 1981 -91 1556 -91 
Q 1019 -91 701 211 
Q 384 513 384 1019 
Q 384 1609 779 1909 
Q 1175 2209 1959 2209 
L 2766 2209 
L 2766 2266 
Q 2766 2663 2505 2880 
Q 2244 3097 1772 3097 
Q 1472 3097 1187 3025 
Q 903 2953 641 2809 
L 641 3341 
Q 956 3463 1253 3523 
Q 1550 3584 1831 3584 
Q 2591 3584 2966 3190 
Q 3341 2797 3341 1997 
z
" transform="scale(0.015625)"/>
       <path id="DejaVuSans-69" d="M 603 3500 
L 1178 3500 
L 1178 0 
L 603 0 
L 603 3500 
z
M 603 4863 
L 1178 4863 
L 1178 4134 
L 603 4134 
L 603 4863 
z
" transform="scale(0.015625)"/>
       <path id="DejaVuSans-6e" d="M 3513 2113 
L 3513 0 
L 2938 0 
L 2938 2094 
Q 2938 2591 2744 2837 
Q 2550 3084 2163 3084 
Q 1697 3084 1428 2787 
Q 1159 2491 1159 1978 
L 1159 0 
L 581 0 
L 581 3500 
L 1159 3500 
L 1159 2956 
Q 1366 3272 1645 3428 
Q 1925 3584 2291 3584 
Q 2894 3584 3203 3211 
Q 3513 2838 3513 2113 
z
" transform="scale(0.015625)"/>
       <path id="DejaVuSans-67" d="M 2906 1791 
Q 2906 2416 2648 2759 
Q 2391 3103 1925 3103 
Q 1463 3103 1205 2759 
Q 947 2416 947 1791 
Q 947 1169 1205 825 
Q 1463 481 1925 481 
Q 2391 481 2648 825 
Q 2906 1169 2906 1791 
z
M 3481 434 
Q 3481 -459 3084 -895 
Q 2688 -1331 1869 -1331 
Q 1566 -1331 1297 -1286 
Q 1028 -1241 775 -1147 
L 775 -588 
Q 1028 -725 1275 -790 
Q 1522 -856 1778 -856 
Q 2344 -856 2625 -561 
Q 2906 -266 2906 331 
L 2906 616 
Q 2728 306 2450 153 
Q 2172 0 1784 0 
Q 1141 0 747 490 
Q 353 981 353 1791 
Q 353 2603 747 3093 
Q 1141 3584 1784 3584 
Q 2172 3584 2450 3431 
Q 2728 3278 2906 2969 
L 2906 3500 
L 3481 3500 
L 3481 434 
z
" transform="scale(0.015625)"/>
       <path id="DejaVuSans-20" transform="scale(0.015625)"/>
       <path id="DejaVuSans-73" d="M 2834 3397 
L 2834 2853 
Q 2591 2978 2328 3040 
Q 2066 3103 1784 3103 
Q 1356 3103 1142 2972 
Q 928 2841 928 2578 
Q 928 2378 1081 2264 
Q 1234 2150 1697 2047 
L 1894 2003 
Q 2506 1872 2764 1633 
Q 3022 1394 3022 966 
Q 3022 478 2636 193 
Q 2250 -91 1575 -91 
Q 1294 -91 989 -36 
Q 684 19 347 128 
L 347 722 
Q 666 556 975 473 
Q 1284 391 1588 391 
Q 1994 391 2212 530 
Q 2431 669 2431 922 
Q 2431 1156 2273 1281 
Q 2116 1406 1581 1522 
L 1381 1569 
Q 847 1681 609 1914 
Q 372 2147 372 2553 
Q 372 3047 722 3315 
Q 1072 3584 1716 3584 
Q 2034 3584 2315 3537 
Q 2597 3491 2834 3397 
z
" transform="scale(0.015625)"/>
       <path id="DejaVuSans-74" d="M 1172 4494 
L 1172 3500 
L 2356 3500 
L 2356 3053 
L 1172 3053 
L 1172 1153 
Q 1172 725 1289 603 
Q 1406 481 1766 481 
L 2356 481 
L 2356 0 
L 1766 0 
Q 1100 0 847 248 
Q 594 497 594 1153 
L 594 3053 
L 172 3053 
L 172 3500 
L 594 3500 
L 594 4494 
L 1172 4494 
z
" transform="scale(0.015625)"/>
       <path id="DejaVuSans-65" d="M 3597 1894 
L 3597 1613 
L 953 1613 
Q 991 1019 1311 708 
Q 1631 397 2203 397 
Q 2534 397 2845 478 
Q 3156 559 3463 722 
L 3463 178 
Q 3153 47 2828 -22 
Q 2503 -91 2169 -91 
Q 1331 -91 842 396 
Q 353 884 353 1716 
Q 353 2575 817 3079 
Q 1281 3584 2069 3584 
Q 2775 3584 3186 3129 
Q 3597 2675 3597 1894 
z
M 3022 2063 
Q 3016 2534 2758 2815 
Q 2500 3097 2075 3097 
Q 1594 3097 1305 2825 
Q 1016 2553 972 2059 
L 3022 2063 
z
" transform="scale(0.015625)"/>
       <path id="DejaVuSans-70" d="M 1159 525 
L 1159 -1331 
L 581 -1331 
L 581 3500 
L 1159 3500 
L 1159 2969 
Q 1341 3281 1617 3432 
Q 1894 3584 2278 3584 
Q 2916 3584 3314 3078 
Q 3713 2572 3713 1747 
Q 3713 922 3314 415 
Q 2916 -91 2278 -91 
Q 1894 -91 1617 61 
Q 1341 213 1159 525 
z
M 3116 1747 
Q 3116 2381 2855 2742 
Q 2594 3103 2138 3103 
Q 1681 3103 1420 2742 
Q 1159 2381 1159 1747 
Q 1159 1113 1420 752 
Q 1681 391 2138 391 
Q 2594 391 2855 752 
Q 3116 1113 3116 1747 
z
" transform="scale(0.015625)"/>
      </defs>
      <use xlink:href="#DejaVuSans-54"/>
      <use xlink:href="#DejaVuSans-72" x="46.333984"/>
      <use xlink:href="#DejaVuSans-61" x="87.447266"/>
      <use xlink:href="#DejaVuSans-69" x="148.726562"/>
      <use xlink:href="#DejaVuSans-6e" x="176.509766"/>
      <use xlink:href="#DejaVuSans-69" x="239.888672"/>
      <use xlink:href="#DejaVuSans-6e" x="267.671875"/>
      <use xlink:href="#DejaVuSans-67" x="331.050781"/>
      <use xlink:href="#DejaVuSans-20" x="394.527344"/>
      <use xlink:href="#DejaVuSans-73" x="426.314453"/>
      <use xlink:href="#DejaVuSans-74" x="478.414062"/>
      <use xlink:href="#DejaVuSans-65" x="517.623047"/>
      <use xlink:href="#DejaVuSans-70" x="579.146484"/>
      <use xlink:href="#DejaVuSans-73" x="642.623047"/>
     </g>
    </g>
   </g>
   <g id="matplotlib.axis_2">
    <g id="ytick_1">
     <g id="line2d_6">
      <defs>
       <path id="m135f5f7a65" d="M 0 0 
L -3.5 0 
" style="stroke: #000000; stroke-width: 0.8"/>
      </defs>
      <g>
       <use xlink:href="#m135f5f7a65" x="108" y="487.049563" style="stroke: #000000; stroke-width: 0.8"/>
      </g>
     </g>
     <g id="text_7">
      <!-- 1.2 -->
      <g transform="translate(75.555 493.128313)scale(0.16 -0.16)">
       <defs>
        <path id="DejaVuSans-31" d="M 794 531 
L 1825 531 
L 1825 4091 
L 703 3866 
L 703 4441 
L 1819 4666 
L 2450 4666 
L 2450 531 
L 3481 531 
L 3481 0 
L 794 0 
L 794 531 
z
" transform="scale(0.015625)"/>
        <path id="DejaVuSans-2e" d="M 684 794 
L 1344 794 
L 1344 0 
L 684 0 
L 684 794 
z
" transform="scale(0.015625)"/>
       </defs>
       <use xlink:href="#DejaVuSans-31"/>
       <use xlink:href="#DejaVuSans-2e" x="63.623047"/>
       <use xlink:href="#DejaVuSans-32" x="95.410156"/>
      </g>
     </g>
    </g>
    <g id="ytick_2">
     <g id="line2d_7">
      <g>
       <use xlink:href="#m135f5f7a65" x="108" y="391.028759" style="stroke: #000000; stroke-width: 0.8"/>
      </g>
     </g>
     <g id="text_8">
      <!-- 1.3 -->
      <g transform="translate(75.555 397.107509)scale(0.16 -0.16)">
       <defs>
        <path id="DejaVuSans-33" d="M 2597 2516 
Q 3050 2419 3304 2112 
Q 3559 1806 3559 1356 
Q 3559 666 3084 287 
Q 2609 -91 1734 -91 
Q 1441 -91 1130 -33 
Q 819 25 488 141 
L 488 750 
Q 750 597 1062 519 
Q 1375 441 1716 441 
Q 2309 441 2620 675 
Q 2931 909 2931 1356 
Q 2931 1769 2642 2001 
Q 2353 2234 1838 2234 
L 1294 2234 
L 1294 2753 
L 1863 2753 
Q 2328 2753 2575 2939 
Q 2822 3125 2822 3475 
Q 2822 3834 2567 4026 
Q 2313 4219 1838 4219 
Q 1578 4219 1281 4162 
Q 984 4106 628 3988 
L 628 4550 
Q 988 4650 1302 4700 
Q 1616 4750 1894 4750 
Q 2613 4750 3031 4423 
Q 3450 4097 3450 3541 
Q 3450 3153 3228 2886 
Q 3006 2619 2597 2516 
z
" transform="scale(0.015625)"/>
       </defs>
       <use xlink:href="#DejaVuSans-31"/>
       <use xlink:href="#DejaVuSans-2e" x="63.623047"/>
       <use xlink:href="#DejaVuSans-33" x="95.410156"/>
      </g>
     </g>
    </g>
    <g id="ytick_3">
     <g id="line2d_8">
      <g>
       <use xlink:href="#m135f5f7a65" x="108" y="295.007954" style="stroke: #000000; stroke-width: 0.8"/>
      </g>
     </g>
     <g id="text_9">
      <!-- 1.4 -->
      <g transform="translate(75.555 301.086704)scale(0.16 -0.16)">
       <use xlink:href="#DejaVuSans-31"/>
       <use xlink:href="#DejaVuSans-2e" x="63.623047"/>
       <use xlink:href="#DejaVuSans-34" x="95.410156"/>
      </g>
     </g>
    </g>
    <g id="ytick_4">
     <g id="line2d_9">
      <g>
       <use xlink:href="#m135f5f7a65" x="108" y="198.98715" style="stroke: #000000; stroke-width: 0.8"/>
      </g>
     </g>
     <g id="text_10">
      <!-- 1.5 -->
      <g transform="translate(75.555 205.0659)scale(0.16 -0.16)">
       <defs>
        <path id="DejaVuSans-35" d="M 691 4666 
L 3169 4666 
L 3169 4134 
L 1269 4134 
L 1269 2991 
Q 1406 3038 1543 3061 
Q 1681 3084 1819 3084 
Q 2600 3084 3056 2656 
Q 3513 2228 3513 1497 
Q 3513 744 3044 326 
Q 2575 -91 1722 -91 
Q 1428 -91 1123 -41 
Q 819 9 494 109 
L 494 744 
Q 775 591 1075 516 
Q 1375 441 1709 441 
Q 2250 441 2565 725 
Q 2881 1009 2881 1497 
Q 2881 1984 2565 2268 
Q 2250 2553 1709 2553 
Q 1456 2553 1204 2497 
Q 953 2441 691 2322 
L 691 4666 
z
" transform="scale(0.015625)"/>
       </defs>
       <use xlink:href="#DejaVuSans-31"/>
       <use xlink:href="#DejaVuSans-2e" x="63.623047"/>
       <use xlink:href="#DejaVuSans-35" x="95.410156"/>
      </g>
     </g>
    </g>
    <g id="ytick_5">
     <g id="line2d_10">
      <g>
       <use xlink:href="#m135f5f7a65" x="108" y="102.966345" style="stroke: #000000; stroke-width: 0.8"/>
      </g>
     </g>
     <g id="text_11">
      <!-- 1.6 -->
      <g transform="translate(75.555 109.045095)scale(0.16 -0.16)">
       <use xlink:href="#DejaVuSans-31"/>
       <use xlink:href="#DejaVuSans-2e" x="63.623047"/>
       <use xlink:href="#DejaVuSans-36" x="95.410156"/>
      </g>
     </g>
    </g>
    <g id="text_12">
     <!-- Loss -->
     <g transform="translate(68.2275 308.4275)rotate(-90)scale(0.16 -0.16)">
      <defs>
       <path id="DejaVuSans-4c" d="M 628 4666 
L 1259 4666 
L 1259 531 
L 3531 531 
L 3531 0 
L 628 0 
L 628 4666 
z
" transform="scale(0.015625)"/>
       <path id="DejaVuSans-6f" d="M 1959 3097 
Q 1497 3097 1228 2736 
Q 959 2375 959 1747 
Q 959 1119 1226 758 
Q 1494 397 1959 397 
Q 2419 397 2687 759 
Q 2956 1122 2956 1747 
Q 2956 2369 2687 2733 
Q 2419 3097 1959 3097 
z
M 1959 3584 
Q 2709 3584 3137 3096 
Q 3566 2609 3566 1747 
Q 3566 888 3137 398 
Q 2709 -91 1959 -91 
Q 1206 -91 779 398 
Q 353 888 353 1747 
Q 353 2609 779 3096 
Q 1206 3584 1959 3584 
z
" transform="scale(0.015625)"/>
      </defs>
      <use xlink:href="#DejaVuSans-4c"/>
      <use xlink:href="#DejaVuSans-6f" x="53.962891"/>
      <use xlink:href="#DejaVuSans-73" x="115.144531"/>
      <use xlink:href="#DejaVuSans-73" x="167.244141"/>
     </g>
    </g>
   </g>
   <g id="line2d_11">
    <path d="M 138.436364 255.05658 
L 139.102367 283.1586 
L 139.768371 326.006324 
L 140.434374 346.960991 
L 141.100378 320.005802 
L 141.766382 348.751349 
L 142.432385 362.037156 
L 143.098389 358.072293 
L 143.764392 353.230164 
L 144.430396 366.289901 
L 145.096399 401.341937 
L 145.762403 382.695242 
L 146.428407 338.202875 
L 147.09441 422.886674 
L 147.760414 376.84261 
L 148.426417 389.212577 
L 149.092421 347.535723 
L 150.424428 404.392334 
L 151.090432 423.110569 
L 151.756435 350.805093 
L 152.422439 327.167464 
L 153.088442 289.988083 
L 154.42045 351.591244 
L 155.086453 398.513718 
L 155.752457 377.726057 
L 156.41846 427.687252 
L 157.084464 434.911069 
L 157.750467 386.33571 
L 158.416471 351.58449 
L 159.082475 430.615056 
L 159.748478 437.705635 
L 160.414482 388.415667 
L 161.080485 444.014757 
L 161.746489 444.723071 
L 162.412493 448.053794 
L 163.078496 478.590272 
L 163.7445 466.898629 
L 164.410503 443.159354 
L 165.076507 427.988984 
L 165.74251 382.570017 
L 166.408514 372.614819 
L 167.074518 397.466814 
L 167.740521 417.987084 
L 168.406525 424.484616 
L 169.072528 438.435354 
L 169.738532 375.963513 
L 170.404536 401.861955 
L 171.070539 374.254197 
L 171.736543 492.48 
L 172.402546 380.458582 
L 173.06855 446.356725 
L 173.734553 473.426723 
L 174.400557 443.954891 
L 175.066561 475.690397 
L 175.732564 359.860018 
L 176.398568 399.436426 
L 177.064571 350.026841 
L 177.730575 361.71917 
L 178.396578 259.729414 
L 179.062582 329.302822 
L 179.728586 364.25367 
L 180.394589 323.088593 
L 181.060593 416.337747 
L 181.726596 315.577238 
L 182.3926 325.961568 
L 183.058604 287.361095 
L 183.724607 289.889185 
L 184.390611 467.74579 
L 185.056614 371.886931 
L 185.722618 349.855485 
L 186.388621 416.852843 
L 187.054625 381.398804 
L 187.720629 408.758514 
L 188.386632 387.352051 
L 189.052636 361.382183 
L 189.718639 343.934861 
L 190.384643 186.991143 
L 191.050647 294.284439 
L 191.71665 226.54935 
L 192.382654 89.28 
L 193.048657 106.751818 
L 193.714661 118.48879 
L 194.380664 138.170598 
L 195.046668 145.450618 
L 196.378675 182.718939 
L 197.044679 311.242994 
L 197.710682 255.888517 
L 198.376686 285.53777 
L 199.042689 241.858453 
L 199.708693 225.072628 
L 200.374697 189.291789 
L 201.0407 173.515094 
L 201.706704 245.881122 
L 202.372707 246.403658 
L 203.038711 231.997117 
L 203.704715 186.511989 
L 204.370718 97.240862 
L 205.036722 151.810562 
L 205.702725 165.249638 
L 206.368729 139.250811 
L 207.034732 240.610663 
L 207.700736 187.966505 
L 209.032743 273.690569 
L 209.698747 263.150222 
L 210.36475 184.662223 
L 211.030754 316.910535 
L 211.696758 318.075681 
L 212.362761 216.01301 
L 213.028765 311.178435 
L 213.694768 223.06593 
L 214.360772 268.028522 
L 215.026775 296.149773 
L 215.692779 237.041393 
L 216.358783 219.214387 
L 217.024786 253.67887 
L 217.69079 250.83165 
L 218.356793 211.825167 
L 219.022797 207.741259 
L 219.6888 381.841786 
L 220.354804 259.05647 
L 221.020808 311.525609 
L 221.686811 323.484072 
L 222.352815 215.516915 
L 223.684822 287.083744 
L 224.350826 299.622892 
L 225.016829 302.176278 
L 225.682833 337.433208 
L 226.348836 294.371891 
L 227.01484 357.553076 
L 227.680843 318.198846 
L 228.346847 308.496503 
L 229.012851 265.680143 
L 229.678854 371.116119 
L 230.344858 302.822437 
L 231.010861 249.79482 
L 231.676865 265.364103 
L 232.342869 322.687963 
L 233.674876 246.88533 
L 234.340879 297.349717 
L 235.006883 283.939486 
L 235.672886 284.553938 
L 236.33889 288.112906 
L 237.004894 349.009813 
L 237.670897 308.580979 
L 238.336901 303.066936 
L 239.002904 407.214486 
L 239.668908 345.495486 
L 240.334911 371.18022 
L 241.000915 312.343925 
L 241.666919 382.647281 
L 242.332922 311.533393 
L 242.998926 422.098578 
L 243.664929 376.643783 
L 244.330933 341.812666 
L 245.66294 347.477804 
L 246.328944 318.316174 
L 246.994947 385.620528 
L 247.660951 332.901052 
L 248.326954 305.249568 
L 248.992958 301.657291 
L 249.658962 296.886589 
L 250.324965 338.430204 
L 250.990969 342.731368 
L 251.656972 371.345508 
L 252.322976 356.992766 
L 252.98898 313.428716 
L 253.654983 383.503141 
L 254.320987 409.808508 
L 254.98699 379.469484 
L 255.652994 314.845688 
L 256.985001 410.022674 
L 257.651005 420.124388 
L 258.317008 401.981457 
L 258.983012 356.34615 
L 259.649015 357.727751 
L 260.315019 341.759554 
L 260.981022 419.138952 
L 261.647026 367.597901 
L 262.31303 382.654264 
L 262.979033 326.517413 
L 263.645037 379.58704 
L 264.31104 463.429058 
L 264.977044 402.878983 
L 265.643048 330.185925 
L 266.309051 334.585988 
L 266.975055 370.415589 
L 267.641058 339.799672 
L 268.307062 375.171411 
L 268.973065 338.267091 
L 269.639069 356.801952 
L 270.305073 343.402366 
L 270.971076 267.303954 
L 271.63708 225.426213 
L 272.303083 348.311572 
L 272.969087 243.281262 
L 273.635091 346.42655 
L 274.301094 202.139078 
L 274.967098 362.340376 
L 275.633101 193.1233 
L 276.299105 288.408227 
L 276.965108 231.795429 
L 277.631112 267.340354 
L 278.297116 247.033906 
L 279.629123 335.962323 
L 280.295126 310.235123 
L 280.96113 347.503215 
L 281.627133 297.237769 
L 282.293137 306.360229 
L 282.959141 380.589188 
L 283.625144 310.606564 
L 284.291148 289.923067 
L 284.957151 371.712486 
L 285.623155 350.481155 
L 286.289159 343.722069 
L 286.955162 282.009365 
L 287.621166 280.726891 
L 288.287169 313.60156 
L 288.953173 327.667794 
L 289.619176 332.448455 
L 290.28518 372.874885 
L 290.951184 388.796265 
L 291.617187 356.415974 
L 292.283191 350.035197 
L 292.949194 358.637753 
L 293.615198 313.749793 
L 294.281202 325.686049 
L 294.947205 373.98028 
L 295.613209 335.209139 
L 296.279212 318.964851 
L 296.945216 364.874532 
L 297.611219 390.572773 
L 298.277223 358.666599 
L 298.943227 352.446989 
L 299.60923 362.803161 
L 300.275234 442.373204 
L 300.941237 360.725837 
L 301.607241 446.958128 
L 302.273244 408.363836 
L 302.939248 304.408245 
L 303.605252 352.751239 
L 304.271255 386.100483 
L 304.937259 292.340812 
L 305.603262 285.455927 
L 306.269266 285.234093 
L 306.93527 269.423401 
L 307.601273 284.969105 
L 308.267277 306.604614 
L 308.93328 334.005417 
L 309.599284 350.557618 
L 310.265287 392.385338 
L 310.931291 331.122026 
L 311.597295 298.665729 
L 312.263298 304.105255 
L 312.929302 295.939957 
L 313.595305 375.985491 
L 314.261309 375.918071 
L 314.927313 309.494186 
L 315.593316 332.438611 
L 316.25932 334.353622 
L 316.925323 366.072531 
L 317.591327 315.731423 
L 318.25733 315.907586 
L 318.923334 289.212463 
L 319.589338 335.506292 
L 320.255341 348.425694 
L 320.921345 296.905475 
L 321.587348 267.388429 
L 322.253352 279.307859 
L 322.919355 299.563827 
L 323.585359 272.84295 
L 324.251363 324.4196 
L 324.917366 231.728008 
L 326.249373 320.808436 
L 326.915377 257.565668 
L 327.581381 293.524387 
L 328.247384 300.499241 
L 328.913388 250.021462 
L 329.579391 281.973193 
L 330.245395 355.968413 
L 330.911398 288.124123 
L 331.577402 377.671571 
L 332.243406 357.29942 
L 332.909409 294.500093 
L 333.575413 379.320793 
L 334.241416 311.310986 
L 334.90742 312.43813 
L 335.573424 290.004566 
L 336.239427 304.5068 
L 336.905431 310.573598 
L 337.571434 353.340623 
L 338.237438 243.33094 
L 338.903441 329.98664 
L 339.569445 329.582577 
L 340.235449 280.510779 
L 340.901452 269.137237 
L 341.567456 300.146458 
L 342.233459 311.652895 
L 342.899463 272.925136 
L 343.565466 302.984979 
L 344.23147 201.171385 
L 345.563477 354.621724 
L 346.229481 171.45906 
L 346.895484 284.930415 
L 347.561488 267.389803 
L 348.227492 346.861291 
L 348.893495 251.247275 
L 349.559499 306.063534 
L 350.225502 287.801101 
L 351.557509 344.268185 
L 352.223513 324.763799 
L 352.889517 319.9591 
L 353.55552 346.376414 
L 354.221524 293.448038 
L 354.887527 324.462182 
L 355.553531 305.9327 
L 356.219535 388.78997 
L 356.885538 279.952301 
L 357.551542 327.765777 
L 358.217545 294.689877 
L 358.883549 286.938716 
L 359.549552 336.781783 
L 360.215556 396.357871 
L 360.88156 397.610125 
L 361.547563 302.756391 
L 362.213567 325.61302 
L 363.545574 224.127485 
L 364.211577 322.153866 
L 364.877581 264.762815 
L 365.543585 274.977049 
L 366.209588 266.74559 
L 366.875592 316.083062 
L 367.541595 305.670344 
L 368.207599 314.532051 
L 368.873603 307.691809 
L 369.539606 256.736708 
L 370.20561 319.321412 
L 370.871613 323.602544 
L 371.537617 276.398827 
L 372.20362 283.698879 
L 372.869624 315.42477 
L 373.535628 423.873941 
L 374.201631 344.730855 
L 374.867635 308.719139 
L 375.533638 303.519534 
L 376.865646 315.358036 
L 377.531649 276.852684 
L 378.197653 309.310927 
L 378.863656 278.22799 
L 379.52966 287.287837 
L 380.195663 284.589422 
L 380.861667 338.119315 
L 381.527671 294.297717 
L 382.193674 334.526236 
L 382.859678 281.600722 
L 383.525681 309.337941 
L 384.191685 282.546552 
L 384.857688 317.64964 
L 385.523692 264.555403 
L 386.189696 168.581507 
L 386.855699 242.834846 
L 387.521703 259.346183 
L 388.85371 323.641119 
L 389.519714 315.821851 
L 390.851721 286.788766 
L 391.517724 359.215576 
L 392.183728 346.272022 
L 392.849731 356.418721 
L 393.515735 360.517738 
L 394.181739 386.372339 
L 394.847742 363.752539 
L 395.513746 251.095379 
L 396.179749 259.167959 
L 396.845753 251.251968 
L 397.511757 297.90705 
L 398.17776 265.131852 
L 398.843764 297.836311 
L 399.509767 219.233617 
L 400.841774 333.388676 
L 401.507778 315.336173 
L 402.173782 308.844708 
L 402.839785 322.20549 
L 403.505789 354.376195 
L 404.171792 340.588799 
L 404.837796 338.488811 
L 405.503799 370.18723 
L 406.169803 342.820651 
L 406.835807 342.308417 
L 407.50181 365.545759 
L 408.167814 346.352491 
L 408.833817 360.415749 
L 409.499821 403.025842 
L 410.165825 336.085717 
L 410.831828 337.692473 
L 411.497832 317.633042 
L 412.163835 303.270456 
L 412.829839 391.874134 
L 413.495842 330.89298 
L 414.161846 337.492043 
L 414.82785 273.235109 
L 415.493853 331.446422 
L 416.159857 363.323522 
L 416.82586 329.916816 
L 417.491864 282.348984 
L 418.157868 253.273662 
L 418.823871 364.847976 
L 419.489875 255.694841 
L 420.155878 236.652553 
L 420.821882 269.615246 
L 421.487885 259.060934 
L 422.153889 190.272646 
L 422.819893 135.788337 
L 423.485896 196.135465 
L 424.1519 193.564794 
L 424.817903 237.725096 
L 425.483907 224.051479 
L 426.14991 243.783652 
L 426.815914 313.756661 
L 427.481918 275.951724 
L 428.147921 314.013522 
L 428.813925 308.119453 
L 429.479928 336.264742 
L 430.145932 328.757965 
L 430.811936 408.124946 
L 431.477939 349.795048 
L 432.143943 334.7119 
L 432.809946 313.27682 
L 433.47595 319.93884 
L 434.141953 339.130506 
L 435.473961 351.931207 
L 436.139964 337.528901 
L 436.805968 341.889587 
L 437.471971 356.795542 
L 438.137975 325.957791 
L 438.803979 398.393872 
L 439.469982 359.394601 
L 440.135986 396.125734 
L 440.801989 465.129332 
L 441.467993 365.85413 
L 442.133996 410.46165 
L 442.8 403.262443 
L 443.466004 357.437695 
L 444.132007 396.272479 
L 444.798011 333.800638 
L 445.464014 366.876538 
L 446.130018 349.124507 
L 446.796021 337.229001 
L 447.462025 229.492264 
L 448.128029 294.046236 
L 448.794032 278.283963 
L 449.460036 292.814471 
L 450.126039 362.686749 
L 451.458047 300.87217 
L 452.12405 317.241226 
L 452.790054 298.018655 
L 453.456057 308.87424 
L 454.122061 337.53119 
L 454.788064 330.28986 
L 455.454068 301.699643 
L 456.120072 367.204368 
L 456.786075 325.023865 
L 457.452079 333.200266 
L 458.118082 303.78166 
L 458.784086 258.579491 
L 459.45009 246.449673 
L 460.116093 276.536072 
L 460.782097 313.287122 
L 461.4481 305.376396 
L 462.114104 386.096706 
L 462.780107 313.30475 
L 463.446111 316.593236 
L 464.112115 375.955501 
L 464.778118 383.813572 
L 465.444122 315.454645 
L 466.110125 359.251061 
L 467.442132 266.321952 
L 468.108136 386.486347 
L 468.77414 298.652451 
L 469.440143 309.208251 
L 470.106147 282.051488 
L 470.77215 397.970693 
L 471.438154 337.527985 
L 472.104158 254.213654 
L 472.770161 266.314283 
L 473.436165 257.20327 
L 474.102168 265.486467 
L 474.768172 237.067491 
L 475.434175 236.347845 
L 476.100179 346.793299 
L 476.766183 237.645428 
L 477.432186 252.439321 
L 478.09819 255.68637 
L 478.764193 242.861288 
L 479.430197 353.545631 
L 480.096201 359.000381 
L 480.762204 293.811925 
L 481.428208 332.159543 
L 482.094211 337.465487 
L 482.760215 320.044034 
L 483.426218 340.798729 
L 484.092222 338.513764 
L 484.758226 382.705201 
L 485.424229 337.076075 
L 486.090233 268.097888 
L 486.756236 273.038686 
L 487.42224 262.537258 
L 488.088243 306.80138 
L 488.754247 224.598511 
L 489.420251 217.562189 
L 490.086254 246.478061 
L 490.752258 283.390279 
L 491.418261 288.342295 
L 492.084265 352.419975 
L 492.750269 348.073712 
L 493.416272 320.724647 
L 494.082276 315.506498 
L 494.748279 342.415443 
L 495.414283 316.771917 
L 496.080286 319.167455 
L 496.74629 341.390402 
L 497.412294 411.896592 
L 498.078297 405.548209 
L 498.744301 352.497812 
L 499.410304 381.561688 
L 500.076308 396.282209 
L 500.742312 377.556418 
L 501.408315 352.952928 
L 502.074319 386.054697 
L 502.740322 348.890311 
L 503.406326 346.744765 
L 504.072329 304.091862 
L 504.738333 396.314831 
L 505.404337 341.08558 
L 506.07034 371.402055 
L 506.736344 371.356841 
L 507.402347 324.053653 
L 508.068351 193.484554 
L 509.400358 197.980996 
L 510.066362 196.668074 
L 510.732365 246.100095 
L 511.398369 240.169626 
L 512.064372 271.907994 
L 512.730376 345.408836 
L 513.39638 276.417485 
L 514.062383 322.960391 
L 514.728387 350.549491 
L 515.39439 290.248035 
L 516.060394 292.478857 
L 516.726397 243.264321 
L 517.392401 317.368283 
L 518.058405 308.882481 
L 518.724408 238.356947 
L 519.390412 224.580883 
L 520.056415 188.726214 
L 520.722419 180.057153 
L 521.388423 150.611762 
L 522.054426 224.344512 
L 522.72043 271.200825 
L 523.386433 203.7701 
L 524.052437 242.766853 
L 524.71844 317.094481 
L 525.384444 326.859437 
L 526.050448 338.572371 
L 526.716451 293.665409 
L 527.382455 373.689194 
L 528.048458 330.012395 
L 528.714462 387.558662 
L 529.380465 389.717485 
L 530.046469 382.321855 
L 530.712473 372.232618 
L 531.378476 445.26747 
L 532.04448 418.885067 
L 532.710483 375.102731 
L 534.042491 201.97791 
L 534.708494 156.788905 
L 535.374498 157.423159 
L 536.040501 154.671518 
L 536.706505 264.697111 
L 537.372508 194.081607 
L 538.038512 242.982621 
L 538.704516 275.297782 
L 539.370519 261.359978 
L 540.036523 318.024744 
L 540.702526 220.353321 
L 541.36853 293.394812 
L 542.034534 381.171704 
L 542.700537 353.488627 
L 543.366541 309.663596 
L 544.032544 331.103139 
L 544.698548 320.547339 
L 545.364551 294.271848 
L 546.030555 347.354638 
L 546.696559 299.610071 
L 547.362562 279.992593 
L 548.028566 325.705852 
L 548.694569 256.920539 
L 549.360573 224.62667 
L 550.026576 265.995725 
L 550.69258 211.389739 
L 551.358584 259.824993 
L 552.024587 250.678037 
L 552.690591 278.164919 
L 553.356594 224.039117 
L 554.022598 259.672753 
L 554.688602 263.244542 
L 555.354605 256.029767 
L 556.020609 301.654658 
L 556.686612 250.901245 
L 557.352616 249.135383 
L 558.018619 234.431345 
L 558.684623 284.996348 
L 559.350627 310.875902 
L 560.01663 239.661627 
L 560.682634 202.835716 
L 561.348637 271.036566 
L 562.014641 191.741012 
L 562.680645 229.232312 
L 563.346648 181.360803 
L 564.012652 213.94759 
L 564.678655 213.59309 
L 565.344659 241.492964 
L 566.010662 278.181402 
L 566.676666 232.202011 
L 567.34267 206.218178 
L 568.008673 282.512441 
L 568.674677 230.473807 
L 569.34068 283.613258 
L 570.006684 260.158317 
L 570.672687 230.899734 
L 571.338691 243.900293 
L 572.004695 222.251277 
L 572.670698 168.901324 
L 573.336702 223.477205 
L 574.002705 212.676449 
L 574.668709 246.88533 
L 575.334713 291.797786 
L 576.000716 262.922206 
L 576.66672 269.00789 
L 577.332723 278.309375 
L 577.998727 259.192684 
L 578.66473 278.608359 
L 579.330734 277.514296 
L 579.996738 262.51654 
L 580.662741 253.062472 
L 581.328745 280.549698 
L 581.994748 259.296733 
L 582.660752 289.961985 
L 583.326756 272.420342 
L 584.658763 288.828545 
L 585.324766 261.141005 
L 585.99077 241.473391 
L 586.656773 239.537089 
L 587.988781 186.603104 
L 588.654784 165.500204 
L 589.320788 201.420691 
L 589.986791 243.947682 
L 591.318798 221.896662 
L 591.984802 232.014859 
L 592.650806 273.61628 
L 593.316809 258.440415 
L 593.982813 347.028983 
L 594.648816 345.701067 
L 595.31482 295.829269 
L 595.980824 291.91168 
L 596.646827 353.452456 
L 597.312831 331.369043 
L 597.978834 275.374359 
L 599.310841 323.696177 
L 599.976845 280.023156 
L 600.642849 351.541222 
L 601.308852 330.565723 
L 601.974856 222.431103 
L 602.640859 248.035481 
L 603.306863 250.898612 
L 603.972867 202.670886 
L 604.63887 250.659608 
L 605.304874 254.252115 
L 606.636881 309.003014 
L 607.302884 287.879739 
L 607.968888 321.489965 
L 608.634892 265.041539 
L 609.300895 295.861319 
L 609.966899 367.932141 
L 610.632902 320.289448 
L 611.298906 295.172579 
L 611.964909 364.024167 
L 612.630913 367.847894 
L 613.296917 315.414926 
L 613.96292 326.281614 
L 614.628924 302.243928 
L 615.294927 304.222811 
L 615.960931 224.230389 
L 616.626935 273.704419 
L 617.292938 190.860313 
L 617.958942 204.554877 
L 618.624945 203.29335 
L 619.290949 228.165377 
L 619.956952 242.458712 
L 620.622956 224.581341 
L 621.28896 233.732303 
L 621.954963 187.035441 
L 622.620967 206.448025 
L 623.28697 235.113332 
L 623.952974 287.52501 
L 624.618978 296.307735 
L 625.284981 268.498518 
L 625.950985 248.988523 
L 626.616988 303.187926 
L 627.282992 256.527693 
L 627.948995 244.840743 
L 628.614999 281.325661 
L 629.281003 274.308454 
L 629.947006 245.992268 
L 630.61301 267.391177 
L 631.279013 261.526754 
L 631.945017 321.204258 
L 632.61102 324.606408 
L 633.943028 266.747765 
L 634.609031 293.938066 
L 635.941038 338.868379 
L 637.273046 279.090145 
L 637.939049 321.803601 
L 638.605053 282.893727 
L 639.271056 285.072811 
L 639.93706 308.53897 
L 640.603063 314.97595 
L 641.269067 334.331645 
L 641.935071 309.240874 
L 642.601074 336.257645 
L 643.267078 343.432585 
L 643.933081 343.237421 
L 644.599085 363.101001 
L 645.265089 296.224977 
L 645.931092 351.382229 
L 646.597096 278.739194 
L 647.263099 333.808994 
L 647.929103 337.757833 
L 648.595106 318.949741 
L 649.26111 326.68854 
L 649.927114 277.084134 
L 650.593117 308.9396 
L 651.259121 224.411131 
L 651.925124 196.458602 
L 652.591128 189.78857 
L 653.923135 193.928452 
L 654.589139 212.09668 
L 655.255142 209.740288 
L 655.921146 210.520258 
L 656.587149 150.807155 
L 657.253153 164.169197 
L 657.919157 219.867528 
L 658.58516 200.027071 
L 659.251164 226.478839 
L 659.917167 245.843234 
L 660.583171 239.432353 
L 661.249174 244.832273 
L 661.915178 241.018618 
L 662.581182 288.643454 
L 663.247185 269.273451 
L 663.913189 270.310739 
L 664.579192 276.682359 
L 665.245196 306.075896 
L 665.9112 262.225797 
L 666.577203 258.04093 
L 667.243207 265.129105 
L 668.575214 322.275657 
L 669.907221 263.210202 
L 670.573225 252.498958 
L 671.239228 256.245879 
L 671.905232 241.462402 
L 672.571235 267.492937 
L 673.237239 260.263969 
L 673.903242 307.126005 
L 674.569246 284.259303 
L 675.23525 295.294485 
L 675.901253 297.274055 
L 676.567257 320.040142 
L 677.23326 275.474631 
L 677.899264 291.29345 
L 679.897275 269.239684 
L 680.563278 319.468729 
L 681.229282 268.97481 
L 681.895285 292.64323 
L 682.561289 331.056323 
L 683.227293 347.52027 
L 683.893296 297.809068 
L 684.5593 329.008416 
L 685.225303 289.58173 
L 685.891307 351.527257 
L 686.557311 360.211314 
L 687.223314 327.929348 
L 687.889318 337.326068 
L 688.555321 331.238781 
L 689.221325 283.025591 
L 689.887328 300.488252 
L 690.553332 266.499489 
L 691.219336 261.999841 
L 691.885339 303.646133 
L 692.551343 303.924513 
L 693.217346 274.451193 
L 693.88335 258.679649 
L 694.549353 270.639485 
L 695.215357 267.853847 
L 695.881361 263.427114 
L 696.547364 240.995153 
L 697.213368 251.396882 
L 697.879371 272.532977 
L 698.545375 313.683632 
L 699.211379 283.146696 
L 699.877382 268.092165 
L 700.543386 287.745471 
L 701.209389 287.42634 
L 701.875393 293.453647 
L 702.541396 293.668843 
L 703.2074 321.198764 
L 703.873404 291.502808 
L 705.205411 336.927498 
L 705.871414 341.474992 
L 706.537418 322.713145 
L 707.203422 325.045384 
L 707.869425 301.390815 
L 708.535429 309.469691 
L 709.201432 307.875755 
L 709.867436 238.710875 
L 710.533439 214.602678 
L 711.199443 256.984526 
L 711.865447 250.322163 
L 712.53145 235.142063 
L 713.197454 234.508953 
L 713.863457 217.832099 
L 714.529461 211.799527 
L 715.195464 231.956024 
L 715.861468 261.610429 
L 716.527472 249.855143 
L 717.193475 218.955008 
L 717.859479 242.679859 
L 718.525482 274.512203 
L 719.191486 275.030619 
L 719.85749 308.619783 
L 720.523493 265.429807 
L 721.189497 268.048668 
L 721.8555 237.402417 
L 722.521504 298.583314 
L 723.187507 289.514882 
L 723.853511 260.954311 
L 724.519515 276.926743 
L 725.185518 328.683906 
L 725.851522 273.778936 
L 726.517525 282.935392 
L 727.183529 311.499855 
L 727.849533 298.624979 
L 728.515536 281.839726 
L 729.18154 310.093758 
L 729.847543 259.122631 
L 730.513547 316.233012 
L 731.17955 268.776784 
L 731.845554 285.400526 
L 732.511558 245.291051 
L 733.177561 246.456312 
L 733.843565 229.841155 
L 734.509568 239.051754 
L 735.175572 223.656115 
L 735.841575 233.500281 
L 736.507579 296.378017 
L 737.173583 279.930896 
L 737.839586 245.117521 
L 738.50559 270.086386 
L 739.171593 300.689827 
L 739.837597 255.361631 
L 740.503601 256.069372 
L 741.169604 259.055554 
L 741.835608 244.49002 
L 742.501611 282.521255 
L 743.167615 294.563392 
L 743.833618 329.412824 
L 744.499622 316.808202 
L 745.165626 338.46214 
L 745.831629 315.520577 
L 746.497633 341.688814 
L 747.163636 336.232119 
L 747.163636 336.232119 
" clip-path="url(#p82aba360c4)" style="fill: none; stroke: #1f77b4; stroke-width: 1.5; stroke-linecap: square"/>
   </g>
   <g id="patch_3">
    <path d="M 108 512.64 
L 108 69.12 
" style="fill: none; stroke: #000000; stroke-width: 0.8; stroke-linejoin: miter; stroke-linecap: square"/>
   </g>
   <g id="patch_4">
    <path d="M 777.6 512.64 
L 777.6 69.12 
" style="fill: none; stroke: #000000; stroke-width: 0.8; stroke-linejoin: miter; stroke-linecap: square"/>
   </g>
   <g id="patch_5">
    <path d="M 108 512.64 
L 777.6 512.64 
" style="fill: none; stroke: #000000; stroke-width: 0.8; stroke-linejoin: miter; stroke-linecap: square"/>
   </g>
   <g id="patch_6">
    <path d="M 108 69.12 
L 777.6 69.12 
" style="fill: none; stroke: #000000; stroke-width: 0.8; stroke-linejoin: miter; stroke-linecap: square"/>
   </g>
   <g id="text_13">
    <!-- Discriminator loss across training steps -->
    <g transform="translate(253.8075 63.12)scale(0.192 -0.192)">
     <defs>
      <path id="DejaVuSans-44" d="M 1259 4147 
L 1259 519 
L 2022 519 
Q 2988 519 3436 956 
Q 3884 1394 3884 2338 
Q 3884 3275 3436 3711 
Q 2988 4147 2022 4147 
L 1259 4147 
z
M 628 4666 
L 1925 4666 
Q 3281 4666 3915 4102 
Q 4550 3538 4550 2338 
Q 4550 1131 3912 565 
Q 3275 0 1925 0 
L 628 0 
L 628 4666 
z
" transform="scale(0.015625)"/>
      <path id="DejaVuSans-63" d="M 3122 3366 
L 3122 2828 
Q 2878 2963 2633 3030 
Q 2388 3097 2138 3097 
Q 1578 3097 1268 2742 
Q 959 2388 959 1747 
Q 959 1106 1268 751 
Q 1578 397 2138 397 
Q 2388 397 2633 464 
Q 2878 531 3122 666 
L 3122 134 
Q 2881 22 2623 -34 
Q 2366 -91 2075 -91 
Q 1284 -91 818 406 
Q 353 903 353 1747 
Q 353 2603 823 3093 
Q 1294 3584 2113 3584 
Q 2378 3584 2631 3529 
Q 2884 3475 3122 3366 
z
" transform="scale(0.015625)"/>
      <path id="DejaVuSans-6d" d="M 3328 2828 
Q 3544 3216 3844 3400 
Q 4144 3584 4550 3584 
Q 5097 3584 5394 3201 
Q 5691 2819 5691 2113 
L 5691 0 
L 5113 0 
L 5113 2094 
Q 5113 2597 4934 2840 
Q 4756 3084 4391 3084 
Q 3944 3084 3684 2787 
Q 3425 2491 3425 1978 
L 3425 0 
L 2847 0 
L 2847 2094 
Q 2847 2600 2669 2842 
Q 2491 3084 2119 3084 
Q 1678 3084 1418 2786 
Q 1159 2488 1159 1978 
L 1159 0 
L 581 0 
L 581 3500 
L 1159 3500 
L 1159 2956 
Q 1356 3278 1631 3431 
Q 1906 3584 2284 3584 
Q 2666 3584 2933 3390 
Q 3200 3197 3328 2828 
z
" transform="scale(0.015625)"/>
      <path id="DejaVuSans-6c" d="M 603 4863 
L 1178 4863 
L 1178 0 
L 603 0 
L 603 4863 
z
" transform="scale(0.015625)"/>
     </defs>
     <use xlink:href="#DejaVuSans-44"/>
     <use xlink:href="#DejaVuSans-69" x="77.001953"/>
     <use xlink:href="#DejaVuSans-73" x="104.785156"/>
     <use xlink:href="#DejaVuSans-63" x="156.884766"/>
     <use xlink:href="#DejaVuSans-72" x="211.865234"/>
     <use xlink:href="#DejaVuSans-69" x="252.978516"/>
     <use xlink:href="#DejaVuSans-6d" x="280.761719"/>
     <use xlink:href="#DejaVuSans-69" x="378.173828"/>
     <use xlink:href="#DejaVuSans-6e" x="405.957031"/>
     <use xlink:href="#DejaVuSans-61" x="469.335938"/>
     <use xlink:href="#DejaVuSans-74" x="530.615234"/>
     <use xlink:href="#DejaVuSans-6f" x="569.824219"/>
     <use xlink:href="#DejaVuSans-72" x="631.005859"/>
     <use xlink:href="#DejaVuSans-20" x="672.119141"/>
     <use xlink:href="#DejaVuSans-6c" x="703.90625"/>
     <use xlink:href="#DejaVuSans-6f" x="731.689453"/>
     <use xlink:href="#DejaVuSans-73" x="792.871094"/>
     <use xlink:href="#DejaVuSans-73" x="844.970703"/>
     <use xlink:href="#DejaVuSans-20" x="897.070312"/>
     <use xlink:href="#DejaVuSans-61" x="928.857422"/>
     <use xlink:href="#DejaVuSans-63" x="990.136719"/>
     <use xlink:href="#DejaVuSans-72" x="1045.117188"/>
     <use xlink:href="#DejaVuSans-6f" x="1083.980469"/>
     <use xlink:href="#DejaVuSans-73" x="1145.162109"/>
     <use xlink:href="#DejaVuSans-73" x="1197.261719"/>
     <use xlink:href="#DejaVuSans-20" x="1249.361328"/>
     <use xlink:href="#DejaVuSans-74" x="1281.148438"/>
     <use xlink:href="#DejaVuSans-72" x="1320.357422"/>
     <use xlink:href="#DejaVuSans-61" x="1361.470703"/>
     <use xlink:href="#DejaVuSans-69" x="1422.75"/>
     <use xlink:href="#DejaVuSans-6e" x="1450.533203"/>
     <use xlink:href="#DejaVuSans-69" x="1513.912109"/>
     <use xlink:href="#DejaVuSans-6e" x="1541.695312"/>
     <use xlink:href="#DejaVuSans-67" x="1605.074219"/>
     <use xlink:href="#DejaVuSans-20" x="1668.550781"/>
     <use xlink:href="#DejaVuSans-73" x="1700.337891"/>
     <use xlink:href="#DejaVuSans-74" x="1752.4375"/>
     <use xlink:href="#DejaVuSans-65" x="1791.646484"/>
     <use xlink:href="#DejaVuSans-70" x="1853.169922"/>
     <use xlink:href="#DejaVuSans-73" x="1916.646484"/>
    </g>
   </g>
   <g id="legend_1">
    <g id="patch_7">
     <path d="M 119.2 105.405 
L 218.71 105.405 
Q 221.91 105.405 221.91 102.205 
L 221.91 80.32 
Q 221.91 77.12 218.71 77.12 
L 119.2 77.12 
Q 116 77.12 116 80.32 
L 116 102.205 
Q 116 105.405 119.2 105.405 
z
" style="fill: #ffffff; opacity: 0.8; stroke: #cccccc; stroke-linejoin: miter"/>
    </g>
    <g id="line2d_12">
     <path d="M 122.4 90.0775 
L 138.4 90.0775 
L 154.4 90.0775 
" style="fill: none; stroke: #1f77b4; stroke-width: 1.5; stroke-linecap: square"/>
    </g>
    <g id="text_14">
     <!-- D loss -->
     <g transform="translate(167.2 95.6775)scale(0.16 -0.16)">
      <use xlink:href="#DejaVuSans-44"/>
      <use xlink:href="#DejaVuSans-20" x="77.001953"/>
      <use xlink:href="#DejaVuSans-6c" x="108.789062"/>
      <use xlink:href="#DejaVuSans-6f" x="136.572266"/>
      <use xlink:href="#DejaVuSans-73" x="197.753906"/>
      <use xlink:href="#DejaVuSans-73" x="249.853516"/>
     </g>
    </g>
   </g>
  </g>
 </g>
 <defs>
  <clipPath id="p82aba360c4">
   <rect x="108" y="69.12" width="669.6" height="443.52"/>
  </clipPath>
 </defs>
</svg>
